<svg height="600" viewBox="0 0 800 600" width="800" xmlns="http://www.w3.org/2000/svg">
<rect fill="#24273a" height="100%" width="100%"/>
<text text-rendering="optimizeLegibility" transform="matrix(1 0 0 1 400 32.851997)">

<tspan text-anchor="middle" x="0">
<tspan font-family="sans-serif" font-size="20" font-stretch="normal" font-style="normal" font-weight="400">
<tspan fill="#cad3f5">Bode diagram of RLC circuit</tspan>
</tspan>
</tspan>
<tspan dy="24.515999" text-anchor="middle" x="0">
<tspan font-family="serif" font-size="18" font-stretch="normal" font-style="italic" font-weight="400">
<tspan fill="#cad3f5">L = 0.1 mH / C = 1 µF</tspan>
</tspan>
</tspan>
</text>
<rect fill="#363a4f" height="89.118004" stroke="#939ab7" stroke-width="1" width="108.291" x="671.709" y="283.509"/>
<path d="M679.709,300.362 L704.709,300.362" fill="none" stroke="#8aadf4" stroke-width="1.5"/>
<text dominant-baseline="middle" fill="#cad3f5" font-family="sans-serif" font-size="13" font-stretch="normal" font-style="normal" font-weight="400" text-anchor="start" text-rendering="optimizeLegibility" transform="matrix(1 0 0 1 714.709 300.362)">
R = 1 Ω
</text>
<path d="M679.709,328.068 L704.709,328.068" fill="none" stroke="#f5a97f" stroke-width="1.5"/>
<text dominant-baseline="middle" fill="#cad3f5" font-family="sans-serif" font-size="13" font-stretch="normal" font-style="normal" font-weight="400" text-anchor="start" text-rendering="optimizeLegibility" transform="matrix(1 0 0 1 714.709 328.068)">
R = 10 Ω
</text>
<path d="M679.709,355.77402 L704.709,355.77402" fill="none" stroke="#a6da95" stroke-width="1.5"/>
<text dominant-baseline="middle" fill="#cad3f5" font-family="sans-serif" font-size="13" font-stretch="normal" font-style="normal" font-weight="400" text-anchor="start" text-rendering="optimizeLegibility" transform="matrix(1 0 0 1 714.709 355.77402)">
R = 100 Ω
</text>
<path d="M85.464005,297.02127 L659.709,297.02127" fill="none" stroke="#5b6078" stroke-width="1"/>
<path d="M85.464005,256.79874 L659.709,256.79874" fill="none" stroke="#5b6078" stroke-width="1"/>
<path d="M85.464005,216.5762 L659.709,216.5762" fill="none" stroke="#5b6078" stroke-width="1"/>
<path d="M85.464005,176.35367 L659.709,176.35367" fill="none" stroke="#5b6078" stroke-width="1"/>
<path d="M85.464005,136.13113 L659.709,136.13113" fill="none" stroke="#5b6078" stroke-width="1"/>
<path d="M85.464005,95.9086 L659.709,95.9086" fill="none" stroke="#5b6078" stroke-width="1"/>
<path d="M399.54187,76.135994 L399.54187,301" fill="none" stroke="#cad3f5" stroke-dasharray="5 5" stroke-width="1"/>
<path d="M659.709,292.83032 L299.93216,76.135994" fill="none" stroke="#cad3f5" stroke-dasharray="5 5" stroke-width="1"/>
<clipPath id="eidoplot-clip1">
<rect height="224.86401" width="574.245" x="85.464005" y="76.135994"/>
</clipPath>
<g clip-path="url(#eidoplot-clip1)">
<path d="M105.464005,136.13045 L106.53464,136.13043 L107.60527,136.1304 L108.675896,136.13037 L109.74653,136.13034 L110.81716,136.13033 L111.887794,136.13028 L112.95842,136.13025 L114.02905,136.13022 L115.099686,136.13019 L116.17032,136.13014 L117.24095,136.13011 L118.311584,136.13007 L119.38221,136.13002 L120.45284,136.12999 L121.523476,136.12994 L122.5941,136.1299 L123.664734,136.12985 L124.73537,136.1298 L125.806,136.12976 L126.87663,136.1297 L127.94726,136.12965 L129.01788,136.1296 L130.08853,136.12953 L131.15915,136.12947 L132.22978,136.12941 L133.30042,136.12933 L134.37105,136.12927 L135.44168,136.12921 L136.51231,136.12914 L137.58295,136.12906 L138.65358,136.12898 L139.72421,136.12889 L140.79483,136.12881 L141.86546,136.12872 L142.9361,136.12865 L144.00673,136.12856 L145.07736,136.12845 L146.148,136.12834 L147.21863,136.12823 L148.28925,136.12813 L149.3599,136.12802 L150.43051,136.1279 L151.50116,136.12779 L152.57178,136.12766 L153.64241,136.12753 L154.71304,136.12738 L155.78366,136.12724 L156.85431,136.1271 L157.92493,136.12695 L158.99557,136.1268 L160.0662,136.12663 L161.13683,136.12646 L162.20746,136.12628 L163.27809,136.1261 L164.34872,136.12592 L165.41934,136.1257 L166.48999,136.1255 L167.56061,136.12529 L168.63126,136.12508 L169.70187,136.12485 L170.7725,136.1246 L171.84314,136.12437 L172.91377,136.12411 L173.9844,136.12384 L175.05504,136.12358 L176.12567,136.12329 L177.19629,136.123 L178.26694,136.1227 L179.33755,136.12238 L180.4082,136.12206 L181.47882,136.1217 L182.54945,136.12135 L183.62009,136.12097 L184.69072,136.1206 L185.76135,136.1202 L186.83197,136.11978 L187.90262,136.11935 L188.97324,136.11891 L190.04388,136.11845 L191.1145,136.11798 L192.18513,136.1175 L193.25577,136.11697 L194.3264,136.11644 L195.39703,136.11589 L196.46767,136.11531 L197.5383,136.11472 L198.60892,136.1141 L199.67955,136.11346 L200.75018,136.1128 L201.82082,136.1121 L202.89145,136.11137 L203.96207,136.11064 L205.03271,136.10986 L206.10333,136.10907 L207.17398,136.10825 L208.2446,136.10739 L209.31523,136.10649 L210.38586,136.10556 L211.4565,136.1046 L212.52713,136.10359 L213.59776,136.10255 L214.6684,136.10149 L215.73903,136.10036 L216.80966,136.09921 L217.8803,136.098 L218.95093,136.09676 L220.02155,136.09547 L221.09218,136.09413 L222.16281,136.09274 L223.23344,136.0913 L224.30408,136.08978 L225.3747,136.08823 L226.44533,136.08661 L227.51596,136.08493 L228.5866,136.08319 L229.65723,136.08139 L230.72786,136.07953 L231.7985,136.07758 L232.86913,136.07556 L233.93974,136.07346 L235.01039,136.07129 L236.08101,136.06905 L237.15166,136.0667 L238.22227,136.06427 L239.29291,136.06175 L240.36354,136.05914 L241.43417,136.05641 L242.5048,136.0536 L243.57544,136.05067 L244.64606,136.04765 L245.7167,136.0445 L246.78732,136.04123 L247.85797,136.03784 L248.92859,136.03433 L249.99922,136.03069 L251.06985,136.02689 L252.14049,136.02296 L253.21112,136.01888 L254.28175,136.01463 L255.35237,136.01024 L256.42303,136.00569 L257.49365,136.00095 L258.56427,135.99603 L259.6349,135.99092 L260.7055,135.98564 L261.77618,135.98013 L262.8468,135.97443 L263.91742,135.96852 L264.98804,135.96237 L266.0587,135.956 L267.12933,135.94937 L268.19995,135.9425 L269.27057,135.93538 L270.34122,135.92796 L271.41183,135.92029 L272.48248,135.9123 L273.5531,135.904 L274.62375,135.89542 L275.69437,135.88649 L276.765,135.87721 L277.83563,135.86761 L278.90625,135.85762 L279.9769,135.84724 L281.04755,135.83649 L282.11816,135.8253 L283.18878,135.8137 L284.2594,135.80165 L285.33008,135.78914 L286.4007,135.77615 L287.4713,135.76266 L288.54193,135.74866 L289.61258,135.7341 L290.68323,135.719 L291.75385,135.70331 L292.82446,135.68701 L293.8951,135.6701 L294.96573,135.65251 L296.03638,135.63426 L297.107,135.61531 L298.17764,135.59561 L299.24826,135.57515 L300.3189,135.5539 L301.38953,135.53183 L302.46014,135.50888 L303.5308,135.48505 L304.60144,135.46028 L305.67206,135.43456 L306.74268,135.40782 L307.8133,135.38002 L308.88397,135.35115 L309.9546,135.32114 L311.0252,135.28995 L312.09583,135.2575 L313.16644,135.2238 L314.23712,135.18875 L315.30774,135.15231 L316.37836,135.11441 L317.44897,135.07503 L318.51962,135.03406 L319.59027,134.99142 L320.6609,134.94711 L321.7315,134.90099 L322.80215,134.85301 L323.87277,134.8031 L324.94342,134.75117 L326.01404,134.6971 L327.08466,134.64084 L328.1553,134.58226 L329.22595,134.5213 L330.29657,134.4578 L331.3672,134.39168 L332.4378,134.3228 L333.50848,134.25105 L334.5791,134.17628 L335.64972,134.09839 L336.72034,134.0172 L337.791,133.93254 L338.86163,133.84428 L339.93225,133.75224 L341.00287,133.65623 L342.0735,133.55605 L343.14417,133.45149 L344.21478,133.34236 L345.2854,133.22841 L346.35602,133.10939 L347.4267,132.98503 L348.4973,132.85509 L349.56793,132.71922 L350.63855,132.57716 L351.70923,132.42853 L352.77985,132.273 L353.85046,132.11014 L354.92108,131.93958 L355.9917,131.76083 L357.06238,131.57349 L358.133,131.37695 L359.2036,131.17072 L360.27423,130.95416 L361.34485,130.72662 L362.41553,130.48744 L363.48615,130.23581 L364.55676,129.97092 L365.62738,129.69183 L366.698,129.39757 L367.76868,129.08702 L368.8393,128.759 L369.9099,128.41214 L370.98053,128.04501 L372.0512,127.65596 L373.12183,127.243164 L374.19244,126.80458 L375.26306,126.33792 L376.33374,125.84061 L377.40436,125.30969 L378.47498,124.74187 L379.5456,124.1333 L380.61627,123.47958 L381.68683,122.775635 L382.7575,122.0155 L383.82813,121.1922 L384.8988,120.2975 L385.96936,119.3215 L387.04004,118.25241 L388.11066,117.0759 L389.18127,115.77449 L390.2519,114.32683 L391.32257,112.706894 L392.3932,110.88339 L393.4638,108.82056 L394.53442,106.48337 L395.6051,103.85626 L396.67572,101.00037 L397.74634,98.2025 L398.81696,96.219574 L399.88757,96.13599 L400.95825,98.20375 L402.02887,101.47415 L403.0995,105.006134 L404.1701,108.373276 L405.24078,111.45831 L406.3114,114.25954 L407.38202,116.80841 L408.45264,119.14143 L409.52332,121.2917 L410.59387,123.28708 L411.66455,125.1505 L412.73517,126.900696 L413.8058,128.55304 L414.8764,130.12016 L415.94708,131.61258 L417.0177,133.03906 L418.08832,134.40703 L419.15894,135.72276 L420.2296,136.99164 L421.30023,138.21826 L422.37085,139.4067 L423.44147,140.56041 L424.51215,141.68246 L425.58276,142.77556 L426.65338,143.8421 L427.724,144.8842 L428.79462,145.90375 L429.8653,146.90244 L430.9359,147.88184 L432.00653,148.84328 L433.07715,149.78802 L434.14783,150.71721 L435.21844,151.63188 L436.28906,152.53296 L437.35968,153.42131 L438.43036,154.29773 L439.50092,155.16293 L440.5716,156.01761 L441.6422,156.86237 L442.71283,157.69777 L443.78345,158.52434 L444.85413,159.3426 L445.92474,160.15298 L446.99536,160.95592 L448.06598,161.7518 L449.13666,162.541 L450.20728,163.32388 L451.2779,164.10072 L452.3485,164.87187 L453.41913,165.63762 L454.4898,166.39818 L455.56042,167.15385 L456.63104,167.90485 L457.70166,168.6514 L458.77234,169.39372 L459.84296,170.13199 L460.91357,170.86642 L461.9842,171.59718 L463.05487,172.32443 L464.1255,173.04832 L465.1961,173.76903 L466.26672,174.48668 L467.3374,175.20142 L468.40802,175.91333 L469.47864,176.62262 L470.54926,177.32932 L471.61987,178.03357 L472.69055,178.7355 L473.76117,179.43518 L474.8318,180.1327 L475.9024,180.82819 L476.97308,181.52168 L478.0437,182.21329 L479.11432,182.90309 L480.18494,183.59116 L481.2556,184.27756 L482.32617,184.96237 L483.39685,185.64563 L484.46747,186.32742 L485.5381,187.00781 L486.6087,187.68683 L487.67938,188.36456 L488.75,189.04105 L489.82062,189.71631 L490.89124,190.39044 L491.9619,191.06346 L493.03253,191.73541 L494.10315,192.40636 L495.17377,193.0763 L496.2444,193.74532 L497.31506,194.41342 L498.38568,195.08064 L499.4563,195.74704 L500.52692,196.41263 L501.5976,197.07742 L502.6682,197.7415 L503.73883,198.40485 L504.80945,199.0675 L505.88013,199.72952 L506.95068,200.39087 L508.02136,201.05164 L509.09198,201.71179 L510.16266,202.37137 L511.23322,203.03043 L512.3039,203.68895 L513.3745,204.34695 L514.4451,205.00449 L515.51575,205.66156 L516.5864,206.31816 L517.65704,206.97433 L518.72766,207.6301 L519.7983,208.28546 L520.86896,208.94043 L521.9396,209.59503 L523.0102,210.24927 L524.0808,210.90317 L525.1514,211.55673 L526.2221,212.20996 L527.2927,212.86292 L528.36334,213.51555 L529.43396,214.1679 L530.50464,214.81998 L531.57526,215.47179 L532.6459,216.12335 L533.7165,216.77466 L534.7872,217.42574 L535.8577,218.0766 L536.9284,218.7272 L537.999,219.37762 L539.0697,220.02785 L540.14026,220.67787 L541.21094,221.3277 L542.28156,221.97736 L543.3522,222.62683 L544.4228,223.27612 L545.49347,223.92526 L546.5641,224.57425 L547.6347,225.22308 L548.7053,225.87178 L549.776,226.52032 L550.8466,227.16873 L551.91724,227.81702 L552.98785,228.46518 L554.0585,229.11322 L555.12915,229.76114 L556.19977,230.40897 L557.2704,231.05666 L558.341,231.70425 L559.4117,232.35176 L560.4823,232.99918 L561.5529,233.64648 L562.62354,234.2937 L563.6942,234.94083 L564.7648,235.58788 L565.83545,236.23485 L566.90607,236.88174 L567.9767,237.52856 L569.0473,238.17532 L570.118,238.82199 L571.1886,239.4686 L572.2592,240.11516 L573.32983,240.76164 L574.4005,241.40807 L575.4711,242.05444 L576.54175,242.70076 L577.61237,243.34702 L578.683,243.99323 L579.75366,244.63939 L580.8243,245.2855 L581.8949,245.93158 L582.9655,246.57759 L584.0362,247.22357 L585.1068,247.86952 L586.1774,248.51541 L587.24805,249.16129 L588.3187,249.8071 L589.38934,250.4529 L590.45996,251.09865 L591.5306,251.74437 L592.60126,252.39006 L593.6719,253.03574 L594.7425,253.68137 L595.8131,254.32697 L596.8837,254.97253 L597.95435,255.61809 L599.025,256.2636 L600.09564,256.90912 L601.16626,257.5546 L602.2369,258.20004 L603.30756,258.84546 L604.3782,259.49088 L605.4488,260.13626 L606.5194,260.78165 L607.59,261.427 L608.6607,262.07233 L609.7313,262.71765 L610.80194,263.36295 L611.87256,264.00824 L612.94324,264.6535 L614.01385,265.29874 L615.0845,265.94397 L616.1551,266.5892 L617.22577,267.2344 L618.2963,267.8796 L619.367,268.5248 L620.4376,269.16998 L621.50824,269.81512 L622.57886,270.46027 L623.64954,271.1054 L624.72015,271.75055 L625.7908,272.39566 L626.8614,273.04077 L627.93207,273.68588 L629.0027,274.33096 L630.0733,274.97604 L631.1439,275.62112 L632.2146,276.26617 L633.2852,276.91122 L634.35583,277.55627 L635.42645,278.20132 L636.4971,278.84637 L637.56775,279.4914 L638.63837,280.1364 L639.709,280.78143" fill="none" stroke="#8aadf4" stroke-width="1.5"/>
<path d="M105.464005,136.13078 L106.53464,136.13077 L107.60527,136.13077 L108.675896,136.13075 L109.74653,136.13074 L110.81716,136.13072 L111.887794,136.1307 L112.95842,136.13069 L114.02905,136.13068 L115.099686,136.13066 L116.17032,136.13065 L117.24095,136.13063 L118.311584,136.1306 L119.38221,136.13058 L120.45284,136.13055 L121.523476,136.13054 L122.5941,136.13052 L123.664734,136.1305 L124.73537,136.13046 L125.806,136.13043 L126.87663,136.13042 L127.94726,136.13039 L129.01788,136.13036 L130.08853,136.13033 L131.15915,136.13031 L132.22978,136.13026 L133.30042,136.13023 L134.37105,136.1302 L135.44168,136.13017 L136.51231,136.13013 L137.58295,136.1301 L138.65358,136.13005 L139.72421,136.13 L140.79483,136.12997 L141.86546,136.12993 L142.9361,136.12988 L144.00673,136.12984 L145.07736,136.12978 L146.148,136.12975 L147.21863,136.12968 L148.28925,136.12962 L149.3599,136.12956 L150.43051,136.12952 L151.50116,136.12944 L152.57178,136.1294 L153.64241,136.12933 L154.71304,136.12926 L155.78366,136.12918 L156.85431,136.12912 L157.92493,136.12903 L158.99557,136.12895 L160.0662,136.12888 L161.13683,136.12878 L162.20746,136.1287 L163.27809,136.1286 L164.34872,136.12851 L165.41934,136.12842 L166.48999,136.12831 L167.56061,136.1282 L168.63126,136.1281 L169.70187,136.12798 L170.7725,136.12787 L171.84314,136.12773 L172.91377,136.12761 L173.9844,136.12747 L175.05504,136.12735 L176.12567,136.1272 L177.19629,136.12704 L178.26694,136.1269 L179.33755,136.12674 L180.4082,136.12657 L181.47882,136.12639 L182.54945,136.12622 L183.62009,136.12602 L184.69072,136.12584 L185.76135,136.12564 L186.83197,136.12544 L187.90262,136.12523 L188.97324,136.125 L190.04388,136.12477 L191.1145,136.12453 L192.18513,136.12428 L193.25577,136.12402 L194.3264,136.12375 L195.39703,136.12349 L196.46767,136.12318 L197.5383,136.1229 L198.60892,136.12259 L199.67955,136.12227 L200.75018,136.12193 L201.82082,136.12158 L202.89145,136.12122 L203.96207,136.12085 L205.03271,136.12047 L206.10333,136.12007 L207.17398,136.11964 L208.2446,136.11922 L209.31523,136.11876 L210.38586,136.1183 L211.4565,136.11781 L212.52713,136.11732 L213.59776,136.11679 L214.6684,136.11626 L215.73903,136.1157 L216.80966,136.11511 L217.8803,136.11452 L218.95093,136.1139 L220.02155,136.11325 L221.09218,136.11258 L222.16281,136.11188 L223.23344,136.11115 L224.30408,136.1104 L225.3747,136.10962 L226.44533,136.10883 L227.51596,136.10797 L228.5866,136.10712 L229.65723,136.1062 L230.72786,136.10527 L231.7985,136.10431 L232.86913,136.1033 L233.93974,136.10225 L235.01039,136.10117 L236.08101,136.10004 L237.15166,136.09888 L238.22227,136.09767 L239.29291,136.0964 L240.36354,136.09511 L241.43417,136.09375 L242.5048,136.09235 L243.57544,136.09088 L244.64606,136.08939 L245.7167,136.08781 L246.78732,136.0862 L247.85797,136.0845 L248.92859,136.08275 L249.99922,136.08095 L251.06985,136.07907 L252.14049,136.0771 L253.21112,136.07509 L254.28175,136.07298 L255.35237,136.07082 L256.42303,136.06854 L257.49365,136.0662 L258.56427,136.06377 L259.6349,136.06123 L260.7055,136.05862 L261.77618,136.05592 L262.8468,136.05309 L263.91742,136.05019 L264.98804,136.04715 L266.0587,136.044 L267.12933,136.04074 L268.19995,136.03737 L269.27057,136.03386 L270.34122,136.03023 L271.41183,136.02646 L272.48248,136.02255 L273.5531,136.01848 L274.62375,136.01428 L275.69437,136.00992 L276.765,136.00539 L277.83563,136.0007 L278.90625,135.99583 L279.9769,135.9908 L281.04755,135.98557 L282.11816,135.98013 L283.18878,135.9745 L284.2594,135.96867 L285.33008,135.96263 L286.4007,135.95636 L287.4713,135.94987 L288.54193,135.94313 L289.61258,135.93616 L290.68323,135.92891 L291.75385,135.9214 L292.82446,135.91362 L293.8951,135.90555 L294.96573,135.8972 L296.03638,135.88855 L297.107,135.87956 L298.17764,135.87025 L299.24826,135.86061 L300.3189,135.85063 L301.38953,135.84029 L302.46014,135.82956 L303.5308,135.81845 L304.60144,135.80693 L305.67206,135.79501 L306.74268,135.78265 L307.8133,135.76987 L308.88397,135.75664 L309.9546,135.74292 L311.0252,135.72871 L312.09583,135.714 L313.16644,135.69879 L314.23712,135.68303 L315.30774,135.66673 L316.37836,135.64986 L317.44897,135.6324 L318.51962,135.61433 L319.59027,135.59564 L320.6609,135.57632 L321.7315,135.55634 L322.80215,135.53568 L323.87277,135.51431 L324.94342,135.49223 L326.01404,135.4694 L327.08466,135.44583 L328.1553,135.42148 L329.22595,135.39633 L330.29657,135.37038 L331.3672,135.34358 L332.4378,135.31593 L333.50848,135.28741 L334.5791,135.258 L335.64972,135.22769 L336.72034,135.19646 L337.791,135.16428 L338.86163,135.13115 L339.93225,135.09706 L341.00287,135.062 L342.0735,135.02596 L343.14417,134.98892 L344.21478,134.9509 L345.2854,134.91188 L346.35602,134.87189 L347.4267,134.8309 L348.4973,134.78896 L349.56793,134.74606 L350.63855,134.70224 L351.70923,134.65752 L352.77985,134.61192 L353.85046,134.56552 L354.92108,134.51837 L355.9917,134.47054 L357.06238,134.42207 L358.133,134.3731 L359.2036,134.3237 L360.27423,134.274 L361.34485,134.22415 L362.41553,134.1743 L363.48615,134.12463 L364.55676,134.07535 L365.62738,134.02669 L366.698,133.9789 L367.76868,133.93227 L368.8393,133.88713 L369.9099,133.84384 L370.98053,133.80281 L372.0512,133.76447 L373.12183,133.7293 L374.19244,133.69781 L375.26306,133.67065 L376.33374,133.64842 L377.40436,133.6318 L378.47498,133.62157 L379.5456,133.6185 L380.61627,133.62346 L381.68683,133.63734 L382.7575,133.66115 L383.82813,133.69585 L384.8988,133.74251 L385.96936,133.80219 L387.04004,133.87602 L388.11066,133.96512 L389.18127,134.07057 L390.2519,134.1935 L391.32257,134.33496 L392.3932,134.49597 L393.4638,134.67747 L394.53442,134.88033 L395.6051,135.10526 L396.67572,135.35294 L397.74634,135.62384 L398.81696,135.9183 L399.88757,136.2365 L400.95825,136.5785 L402.02887,136.94414 L403.0995,137.33315 L404.1701,137.74507 L405.24078,138.17932 L406.3114,138.63521 L407.38202,139.1119 L408.45264,139.60847 L409.52332,140.12395 L410.59387,140.65729 L411.66455,141.20737 L412.73517,141.77312 L413.8058,142.35338 L414.8764,142.9471 L415.94708,143.55313 L417.0177,144.17044 L418.08832,144.79802 L419.15894,145.43484 L420.2296,146.08002 L421.30023,146.73268 L422.37085,147.39197 L423.44147,148.05714 L424.51215,148.7275 L425.58276,149.40234 L426.65338,150.08112 L427.724,150.76324 L428.79462,151.44823 L429.8653,152.13562 L430.9359,152.825 L432.00653,153.51598 L433.07715,154.20824 L434.14783,154.90149 L435.21844,155.59543 L436.28906,156.28984 L437.35968,156.98448 L438.43036,157.67921 L439.50092,158.37384 L440.5716,159.0682 L441.6422,159.76219 L442.71283,160.4557 L443.78345,161.14862 L444.85413,161.84087 L445.92474,162.5324 L446.99536,163.22311 L448.06598,163.91301 L449.13666,164.60199 L450.20728,165.29007 L451.2779,165.97722 L452.3485,166.66339 L453.41913,167.34859 L454.4898,168.0328 L455.56042,168.71603 L456.63104,169.39827 L457.70166,170.07951 L458.77234,170.75977 L459.84296,171.43906 L460.91357,172.11736 L461.9842,172.79472 L463.05487,173.47113 L464.1255,174.14664 L465.1961,174.82121 L466.26672,175.49489 L467.3374,176.1677 L468.40802,176.83965 L469.47864,177.51074 L470.54926,178.18103 L471.61987,178.85051 L472.69055,179.51921 L473.76117,180.18713 L474.8318,180.85434 L475.9024,181.5208 L476.97308,182.18655 L478.0437,182.85164 L479.11432,183.51604 L480.18494,184.17981 L481.2556,184.84294 L482.32617,185.50546 L483.39685,186.16739 L484.46747,186.82875 L485.5381,187.48953 L486.6087,188.1498 L487.67938,188.80954 L488.75,189.46875 L489.82062,190.1275 L490.89124,190.78577 L491.9619,191.44354 L493.03253,192.1009 L494.10315,192.75783 L495.17377,193.41434 L496.2444,194.07043 L497.31506,194.72614 L498.38568,195.38147 L499.4563,196.03644 L500.52692,196.69106 L501.5976,197.34532 L502.6682,197.99927 L503.73883,198.6529 L504.80945,199.3062 L505.88013,199.95923 L506.95068,200.61194 L508.02136,201.2644 L509.09198,201.91658 L510.16266,202.56851 L511.23322,203.22018 L512.3039,203.87161 L513.3745,204.52281 L514.4451,205.1738 L515.51575,205.82454 L516.5864,206.4751 L517.65704,207.12543 L518.72766,207.77557 L519.7983,208.42554 L520.86896,209.07532 L521.9396,209.72491 L523.0102,210.37436 L524.0808,211.02362 L525.1514,211.67273 L526.2221,212.32169 L527.2927,212.9705 L528.36334,213.61917 L529.43396,214.2677 L530.50464,214.9161 L531.57526,215.56439 L532.6459,216.21252 L533.7165,216.86057 L534.7872,217.50848 L535.8577,218.1563 L536.9284,218.804 L537.999,219.4516 L539.0697,220.0991 L540.14026,220.7465 L541.21094,221.39383 L542.28156,222.04105 L543.3522,222.6882 L544.4228,223.33524 L545.49347,223.98222 L546.5641,224.62912 L547.6347,225.27596 L548.7053,225.9227 L549.776,226.5694 L550.8466,227.21602 L551.91724,227.86258 L552.98785,228.50906 L554.0585,229.15552 L555.12915,229.80188 L556.19977,230.44821 L557.2704,231.09448 L558.341,231.7407 L559.4117,232.38687 L560.4823,233.033 L561.5529,233.67908 L562.62354,234.3251 L563.6942,234.9711 L564.7648,235.61705 L565.83545,236.26295 L566.90607,236.90883 L567.9767,237.55466 L569.0473,238.20047 L570.118,238.84622 L571.1886,239.49196 L572.2592,240.13766 L573.32983,240.78333 L574.4005,241.42897 L575.4711,242.07458 L576.54175,242.72015 L577.61237,243.36572 L578.683,244.01125 L579.75366,244.65675 L580.8243,245.30223 L581.8949,245.9477 L582.9655,246.59314 L584.0362,247.23856 L585.1068,247.88394 L586.1774,248.52933 L587.24805,249.17468 L588.3187,249.82002 L589.38934,250.46533 L590.45996,251.11064 L591.5306,251.75594 L592.60126,252.4012 L593.6719,253.04646 L594.7425,253.6917 L595.8131,254.33693 L596.8837,254.98215 L597.95435,255.62735 L599.025,256.27252 L600.09564,256.91772 L601.16626,257.56287 L602.2369,258.20804 L603.30756,258.85315 L604.3782,259.4983 L605.4488,260.14343 L606.5194,260.78854 L607.59,261.43362 L608.6607,262.07874 L609.7313,262.72382 L610.80194,263.3689 L611.87256,264.01395 L612.94324,264.659 L614.01385,265.30408 L615.0845,265.9491 L616.1551,266.59415 L617.22577,267.23917 L618.2963,267.88422 L619.367,268.5292 L620.4376,269.17422 L621.50824,269.81924 L622.57886,270.46423 L623.64954,271.10922 L624.72015,271.7542 L625.7908,272.3992 L626.8614,273.0442 L627.93207,273.68915 L629.0027,274.33414 L630.0733,274.9791 L631.1439,275.62405 L632.2146,276.269 L633.2852,276.91397 L634.35583,277.55893 L635.42645,278.20386 L636.4971,278.84882 L637.56775,279.49374 L638.63837,280.13867 L639.709,280.78363" fill="none" stroke="#f5a97f" stroke-width="1.5"/>
<path d="M105.464005,136.16486 L106.53464,136.16614 L107.60527,136.16745 L108.675896,136.16881 L109.74653,136.17021 L110.81716,136.17168 L111.887794,136.1732 L112.95842,136.17479 L114.02905,136.17642 L115.099686,136.17812 L116.17032,136.17989 L117.24095,136.1817 L118.311584,136.18361 L119.38221,136.18556 L120.45284,136.18762 L121.523476,136.18973 L122.5941,136.19193 L123.664734,136.1942 L124.73537,136.19656 L125.806,136.19902 L126.87663,136.20155 L127.94726,136.2042 L129.01788,136.20692 L130.08853,136.20978 L131.15915,136.2127 L132.22978,136.21576 L133.30042,136.21893 L134.37105,136.22221 L135.44168,136.22563 L136.51231,136.22916 L137.58295,136.23282 L138.65358,136.23662 L139.72421,136.24055 L140.79483,136.24464 L141.86546,136.2489 L142.9361,136.2533 L144.00673,136.25784 L145.07736,136.26257 L146.148,136.26749 L147.21863,136.27257 L148.28925,136.27785 L149.3599,136.28331 L150.43051,136.28899 L151.50116,136.29486 L152.57178,136.30096 L153.64241,136.30728 L154.71304,136.31383 L155.78366,136.32063 L156.85431,136.32768 L157.92493,136.33498 L158.99557,136.34256 L160.0662,136.3504 L161.13683,136.35855 L162.20746,136.36699 L163.27809,136.37573 L164.34872,136.3848 L165.41934,136.3942 L166.48999,136.40395 L167.56061,136.41403 L168.63126,136.42448 L169.70187,136.43533 L170.7725,136.44656 L171.84314,136.4582 L172.91377,136.47028 L173.9844,136.48277 L175.05504,136.49573 L176.12567,136.50914 L177.19629,136.52304 L178.26694,136.53745 L179.33755,136.55237 L180.4082,136.56781 L181.47882,136.5838 L182.54945,136.60039 L183.62009,136.61755 L184.69072,136.63533 L185.76135,136.65373 L186.83197,136.67278 L187.90262,136.6925 L188.97324,136.71294 L190.04388,136.73407 L191.1145,136.75595 L192.18513,136.77861 L193.25577,136.80203 L194.3264,136.82628 L195.39703,136.85138 L196.46767,136.87733 L197.5383,136.90419 L198.60892,136.93198 L199.67955,136.9607 L200.75018,136.99042 L201.82082,137.02113 L202.89145,137.0529 L203.96207,137.08572 L205.03271,137.11967 L206.10333,137.15474 L207.17398,137.191 L208.2446,137.22845 L209.31523,137.26714 L210.38586,137.3071 L211.4565,137.34837 L212.52713,137.391 L213.59776,137.43501 L214.6684,137.48044 L215.73903,137.52733 L216.80966,137.57571 L217.8803,137.62564 L218.95093,137.67715 L220.02155,137.73029 L221.09218,137.78506 L222.16281,137.84154 L223.23344,137.89977 L224.30408,137.95975 L225.3747,138.02158 L226.44533,138.08527 L227.51596,138.15088 L228.5866,138.21843 L229.65723,138.28796 L230.72786,138.35954 L231.7985,138.4332 L232.86913,138.50897 L233.93974,138.5869 L235.01039,138.66704 L236.08101,138.74942 L237.15166,138.83409 L238.22227,138.92108 L239.29291,139.01044 L240.36354,139.10219 L241.43417,139.1964 L242.5048,139.29308 L243.57544,139.39227 L244.64606,139.49403 L245.7167,139.59837 L246.78732,139.70534 L247.85797,139.81494 L248.92859,139.92725 L249.99922,140.04228 L251.06985,140.16005 L252.14049,140.2806 L253.21112,140.40393 L254.28175,140.5301 L255.35237,140.6591 L256.42303,140.79099 L257.49365,140.92575 L258.56427,141.06343 L259.6349,141.20401 L260.7055,141.34755 L261.77618,141.49402 L262.8468,141.64345 L263.91742,141.79584 L264.98804,141.9512 L266.0587,142.10954 L267.12933,142.27084 L268.19995,142.43513 L269.27057,142.60242 L270.34122,142.77264 L271.41183,142.94585 L272.48248,143.12201 L273.5531,143.3011 L274.62375,143.48314 L275.69437,143.66809 L276.765,143.85596 L277.83563,144.0467 L278.90625,144.24031 L279.9769,144.4368 L281.04755,144.63608 L282.11816,144.83815 L283.18878,145.04301 L284.2594,145.25063 L285.33008,145.46095 L286.4007,145.67397 L287.4713,145.88963 L288.54193,146.10793 L289.61258,146.3288 L290.68323,146.55223 L291.75385,146.77818 L292.82446,147.0066 L293.8951,147.23749 L294.96573,147.47076 L296.03638,147.7064 L297.107,147.94438 L298.17764,148.18465 L299.24826,148.42714 L300.3189,148.67184 L301.38953,148.91872 L302.46014,149.16771 L303.5308,149.41878 L304.60144,149.67189 L305.67206,149.92699 L306.74268,150.18404 L307.8133,150.443 L308.88397,150.70383 L309.9546,150.9665 L311.0252,151.23094 L312.09583,151.49713 L313.16644,151.76501 L314.23712,152.03458 L315.30774,152.30576 L316.37836,152.5785 L317.44897,152.85281 L318.51962,153.12862 L319.59027,153.40588 L320.6609,153.68459 L321.7315,153.96468 L322.80215,154.24612 L323.87277,154.52888 L324.94342,154.81291 L326.01404,155.0982 L327.08466,155.38472 L328.1553,155.6724 L329.22595,155.96121 L330.29657,156.25116 L331.3672,156.54218 L332.4378,156.83426 L333.50848,157.12735 L334.5791,157.42143 L335.64972,157.71649 L336.72034,158.01247 L337.791,158.30937 L338.86163,158.60715 L339.93225,158.90576 L341.00287,159.20522 L342.0735,159.5055 L343.14417,159.80653 L344.21478,160.10832 L345.2854,160.41086 L346.35602,160.71411 L347.4267,161.01805 L348.4973,161.32265 L349.56793,161.62791 L350.63855,161.93379 L351.70923,162.2403 L352.77985,162.5474 L353.85046,162.85506 L354.92108,163.16328 L355.9917,163.47205 L357.06238,163.78134 L358.133,164.09114 L359.2036,164.40144 L360.27423,164.71222 L361.34485,165.02347 L362.41553,165.33516 L363.48615,165.64731 L364.55676,165.95987 L365.62738,166.27286 L366.698,166.58624 L367.76868,166.90002 L368.8393,167.21419 L369.9099,167.52872 L370.98053,167.84361 L372.0512,168.15887 L373.12183,168.47446 L374.19244,168.79039 L375.26306,169.10664 L376.33374,169.42322 L377.40436,169.74011 L378.47498,170.0573 L379.5456,170.3748 L380.61627,170.69258 L381.68683,171.01067 L382.7575,171.32901 L383.82813,171.64766 L384.8988,171.96655 L385.96936,172.28572 L387.04004,172.60516 L388.11066,172.92485 L389.18127,173.24481 L390.2519,173.565 L391.32257,173.88544 L392.3932,174.20615 L393.4638,174.52708 L394.53442,174.84827 L395.6051,175.16971 L396.67572,175.49136 L397.74634,175.81326 L398.81696,176.13544 L399.88757,176.45781 L400.95825,176.78043 L402.02887,177.10327 L403.0995,177.42639 L404.1701,177.74973 L405.24078,178.0733 L406.3114,178.39713 L407.38202,178.72119 L408.45264,179.0455 L409.52332,179.37006 L410.59387,179.69487 L411.66455,180.01993 L412.73517,180.34526 L413.8058,180.67084 L414.8764,180.9967 L415.94708,181.32281 L417.0177,181.64923 L418.08832,181.97589 L419.15894,182.30286 L420.2296,182.6301 L421.30023,182.95766 L422.37085,183.2855 L423.44147,183.61366 L424.51215,183.94214 L425.58276,184.27094 L426.65338,184.60008 L427.724,184.92957 L428.79462,185.25938 L429.8653,185.58957 L430.9359,185.92014 L432.00653,186.25107 L433.07715,186.5824 L434.14783,186.91411 L435.21844,187.24625 L436.28906,187.5788 L437.35968,187.9118 L438.43036,188.24524 L439.50092,188.57915 L440.5716,188.91353 L441.6422,189.2484 L442.71283,189.58377 L443.78345,189.91966 L444.85413,190.2561 L445.92474,190.59308 L446.99536,190.93063 L448.06598,191.26877 L449.13666,191.60751 L450.20728,191.94688 L451.2779,192.2869 L452.3485,192.62756 L453.41913,192.96893 L454.4898,193.31097 L455.56042,193.65378 L456.63104,193.99731 L457.70166,194.34161 L458.77234,194.68672 L459.84296,195.03265 L460.91357,195.37943 L461.9842,195.72707 L463.05487,196.07559 L464.1255,196.42508 L465.1961,196.77548 L466.26672,197.12689 L467.3374,197.47931 L468.40802,197.83276 L469.47864,198.18729 L470.54926,198.54291 L471.61987,198.89966 L472.69055,199.2576 L473.76117,199.61673 L474.8318,199.97708 L475.9024,200.33871 L476.97308,200.70166 L478.0437,201.06593 L479.11432,201.43158 L480.18494,201.79865 L481.2556,202.16718 L482.32617,202.53719 L483.39685,202.90872 L484.46747,203.28183 L485.5381,203.65656 L486.6087,204.03291 L487.67938,204.41098 L488.75,204.79074 L489.82062,205.1723 L490.89124,205.55566 L491.9619,205.94089 L493.03253,206.328 L494.10315,206.71707 L495.17377,207.1081 L496.2444,207.50114 L497.31506,207.89627 L498.38568,208.29349 L499.4563,208.69287 L500.52692,209.09442 L501.5976,209.49821 L502.6682,209.9043 L503.73883,210.31265 L504.80945,210.72339 L505.88013,211.1365 L506.95068,211.55206 L508.02136,211.97008 L509.09198,212.3906 L510.16266,212.81366 L511.23322,213.2393 L512.3039,213.66754 L513.3745,214.09845 L514.4451,214.53201 L515.51575,214.96829 L516.5864,215.40732 L517.65704,215.84909 L518.72766,216.29366 L519.7983,216.74104 L520.86896,217.19125 L521.9396,217.64435 L523.0102,218.10031 L524.0808,218.55917 L525.1514,219.02095 L526.2221,219.48566 L527.2927,219.95331 L528.36334,220.42392 L529.43396,220.89748 L530.50464,221.37402 L531.57526,221.85352 L532.6459,222.336 L533.7165,222.82146 L534.7872,223.30989 L535.8577,223.8013 L536.9284,224.29567 L537.999,224.793 L539.0697,225.29327 L540.14026,225.79651 L541.21094,226.30264 L542.28156,226.8117 L543.3522,227.32367 L544.4228,227.83847 L545.49347,228.35617 L546.5641,228.87668 L547.6347,229.4 L548.7053,229.92609 L549.776,230.45496 L550.8466,230.98654 L551.91724,231.52081 L552.98785,232.05777 L554.0585,232.59735 L555.12915,233.13954 L556.19977,233.6843 L557.2704,234.23157 L558.341,234.78134 L559.4117,235.33359 L560.4823,235.88821 L561.5529,236.44525 L562.62354,237.00462 L563.6942,237.56628 L564.7648,238.13022 L565.83545,238.69635 L566.90607,239.26466 L567.9767,239.83511 L569.0473,240.40765 L570.118,240.98225 L571.1886,241.55885 L572.2592,242.13742 L573.32983,242.71791 L574.4005,243.30026 L575.4711,243.88448 L576.54175,244.47049 L577.61237,245.05824 L578.683,245.64772 L579.75366,246.23886 L580.8243,246.83163 L581.8949,247.42601 L582.9655,248.02193 L584.0362,248.61935 L585.1068,249.21826 L586.1774,249.8186 L587.24805,250.42035 L588.3187,251.02345 L589.38934,251.62787 L590.45996,252.23358 L591.5306,252.84055 L592.60126,253.44873 L593.6719,254.05809 L594.7425,254.66861 L595.8131,255.28023 L596.8837,255.89294 L597.95435,256.5067 L599.025,257.1215 L600.09564,257.73727 L601.16626,258.354 L602.2369,258.97168 L603.30756,259.59027 L604.3782,260.20972 L605.4488,260.83002 L606.5194,261.45114 L607.59,262.07306 L608.6607,262.69577 L609.7313,263.3192 L610.80194,263.9434 L611.87256,264.56827 L612.94324,265.19385 L614.01385,265.82007 L615.0845,266.4469 L616.1551,267.0744 L617.22577,267.70245 L618.2963,268.33112 L619.367,268.9603 L620.4376,269.59006 L621.50824,270.22034 L622.57886,270.8511 L623.64954,271.48236 L624.72015,272.1141 L625.7908,272.74628 L626.8614,273.37894 L627.93207,274.012 L629.0027,274.64545 L630.0733,275.27933 L631.1439,275.91357 L632.2146,276.54822 L633.2852,277.1832 L634.35583,277.81854 L635.42645,278.4542 L636.4971,279.09018 L637.56775,279.7265 L638.63837,280.3631 L639.709,281" fill="none" stroke="#a6da95" stroke-width="1.5"/>
</g>
<path d="M7.0565777,-2 L7.0565777,2 M13.888572,-2 L13.888572,2 M60.205944,-2 L60.205944,2 M83.72491,-2 L83.72491,2 M100.41188,-2 L100.41188,2 M113.35531,-2 L113.35531,2 M123.93085,-2 L123.93085,2 M132.87234,-2 L132.87234,2 M140.61783,-2 L140.61783,2 M147.44981,-2 L147.44981,2 M193.7672,-2 L193.7672,2 M217.28616,-2 L217.28616,2 M233.97314,-2 L233.97314,2 M246.91655,-2 L246.91655,2 M257.4921,-2 L257.4921,2 M266.4336,-2 L266.4336,2 M274.17908,-2 L274.17908,2 M281.01105,-2 L281.01105,2 M327.32843,-2 L327.32843,2 M350.8474,-2 L350.8474,2 M367.5344,-2 L367.5344,2 M380.4778,-2 L380.4778,2 M391.05334,-2 L391.05334,2 M399.99484,-2 L399.99484,2 M407.74033,-2 L407.74033,2 M414.5723,-2 L414.5723,2 M460.8897,-2 L460.8897,2 M484.40866,-2 L484.40866,2 M501.09564,-2 L501.09564,2 M514.03906,-2 L514.03906,2 M524.6146,-2 L524.6146,2 M533.5561,-2 L533.5561,2 M541.3016,-2 L541.3016,2 M548.13354,-2 L548.13354,2" fill="none" stroke="#cad3f5" stroke-width="0.5" transform="matrix(1 0 0 1 85.464005 301)"/>
<path d="M20,-4 L20,4 M153.56125,-4 L153.56125,4 M287.1225,-4 L287.1225,4 M420.68375,-4 L420.68375,4 M554.245,-4 L554.245,4" fill="none" stroke="#cad3f5" stroke-width="1" transform="matrix(1 0 0 1 85.464005 301)"/>
<path d="M3.9787352,-4 L3.9787352,4 M44.201267,-4 L44.201267,4 M84.4238,-4 L84.4238,4 M124.64633,-4 L124.64633,4 M164.86887,-4 L164.86887,4 M205.0914,-4 L205.0914,4" fill="none" stroke="#cad3f5" stroke-width="1" transform="matrix(-0.00000004371139 -1 1 -0.00000004371139 85.464005 301)"/>
<text dominant-baseline="middle" fill="#cad3f5" font-family="sans-serif" font-size="12" font-stretch="normal" font-style="normal" font-weight="400" text-anchor="end" text-rendering="optimizeLegibility" transform="matrix(1 0 0 1 77.464005 297.02127)">
-80.0
</text>
<text dominant-baseline="middle" fill="#cad3f5" font-family="sans-serif" font-size="12" font-stretch="normal" font-style="normal" font-weight="400" text-anchor="end" text-rendering="optimizeLegibility" transform="matrix(1 0 0 1 77.464005 256.79874)">
-60.0
</text>
<text dominant-baseline="middle" fill="#cad3f5" font-family="sans-serif" font-size="12" font-stretch="normal" font-style="normal" font-weight="400" text-anchor="end" text-rendering="optimizeLegibility" transform="matrix(1 0 0 1 77.464005 216.5762)">
-40.0
</text>
<text dominant-baseline="middle" fill="#cad3f5" font-family="sans-serif" font-size="12" font-stretch="normal" font-style="normal" font-weight="400" text-anchor="end" text-rendering="optimizeLegibility" transform="matrix(1 0 0 1 77.464005 176.35367)">
-20.0
</text>
<text dominant-baseline="middle" fill="#cad3f5" font-family="sans-serif" font-size="12" font-stretch="normal" font-style="normal" font-weight="400" text-anchor="end" text-rendering="optimizeLegibility" transform="matrix(1 0 0 1 77.464005 136.13113)">
0.0
</text>
<text dominant-baseline="middle" fill="#cad3f5" font-family="sans-serif" font-size="12" font-stretch="normal" font-style="normal" font-weight="400" text-anchor="end" text-rendering="optimizeLegibility" transform="matrix(1 0 0 1 77.464005 95.9086)">
20.0
</text>
<text text-rendering="optimizeLegibility" transform="matrix(-0.00000004371139 -1 1 -0.00000004371139 37.104004 188.568)">

<tspan text-anchor="middle" x="0">
<tspan font-family="sans-serif" font-size="16" font-stretch="normal" font-style="normal" font-weight="400">
<tspan fill="#cad3f5">Magnitude [dB]</tspan>
</tspan>
</tspan>
</text>
<rect fill="none" height="224.86401" stroke="#cad3f5" stroke-width="1" width="574.245" x="85.464005" y="76.135994"/>
<path d="M85.464005,506.01126 L659.709,506.01126" fill="none" stroke="#5b6078" stroke-width="1"/>
<path d="M85.464005,475.16434 L659.709,475.16434" fill="none" stroke="#5b6078" stroke-width="1"/>
<path d="M85.464005,444.31744 L659.709,444.31744" fill="none" stroke="#5b6078" stroke-width="1"/>
<path d="M85.464005,413.47052 L659.709,413.47052" fill="none" stroke="#5b6078" stroke-width="1"/>
<path d="M85.464005,382.6236 L659.709,382.6236" fill="none" stroke="#5b6078" stroke-width="1"/>
<path d="M85.464005,351.77667 L659.709,351.77667" fill="none" stroke="#5b6078" stroke-width="1"/>
<path d="M85.464005,320.92975 L659.709,320.92975" fill="none" stroke="#5b6078" stroke-width="1"/>
<clipPath id="eidoplot-clip2">
<rect height="224.86401" width="574.245" x="85.464005" y="301"/>
</clipPath>
<g clip-path="url(#eidoplot-clip2)">
<path d="M105.464005,413.50754 L106.53464,413.50824 L107.60527,413.5089 L108.675896,413.50964 L109.74653,413.51038 L110.81716,413.5111 L111.887794,413.51187 L112.95842,413.51263 L114.02905,413.51343 L115.099686,413.51422 L116.17032,413.51505 L117.24095,413.51587 L118.311584,413.51672 L119.38221,413.51758 L120.45284,413.51843 L121.523476,413.51935 L122.5941,413.52026 L123.664734,413.52118 L124.73537,413.52213 L125.806,413.52307 L126.87663,413.52405 L127.94726,413.52505 L129.01788,413.52606 L130.08853,413.5271 L131.15915,413.52817 L132.22978,413.52924 L133.30042,413.53033 L134.37105,413.53143 L135.44168,413.5326 L136.51231,413.53375 L137.58295,413.5349 L138.65358,413.53613 L139.72421,413.53735 L140.79483,413.53857 L141.86546,413.53986 L142.9361,413.54114 L144.00673,413.54248 L145.07736,413.54382 L146.148,413.54517 L147.21863,413.54657 L148.28925,413.54797 L149.3599,413.54944 L150.43051,413.5509 L151.50116,413.5524 L152.57178,413.55392 L153.64241,413.55548 L154.71304,413.55707 L155.78366,413.55865 L156.85431,413.5603 L157.92493,413.56198 L158.99557,413.5637 L160.0662,413.56543 L161.13683,413.5672 L162.20746,413.569 L163.27809,413.57083 L164.34872,413.5727 L165.41934,413.57462 L166.48999,413.57654 L167.56061,413.57852 L168.63126,413.58054 L169.70187,413.58258 L170.7725,413.5847 L171.84314,413.5868 L172.91377,413.589 L173.9844,413.5912 L175.05504,413.59344 L176.12567,413.59573 L177.19629,413.59805 L178.26694,413.60043 L179.33755,413.60284 L180.4082,413.60535 L181.47882,413.60785 L182.54945,413.6104 L183.62009,413.613 L184.69072,413.61566 L185.76135,413.61838 L186.83197,413.62115 L187.90262,413.62396 L188.97324,413.6268 L190.04388,413.62973 L191.1145,413.6327 L192.18513,413.63574 L193.25577,413.6388 L194.3264,413.64194 L195.39703,413.64514 L196.46767,413.6484 L197.5383,413.65173 L198.60892,413.6551 L199.67955,413.65854 L200.75018,413.66205 L201.82082,413.66565 L202.89145,413.66928 L203.96207,413.67297 L205.03271,413.6768 L206.10333,413.68063 L207.17398,413.68457 L208.2446,413.68854 L209.31523,413.69263 L210.38586,413.69678 L211.4565,413.701 L212.52713,413.70532 L213.59776,413.7097 L214.6684,413.71417 L215.73903,413.71872 L216.80966,413.72336 L217.8803,413.7281 L218.95093,413.7329 L220.02155,413.73782 L221.09218,413.7428 L222.16281,413.74792 L223.23344,413.7531 L224.30408,413.7584 L225.3747,413.7638 L226.44533,413.7693 L227.51596,413.77487 L228.5866,413.78058 L229.65723,413.78638 L230.72786,413.7923 L231.7985,413.79834 L232.86913,413.80447 L233.93974,413.81073 L235.01039,413.8171 L236.08101,413.8236 L237.15166,413.83023 L238.22227,413.83698 L239.29291,413.84387 L240.36354,413.8509 L241.43417,413.85803 L242.5048,413.86533 L243.57544,413.87274 L244.64606,413.8803 L245.7167,413.888 L246.78732,413.89587 L247.85797,413.90387 L248.92859,413.91205 L249.99922,413.92035 L251.06985,413.92883 L252.14049,413.93747 L253.21112,413.9463 L254.28175,413.95526 L255.35237,413.96442 L256.42303,413.97375 L257.49365,413.98328 L258.56427,413.99298 L259.6349,414.00287 L260.7055,414.01294 L261.77618,414.02322 L262.8468,414.0337 L263.91742,414.04437 L264.98804,414.0553 L266.0587,414.0664 L267.12933,414.07773 L268.19995,414.0893 L269.27057,414.10107 L270.34122,414.1131 L271.41183,414.12537 L272.48248,414.13785 L273.5531,414.1506 L274.62375,414.16364 L275.69437,414.17688 L276.765,414.19043 L277.83563,414.20425 L278.90625,414.21835 L279.9769,414.23273 L281.04755,414.2474 L282.11816,414.2624 L283.18878,414.27768 L284.2594,414.29327 L285.33008,414.3092 L286.4007,414.32547 L287.4713,414.34207 L288.54193,414.359 L289.61258,414.37634 L290.68323,414.394 L291.75385,414.41205 L292.82446,414.43048 L293.8951,414.44934 L294.96573,414.46857 L296.03638,414.48822 L297.107,414.5083 L298.17764,414.52884 L299.24826,414.5498 L300.3189,414.57126 L301.38953,414.5932 L302.46014,414.6156 L303.5308,414.63855 L304.60144,414.662 L305.67206,414.68597 L306.74268,414.7105 L307.8133,414.73563 L308.88397,414.76135 L309.9546,414.78766 L311.0252,414.81458 L312.09583,414.84216 L313.16644,414.87042 L314.23712,414.89938 L315.30774,414.92905 L316.37836,414.95944 L317.44897,414.9906 L318.51962,415.02258 L319.59027,415.05536 L320.6609,415.089 L321.7315,415.1235 L322.80215,415.15894 L323.87277,415.1953 L324.94342,415.2327 L326.01404,415.27112 L327.08466,415.31058 L328.1553,415.35117 L329.22595,415.3929 L330.29657,415.43588 L331.3672,415.4801 L332.4378,415.52563 L333.50848,415.57257 L334.5791,415.6209 L335.64972,415.6708 L336.72034,415.72226 L337.791,415.77536 L338.86163,415.83023 L339.93225,415.8869 L341.00287,415.94553 L342.0735,416.00616 L343.14417,416.06897 L344.21478,416.134 L345.2854,416.20142 L346.35602,416.27136 L347.4267,416.344 L348.4973,416.41943 L349.56793,416.49786 L350.63855,416.57953 L351.70923,416.6646 L352.77985,416.7533 L353.85046,416.84586 L354.92108,416.9426 L355.9917,417.04376 L357.06238,417.14972 L358.133,417.2608 L359.2036,417.37744 L360.27423,417.50006 L361.34485,417.62915 L362.41553,417.76526 L363.48615,417.909 L364.55676,418.06107 L365.62738,418.22223 L366.698,418.39337 L367.76868,418.5755 L368.8393,418.76968 L369.9099,418.97723 L370.98053,419.19965 L372.0512,419.4386 L373.12183,419.6961 L374.19244,419.97443 L375.26306,420.27625 L376.33374,420.6048 L377.40436,420.96387 L378.47498,421.35794 L379.5456,421.79254 L380.61627,422.2743 L381.68683,422.81146 L382.7575,423.4142 L383.82813,424.09543 L384.8988,424.87152 L385.96936,425.76373 L387.04004,426.8001 L388.11066,428.0182 L389.18127,429.46954 L390.2519,431.22647 L391.32257,433.39325 L392.3932,436.12463 L393.4638,439.65778 L394.53442,444.36697 L395.6051,450.85522 L396.67572,460.0773 L397.74634,473.34915 L398.81696,491.58182 L399.88757,327.92007 L400.95825,347.69617 L402.02887,362.6989 L403.0995,373.19485 L404.1701,380.52045 L405.24078,385.7752 L406.3114,389.6726 L407.38202,392.65515 L408.45264,395.0008 L409.52332,396.88882 L410.59387,398.43875 L411.66455,399.73267 L412.73517,400.8285 L413.8058,401.76813 L414.8764,402.5826 L415.94708,403.29532 L417.0177,403.92422 L418.08832,404.48334 L419.15894,404.98367 L420.2296,405.43414 L421.30023,405.8419 L422.37085,406.21277 L423.44147,406.55167 L424.51215,406.86258 L425.58276,407.1489 L426.65338,407.41345 L427.724,407.65875 L428.79462,407.88684 L429.8653,408.09946 L430.9359,408.29822 L432.00653,408.48447 L433.07715,408.65936 L434.14783,408.82397 L435.21844,408.97916 L436.28906,409.1258 L437.35968,409.26453 L438.43036,409.39603 L439.50092,409.52087 L440.5716,409.63956 L441.6422,409.75256 L442.71283,409.86032 L443.78345,409.96313 L444.85413,410.0614 L445.92474,410.15543 L446.99536,410.24545 L448.06598,410.3318 L449.13666,410.4146 L450.20728,410.49417 L451.2779,410.57068 L452.3485,410.64426 L453.41913,410.71515 L454.4898,410.78345 L455.56042,410.8493 L456.63104,410.91287 L457.70166,410.97424 L458.77234,411.03357 L459.84296,411.09094 L460.91357,411.14645 L461.9842,411.20016 L463.05487,411.2522 L464.1255,411.3026 L465.1961,411.3515 L466.26672,411.39893 L467.3374,411.44495 L468.40802,411.48962 L469.47864,411.53302 L470.54926,411.57523 L471.61987,411.6162 L472.69055,411.65607 L473.76117,411.69485 L474.8318,411.73257 L475.9024,411.7693 L476.97308,411.80508 L478.0437,411.8399 L479.11432,411.87387 L480.18494,411.90692 L481.2556,411.93918 L482.32617,411.97064 L483.39685,412.0013 L484.46747,412.03122 L485.5381,412.06042 L486.6087,412.08893 L487.67938,412.11676 L488.75,412.14392 L489.82062,412.17044 L490.89124,412.19635 L491.9619,412.22168 L493.03253,412.24643 L494.10315,412.27063 L495.17377,412.29425 L496.2444,412.31738 L497.31506,412.33997 L498.38568,412.36206 L499.4563,412.38367 L500.52692,412.40482 L501.5976,412.4255 L502.6682,412.44574 L503.73883,412.46558 L504.80945,412.48492 L505.88013,412.5039 L506.95068,412.5225 L508.02136,412.54068 L509.09198,412.55847 L510.16266,412.57593 L511.23322,412.593 L512.3039,412.60974 L513.3745,412.6261 L514.4451,412.64215 L515.51575,412.65787 L516.5864,412.67328 L517.65704,412.68835 L518.72766,412.70313 L519.7983,412.71762 L520.86896,412.7318 L521.9396,412.74573 L523.0102,412.75937 L524.0808,412.77274 L525.1514,412.78586 L526.2221,412.7987 L527.2927,412.81128 L528.36334,412.82364 L529.43396,412.83575 L530.50464,412.8476 L531.57526,412.85922 L532.6459,412.87067 L533.7165,412.88184 L534.7872,412.89282 L535.8577,412.90356 L536.9284,412.91412 L537.999,412.92447 L539.0697,412.93463 L540.14026,412.94458 L541.21094,412.95435 L542.28156,412.96393 L543.3522,412.97333 L544.4228,412.98254 L545.49347,412.99158 L546.5641,413.00043 L547.6347,413.00916 L548.7053,413.0177 L549.776,413.02606 L550.8466,413.0343 L551.91724,413.04236 L552.98785,413.05023 L554.0585,413.058 L555.12915,413.06564 L556.19977,413.07312 L557.2704,413.08044 L558.341,413.08765 L559.4117,413.0947 L560.4823,413.10162 L561.5529,413.10843 L562.62354,413.11508 L563.6942,413.12164 L564.7648,413.12805 L565.83545,413.13434 L566.90607,413.14056 L567.9767,413.1466 L569.0473,413.1526 L570.118,413.15842 L571.1886,413.16415 L572.2592,413.1698 L573.32983,413.17532 L574.4005,413.18073 L575.4711,413.18607 L576.54175,413.19128 L577.61237,413.1964 L578.683,413.20148 L579.75366,413.2064 L580.8243,413.21124 L581.8949,413.216 L582.9655,413.22067 L584.0362,413.22528 L585.1068,413.22977 L586.1774,413.2342 L587.24805,413.23853 L588.3187,413.24277 L589.38934,413.24695 L590.45996,413.25104 L591.5306,413.25507 L592.60126,413.25903 L593.6719,413.2629 L594.7425,413.26672 L595.8131,413.27045 L596.8837,413.2741 L597.95435,413.2777 L599.025,413.28125 L600.09564,413.2847 L601.16626,413.28812 L602.2369,413.29147 L603.30756,413.29474 L604.3782,413.29797 L605.4488,413.30112 L606.5194,413.30423 L607.59,413.30725 L608.6607,413.31024 L609.7313,413.31317 L610.80194,413.31607 L611.87256,413.3189 L612.94324,413.32166 L614.01385,413.3244 L615.0845,413.3271 L616.1551,413.3297 L617.22577,413.33228 L618.2963,413.3348 L619.367,413.3373 L620.4376,413.33975 L621.50824,413.34213 L622.57886,413.34448 L623.64954,413.3468 L624.72015,413.34906 L625.7908,413.3513 L626.8614,413.35345 L627.93207,413.3556 L629.0027,413.3577 L630.0733,413.35977 L631.1439,413.36182 L632.2146,413.36377 L633.2852,413.36575 L634.35583,413.36768 L635.42645,413.36954 L636.4971,413.3714 L637.56775,413.3732 L638.63837,413.37497 L639.709,413.37674" fill="none" stroke="#8aadf4" stroke-width="1.5"/>
<path d="M105.464005,413.8407 L106.53464,413.8476 L107.60527,413.8546 L108.675896,413.86176 L109.74653,413.86905 L110.81716,413.87646 L111.887794,413.88403 L112.95842,413.89175 L114.02905,413.8996 L115.099686,413.9076 L116.17032,413.91574 L117.24095,413.924 L118.311584,413.93246 L119.38221,413.9411 L120.45284,413.94986 L121.523476,413.95877 L122.5941,413.9679 L123.664734,413.97714 L124.73537,413.98657 L125.806,413.99622 L126.87663,414.00598 L127.94726,414.01596 L129.01788,414.02612 L130.08853,414.03647 L131.15915,414.04703 L132.22978,414.05777 L133.30042,414.06873 L134.37105,414.07983 L135.44168,414.0912 L136.51231,414.10278 L137.58295,414.11456 L138.65358,414.12656 L139.72421,414.13876 L140.79483,414.1512 L141.86546,414.1639 L142.9361,414.17682 L144.00673,414.19 L145.07736,414.2034 L146.148,414.21704 L147.21863,414.23096 L148.28925,414.24512 L149.3599,414.25958 L150.43051,414.27426 L151.50116,414.28925 L152.57178,414.3045 L153.64241,414.32004 L154.71304,414.33588 L155.78366,414.352 L156.85431,414.3684 L157.92493,414.38513 L158.99557,414.4022 L160.0662,414.41956 L161.13683,414.43726 L162.20746,414.45526 L163.27809,414.4736 L164.34872,414.4923 L165.41934,414.51135 L166.48999,414.53076 L167.56061,414.5505 L168.63126,414.57062 L169.70187,414.59113 L170.7725,414.61203 L171.84314,414.6333 L172.91377,414.65497 L173.9844,414.67706 L175.05504,414.69952 L176.12567,414.72244 L177.19629,414.7458 L178.26694,414.76956 L179.33755,414.79376 L180.4082,414.81845 L181.47882,414.84357 L182.54945,414.86917 L183.62009,414.89526 L184.69072,414.9218 L185.76135,414.94885 L186.83197,414.97644 L187.90262,415.00452 L188.97324,415.0331 L190.04388,415.06226 L191.1145,415.09192 L192.18513,415.12216 L193.25577,415.15295 L194.3264,415.18436 L195.39703,415.2163 L196.46767,415.24887 L197.5383,415.28204 L198.60892,415.31583 L199.67955,415.35025 L200.75018,415.3853 L201.82082,415.42105 L202.89145,415.45743 L203.96207,415.4945 L205.03271,415.5323 L206.10333,415.57074 L207.17398,415.60995 L208.2446,415.64987 L209.31523,415.69055 L210.38586,415.732 L211.4565,415.7742 L212.52713,415.8172 L213.59776,415.86102 L214.6684,415.90564 L215.73903,415.9511 L216.80966,415.99744 L217.8803,416.04462 L218.95093,416.0927 L220.02155,416.1417 L221.09218,416.1916 L222.16281,416.24243 L223.23344,416.29422 L224.30408,416.347 L225.3747,416.40076 L226.44533,416.4555 L227.51596,416.51132 L228.5866,416.56818 L229.65723,416.6261 L230.72786,416.68512 L231.7985,416.74524 L232.86913,416.80652 L233.93974,416.86893 L235.01039,416.93253 L236.08101,416.9973 L237.15166,417.06335 L238.22227,417.1306 L239.29291,417.19916 L240.36354,417.26898 L241.43417,417.34015 L242.5048,417.41266 L243.57544,417.48657 L244.64606,417.56186 L245.7167,417.63855 L246.78732,417.71674 L247.85797,417.7964 L248.92859,417.87756 L249.99922,417.9603 L251.06985,418.04462 L252.14049,418.13052 L253.21112,418.21808 L254.28175,418.30728 L255.35237,418.3982 L256.42303,418.49088 L257.49365,418.58533 L258.56427,418.68158 L259.6349,418.7797 L260.7055,418.8797 L261.77618,418.9816 L262.8468,419.08548 L263.91742,419.19138 L264.98804,419.29932 L266.0587,419.40933 L267.12933,419.52148 L268.19995,419.6358 L269.27057,419.75238 L270.34122,419.8712 L271.41183,419.9923 L272.48248,420.1158 L273.5531,420.24176 L274.62375,420.37012 L275.69437,420.50104 L276.765,420.63452 L277.83563,420.77063 L278.90625,420.90942 L279.9769,421.05096 L281.04755,421.1953 L282.11816,421.34253 L283.18878,421.49268 L284.2594,421.6458 L285.33008,421.80203 L286.4007,421.96136 L287.4713,422.12393 L288.54193,422.28976 L289.61258,422.45895 L290.68323,422.6316 L291.75385,422.8077 L292.82446,422.98743 L293.8951,423.17087 L294.96573,423.35803 L296.03638,423.54907 L297.107,423.74408 L298.17764,423.9431 L299.24826,424.1463 L300.3189,424.35376 L301.38953,424.56555 L302.46014,424.7818 L303.5308,425.00266 L304.60144,425.2282 L305.67206,425.45856 L306.74268,425.69388 L307.8133,425.93427 L308.88397,426.17987 L309.9546,426.43082 L311.0252,426.6873 L312.09583,426.94937 L313.16644,427.2173 L314.23712,427.49112 L315.30774,427.77112 L316.37836,428.05743 L317.44897,428.35022 L318.51962,428.64966 L319.59027,428.956 L320.6609,429.2694 L321.7315,429.59012 L322.80215,429.91833 L323.87277,430.25427 L324.94342,430.5982 L326.01404,430.95038 L327.08466,431.31104 L328.1553,431.68045 L329.22595,432.05893 L330.29657,432.44672 L331.3672,432.84418 L332.4378,433.25162 L333.50848,433.66937 L334.5791,434.09778 L335.64972,434.53723 L336.72034,434.98807 L337.791,435.45078 L338.86163,435.9257 L339.93225,436.4133 L341.00287,436.91406 L342.0735,437.42847 L343.14417,437.957 L344.21478,438.5002 L345.2854,439.05862 L346.35602,439.63287 L347.4267,440.2235 L348.4973,440.8312 L349.56793,441.4566 L350.63855,442.10043 L351.70923,442.7634 L352.77985,443.44626 L353.85046,444.14984 L354.92108,444.87494 L355.9917,445.6224 L357.06238,446.39322 L358.133,447.18823 L359.2036,448.0085 L360.27423,448.855 L361.34485,449.72882 L362.41553,450.63098 L363.48615,451.56268 L364.55676,452.52505 L365.62738,453.5193 L366.698,454.54657 L367.76868,455.60822 L368.8393,456.7054 L369.9099,457.83948 L370.98053,459.01166 L372.0512,460.2232 L373.12183,461.4754 L374.19244,462.7694 L375.26306,464.1064 L376.33374,465.48752 L377.40436,466.91373 L378.47498,468.38593 L379.5456,469.90488 L380.61627,471.47116 L381.68683,473.08517 L382.7575,474.74713 L383.82813,476.4569 L384.8988,478.21417 L385.96936,480.01822 L387.04004,481.86798 L388.11066,483.7621 L389.18127,485.69867 L390.2519,487.67557 L391.32257,489.6901 L392.3932,491.73917 L393.4638,493.8193 L394.53442,495.92664 L395.6051,498.05695 L396.67572,500.2057 L397.74634,502.36807 L398.81696,504.53906 L399.88757,321.63205 L400.95825,323.80487 L402.02887,325.9709 L403.0995,328.125 L404.1701,330.2624 L405.24078,332.37836 L406.3114,334.46863 L407.38202,336.5291 L408.45264,338.5562 L409.52332,340.54675 L410.59387,342.49792 L411.66455,344.4073 L412.73517,346.27295 L413.8058,348.09332 L414.8764,349.86722 L415.94708,351.59387 L417.0177,353.2728 L418.08832,354.90378 L419.15894,356.48694 L420.2296,358.02258 L421.30023,359.51126 L422.37085,360.95367 L423.44147,362.35062 L424.51215,363.70313 L425.58276,365.01227 L426.65338,366.2791 L427.724,367.5049 L428.79462,368.6909 L429.8653,369.83832 L430.9359,370.94843 L432.00653,372.0225 L433.07715,373.0618 L434.14783,374.06763 L435.21844,375.04114 L436.28906,375.98352 L437.35968,376.89606 L438.43036,377.77975 L439.50092,378.6358 L440.5716,379.46524 L441.6422,380.2691 L442.71283,381.04837 L443.78345,381.80402 L444.85413,382.53693 L445.92474,383.24802 L446.99536,383.9381 L448.06598,384.60803 L449.13666,385.25858 L450.20728,385.8904 L451.2779,386.5043 L452.3485,387.1009 L453.41913,387.68088 L454.4898,388.24484 L455.56042,388.79337 L456.63104,389.32703 L457.70166,389.84637 L458.77234,390.35193 L459.84296,390.84415 L460.91357,391.32352 L461.9842,391.79047 L463.05487,392.24548 L464.1255,392.6889 L465.1961,393.12122 L466.26672,393.54266 L467.3374,393.95374 L468.40802,394.35468 L469.47864,394.74585 L470.54926,395.1276 L471.61987,395.50018 L472.69055,395.86392 L473.76117,396.21906 L474.8318,396.56586 L475.9024,396.9046 L476.97308,397.23553 L478.0437,397.5589 L479.11432,397.87485 L480.18494,398.18365 L481.2556,398.48553 L482.32617,398.78067 L483.39685,399.06927 L484.46747,399.35144 L485.5381,399.62747 L486.6087,399.89746 L487.67938,400.1616 L488.75,400.42 L489.82062,400.6729 L490.89124,400.92038 L491.9619,401.1626 L493.03253,401.39972 L494.10315,401.6318 L495.17377,401.85904 L496.2444,402.08154 L497.31506,402.2994 L498.38568,402.5128 L499.4563,402.72174 L500.52692,402.92645 L501.5976,403.12695 L502.6682,403.32336 L503.73883,403.51578 L504.80945,403.70435 L505.88013,403.88907 L506.95068,404.07007 L508.02136,404.2475 L509.09198,404.42133 L510.16266,404.59174 L511.23322,404.75876 L512.3039,404.92245 L513.3745,405.08292 L514.4451,405.24023 L515.51575,405.39447 L516.5864,405.5457 L517.65704,405.6939 L518.72766,405.8393 L519.7983,405.9818 L520.86896,406.12158 L521.9396,406.2586 L523.0102,406.393 L524.0808,406.52484 L525.1514,406.6541 L526.2221,406.78088 L527.2927,406.90524 L528.36334,407.02722 L529.43396,407.14685 L530.50464,407.2642 L531.57526,407.3793 L532.6459,407.49222 L533.7165,407.603 L534.7872,407.71167 L535.8577,407.8183 L536.9284,407.92285 L537.999,408.02548 L539.0697,408.12616 L540.14026,408.2249 L541.21094,408.32184 L542.28156,408.4169 L543.3522,408.5102 L544.4228,408.60175 L545.49347,408.69156 L546.5641,408.7797 L547.6347,408.86618 L548.7053,408.95105 L549.776,409.03433 L550.8466,409.11606 L551.91724,409.19626 L552.98785,409.27496 L554.0585,409.35217 L555.12915,409.42798 L556.19977,409.50235 L557.2704,409.57535 L558.341,409.64697 L559.4117,409.7173 L560.4823,409.7863 L561.5529,409.854 L562.62354,409.92047 L563.6942,409.9857 L564.7648,410.0497 L565.83545,410.11255 L566.90607,410.17422 L567.9767,410.23474 L569.0473,410.29416 L570.118,410.35248 L571.1886,410.4097 L572.2592,410.46588 L573.32983,410.521 L574.4005,410.57513 L575.4711,410.62823 L576.54175,410.68036 L577.61237,410.73154 L578.683,410.78177 L579.75366,410.8311 L580.8243,410.8795 L581.8949,410.927 L582.9655,410.9736 L584.0362,411.01938 L585.1068,411.0643 L586.1774,411.1084 L587.24805,411.1517 L588.3187,411.19418 L589.38934,411.2359 L590.45996,411.27686 L591.5306,411.31705 L592.60126,411.35648 L593.6719,411.3952 L594.7425,411.43323 L595.8131,411.47055 L596.8837,411.50717 L597.95435,411.54312 L599.025,411.57843 L600.09564,411.6131 L601.16626,411.6471 L602.2369,411.68048 L603.30756,411.71326 L604.3782,411.74542 L605.4488,411.777 L606.5194,411.80804 L607.59,411.83844 L608.6607,411.86832 L609.7313,411.89767 L610.80194,411.92645 L611.87256,411.9547 L612.94324,411.98248 L614.01385,412.0097 L615.0845,412.03644 L616.1551,412.06268 L617.22577,412.08844 L618.2963,412.11374 L619.367,412.13858 L620.4376,412.16296 L621.50824,412.1869 L622.57886,412.21036 L623.64954,412.23343 L624.72015,412.25604 L625.7908,412.2783 L626.8614,412.3001 L627.93207,412.32153 L629.0027,412.34253 L630.0733,412.36316 L631.1439,412.38342 L632.2146,412.40332 L633.2852,412.42285 L634.35583,412.44202 L635.42645,412.46085 L636.4971,412.4793 L637.56775,412.49744 L638.63837,412.51526 L639.709,412.5327" fill="none" stroke="#f5a97f" stroke-width="1.5"/>
<path d="M105.464005,417.16742 L106.53464,417.2361 L107.60527,417.3061 L108.675896,417.37732 L109.74653,417.4499 L110.81716,417.5238 L111.887794,417.59906 L112.95842,417.67575 L114.02905,417.7538 L115.099686,417.8333 L116.17032,417.9143 L117.24095,417.99677 L118.311584,418.08075 L119.38221,418.1663 L120.45284,418.25342 L121.523476,418.3421 L122.5941,418.43246 L123.664734,418.52448 L124.73537,418.61816 L125.806,418.71356 L126.87663,418.81073 L127.94726,418.90967 L129.01788,419.0104 L130.08853,419.113 L131.15915,419.21747 L132.22978,419.32385 L133.30042,419.4322 L134.37105,419.5425 L135.44168,419.65482 L136.51231,419.7692 L137.58295,419.88562 L138.65358,420.0042 L139.72421,420.12494 L140.79483,420.24783 L141.86546,420.373 L142.9361,420.5004 L144.00673,420.63013 L145.07736,420.7622 L146.148,420.89667 L147.21863,421.03354 L148.28925,421.1729 L149.3599,421.31476 L150.43051,421.45917 L151.50116,421.6062 L152.57178,421.75583 L153.64241,421.90814 L154.71304,422.0632 L155.78366,422.221 L156.85431,422.38165 L157.92493,422.54517 L158.99557,422.71155 L160.0662,422.88092 L161.13683,423.05325 L162.20746,423.22864 L163.27809,423.40714 L164.34872,423.58878 L165.41934,423.7736 L166.48999,423.96167 L167.56061,424.153 L168.63126,424.3477 L169.70187,424.54578 L170.7725,424.74725 L171.84314,424.95227 L172.91377,425.1608 L173.9844,425.37292 L175.05504,425.5887 L176.12567,425.80817 L177.19629,426.03137 L178.26694,426.25836 L179.33755,426.4892 L180.4082,426.72394 L181.47882,426.96265 L182.54945,427.20532 L183.62009,427.45206 L184.69072,427.70288 L185.76135,427.95786 L186.83197,428.21704 L187.90262,428.48047 L188.97324,428.7482 L190.04388,429.02026 L191.1145,429.29675 L192.18513,429.57767 L193.25577,429.86307 L194.3264,430.153 L195.39703,430.4475 L196.46767,430.74664 L197.5383,431.0504 L198.60892,431.35892 L199.67955,431.67218 L200.75018,431.9902 L201.82082,432.31305 L202.89145,432.64072 L203.96207,432.9733 L205.03271,433.3108 L206.10333,433.65326 L207.17398,434.00067 L208.2446,434.3531 L209.31523,434.71054 L210.38586,435.073 L211.4565,435.44055 L212.52713,435.81317 L213.59776,436.19086 L214.6684,436.57367 L215.73903,436.96158 L216.80966,437.35455 L217.8803,437.75266 L218.95093,438.15588 L220.02155,438.56415 L221.09218,438.9775 L222.16281,439.39594 L223.23344,439.8194 L224.30408,440.24786 L225.3747,440.68134 L226.44533,441.11975 L227.51596,441.5631 L228.5866,442.0113 L229.65723,442.46432 L230.72786,442.92215 L231.7985,443.38467 L232.86913,443.85187 L233.93974,444.32364 L235.01039,444.79993 L236.08101,445.28064 L237.15166,445.76575 L238.22227,446.25513 L239.29291,446.74866 L240.36354,447.24628 L241.43417,447.74786 L242.5048,448.25336 L243.57544,448.76257 L244.64606,449.27545 L245.7167,449.79184 L246.78732,450.3116 L247.85797,450.83466 L248.92859,451.36084 L249.99922,451.88995 L251.06985,452.42194 L252.14049,452.9566 L253.21112,453.4938 L254.28175,454.03336 L255.35237,454.57513 L256.42303,455.11896 L257.49365,455.66467 L258.56427,456.2121 L259.6349,456.76108 L260.7055,457.31143 L261.77618,457.86295 L262.8468,458.4155 L263.91742,458.96887 L264.98804,459.5229 L266.0587,460.0774 L267.12933,460.63217 L268.19995,461.18707 L269.27057,461.7419 L270.34122,462.29648 L271.41183,462.85065 L272.48248,463.40417 L273.5531,463.95694 L274.62375,464.50873 L275.69437,465.05936 L276.765,465.6087 L277.83563,466.1566 L278.90625,466.7028 L279.9769,467.24722 L281.04755,467.7897 L282.11816,468.33005 L283.18878,468.86813 L284.2594,469.40378 L285.33008,469.9369 L286.4007,470.46732 L287.4713,470.99487 L288.54193,471.5195 L289.61258,472.04105 L290.68323,472.5594 L291.75385,473.0744 L292.82446,473.58597 L293.8951,474.09402 L294.96573,474.59845 L296.03638,475.09915 L297.107,475.59604 L298.17764,476.08902 L299.24826,476.57806 L300.3189,477.06302 L301.38953,477.54388 L302.46014,478.02057 L303.5308,478.49304 L304.60144,478.9612 L305.67206,479.42505 L306.74268,479.88452 L307.8133,480.3396 L308.88397,480.79022 L309.9546,481.2364 L311.0252,481.67807 L312.09583,482.11523 L313.16644,482.5479 L314.23712,482.976 L315.30774,483.39963 L316.37836,483.81866 L317.44897,484.23322 L318.51962,484.6432 L319.59027,485.04868 L320.6609,485.44968 L321.7315,485.84616 L322.80215,486.2382 L323.87277,486.6258 L324.94342,487.00897 L326.01404,487.38776 L327.08466,487.76218 L328.1553,488.1323 L329.22595,488.4981 L330.29657,488.85968 L331.3672,489.21707 L332.4378,489.57028 L333.50848,489.91937 L334.5791,490.2644 L335.64972,490.6054 L336.72034,490.94247 L337.791,491.2756 L338.86163,491.60486 L339.93225,491.93033 L341.00287,492.25204 L342.0735,492.57007 L343.14417,492.88443 L344.21478,493.19525 L345.2854,493.50253 L346.35602,493.8064 L347.4267,494.10684 L348.4973,494.404 L349.56793,494.69785 L350.63855,494.98853 L351.70923,495.27606 L352.77985,495.56055 L353.85046,495.84204 L354.92108,496.12057 L355.9917,496.39627 L357.06238,496.66916 L358.133,496.9393 L359.2036,497.2068 L360.27423,497.4717 L361.34485,497.73407 L362.41553,497.994 L363.48615,498.25153 L364.55676,498.50674 L365.62738,498.75974 L366.698,499.01053 L367.76868,499.2592 L368.8393,499.50583 L369.9099,499.75052 L370.98053,499.9933 L372.0512,500.2342 L373.12183,500.4734 L374.19244,500.71085 L375.26306,500.94672 L376.33374,501.181 L377.40436,501.41382 L378.47498,501.6452 L379.5456,501.87527 L380.61627,502.10403 L381.68683,502.3316 L382.7575,502.558 L383.82813,502.78336 L384.8988,503.0077 L385.96936,503.2311 L387.04004,503.45364 L388.11066,503.67538 L389.18127,503.8964 L390.2519,504.11676 L391.32257,504.33652 L392.3932,504.55576 L393.4638,504.77454 L394.53442,504.99295 L395.6051,505.211 L396.67572,505.42883 L397.74634,505.64648 L398.81696,505.864 L399.88757,321 L400.95825,321.2175 L402.02887,321.43512 L403.0995,321.65286 L404.1701,321.87085 L405.24078,322.0891 L406.3114,322.30774 L407.38202,322.52682 L408.45264,322.7464 L409.52332,322.96652 L410.59387,323.1873 L411.66455,323.40878 L412.73517,323.63104 L413.8058,323.85413 L414.8764,324.07813 L415.94708,324.3031 L417.0177,324.5291 L418.08832,324.7563 L419.15894,324.98462 L420.2296,325.2142 L421.30023,325.44513 L422.37085,325.67743 L423.44147,325.9112 L424.51215,326.14648 L425.58276,326.38336 L426.65338,326.62195 L427.724,326.86224 L428.79462,327.10434 L429.8653,327.34833 L430.9359,327.59424 L432.00653,327.84222 L433.07715,328.09222 L434.14783,328.34442 L435.21844,328.59885 L436.28906,328.85556 L437.35968,329.11462 L438.43036,329.37613 L439.50092,329.64014 L440.5716,329.90668 L441.6422,330.1759 L442.71283,330.4478 L443.78345,330.7225 L444.85413,331.00003 L445.92474,331.28046 L446.99536,331.56387 L448.06598,331.85034 L449.13666,332.1399 L450.20728,332.43262 L451.2779,332.72858 L452.3485,333.02783 L453.41913,333.3305 L454.4898,333.63657 L455.56042,333.9461 L456.63104,334.25922 L457.70166,334.57596 L458.77234,334.89636 L459.84296,335.22046 L460.91357,335.5484 L461.9842,335.88013 L463.05487,336.2158 L464.1255,336.55542 L465.1961,336.89902 L466.26672,337.24664 L467.3374,337.59842 L468.40802,337.9543 L469.47864,338.3144 L470.54926,338.6787 L471.61987,339.0473 L472.69055,339.4202 L473.76117,339.79742 L474.8318,340.17908 L475.9024,340.56506 L476.97308,340.95554 L478.0437,341.35046 L479.11432,341.74985 L480.18494,342.15375 L481.2556,342.56213 L482.32617,342.97504 L483.39685,343.3925 L484.46747,343.81448 L485.5381,344.24103 L486.6087,344.67206 L487.67938,345.1076 L488.75,345.54773 L489.82062,345.9923 L490.89124,346.44135 L491.9619,346.89484 L493.03253,347.35278 L494.10315,347.81506 L495.17377,348.28174 L496.2444,348.7527 L497.31506,349.22784 L498.38568,349.70724 L499.4563,350.19077 L500.52692,350.67838 L501.5976,351.16998 L502.6682,351.66547 L503.73883,352.16486 L504.80945,352.66797 L505.88013,353.17474 L506.95068,353.68506 L508.02136,354.1989 L509.09198,354.71606 L510.16266,355.23648 L511.23322,355.76 L512.3039,356.28656 L513.3745,356.81598 L514.4451,357.34814 L515.51575,357.88293 L516.5864,358.42017 L517.65704,358.95972 L518.72766,359.50146 L519.7983,360.04523 L520.86896,360.59082 L521.9396,361.13812 L523.0102,361.68695 L524.0808,362.23718 L525.1514,362.78857 L526.2221,363.341 L527.2927,363.8943 L528.36334,364.44824 L529.43396,365.0027 L530.50464,365.55743 L531.57526,366.11237 L532.6459,366.6672 L533.7165,367.2218 L534.7872,367.77606 L535.8577,368.32965 L536.9284,368.8825 L537.999,369.43445 L539.0697,369.98523 L540.14026,370.53467 L541.21094,371.08267 L542.28156,371.62903 L543.3522,372.17352 L544.4228,372.71606 L545.49347,373.2564 L546.5641,373.7945 L547.6347,374.33008 L548.7053,374.86298 L549.776,375.39316 L550.8466,375.9204 L551.91724,376.44458 L552.98785,376.9655 L554.0585,377.4831 L555.12915,377.99725 L556.19977,378.50778 L557.2704,379.0146 L558.341,379.51758 L559.4117,380.01663 L560.4823,380.51163 L561.5529,381.0025 L562.62354,381.48907 L563.6942,381.97137 L564.7648,382.44925 L565.83545,382.9226 L566.90607,383.39145 L567.9767,383.85565 L569.0473,384.31512 L570.118,384.76984 L571.1886,385.2198 L572.2592,385.66486 L573.32983,386.10498 L574.4005,386.54022 L575.4711,386.97046 L576.54175,387.3957 L577.61237,387.81592 L578.683,388.23108 L579.75366,388.64117 L580.8243,389.04614 L581.8949,389.44604 L582.9655,389.84088 L584.0362,390.2306 L585.1068,390.61517 L586.1774,390.9947 L587.24805,391.3691 L588.3187,391.73843 L589.38934,392.10272 L590.45996,392.46194 L591.5306,392.81613 L592.60126,393.1653 L593.6719,393.50952 L594.7425,393.84875 L595.8131,394.1831 L596.8837,394.5125 L597.95435,394.83707 L599.025,395.1568 L600.09564,395.47174 L601.16626,395.7819 L602.2369,396.08734 L603.30756,396.38812 L604.3782,396.68427 L605.4488,396.97583 L606.5194,397.26282 L607.59,397.54532 L608.6607,397.82336 L609.7313,398.097 L610.80194,398.36624 L611.87256,398.63116 L612.94324,398.89188 L614.01385,399.14832 L615.0845,399.40063 L616.1551,399.6488 L617.22577,399.8929 L618.2963,400.13303 L619.367,400.36914 L620.4376,400.60135 L621.50824,400.8297 L622.57886,401.05426 L623.64954,401.27502 L624.72015,401.4921 L625.7908,401.7055 L626.8614,401.9153 L627.93207,402.12158 L629.0027,402.3243 L630.0733,402.5236 L631.1439,402.71948 L632.2146,402.912 L633.2852,403.10123 L634.35583,403.28717 L635.42645,403.46994 L636.4971,403.64954 L637.56775,403.82602 L638.63837,403.99945 L639.709,404.16986" fill="none" stroke="#a6da95" stroke-width="1.5"/>
</g>
<path d="M7.0565777,-2 L7.0565777,2 M13.888572,-2 L13.888572,2 M60.205944,-2 L60.205944,2 M83.72491,-2 L83.72491,2 M100.41188,-2 L100.41188,2 M113.35531,-2 L113.35531,2 M123.93085,-2 L123.93085,2 M132.87234,-2 L132.87234,2 M140.61783,-2 L140.61783,2 M147.44981,-2 L147.44981,2 M193.7672,-2 L193.7672,2 M217.28616,-2 L217.28616,2 M233.97314,-2 L233.97314,2 M246.91655,-2 L246.91655,2 M257.4921,-2 L257.4921,2 M266.4336,-2 L266.4336,2 M274.17908,-2 L274.17908,2 M281.01105,-2 L281.01105,2 M327.32843,-2 L327.32843,2 M350.8474,-2 L350.8474,2 M367.5344,-2 L367.5344,2 M380.4778,-2 L380.4778,2 M391.05334,-2 L391.05334,2 M399.99484,-2 L399.99484,2 M407.74033,-2 L407.74033,2 M414.5723,-2 L414.5723,2 M460.8897,-2 L460.8897,2 M484.40866,-2 L484.40866,2 M501.09564,-2 L501.09564,2 M514.03906,-2 L514.03906,2 M524.6146,-2 L524.6146,2 M533.5561,-2 L533.5561,2 M541.3016,-2 L541.3016,2 M548.13354,-2 L548.13354,2" fill="none" stroke="#cad3f5" stroke-width="0.5" transform="matrix(1 0 0 1 85.464005 525.864)"/>
<path d="M20,-4 L20,4 M153.56125,-4 L153.56125,4 M287.1225,-4 L287.1225,4 M420.68375,-4 L420.68375,4 M554.245,-4 L554.245,4" fill="none" stroke="#cad3f5" stroke-width="1" transform="matrix(1 0 0 1 85.464005 525.864)"/>
<text dominant-baseline="hanging" fill="#cad3f5" font-family="sans-serif" font-size="12" font-stretch="normal" font-style="normal" font-weight="400" text-anchor="middle" text-rendering="optimizeLegibility" transform="matrix(1 0 0 1 105.464005 538.124)">
1.00e2
</text>
<text dominant-baseline="hanging" fill="#cad3f5" font-family="sans-serif" font-size="12" font-stretch="normal" font-style="normal" font-weight="400" text-anchor="middle" text-rendering="optimizeLegibility" transform="matrix(1 0 0 1 239.02525 538.124)">
1.00e3
</text>
<text dominant-baseline="hanging" fill="#cad3f5" font-family="sans-serif" font-size="12" font-stretch="normal" font-style="normal" font-weight="400" text-anchor="middle" text-rendering="optimizeLegibility" transform="matrix(1 0 0 1 372.5865 538.124)">
1.00e4
</text>
<text dominant-baseline="hanging" fill="#cad3f5" font-family="sans-serif" font-size="12" font-stretch="normal" font-style="normal" font-weight="400" text-anchor="middle" text-rendering="optimizeLegibility" transform="matrix(1 0 0 1 506.14777 538.124)">
1.00e5
</text>
<text dominant-baseline="hanging" fill="#cad3f5" font-family="sans-serif" font-size="12" font-stretch="normal" font-style="normal" font-weight="400" text-anchor="middle" text-rendering="optimizeLegibility" transform="matrix(1 0 0 1 639.709 538.124)">
1.00e6
</text>
<text text-rendering="optimizeLegibility" transform="matrix(1 0 0 1 372.5865 575.312)">

<tspan text-anchor="middle" x="0">
<tspan font-family="sans-serif" font-size="16" font-stretch="normal" font-style="normal" font-weight="400">
<tspan fill="#cad3f5">Frequency [Hz]</tspan>
</tspan>
</tspan>
</text>
<path d="M19.852749,-4 L19.852749,4 M50.699665,-4 L50.699665,4 M81.54658,-4 L81.54658,4 M112.3935,-4 L112.3935,4 M143.24042,-4 L143.24042,4 M174.08733,-4 L174.08733,4 M204.93425,-4 L204.93425,4" fill="none" stroke="#cad3f5" stroke-width="1" transform="matrix(-0.00000004371139 -1 1 -0.00000004371139 85.464005 525.864)"/>
<text dominant-baseline="middle" fill="#cad3f5" font-family="sans-serif" font-size="12" font-stretch="normal" font-style="normal" font-weight="400" text-anchor="end" text-rendering="optimizeLegibility" transform="matrix(1 0 0 1 77.464005 506.01126)">
-0.50
</text>
<text dominant-baseline="middle" fill="#cad3f5" font-family="sans-serif" font-size="12" font-stretch="normal" font-style="normal" font-weight="400" text-anchor="end" text-rendering="optimizeLegibility" transform="matrix(1 0 0 1 77.464005 475.16434)">
-0.33
</text>
<text dominant-baseline="middle" fill="#cad3f5" font-family="sans-serif" font-size="12" font-stretch="normal" font-style="normal" font-weight="400" text-anchor="end" text-rendering="optimizeLegibility" transform="matrix(1 0 0 1 77.464005 444.31744)">
-0.17
</text>
<text dominant-baseline="middle" fill="#cad3f5" font-family="sans-serif" font-size="12" font-stretch="normal" font-style="normal" font-weight="400" text-anchor="end" text-rendering="optimizeLegibility" transform="matrix(1 0 0 1 77.464005 413.47052)">
0.00
</text>
<text dominant-baseline="middle" fill="#cad3f5" font-family="sans-serif" font-size="12" font-stretch="normal" font-style="normal" font-weight="400" text-anchor="end" text-rendering="optimizeLegibility" transform="matrix(1 0 0 1 77.464005 382.6236)">
0.17
</text>
<text dominant-baseline="middle" fill="#cad3f5" font-family="sans-serif" font-size="12" font-stretch="normal" font-style="normal" font-weight="400" text-anchor="end" text-rendering="optimizeLegibility" transform="matrix(1 0 0 1 77.464005 351.77667)">
0.33
</text>
<text dominant-baseline="middle" fill="#cad3f5" font-family="sans-serif" font-size="12" font-stretch="normal" font-style="normal" font-weight="400" text-anchor="end" text-rendering="optimizeLegibility" transform="matrix(1 0 0 1 77.464005 320.92975)">
0.50
</text>
<text dominant-baseline="hanging" fill="#cad3f5" font-family="sans-serif" font-size="12" font-stretch="normal" font-style="normal" font-weight="400" text-anchor="end" text-rendering="optimizeLegibility" transform="matrix(1 0 0 1 45.792004 305.26)">
× π
</text>
<text text-rendering="optimizeLegibility" transform="matrix(-0.00000004371139 -1 1 -0.00000004371139 37.104004 413.432)">

<tspan text-anchor="middle" x="0">
<tspan font-family="sans-serif" font-size="16" font-stretch="normal" font-style="normal" font-weight="400">
<tspan fill="#cad3f5">Phase [rad]</tspan>
</tspan>
</tspan>
</text>
<rect fill="none" height="224.86401" stroke="#cad3f5" stroke-width="1" width="574.245" x="85.464005" y="301"/>
</svg>