<svg height="600" viewBox="0 0 800 600" width="800" xmlns="http://www.w3.org/2000/svg">
<rect fill="#ffffff" height="100%" width="100%"/>
<text text-rendering="optimizeLegibility" transform="matrix(1 0 0 1 400 34.28)">

<tspan text-anchor="middle" x="0">
<tspan font-family="sans-serif" font-size="20" font-stretch="normal" font-style="normal" font-weight="400">
<tspan fill="#000000">Tennis ball thrown from 1ˢᵗ floor of Eiffel Tower</tspan>
</tspan>
</tspan>
</text>
<path d="M75.672,525.864 L75.672,47.5" fill="none" stroke="#808080" stroke-opacity="0.6" stroke-width="1"/>
<path d="M212.5376,525.864 L212.5376,47.5" fill="none" stroke="#808080" stroke-opacity="0.6" stroke-width="1"/>
<path d="M349.4032,525.864 L349.4032,47.5" fill="none" stroke="#808080" stroke-opacity="0.6" stroke-width="1"/>
<path d="M486.2688,525.864 L486.2688,47.5" fill="none" stroke="#808080" stroke-opacity="0.6" stroke-width="1"/>
<path d="M623.1344,525.864 L623.1344,47.5" fill="none" stroke="#808080" stroke-opacity="0.6" stroke-width="1"/>
<path d="M760,525.864 L760,47.5" fill="none" stroke="#808080" stroke-opacity="0.6" stroke-width="1"/>
<path d="M55.672,494.22797 L780,494.22797" fill="none" stroke="#808080" stroke-opacity="0.6" stroke-width="1"/>
<path d="M55.672,440.887 L780,440.887" fill="none" stroke="#808080" stroke-opacity="0.6" stroke-width="1"/>
<path d="M55.672,387.546 L780,387.546" fill="none" stroke="#808080" stroke-opacity="0.6" stroke-width="1"/>
<path d="M55.672,334.205 L780,334.205" fill="none" stroke="#808080" stroke-opacity="0.6" stroke-width="1"/>
<path d="M55.672,280.86398 L780,280.86398" fill="none" stroke="#808080" stroke-opacity="0.6" stroke-width="1"/>
<path d="M55.672,227.52298 L780,227.52298" fill="none" stroke="#808080" stroke-opacity="0.6" stroke-width="1"/>
<path d="M55.672,174.182 L780,174.182" fill="none" stroke="#808080" stroke-opacity="0.6" stroke-width="1"/>
<path d="M55.672,120.841 L780,120.841" fill="none" stroke="#808080" stroke-opacity="0.6" stroke-width="1"/>
<path d="M55.672,67.5 L780,67.5" fill="none" stroke="#808080" stroke-opacity="0.6" stroke-width="1"/>
<path d="M55.672,387.546 L780,387.546" fill="none" stroke="#000000" stroke-width="1"/>
<clipPath id="eidoplot-clip1">
<rect height="478.364" width="724.328" x="55.672" y="47.5"/>
</clipPath>
<g clip-path="url(#eidoplot-clip1)">
<path d="M75.672,67.5 L76.35633,67.502625 L77.04066,67.51047 L77.72498,67.52353 L78.40932,67.54187 L79.09364,67.5654 L79.77797,67.59418 L80.462296,67.628174 L81.14662,67.66742 L81.83095,67.71185 L82.51528,67.761566 L83.19961,67.81647 L83.88394,67.87662 L84.56827,67.941956 L85.252594,68.01254 L85.93692,68.08829 L86.62125,68.16931 L87.30557,68.25552 L87.98991,68.346924 L88.67423,68.44354 L89.35857,68.54535 L90.04289,68.65234 L90.72722,68.76459 L91.411545,68.88196 L92.09587,69.00455 L92.7802,69.132324 L93.46453,69.26526 L94.14886,69.40335 L94.83319,69.54666 L95.51752,69.6951 L96.20184,69.848694 L96.88617,70.00745 L97.570496,70.17136 L98.25482,70.34039 L98.939156,70.51456 L99.62348,70.69388 L100.307816,70.87833 L100.99214,71.06787 L101.67647,71.26251 L102.360794,71.46228 L103.04512,71.667145 L103.72945,71.877106 L104.41377,72.09216 L105.09811,72.31229 L105.78244,72.537445 L106.46676,72.7677 L107.15109,73.00299 L107.83542,73.24338 L108.519745,73.48877 L109.20407,73.73917 L109.8884,73.99463 L110.57273,74.255066 L111.25706,74.52057 L111.94138,74.791016 L112.62572,75.06647 L113.31004,75.34689 L113.99437,75.63229 L114.678696,75.92264 L115.36302,76.21796 L116.047356,76.51822 L116.73168,76.823395 L117.41601,77.133484 L118.10034,77.44852 L118.78467,77.76843 L119.468994,78.09323 L120.15332,78.42291 L120.83765,78.75751 L121.52197,79.096924 L122.206314,79.44116 L122.890625,79.79028 L123.57497,80.144196 L124.25929,80.50296 L124.94362,80.866516 L125.627945,81.23486 L126.31227,81.608 L126.9966,81.9859 L127.68092,82.36853 L128.36525,82.75595 L129.04959,83.14807 L129.73392,83.54495 L130.41824,83.9465 L131.10257,84.35278 L131.7869,84.76373 L132.47122,85.17935 L133.15555,85.59964 L133.83987,86.02457 L134.52422,86.4541 L135.20854,86.888306 L135.89287,87.32709 L136.5772,87.77045 L137.26152,88.218414 L137.94585,88.67093 L138.63017,89.12802 L139.3145,89.58966 L139.99884,90.055786 L140.68317,90.52643 L141.3675,91.00159 L142.05182,91.48123 L142.73615,91.96536 L143.42047,92.45392 L144.1048,92.9469 L144.78912,93.444336 L145.47346,93.9462 L146.15778,94.45242 L146.84212,94.96307 L147.52644,95.47806 L148.21077,95.997406 L148.8951,96.52109 L149.57942,97.04907 L150.26375,97.58142 L150.94807,98.11804 L151.6324,98.658905 L152.31674,99.20407 L153.00107,99.75345 L153.6854,100.30713 L154.36972,100.86496 L155.05405,101.427 L155.73837,101.993286 L156.4227,102.56369 L157.10703,103.138275 L157.79137,103.71698 L158.4757,104.299835 L159.16002,104.88678 L159.84435,105.47781 L160.52867,106.07297 L161.213,106.67212 L161.89732,107.27536 L162.58165,107.88263 L163.26599,108.49393 L163.95032,109.10919 L164.63464,109.728455 L165.31897,110.351654 L166.0033,110.97885 L166.68762,111.609955 L167.37195,112.244965 L168.05627,112.88391 L168.74062,113.5267 L169.42494,114.1734 L170.10927,114.82391 L170.7936,115.47824 L171.47792,116.136444 L172.16225,116.79843 L172.84657,117.46417 L173.5309,118.1337 L174.21524,118.80698 L174.89957,119.48398 L175.5839,120.1647 L176.26822,120.84912 L176.95255,121.53726 L177.63687,122.229065 L178.3212,122.9245 L179.00552,123.623566 L179.68987,124.32626 L180.37419,125.03256 L181.05852,125.74243 L181.74284,126.45587 L182.42717,127.17288 L183.1115,127.89343 L183.79582,128.6175 L184.48015,129.34503 L185.16447,130.07608 L185.8488,130.81061 L186.53314,131.54852 L187.21745,132.28995 L187.90178,133.03476 L188.58612,133.78299 L189.27045,134.53458 L189.95477,135.28958 L190.6391,136.04788 L191.32343,136.80957 L192.00777,137.57455 L192.69208,138.34283 L193.3764,139.11441 L194.06075,139.88925 L194.74507,140.66736 L195.4294,141.4487 L196.11372,142.23322 L196.79805,143.021 L197.48239,143.81195 L198.1667,144.60605 L198.85103,145.40332 L199.53537,146.20374 L200.2197,147.00723 L200.90402,147.81387 L201.58835,148.6236 L202.27267,149.43637 L202.95702,150.25226 L203.64133,151.07114 L204.32565,151.89304 L205.01,152.71796 L205.69432,153.54584 L206.37865,154.37671 L207.06297,155.21054 L207.7473,156.0473 L208.43163,156.887 L209.11595,157.72958 L209.80028,158.57507 L210.48462,159.42346 L211.16895,160.27466 L211.85327,161.12872 L212.5376,161.98563 L213.22192,162.84534 L213.90625,163.70786 L214.59058,164.57315 L215.2749,165.4412 L215.95924,166.31201 L216.64357,167.18555 L217.3279,168.0618 L218.01222,168.94073 L218.69655,169.82242 L219.38087,170.7067 L220.0652,171.59369 L220.74953,172.4833 L221.43387,173.37555 L222.1182,174.27039 L222.80252,175.16782 L223.48685,176.06787 L224.17117,176.97046 L224.8555,177.87561 L225.53983,178.78326 L226.22415,179.69345 L226.9085,180.60614 L227.59282,181.52133 L228.27715,182.439 L228.96147,183.35913 L229.6458,184.28168 L230.33012,185.2067 L231.01445,186.1341 L231.69878,187.06393 L232.3831,187.99612 L233.06744,188.9307 L233.75177,189.86761 L234.4361,190.80688 L235.12042,191.74847 L235.80475,192.69241 L236.48907,193.63858 L237.1734,194.5871 L237.85773,195.53784 L238.54207,196.4909 L239.22638,197.44617 L239.91072,198.40366 L240.59505,199.36334 L241.27939,200.32526 L241.9637,201.28934 L242.64804,202.25558 L243.33235,203.224 L244.01668,204.19458 L244.70102,205.1673 L245.38533,206.14209 L246.06967,207.11902 L246.754,208.09802 L247.43834,209.0791 L248.12265,210.06223 L248.80698,211.04742 L249.49132,212.0347 L250.17563,213.02393 L250.85997,214.01523 L251.5443,215.00851 L252.22864,216.00378 L252.91295,217.001 L253.59727,218.00018 L254.2816,219.00131 L254.96593,220.0044 L255.65027,221.0094 L256.3346,222.0163 L257.01892,223.02512 L257.70325,224.0358 L258.3876,225.04834 L259.0719,226.06277 L259.75623,227.07901 L260.44058,228.09714 L261.12488,229.11707 L261.80923,230.1388 L262.49356,231.16232 L263.1779,232.18765 L263.8622,233.21472 L264.5465,234.24359 L265.23087,235.27417 L265.9152,236.30652 L266.59952,237.34058 L267.28384,238.37637 L267.96817,239.41385 L268.6525,240.45303 L269.33685,241.49387 L270.02115,242.5364 L270.70547,243.58057 L271.38983,244.62637 L272.07413,245.67386 L272.75848,246.72293 L273.4428,247.77362 L274.12714,248.8259 L274.81146,249.87979 L275.49576,250.93524 L276.1801,251.99228 L276.86444,253.05087 L277.54877,254.111 L278.2331,255.17267 L278.91742,256.23584 L279.60175,257.30054 L280.28607,258.36673 L280.9704,259.43445 L281.65472,260.50363 L282.33908,261.5743 L283.02338,262.64642 L283.70773,263.72 L284.39203,264.795 L285.0764,265.87146 L285.7607,266.9493 L286.445,268.02863 L287.12936,269.10928 L287.8137,270.19135 L288.49802,271.2748 L289.18234,272.35962 L289.86667,273.44583 L290.551,274.5334 L291.23532,275.62225 L291.91965,276.71252 L292.60397,277.80402 L293.28833,278.8969 L293.97263,279.9911 L294.65698,281.08655 L295.34128,282.1833 L296.0256,283.2813 L296.70996,284.3806 L297.39426,285.48114 L298.0786,286.58295 L298.76294,287.68597 L299.44727,288.79025 L300.1316,289.89575 L300.81592,291.00244 L301.50024,292.11035 L302.18457,293.21948 L302.8689,294.32977 L303.55322,295.44125 L304.23755,296.5539 L304.92188,297.6677 L305.60623,298.78265 L306.29053,299.89874 L306.97485,301.016 L307.6592,302.13437 L308.3435,303.25388 L309.02786,304.37445 L309.7122,305.49615 L310.3965,306.61896 L311.08084,307.74286 L311.76517,308.86783 L312.4495,309.9939 L313.13382,311.12097 L313.81815,312.24915 L314.50247,313.37836 L315.1868,314.5086 L315.87112,315.6399 L316.55545,316.7722 L317.23978,317.90552 L317.9241,319.03986 L318.60843,320.1752 L319.29276,321.31152 L319.9771,322.44885 L320.6614,323.58716 L321.34576,324.72644 L322.0301,325.8667 L322.7144,327.00787 L323.39874,328.15002 L324.08307,329.29312 L324.7674,330.43716 L325.45172,331.58212 L326.13605,332.72803 L326.82037,333.87482 L327.5047,335.02252 L328.18903,336.17114 L328.87335,337.32065 L329.55768,338.47107 L330.242,339.62234 L330.92636,340.77448 L331.61066,341.92752 L332.295,343.08142 L332.97934,344.23615 L333.66364,345.39172 L334.348,346.54816 L335.03232,347.70544 L335.71664,348.86353 L336.40097,350.02246 L337.0853,351.1822 L337.76962,352.34277 L338.45395,353.50412 L339.13828,354.66626 L339.8226,355.82922 L340.50693,356.99298 L341.19125,358.1575 L341.8756,359.32278 L342.5599,360.48886 L343.24426,361.6557 L343.9286,362.82327 L344.61288,363.99164 L345.29724,365.1607 L345.98157,366.33054 L346.6659,367.5011 L347.35022,368.6724 L348.03455,369.84442 L348.71887,371.01715 L349.4032,372.1906 L350.08752,373.36475 L350.77185,374.5396 L351.45618,375.71515 L352.1405,376.8914 L352.82486,378.0683 L353.50916,379.2459 L354.1935,380.4242 L354.87784,381.60315 L355.56213,382.78278 L356.2465,383.96304 L356.9308,385.14398 L357.61514,386.32556 L358.29947,387.5078 L358.9838,388.69064 L358.9838,386.4013 L359.66812,385.50604 L360.35245,384.6186 L361.03677,383.73895 L361.7211,382.86707 L362.40543,382.00287 L363.08975,381.14636 L363.7741,380.2975 L364.4584,379.45618 L365.14273,378.62238 L365.8271,377.79608 L366.51138,376.97726 L367.19574,376.16583 L367.88004,375.36182 L368.5644,374.56512 L369.24872,373.7757 L369.93304,372.99356 L370.61737,372.21863 L371.3017,371.45093 L371.98602,370.69034 L372.67035,369.9369 L373.35468,369.1905 L374.039,368.45117 L374.72336,367.7188 L375.40765,366.99347 L376.09198,366.2751 L376.7763,365.5636 L377.46063,364.85895 L378.145,364.1612 L378.82928,363.47025 L379.51364,362.78607 L380.19797,362.10864 L380.88226,361.438 L381.56662,360.774 L382.25095,360.1167 L382.93527,359.466 L383.6196,358.8219 L384.30392,358.18445 L384.98825,357.55347 L385.6726,356.92908 L386.3569,356.31116 L387.04123,355.6997 L387.72556,355.09473 L388.40988,354.49615 L389.09424,353.904 L389.77853,353.31818 L390.4629,352.73874 L391.14722,352.1656 L391.8315,351.59875 L392.51587,351.03824 L393.2002,350.48395 L393.88452,349.93585 L394.56885,349.39398 L395.25317,348.85834 L395.9375,348.32883 L396.62183,347.80548 L397.30615,347.2882 L397.99048,346.7771 L398.6748,346.27203 L399.35913,345.773 L400.0435,345.28006 L400.72778,344.79312 L401.41214,344.3122 L402.09647,343.83722 L402.78076,343.36823 L403.46512,342.9052 L404.14944,342.4481 L404.83377,341.9969 L405.5181,341.55157 L406.20242,341.11212 L406.88675,340.67853 L407.57108,340.2508 L408.2554,339.82892 L408.93973,339.4128 L409.62405,339.0025 L410.30838,338.59796 L410.99274,338.19922 L411.67703,337.8062 L412.3614,337.41888 L413.04572,337.03735 L413.73,336.6615 L414.41437,336.2913 L415.0987,335.92682 L415.78302,335.568 L416.46735,335.21478 L417.15167,334.86725 L417.836,334.5253 L418.52032,334.189 L419.20465,333.85828 L419.88898,333.53314 L420.5733,333.21356 L421.25766,332.8996 L421.94196,332.59113 L422.62628,332.28824 L423.31064,331.99084 L423.99493,331.69897 L424.67926,331.41266 L425.36362,331.13177 L426.04794,330.8564 L426.73224,330.58655 L427.4166,330.32208 L428.10092,330.06314 L428.78522,329.80963 L429.46957,329.56152 L430.1539,329.3189 L430.83826,329.08167 L431.52255,328.84985 L432.20688,328.62347 L432.89124,328.40244 L433.57556,328.18683 L434.25986,327.9766 L434.9442,327.77173 L435.62854,327.5722 L436.31284,327.37808 L436.9972,327.1893 L437.68152,327.00586 L438.36584,326.82776 L439.05017,326.65503 L439.7345,326.48755 L440.41882,326.32544 L441.10312,326.16864 L441.78748,326.01715 L442.4718,325.871 L443.15616,325.7301 L443.84045,325.59454 L444.52478,325.46423 L445.20914,325.33923 L445.89343,325.21948 L446.57776,325.10504 L447.26212,324.99585 L447.94644,324.89197 L448.63074,324.79333 L449.3151,324.69995 L449.99942,324.61182 L450.68372,324.529 L451.36807,324.45135 L452.0524,324.37903 L452.73676,324.3119 L453.42105,324.25006 L454.10538,324.19342 L454.78973,324.14206 L455.47403,324.09592 L456.15836,324.05502 L456.8427,324.01935 L457.52704,323.98895 L458.21133,323.96375 L458.8957,323.94382 L459.58002,323.9291 L460.2643,323.91962 L460.94864,323.9154 L461.633,323.91638 L462.31732,323.9226 L463.00162,323.93402 L463.68597,323.95074 L464.3703,323.97266 L465.05466,323.9998 L465.73895,324.03217 L466.42328,324.06976 L467.10764,324.1126 L467.79193,324.16064 L468.47626,324.21393 L469.1606,324.27243 L469.84494,324.33615 L470.52924,324.4051 L471.2136,324.47925 L471.89792,324.55865 L472.5822,324.64322 L473.26657,324.73303 L473.9509,324.828 L474.63525,324.92822 L475.31955,325.0336 L476.00388,325.1442 L476.68823,325.25998 L477.37253,325.38095 L478.05685,325.50708 L478.7412,325.63843 L479.42554,325.7749 L480.10983,325.91663 L480.79416,326.06342 L481.47852,326.21542 L482.1628,326.37256 L482.84714,326.53485 L483.5315,326.70233 L484.21582,326.8749 L484.90012,327.0526 L485.58447,327.23547 L486.2688,327.4234 L486.9531,327.6165 L487.63745,327.81467 L488.32178,328.01794 L489.00613,328.22632 L489.69043,328.43976 L490.37476,328.65833 L491.0591,328.88193 L491.74344,329.1106 L492.42773,329.34433 L493.1121,329.58313 L493.79642,329.82693 L494.4807,330.07578 L495.16507,330.32965 L495.8494,330.58856 L496.53375,330.85248 L497.21805,331.12137 L497.90237,331.39526 L498.58673,331.67413 L499.27103,331.958 L499.95535,332.24683 L500.63968,332.5406 L501.32404,332.8393 L502.00833,333.14294 L502.69266,333.4515 L503.377,333.765 L504.0613,334.08337 L504.74564,334.40668 L505.43,334.73486 L506.11432,335.0679 L506.7986,335.40582 L507.48297,335.74857 L508.1673,336.0962 L508.8516,336.4486 L509.53595,336.80585 L510.22028,337.1679 L510.90463,337.5348 L511.58893,337.90643 L512.27325,338.28284 L512.95764,338.664 L513.6419,339.04993 L514.32623,339.4406 L515.0106,339.836 L515.69495,340.23608 L516.3792,340.6409 L517.0636,341.0504 L517.7479,341.46454 L518.43225,341.88336 L519.1166,342.3069 L519.8009,342.735 L520.4852,343.16772 L521.16956,343.60507 L521.8539,344.047 L522.5382,344.49353 L523.22253,344.94464 L523.90686,345.40033 L524.5912,345.86053 L525.2755,346.32526 L525.95984,346.7945 L526.64417,347.26825 L527.3285,347.7465 L528.0128,348.22922 L528.69714,348.71637 L529.3815,349.208 L530.0658,349.70407 L530.7501,350.20453 L531.43445,350.7094 L532.1188,351.2187 L532.80316,351.7323 L533.4874,352.2503 L534.17175,352.77264 L534.85614,353.29932 L535.5404,353.83032 L536.22473,354.3656 L536.9091,354.90515 L537.59344,355.449 L538.2777,355.99707 L538.9621,356.54944 L539.6464,357.106 L540.3307,357.66675 L541.0151,358.2317 L541.6994,358.8008 L542.3837,359.37408 L543.068,359.95154 L543.7524,360.53308 L544.4367,361.11877 L545.121,361.70856 L545.80536,362.30243 L546.4897,362.90033 L547.174,363.50232 L547.85834,364.1083 L548.54266,364.71832 L549.227,365.33237 L549.9113,365.95038 L550.59564,366.57236 L551.27997,367.1983 L551.9643,367.82816 L552.6486,368.46198 L553.33295,369.09967 L554.0173,369.74124 L554.70166,370.38672 L555.3859,371.036 L556.07025,371.68918 L556.75464,372.34616 L557.4389,373.00696 L558.1232,373.6715 L558.8076,374.33984 L559.49194,375.01196 L560.1762,375.68784 L560.8606,376.3674 L561.5449,377.0507 L562.2292,377.73767 L562.9135,378.42828 L563.5979,379.12262 L564.2822,379.82056 L564.9665,380.52216 L565.6509,381.22733 L566.3352,381.9361 L567.0195,382.64844 L567.7038,383.36435 L568.3882,384.0838 L569.0725,384.80676 L569.7568,385.53326 L570.44116,386.26324 L571.1255,386.99667 L571.80975,387.73358 L571.80975,387.3584 L572.49414,386.80017 L573.17847,386.2482 L573.8628,385.70245 L574.5471,385.1629 L575.23145,384.62952 L575.9158,384.1023 L576.6001,383.5812 L577.2844,383.06622 L577.96875,382.55737 L578.6531,382.05457 L579.3374,381.5578 L580.0217,381.06708 L580.70605,380.5824 L581.3904,380.1037 L582.0747,379.63095 L582.75903,379.16418 L583.44336,378.70337 L584.1277,378.2484 L584.812,377.79944 L585.49634,377.3563 L586.1807,376.91907 L586.865,376.48764 L587.5493,376.06207 L588.2337,375.64233 L588.91797,375.2284 L589.6023,374.82025 L590.2867,374.41785 L590.971,374.02124 L591.6553,373.63037 L592.33966,373.24518 L593.024,372.86575 L593.70825,372.492 L594.39264,372.12396 L595.07697,371.76157 L595.7613,371.40482 L596.4456,371.05374 L597.12994,370.70828 L597.8143,370.36844 L598.4986,370.0342 L599.1829,369.70557 L599.86725,369.3825 L600.5516,369.06506 L601.2359,368.7531 L601.9202,368.44672 L602.60455,368.14587 L603.2889,367.85056 L603.9732,367.56073 L604.65753,367.27646 L605.34186,366.99762 L606.0262,366.7243 L606.7105,366.45645 L607.39484,366.19403 L608.0792,365.93713 L608.7635,365.6856 L609.4478,365.43958 L610.1322,365.19894 L610.81647,364.96375 L611.5008,364.73395 L612.1852,364.50952 L612.8695,364.29053 L613.5538,364.0769 L614.23816,363.86868 L614.9225,363.66583 L615.60675,363.46832 L616.29114,363.27618 L616.97546,363.08936 L617.6598,362.90793 L618.3441,362.7318 L619.02844,362.56104 L619.71277,362.39557 L620.3971,362.23544 L621.0814,362.08063 L621.76575,361.93112 L622.4501,361.78693 L623.1344,361.648 L623.8187,361.51437 L624.50305,361.38605 L625.1874,361.263 L625.8717,361.14526 L626.556,361.03278 L627.24036,360.92554 L627.9247,360.8236 L628.609,360.72693 L629.29333,360.6355 L629.97766,360.54935 L630.662,360.46844 L631.3463,360.39276 L632.0307,360.3224 L632.71497,360.2572 L633.3993,360.19733 L634.0837,360.14264 L634.768,360.09323 L635.4523,360.04904 L636.13666,360.0101 L636.821,359.97638 L637.50525,359.94794 L638.18964,359.92468 L638.87396,359.9067 L639.5583,359.89395 L640.2426,359.8864 L640.92694,359.88412 L641.61127,359.8871 L642.2956,359.89523 L642.9799,359.90863 L643.66425,359.92728 L644.3486,359.95114 L645.0329,359.98022 L645.7172,360.01453 L646.40155,360.05408 L647.0859,360.09888 L647.7702,360.14886 L648.4545,360.2041 L649.13885,360.2646 L649.8232,360.33026 L650.5075,360.40112 L651.19183,360.47723 L651.87616,360.55856 L652.5605,360.64508 L653.2448,360.73682 L653.9292,360.83374 L654.61346,360.93588 L655.2978,361.0432 L655.9822,361.15576 L656.66644,361.27344 L657.35077,361.39636 L658.03516,361.52444 L658.7195,361.6577 L659.40375,361.79614 L660.08813,361.93973 L660.77246,362.08847 L661.4568,362.2424 L662.1411,362.4015 L662.82544,362.56567 L663.50977,362.73505 L664.1941,362.90955 L664.8784,363.08917 L665.56274,363.27393 L666.2471,363.4638 L666.9314,363.65875 L667.6157,363.85883 L668.30005,364.06403 L668.9844,364.2743 L669.6687,364.48965 L670.353,364.71008 L671.03735,364.93558 L671.7217,365.16614 L672.406,365.40173 L673.09033,365.6424 L673.77466,365.88812 L674.459,366.13885 L675.1433,366.3946 L675.8277,366.65536 L676.51196,366.92114 L677.1963,367.1919 L677.8807,367.46765 L678.56494,367.74838 L679.24927,368.03406 L679.93365,368.32474 L680.618,368.62036 L681.30225,368.9209 L681.98663,369.22638 L682.67096,369.5368 L683.3552,369.8521 L684.0396,370.17233 L684.72394,370.49744 L685.40826,370.82745 L686.0926,371.1623 L686.7769,371.502 L687.46124,371.84662 L688.14557,372.196 L688.8299,372.55023 L689.5142,372.9093 L690.19855,373.27313 L690.8829,373.64178 L691.5672,374.0152 L692.2515,374.39337 L692.93585,374.77634 L693.6202,375.16403 L694.3045,375.55646 L694.98883,375.9536 L695.67316,376.35547 L696.3575,376.76202 L697.0418,377.17325 L697.7262,377.58917 L698.41046,378.0097 L699.0948,378.43494 L699.7792,378.86475 L700.46344,379.29922 L701.14777,379.73828 L701.83215,380.18195 L702.5165,380.6302 L703.20074,381.083 L703.88513,381.54034 L704.56946,382.00226 L705.2537,382.4687 L705.9381,382.9396 L706.62244,383.41504 L707.30676,383.89493 L707.991,384.37933 L708.6754,384.86816 L709.35974,385.36145 L710.044,385.85913 L710.7284,386.36127 L711.4127,386.86777 L712.09705,387.37866 L712.7814,387.89392 L712.7814,387.19803 L713.4657,386.80765 L714.15,386.42297 L714.83435,386.04404 L715.5187,385.67078 L716.203,385.30322 L716.8873,384.94128 L717.57166,384.58505 L718.256,384.23447 L718.9403,383.88947 L719.6247,383.5501 L720.30896,383.21637 L720.9933,382.88824 L721.6777,382.56567 L722.36194,382.24866 L723.04626,381.9372 L723.73065,381.6313 L724.415,381.33093 L725.09924,381.03607 L725.7836,380.74677 L726.46796,380.46292 L727.1522,380.18457 L727.83655,379.9117 L728.52094,379.64435 L729.20526,379.38242 L729.8895,379.12592 L730.5739,378.8749 L731.25824,378.62933 L731.9425,378.38916 L732.6269,378.15442 L733.3112,377.9251 L733.99554,377.70117 L734.6799,377.4826 L735.3642,377.26947 L736.0485,377.0617 L736.73285,376.8593 L737.4172,376.66223 L738.1015,376.47058 L738.7858,376.28424 L739.47015,376.10324 L740.1545,375.9276 L740.8388,375.75726 L741.52313,375.5923 L742.20746,375.43262 L742.8918,375.27823 L743.5762,375.12918 L744.26044,374.9854 L744.94476,374.847 L745.62915,374.7138 L746.3135,374.58594 L746.99774,374.46335 L747.68207,374.34607 L748.36646,374.234 L749.0507,374.12726 L749.73505,374.02576 L750.41943,373.92953 L751.10376,373.83856 L751.788,373.75287 L752.4724,373.67242 L753.15674,373.59723 L753.841,373.52728 L754.5254,373.4626 L755.2097,373.40314 L755.89404,373.3489 L756.57837,373.29993 L757.2627,373.25623 L757.947,373.2177 L758.63135,373.18445 L759.3157,373.15643 L760,373.13367" fill="none" stroke="#1f77b4" stroke-width="1.5"/>
<path d="M75.672,387.546 L76.35633,388.06924 L77.04066,388.59253 L77.72498,389.11572 L78.40932,389.6389 L79.09364,390.162 L79.77797,390.685 L80.462296,391.2079 L81.14662,391.73065 L81.83095,392.2533 L82.51528,392.77576 L83.19961,393.29803 L83.88394,393.82013 L84.56827,394.34198 L85.252594,394.86362 L85.93692,395.385 L86.62125,395.90613 L87.30557,396.42694 L87.98991,396.9475 L88.67423,397.4677 L89.35857,397.98758 L90.04289,398.50708 L90.72722,399.0262 L91.411545,399.54498 L92.09587,400.0633 L92.7802,400.58124 L93.46453,401.0987 L94.14886,401.6157 L94.83319,402.13223 L95.51752,402.6483 L96.20184,403.1638 L96.88617,403.6788 L97.570496,404.19324 L98.25482,404.70712 L98.939156,405.22043 L99.62348,405.73315 L100.307816,406.24524 L100.99214,406.7567 L101.67647,407.26755 L102.360794,407.7777 L103.04512,408.2872 L103.72945,408.796 L104.41377,409.30408 L105.09811,409.81143 L105.78244,410.31805 L106.46676,410.8239 L107.15109,411.329 L107.83542,411.8333 L108.519745,412.3368 L109.20407,412.83948 L109.8884,413.3413 L110.57273,413.84232 L111.25706,414.34244 L111.94138,414.84167 L112.62572,415.34003 L113.31004,415.83746 L113.99437,416.33398 L114.678696,416.8296 L115.36302,417.32422 L116.047356,417.81787 L116.73168,418.31055 L117.41601,418.80225 L118.10034,419.2929 L118.78467,419.7826 L119.468994,420.27118 L120.15332,420.75876 L120.83765,421.24527 L121.52197,421.7307 L122.206314,422.21503 L122.890625,422.69827 L123.57497,423.18042 L124.25929,423.6614 L124.94362,424.14127 L125.627945,424.61996 L126.31227,425.0975 L126.9966,425.57388 L127.68092,426.04904 L128.36525,426.523 L129.04959,426.9958 L129.73392,427.46735 L130.41824,427.93765 L131.10257,428.4067 L131.7869,428.8745 L132.47122,429.34103 L133.15555,429.8063 L133.83987,430.27026 L134.52422,430.73294 L135.20854,431.19427 L135.89287,431.65433 L136.5772,432.113 L137.26152,432.57037 L137.94585,433.02637 L138.63017,433.48102 L139.3145,433.93433 L139.99884,434.38623 L140.68317,434.83673 L141.3675,435.28583 L142.05182,435.73355 L142.73615,436.17984 L143.42047,436.6247 L144.1048,437.06815 L144.78912,437.51013 L145.47346,437.95068 L146.15778,438.38977 L146.84212,438.82742 L147.52644,439.26355 L148.21077,439.69824 L148.8951,440.13144 L149.57942,440.56314 L150.26375,440.99332 L150.94807,441.422 L151.6324,441.84918 L152.31674,442.27484 L153.00107,442.69897 L153.6854,443.12155 L154.36972,443.5426 L155.05405,443.9621 L155.73837,444.38007 L156.4227,444.79645 L157.10703,445.2113 L157.79137,445.62457 L158.4757,446.03625 L159.16002,446.44635 L159.84435,446.8549 L160.52867,447.26184 L161.213,447.66718 L161.89732,448.07092 L162.58165,448.47305 L163.26599,448.8736 L163.95032,449.27252 L164.63464,449.66983 L165.31897,450.06552 L166.0033,450.4596 L166.68762,450.85205 L167.37195,451.24286 L168.05627,451.63205 L168.74062,452.0196 L169.42494,452.40552 L170.10927,452.7898 L170.7936,453.1724 L171.47792,453.55338 L172.16225,453.9327 L172.84657,454.3104 L173.5309,454.68643 L174.21524,455.0608 L174.89957,455.43353 L175.5839,455.80457 L176.26822,456.17398 L176.95255,456.54172 L177.63687,456.90778 L178.3212,457.2722 L179.00552,457.63495 L179.68987,457.996 L180.37419,458.35544 L181.05852,458.71317 L181.74284,459.06924 L182.42717,459.42365 L183.1115,459.7764 L183.79582,460.12747 L184.48015,460.47687 L185.16447,460.8246 L185.8488,461.17065 L186.53314,461.51505 L187.21745,461.85776 L187.90178,462.19882 L188.58612,462.5382 L189.27045,462.87592 L189.95477,463.21198 L190.6391,463.54636 L191.32343,463.8791 L192.00777,464.21014 L192.69208,464.53952 L193.3764,464.86725 L194.06075,465.1933 L194.74507,465.51773 L195.4294,465.84048 L196.11372,466.16156 L196.79805,466.48102 L197.48239,466.7988 L198.1667,467.11493 L198.85103,467.4294 L199.53537,467.74225 L200.2197,468.05344 L200.90402,468.363 L201.58835,468.6709 L202.27267,468.97717 L202.95702,469.28183 L203.64133,469.58484 L204.32565,469.8862 L205.01,470.18597 L205.69432,470.4841 L206.37865,470.7806 L207.06297,471.0755 L207.7473,471.36877 L208.43163,471.66046 L209.11595,471.95053 L209.80028,472.23898 L210.48462,472.52585 L211.16895,472.8111 L211.85327,473.0948 L212.5376,473.37686 L213.22192,473.65735 L213.90625,473.93628 L214.59058,474.21362 L215.2749,474.48938 L215.95924,474.76355 L216.64357,475.0362 L217.3279,475.30725 L218.01222,475.57675 L218.69655,475.8447 L219.38087,476.1111 L220.0652,476.37598 L220.74953,476.63928 L221.43387,476.90106 L222.1182,477.16132 L222.80252,477.42 L223.48685,477.67722 L224.17117,477.9329 L224.8555,478.18707 L225.53983,478.43973 L226.22415,478.69086 L226.9085,478.94052 L227.59282,479.18866 L228.27715,479.43533 L228.96147,479.6805 L229.6458,479.92422 L230.33012,480.16644 L231.01445,480.4072 L231.69878,480.64648 L232.3831,480.88434 L233.06744,481.1207 L233.75177,481.35562 L234.4361,481.5891 L235.12042,481.82117 L235.80475,482.0518 L236.48907,482.28094 L237.1734,482.50873 L237.85773,482.73508 L238.54207,482.96002 L239.22638,483.18353 L239.91072,483.40567 L240.59505,483.6264 L241.27939,483.84576 L241.9637,484.06372 L242.64804,484.28033 L243.33235,484.49554 L244.01668,484.70938 L244.70102,484.92188 L245.38533,485.13303 L246.06967,485.3428 L246.754,485.55124 L247.43834,485.75836 L248.12265,485.9641 L248.80698,486.16858 L249.49132,486.3717 L250.17563,486.57352 L250.85997,486.77402 L251.5443,486.97324 L252.22864,487.17114 L252.91295,487.36774 L253.59727,487.56308 L254.2816,487.75714 L254.96593,487.9499 L255.65027,488.14142 L256.3346,488.33167 L257.01892,488.52066 L257.70325,488.7084 L258.3876,488.8949 L259.0719,489.08017 L259.75623,489.2642 L260.44058,489.447 L261.12488,489.62857 L261.80923,489.80893 L262.49356,489.9881 L263.1779,490.16608 L263.8622,490.34283 L264.5465,490.5184 L265.23087,490.69278 L265.9152,490.866 L266.59952,491.03802 L267.28384,491.2089 L267.96817,491.3786 L268.6525,491.54718 L269.33685,491.7146 L270.02115,491.88086 L270.70547,492.046 L271.38983,492.21 L272.07413,492.3729 L272.75848,492.53464 L273.4428,492.6953 L274.12714,492.85486 L274.81146,493.0133 L275.49576,493.17065 L276.1801,493.32693 L276.86444,493.48212 L277.54877,493.63623 L278.2331,493.78925 L278.91742,493.94122 L279.60175,494.09213 L280.28607,494.242 L280.9704,494.3908 L281.65472,494.5386 L282.33908,494.68533 L283.02338,494.83105 L283.70773,494.97574 L284.39203,495.11942 L285.0764,495.26205 L285.7607,495.40372 L286.445,495.54437 L287.12936,495.68402 L287.8137,495.8227 L288.49802,495.9604 L289.18234,496.09708 L289.86667,496.23282 L290.551,496.36758 L291.23532,496.5014 L291.91965,496.63425 L292.60397,496.76617 L293.28833,496.89713 L293.97263,497.02716 L294.65698,497.15625 L295.34128,497.2844 L296.0256,497.41165 L296.70996,497.538 L297.39426,497.6634 L298.0786,497.78793 L298.76294,497.91153 L299.44727,498.03427 L300.1316,498.1561 L300.81592,498.27707 L301.50024,498.39716 L302.18457,498.51636 L302.8689,498.6347 L303.55322,498.75217 L304.23755,498.8688 L304.92188,498.9846 L305.60623,499.09952 L306.29053,499.21362 L306.97485,499.32687 L307.6592,499.43933 L308.3435,499.55093 L309.02786,499.6617 L309.7122,499.7717 L310.3965,499.88086 L311.08084,499.98923 L311.76517,500.0968 L312.4495,500.20358 L313.13382,500.30957 L313.81815,500.4148 L314.50247,500.51923 L315.1868,500.62286 L315.87112,500.72577 L316.55545,500.82788 L317.23978,500.92926 L317.9241,501.02988 L318.60843,501.12976 L319.29276,501.22888 L319.9771,501.32727 L320.6614,501.42493 L321.34576,501.52185 L322.0301,501.61807 L322.7144,501.71356 L323.39874,501.80832 L324.08307,501.9024 L324.7674,501.99576 L325.45172,502.0884 L326.13605,502.1804 L326.82037,502.27167 L327.5047,502.36224 L328.18903,502.45218 L328.87335,502.5414 L329.55768,502.62997 L330.242,502.71786 L330.92636,502.8051 L331.61066,502.89166 L332.295,502.9776 L332.97934,503.06287 L333.66364,503.14752 L334.348,503.2315 L335.03232,503.31485 L335.71664,503.39758 L336.40097,503.47968 L337.0853,503.56116 L337.76962,503.642 L338.45395,503.72223 L339.13828,503.80188 L339.8226,503.8809 L340.50693,503.95932 L341.19125,504.03714 L341.8756,504.11438 L342.5599,504.191 L343.24426,504.2671 L343.9286,504.34256 L344.61288,504.41745 L345.29724,504.4918 L345.98157,504.56555 L346.6659,504.63873 L347.35022,504.71136 L348.03455,504.78345 L348.71887,504.85495 L349.4032,504.92593 L350.08752,504.99637 L350.77185,505.06622 L351.45618,505.1356 L352.1405,505.2044 L352.82486,505.27267 L353.50916,505.34045 L354.1935,505.40768 L354.87784,505.4744 L355.56213,505.5406 L356.2465,505.6063 L356.9308,505.67148 L357.61514,505.73615 L358.29947,505.80032 L358.9838,505.864 L358.9838,297.62427 L359.66812,298.41083 L360.35245,299.1928 L361.03677,299.97025 L361.7211,300.74323 L362.40543,301.5118 L363.08975,302.27606 L363.7741,303.03607 L364.4584,303.79184 L365.14273,304.54346 L365.8271,305.29102 L366.51138,306.03452 L367.19574,306.77405 L367.88004,307.5097 L368.5644,308.24146 L369.24872,308.96942 L369.93304,309.69366 L370.61737,310.41418 L371.3017,311.13104 L371.98602,311.84436 L372.67035,312.5541 L373.35468,313.26038 L374.039,313.9632 L374.72336,314.66263 L375.40765,315.35876 L376.09198,316.05154 L376.7763,316.7411 L377.46063,317.4275 L378.145,318.11066 L378.82928,318.79077 L379.51364,319.4678 L380.19797,320.1418 L380.88226,320.8128 L381.56662,321.48093 L382.25095,322.14612 L382.93527,322.80847 L383.6196,323.46802 L384.30392,324.12476 L384.98825,324.7788 L385.6726,325.43018 L386.3569,326.07886 L387.04123,326.72495 L387.72556,327.36844 L388.40988,328.0094 L389.09424,328.64786 L389.77853,329.28387 L390.4629,329.91742 L391.14722,330.5486 L391.8315,331.17743 L392.51587,331.8039 L393.2002,332.4281 L393.88452,333.05005 L394.56885,333.6698 L395.25317,334.2873 L395.9375,334.90268 L396.62183,335.51593 L397.30615,336.12708 L397.99048,336.73618 L398.6748,337.34326 L399.35913,337.9483 L400.0435,338.5514 L400.72778,339.15256 L401.41214,339.75183 L402.09647,340.34918 L402.78076,340.9447 L403.46512,341.53842 L404.14944,342.1303 L404.83377,342.7205 L405.5181,343.3089 L406.20242,343.89563 L406.88675,344.48065 L407.57108,345.06403 L408.2554,345.64575 L408.93973,346.2259 L409.62405,346.8045 L410.30838,347.38153 L410.99274,347.95703 L411.67703,348.53104 L412.3614,349.10358 L413.04572,349.67468 L413.73,350.2444 L414.41437,350.81265 L415.0987,351.37958 L415.78302,351.94513 L416.46735,352.50937 L417.15167,353.07233 L417.836,353.63403 L418.52032,354.19443 L419.20465,354.75363 L419.88898,355.31165 L420.5733,355.86847 L421.25766,356.42413 L421.94196,356.97864 L422.62628,357.53204 L423.31064,358.08438 L423.99493,358.63565 L424.67926,359.18585 L425.36362,359.73505 L426.04794,360.2832 L426.73224,360.83044 L427.4166,361.37668 L428.10092,361.922 L428.78522,362.46637 L429.46957,363.0099 L430.1539,363.5525 L430.83826,364.09424 L431.52255,364.6352 L432.20688,365.1753 L432.89124,365.7146 L433.57556,366.25317 L434.25986,366.79095 L434.9442,367.328 L435.62854,367.86435 L436.31284,368.40002 L436.9972,368.935 L437.68152,369.46933 L438.36584,370.003 L439.05017,370.5361 L439.7345,371.06857 L440.41882,371.60046 L441.10312,372.13184 L441.78748,372.66266 L442.4718,373.19293 L443.15616,373.72272 L443.84045,374.25204 L444.52478,374.78088 L445.20914,375.3093 L445.89343,375.83728 L446.57776,376.36487 L447.26212,376.89206 L447.94644,377.41888 L448.63074,377.94537 L449.3151,378.4715 L449.99942,378.9973 L450.68372,379.52286 L451.36807,380.0481 L452.0524,380.57312 L452.73676,381.09784 L453.42105,381.6223 L454.10538,382.14658 L454.78973,382.67065 L455.47403,383.19458 L456.15836,383.71838 L456.8427,384.24207 L457.52704,384.7657 L458.21133,385.2892 L458.8957,385.8127 L459.58002,386.33615 L460.2643,386.85956 L460.94864,387.3829 L461.633,387.90625 L462.31732,388.4295 L463.00162,388.95276 L463.68597,389.47595 L464.3703,389.99908 L465.05466,390.5221 L465.73895,391.04504 L466.42328,391.56787 L467.10764,392.09058 L467.79193,392.6131 L468.47626,393.13544 L469.1606,393.6576 L469.84494,394.1795 L470.52924,394.70123 L471.2136,395.2227 L471.89792,395.7439 L472.5822,396.26483 L473.26657,396.78546 L473.9509,397.30576 L474.63525,397.82574 L475.31955,398.34537 L476.00388,398.86462 L476.68823,399.38348 L477.37253,399.90195 L478.05685,400.42 L478.7412,400.93762 L479.42554,401.45477 L480.10983,401.97144 L480.79416,402.48764 L481.47852,403.00333 L482.1628,403.5185 L482.84714,404.0331 L483.5315,404.54718 L484.21582,405.06067 L484.90012,405.57358 L485.58447,406.08588 L486.2688,406.59753 L486.9531,407.10858 L487.63745,407.61896 L488.32178,408.12866 L489.00613,408.63766 L489.69043,409.146 L490.37476,409.65356 L491.0591,410.1604 L491.74344,410.6665 L492.42773,411.17184 L493.1121,411.6764 L493.79642,412.1801 L494.4807,412.68304 L495.16507,413.18515 L495.8494,413.6864 L496.53375,414.1868 L497.21805,414.68634 L497.90237,415.18494 L498.58673,415.68268 L499.27103,416.17947 L499.95535,416.67535 L500.63968,417.1703 L501.32404,417.66425 L502.00833,418.15723 L502.69266,418.64923 L503.377,419.1402 L504.0613,419.6302 L504.74564,420.11914 L505.43,420.60706 L506.11432,421.09387 L506.7986,421.57965 L507.48297,422.06433 L508.1673,422.5479 L508.8516,423.0304 L509.53595,423.51175 L510.22028,423.99197 L510.90463,424.47104 L511.58893,424.94894 L512.27325,425.4257 L512.95764,425.90125 L513.6419,426.37558 L514.32623,426.84872 L515.0106,427.32065 L515.69495,427.79135 L516.3792,428.2608 L517.0636,428.72897 L517.7479,429.19592 L518.43225,429.66156 L519.1166,430.12595 L519.8009,430.58902 L520.4852,431.05078 L521.16956,431.51123 L521.8539,431.97034 L522.5382,432.4281 L523.22253,432.88455 L523.90686,433.33963 L524.5912,433.79333 L525.2755,434.24567 L525.95984,434.6966 L526.64417,435.14615 L527.3285,435.5943 L528.0128,436.04102 L528.69714,436.48633 L529.3815,436.93024 L530.0658,437.37268 L530.7501,437.81366 L531.43445,438.25323 L532.1188,438.69128 L532.80316,439.12793 L533.4874,439.56305 L534.17175,439.9967 L534.85614,440.42886 L535.5404,440.85953 L536.22473,441.2887 L536.9091,441.71634 L537.59344,442.14246 L538.2777,442.56708 L538.9621,442.99014 L539.6464,443.41165 L540.3307,443.83163 L541.0151,444.2501 L541.6994,444.66696 L542.3837,445.08228 L543.068,445.49603 L543.7524,445.9082 L544.4367,446.31882 L545.121,446.7278 L545.80536,447.13525 L546.4897,447.54108 L547.174,447.94534 L547.85834,448.34796 L548.54266,448.74902 L549.227,449.14844 L549.9113,449.54626 L550.59564,449.94244 L551.27997,450.33704 L551.9643,450.72998 L552.6486,451.12134 L553.33295,451.51102 L554.0173,451.89908 L554.70166,452.28552 L555.3859,452.6703 L556.07025,453.05344 L556.75464,453.43494 L557.4389,453.8148 L558.1232,454.193 L558.8076,454.56955 L559.49194,454.94443 L560.1762,455.3177 L560.8606,455.68924 L561.5449,456.05917 L562.2292,456.42743 L562.9135,456.794 L563.5979,457.15894 L564.2822,457.52222 L564.9665,457.88382 L565.6509,458.24374 L566.3352,458.602 L567.0195,458.9586 L567.7038,459.31354 L568.3882,459.66678 L569.0725,460.01837 L569.7568,460.3683 L570.44116,460.71652 L571.1255,461.06308 L571.80975,461.408 L571.80975,331.41086 L572.49414,332.0365 L573.17847,332.65985 L573.8628,333.28094 L574.5471,333.89987 L575.23145,334.5166 L575.9158,335.13116 L576.6001,335.74362 L577.2844,336.354 L577.96875,336.96234 L578.6531,337.56866 L579.3374,338.173 L580.0217,338.7754 L580.70605,339.37582 L581.3904,339.97437 L582.0747,340.57104 L582.75903,341.1659 L583.44336,341.75894 L584.1277,342.3502 L584.812,342.9397 L585.49634,343.52747 L586.1807,344.11353 L586.865,344.69794 L587.5493,345.2807 L588.2337,345.86188 L588.91797,346.4414 L589.6023,347.0194 L590.2867,347.5959 L590.971,348.17084 L591.6553,348.74426 L592.33966,349.31628 L593.024,349.88684 L593.70825,350.456 L594.39264,351.0238 L595.07697,351.5902 L595.7613,352.15527 L596.4456,352.71906 L597.12994,353.28152 L597.8143,353.84274 L598.4986,354.4027 L599.1829,354.9615 L599.86725,355.519 L600.5516,356.0754 L601.2359,356.63065 L601.9202,357.18475 L602.60455,357.73773 L603.2889,358.28967 L603.9732,358.8405 L604.65753,359.39038 L605.34186,359.93918 L606.0262,360.487 L606.7105,361.0338 L607.39484,361.5797 L608.0792,362.1247 L608.7635,362.66876 L609.4478,363.2119 L610.1322,363.7542 L610.81647,364.29565 L611.5008,364.83627 L612.1852,365.3761 L612.8695,365.91513 L613.5538,366.45337 L614.23816,366.9909 L614.9225,367.5277 L615.60675,368.06378 L616.29114,368.59918 L616.97546,369.1339 L617.6598,369.66803 L618.3441,370.20148 L619.02844,370.73434 L619.71277,371.2666 L620.3971,371.79828 L621.0814,372.32947 L621.76575,372.86005 L622.4501,373.3902 L623.1344,373.9198 L623.8187,374.4489 L624.50305,374.97763 L625.1874,375.50586 L625.8717,376.0337 L626.556,376.56113 L627.24036,377.0882 L627.9247,377.61487 L628.609,378.14124 L629.29333,378.66724 L629.97766,379.19293 L630.662,379.7183 L631.3463,380.24335 L632.0307,380.7682 L632.71497,381.2928 L633.3993,381.8172 L634.0837,382.34143 L634.768,382.86554 L635.4523,383.38947 L636.13666,383.91333 L636.821,384.43707 L637.50525,384.96075 L638.18964,385.4843 L638.87396,386.00787 L639.5583,386.53134 L640.2426,387.05475 L640.92694,387.57816 L641.61127,388.10147 L642.2956,388.62476 L642.9799,389.14795 L643.66425,389.67108 L644.3486,390.19415 L645.0329,390.71716 L645.7172,391.24002 L646.40155,391.76276 L647.0859,392.2854 L647.7702,392.80786 L648.4545,393.33014 L649.13885,393.8522 L649.8232,394.37405 L650.5075,394.8957 L651.19183,395.41705 L651.87616,395.93814 L652.5605,396.45898 L653.2448,396.9795 L653.9292,397.49966 L654.61346,398.0195 L655.2978,398.539 L655.9822,399.0581 L656.66644,399.57684 L657.35077,400.09515 L658.03516,400.61304 L658.7195,401.1305 L659.40375,401.64746 L660.08813,402.16394 L660.77246,402.67996 L661.4568,403.19547 L662.1411,403.71042 L662.82544,404.22485 L663.50977,404.7387 L664.1941,405.25195 L664.8784,405.76465 L665.56274,406.27673 L666.2471,406.78815 L666.9314,407.29895 L667.6157,407.80908 L668.30005,408.3185 L668.9844,408.82727 L669.6687,409.33533 L670.353,409.84262 L671.03735,410.34918 L671.7217,410.855 L672.406,411.36005 L673.09033,411.8643 L673.77466,412.36774 L674.459,412.87036 L675.1433,413.37213 L675.8277,413.87308 L676.51196,414.37314 L677.1963,414.87234 L677.8807,415.37064 L678.56494,415.868 L679.24927,416.36447 L679.93365,416.86 L680.618,417.35455 L681.30225,417.84814 L681.98663,418.3408 L682.67096,418.8324 L683.3552,419.32303 L684.0396,419.81262 L684.72394,420.30118 L685.40826,420.7887 L686.0926,421.27512 L686.7769,421.7605 L687.46124,422.24475 L688.14557,422.72794 L688.8299,423.21002 L689.5142,423.69095 L690.19855,424.17072 L690.8829,424.64935 L691.5672,425.12683 L692.2515,425.60312 L692.93585,426.07825 L693.6202,426.55212 L694.3045,427.02484 L694.98883,427.49628 L695.67316,427.96652 L696.3575,428.4355 L697.0418,428.90323 L697.7262,429.3697 L698.41046,429.83484 L699.0948,430.29874 L699.7792,430.76132 L700.46344,431.2226 L701.14777,431.68256 L701.83215,432.14117 L702.5165,432.59845 L703.20074,433.05438 L703.88513,433.50894 L704.56946,433.96213 L705.2537,434.41394 L705.9381,434.86438 L706.62244,435.31342 L707.30676,435.76102 L707.991,436.2072 L708.6754,436.652 L709.35974,437.09537 L710.044,437.53726 L710.7284,437.97772 L711.4127,438.41675 L712.09705,438.85425 L712.7814,439.29034 L712.7814,348.22028 L713.4657,348.79364 L714.15,349.3655 L714.83435,349.93594 L715.5187,350.505 L716.203,351.07263 L716.8873,351.63892 L717.57166,352.20392 L718.256,352.76758 L718.9403,353.3299 L719.6247,353.89102 L720.30896,354.4509 L720.9933,355.00952 L721.6777,355.567 L722.36194,356.1233 L723.04626,356.6784 L723.73065,357.23242 L724.415,357.78534 L725.09924,358.33716 L725.7836,358.88794 L726.46796,359.43768 L727.1522,359.9864 L727.83655,360.53412 L728.52094,361.0809 L729.20526,361.6267 L729.8895,362.17157 L730.5739,362.71558 L731.25824,363.25867 L731.9425,363.80087 L732.6269,364.34225 L733.3112,364.8828 L733.99554,365.42255 L734.6799,365.96152 L735.3642,366.49973 L736.0485,367.03717 L736.73285,367.5739 L737.4172,368.10992 L738.1015,368.64526 L738.7858,369.17996 L739.47015,369.714 L740.1545,370.2474 L740.8388,370.7802 L741.52313,371.31244 L742.20746,371.8441 L742.8918,372.37518 L743.5762,372.90576 L744.26044,373.43582 L744.94476,373.9654 L745.62915,374.4945 L746.3135,375.02313 L746.99774,375.55136 L747.68207,376.07916 L748.36646,376.60654 L749.0507,377.13358 L749.73505,377.66022 L750.41943,378.18652 L751.10376,378.71252 L751.788,379.23822 L752.4724,379.7636 L753.15674,380.28876 L753.841,380.81366 L754.5254,381.33832 L755.2097,381.86273 L755.89404,382.38696 L756.57837,382.91104 L757.2627,383.43494 L757.947,383.95868 L758.63135,384.48236 L759.3157,385.00586 L760,385.52933" fill="none" stroke="#ff7f0e" stroke-width="1.5"/>
</g>
<path d="M20,-4 L20,4 M156.8656,-4 L156.8656,4 M293.7312,-4 L293.7312,4 M430.5968,-4 L430.5968,4 M567.4624,-4 L567.4624,4 M704.328,-4 L704.328,4" fill="none" stroke="#000000" stroke-width="1" transform="matrix(1 0 0 1 55.672 525.864)"/>
<text dominant-baseline="hanging" fill="#000000" font-family="sans-serif" font-size="12" font-stretch="normal" font-style="normal" font-weight="400" text-anchor="middle" text-rendering="optimizeLegibility" transform="matrix(1 0 0 1 75.672 538.124)">
00:00
</text>
<text dominant-baseline="hanging" fill="#000000" font-family="sans-serif" font-size="12" font-stretch="normal" font-style="normal" font-weight="400" text-anchor="middle" text-rendering="optimizeLegibility" transform="matrix(1 0 0 1 212.5376 538.124)">
00:02
</text>
<text dominant-baseline="hanging" fill="#000000" font-family="sans-serif" font-size="12" font-stretch="normal" font-style="normal" font-weight="400" text-anchor="middle" text-rendering="optimizeLegibility" transform="matrix(1 0 0 1 349.4032 538.124)">
00:04
</text>
<text dominant-baseline="hanging" fill="#000000" font-family="sans-serif" font-size="12" font-stretch="normal" font-style="normal" font-weight="400" text-anchor="middle" text-rendering="optimizeLegibility" transform="matrix(1 0 0 1 486.2688 538.124)">
00:06
</text>
<text dominant-baseline="hanging" fill="#000000" font-family="sans-serif" font-size="12" font-stretch="normal" font-style="normal" font-weight="400" text-anchor="middle" text-rendering="optimizeLegibility" transform="matrix(1 0 0 1 623.1344 538.124)">
00:08
</text>
<text dominant-baseline="hanging" fill="#000000" font-family="sans-serif" font-size="12" font-stretch="normal" font-style="normal" font-weight="400" text-anchor="middle" text-rendering="optimizeLegibility" transform="matrix(1 0 0 1 760 538.124)">
00:10
</text>
<text text-rendering="optimizeLegibility" transform="matrix(1 0 0 1 417.836 575.312)">

<tspan text-anchor="middle" x="0">
<tspan font-family="sans-serif" font-size="16" font-stretch="normal" font-style="normal" font-weight="400">
<tspan fill="#000000">Time</tspan>
</tspan>
</tspan>
</text>
<path d="M31.636036,-4 L31.636036,4 M84.97703,-4 L84.97703,4 M138.31802,-4 L138.31802,4 M191.65903,-4 L191.65903,4 M245.00003,-4 L245.00003,4 M298.34103,-4 L298.34103,4 M351.682,-4 L351.682,4 M405.023,-4 L405.023,4 M458.364,-4 L458.364,4" fill="none" stroke="#000000" stroke-width="1" transform="matrix(-0.00000004371139 -1 1 -0.00000004371139 55.672 525.864)"/>
<text dominant-baseline="middle" fill="#000000" font-family="sans-serif" font-size="12" font-stretch="normal" font-style="normal" font-weight="400" text-anchor="end" text-rendering="optimizeLegibility" transform="matrix(1 0 0 1 47.672 494.22797)">
-20.0
</text>
<text dominant-baseline="middle" fill="#000000" font-family="sans-serif" font-size="12" font-stretch="normal" font-style="normal" font-weight="400" text-anchor="end" text-rendering="optimizeLegibility" transform="matrix(1 0 0 1 47.672 440.887)">
-10.0
</text>
<text dominant-baseline="middle" fill="#000000" font-family="sans-serif" font-size="12" font-stretch="normal" font-style="normal" font-weight="400" text-anchor="end" text-rendering="optimizeLegibility" transform="matrix(1 0 0 1 47.672 387.546)">
0.0
</text>
<text dominant-baseline="middle" fill="#000000" font-family="sans-serif" font-size="12" font-stretch="normal" font-style="normal" font-weight="400" text-anchor="end" text-rendering="optimizeLegibility" transform="matrix(1 0 0 1 47.672 334.205)">
10.0
</text>
<text dominant-baseline="middle" fill="#000000" font-family="sans-serif" font-size="12" font-stretch="normal" font-style="normal" font-weight="400" text-anchor="end" text-rendering="optimizeLegibility" transform="matrix(1 0 0 1 47.672 280.86398)">
20.0
</text>
<text dominant-baseline="middle" fill="#000000" font-family="sans-serif" font-size="12" font-stretch="normal" font-style="normal" font-weight="400" text-anchor="end" text-rendering="optimizeLegibility" transform="matrix(1 0 0 1 47.672 227.52298)">
30.0
</text>
<text dominant-baseline="middle" fill="#000000" font-family="sans-serif" font-size="12" font-stretch="normal" font-style="normal" font-weight="400" text-anchor="end" text-rendering="optimizeLegibility" transform="matrix(1 0 0 1 47.672 174.182)">
40.0
</text>
<text dominant-baseline="middle" fill="#000000" font-family="sans-serif" font-size="12" font-stretch="normal" font-style="normal" font-weight="400" text-anchor="end" text-rendering="optimizeLegibility" transform="matrix(1 0 0 1 47.672 120.841)">
50.0
</text>
<text dominant-baseline="middle" fill="#000000" font-family="sans-serif" font-size="12" font-stretch="normal" font-style="normal" font-weight="400" text-anchor="end" text-rendering="optimizeLegibility" transform="matrix(1 0 0 1 47.672 67.5)">
60.0
</text>
<rect fill="none" height="478.364" stroke="#000000" stroke-width="1" width="724.328" x="55.672" y="47.5"/>
<rect fill="#ffffff" fill-opacity="0.5019608" height="61.412003" stroke="#000000" stroke-width="1" width="132.406" x="635.594" y="59.5"/>
<path d="M643.594,76.353 L668.594,76.353" fill="none" stroke="#1f77b4" stroke-width="1.5"/>
<text dominant-baseline="middle" fill="#000000" font-family="sans-serif" font-size="13" font-stretch="normal" font-style="normal" font-weight="400" text-anchor="start" text-rendering="optimizeLegibility" transform="matrix(1 0 0 1 678.594 76.353)">
Height (m)
</text>
<path d="M643.594,104.059006 L668.594,104.059006" fill="none" stroke="#ff7f0e" stroke-width="1.5"/>
<text dominant-baseline="middle" fill="#000000" font-family="sans-serif" font-size="13" font-stretch="normal" font-style="normal" font-weight="400" text-anchor="start" text-rendering="optimizeLegibility" transform="matrix(1 0 0 1 678.594 104.059006)">
Velocity (m/s)
</text>
</svg>