<svg height="600" viewBox="0 0 800 600" width="800" xmlns="http://www.w3.org/2000/svg">
<rect fill="#ffffff" height="100%" width="100%"/>
<path d="M-134.13002,14.28 L-136.23001,14.28 L-143.87001,2.42 L-143.95001,2.42 Q-143.91002,2.88,-143.88002,3.5100002 Q-143.85002,4.1400003,-143.82,4.8500004 Q-143.79001,5.5599995,-143.79001,6.2999997 L-143.79001,14.28 L-145.45001,14.28 L-145.45001,0 L-143.37001,0 L-135.75002,11.82 L-135.67001,11.82 Q-135.69002,11.5,-135.72002,10.86 Q-135.75002,10.219999,-135.78001,9.46 Q-135.81001,8.7,-135.81001,8.059999 L-135.81001,0 L-134.13002,0 L-134.13002,14.28 z M-121.17002,8.9 Q-121.17002,10.24,-121.52002,11.2699995 Q-121.87002,12.3,-122.52002,13.0199995 Q-123.17002,13.74,-124.10002,14.11 Q-125.030014,14.48,-126.17002,14.48 Q-127.23002,14.48,-128.13002,14.11 Q-129.03001,13.74,-129.69002,13.0199995 Q-130.35002,12.3,-130.72002,11.2699995 Q-131.09001,10.24,-131.09001,8.9 Q-131.09001,7.12,-130.49002,5.8900003 Q-129.89001,4.66,-128.77002,4.01 Q-127.65002,3.3599997,-126.110016,3.3599997 Q-124.65002,3.3599997,-123.540016,4.01 Q-122.430016,4.66,-121.80002,5.8900003 Q-121.17002,7.12,-121.17002,8.9 z M-129.27002,8.9 Q-129.27002,10.16,-128.94002,11.09 Q-128.61002,12.0199995,-127.91002,12.5199995 Q-127.210014,13.0199995,-126.13002,13.0199995 Q-125.05002,13.0199995,-124.35002,12.5199995 Q-123.65002,12.0199995,-123.320015,11.09 Q-122.99002,10.16,-122.99002,8.9 Q-122.99002,7.62,-123.33002,6.72 Q-123.67002,5.8199997,-124.360016,5.33 Q-125.05002,4.84,-126.15002,4.84 Q-127.790016,4.84,-128.53001,5.92 Q-129.27002,7,-129.27002,8.9 z M-113.39002,3.3599997 Q-113.09002,3.3599997,-112.74002,3.3900003 Q-112.39002,3.42,-112.13002,3.4799995 L-112.35002,5.1000004 Q-112.610016,5.04,-112.92002,5 Q-113.23002,4.96,-113.51002,4.96 Q-114.13002,4.96,-114.69002,5.2200003 Q-115.25002,5.4799995,-115.69002,5.95 Q-116.13002,6.42,-116.38002,7.08 Q-116.63002,7.74,-116.63002,8.559999 L-116.63002,14.28 L-118.39002,14.28 L-118.39002,3.5600004 L-116.95002,3.5600004 L-116.75002,5.5199995 L-116.67002,5.5199995 Q-116.33002,4.92,-115.85002,4.4300003 Q-115.37002,3.9399996,-114.75002,3.6499996 Q-114.13002,3.3599997,-113.39002,3.3599997 z M-98.37002,3.3599997 Q-96.55002,3.3599997,-95.65002,4.29 Q-94.750015,5.2200003,-94.750015,7.2999997 L-94.750015,14.28 L-96.49002,14.28 L-96.49002,7.38 Q-96.49002,6.12,-97.02002,5.4799995 Q-97.55002,4.84,-98.67001,4.84 Q-100.23002,4.84,-100.90002,5.74 Q-101.570015,6.64,-101.570015,8.36 L-101.570015,14.28 L-103.31002,14.28 L-103.31002,7.38 Q-103.31002,6.54,-103.55002,5.9700003 Q-103.790016,5.3999996,-104.27002,5.12 Q-104.750015,4.84,-105.51002,4.84 Q-106.59002,4.84,-107.210014,5.29 Q-107.83002,5.74,-108.10001,6.6 Q-108.37002,7.46,-108.37002,8.719999 L-108.37002,14.28 L-110.13002,14.28 L-110.13002,3.5600004 L-108.710014,3.5600004 L-108.45002,5.0199995 L-108.35001,5.0199995 Q-108.01002,4.46,-107.52002,4.09 Q-107.030014,3.7200003,-106.430016,3.54 Q-105.83002,3.3599997,-105.19002,3.3599997 Q-103.95002,3.3599997,-103.12002,3.8000002 Q-102.290016,4.24,-101.91002,5.16 L-101.81002,5.16 Q-101.27002,4.24,-100.34002,3.8000002 Q-99.41002,3.3599997,-98.37002,3.3599997 z M-87.37002,3.38 Q-85.41002,3.38,-84.47002,4.24 Q-83.53002,5.1000004,-83.53002,6.98 L-83.53002,14.28 L-84.81002,14.28 L-85.15002,12.76 L-85.23002,12.76 Q-85.69002,13.34,-86.18002,13.73 Q-86.67002,14.12,-87.30002,14.3 Q-87.93002,14.48,-88.83002,14.48 Q-89.79002,14.48,-90.56002,14.139999 Q-91.33002,13.8,-91.77002,13.09 Q-92.21002,12.38,-92.21002,11.299999 Q-92.21002,9.7,-90.95002,8.83 Q-89.69002,7.96,-87.07002,7.88 L-85.25002,7.8199997 L-85.25002,7.18 Q-85.25002,5.84,-85.83002,5.3199997 Q-86.41002,4.8,-87.47002,4.8 Q-88.31002,4.8,-89.07002,5.05 Q-89.83002,5.3,-90.49002,5.62 L-91.03002,4.3 Q-90.33002,3.92,-89.37002,3.6499996 Q-88.41002,3.38,-87.37002,3.38 z M-86.85002,9.1 Q-88.85002,9.18,-89.62002,9.74 Q-90.39002,10.299999,-90.39002,11.32 Q-90.39002,12.219999,-89.84002,12.639999 Q-89.29002,13.059999,-88.43002,13.059999 Q-87.07002,13.059999,-86.17002,12.309999 Q-85.27002,11.559999,-85.27002,10 L-85.27002,9.04 L-86.85002,9.1 z M-78.45002,14.28 L-80.21002,14.28 L-80.21002,-0.9200001 L-78.45002,-0.9200001 L-78.45002,14.28 z M-66.05002,14.48 Q-68.05002,14.48,-69.250015,13.09 Q-70.45002,11.7,-70.45002,8.940001 Q-70.45002,6.1800003,-69.24002,4.7699995 Q-68.03002,3.3599997,-66.03002,3.3599997 Q-65.19002,3.3599997,-64.570015,3.5699997 Q-63.95002,3.7799997,-63.49002,4.1400003 Q-63.030018,4.5,-62.71002,4.9399996 L-62.59002,4.9399996 Q-62.61002,4.6800003,-62.66002,4.17 Q-62.71002,3.6599998,-62.71002,3.3599997 L-62.71002,-0.9200001 L-60.95002,-0.9200001 L-60.95002,14.28 L-62.370018,14.28 L-62.63002,12.84 L-62.71002,12.84 Q-63.030018,13.3,-63.49002,13.67 Q-63.95002,14.04,-64.58002,14.259999 Q-65.21002,14.48,-66.05002,14.48 z M-65.77002,13.0199995 Q-64.070015,13.0199995,-63.38002,12.09 Q-62.690018,11.16,-62.690018,9.28 L-62.690018,8.96 Q-62.690018,6.96,-63.350018,5.8900003 Q-64.01002,4.8199997,-65.790016,4.8199997 Q-67.21002,4.8199997,-67.92002,5.95 Q-68.63002,7.08,-68.63002,8.98 Q-68.63002,10.9,-67.92002,11.96 Q-67.21002,13.0199995,-65.77002,13.0199995 z M-55.79002,3.5600004 L-55.79002,14.28 L-57.55002,14.28 L-57.55002,3.5600004 L-55.79002,3.5600004 z M-56.65002,-0.46000004 Q-56.25002,-0.46000004,-55.940018,-0.18999958 Q-55.63002,0.07999992,-55.63002,0.65999985 Q-55.63002,1.2200003,-55.940018,1.5 Q-56.25002,1.7799997,-56.65002,1.7799997 Q-57.09002,1.7799997,-57.39002,1.5 Q-57.690018,1.2200003,-57.690018,0.65999985 Q-57.690018,0.07999992,-57.39002,-0.18999958 Q-57.09002,-0.46000004,-56.65002,-0.46000004 z M-45.41002,11.32 Q-45.41002,12.36,-45.93002,13.059999 Q-46.45002,13.76,-47.41002,14.12 Q-48.370018,14.48,-49.690018,14.48 Q-50.81002,14.48,-51.620018,14.3 Q-52.43002,14.12,-53.05002,13.8 L-53.05002,12.2 Q-52.41002,12.5199995,-51.50002,12.79 Q-50.59002,13.059999,-49.65002,13.059999 Q-48.31002,13.059999,-47.71002,12.63 Q-47.11002,12.2,-47.11002,11.48 Q-47.11002,11.08,-47.33002,10.76 Q-47.55002,10.44,-48.120018,10.12 Q-48.690018,9.799999,-49.75002,9.4 Q-50.79002,9,-51.530018,8.6 Q-52.27002,8.2,-52.67002,7.64 Q-53.07002,7.08,-53.07002,6.2 Q-53.07002,4.84,-51.96002,4.1000004 Q-50.850018,3.3599997,-49.05002,3.3599997 Q-48.07002,3.3599997,-47.22002,3.5500002 Q-46.370018,3.7399998,-45.63002,4.08 L-46.23002,5.4799995 Q-46.91002,5.2,-47.65002,5 Q-48.39002,4.8,-49.17002,4.8 Q-50.25002,4.8,-50.82002,5.1499996 Q-51.39002,5.5,-51.39002,6.1000004 Q-51.39002,6.54,-51.13002,6.85 Q-50.870018,7.16,-50.260017,7.45 Q-49.65002,7.74,-48.63002,8.139999 Q-47.61002,8.52,-46.89002,8.92 Q-46.17002,9.32,-45.79002,9.889999 Q-45.41002,10.46,-45.41002,11.32 z M-39.23002,13.04 Q-38.830017,13.04,-38.41002,12.969999 Q-37.990017,12.9,-37.73002,12.82 L-37.73002,14.16 Q-38.010017,14.3,-38.530018,14.389999 Q-39.05002,14.48,-39.530018,14.48 Q-40.370018,14.48,-41.080017,14.19 Q-41.790016,13.9,-42.23002,13.179999 Q-42.670017,12.46,-42.670017,11.16 L-42.670017,4.92 L-44.190018,4.92 L-44.190018,4.08 L-42.650017,3.38 L-41.950016,1.1000004 L-40.91002,1.1000004 L-40.91002,3.5600004 L-37.810017,3.5600004 L-37.810017,4.92 L-40.91002,4.92 L-40.91002,11.12 Q-40.91002,12.099999,-40.440018,12.57 Q-39.970016,13.04,-39.23002,13.04 z M-30.590015,3.3599997 Q-30.290016,3.3599997,-29.940016,3.3900003 Q-29.590015,3.42,-29.330017,3.4799995 L-29.550016,5.1000004 Q-29.810017,5.04,-30.120016,5 Q-30.430016,4.96,-30.710016,4.96 Q-31.330017,4.96,-31.890017,5.2200003 Q-32.450016,5.4799995,-32.890015,5.95 Q-33.330017,6.42,-33.580017,7.08 Q-33.830017,7.74,-33.830017,8.559999 L-33.830017,14.28 L-35.590015,14.28 L-35.590015,3.5600004 L-34.150017,3.5600004 L-33.950016,5.5199995 L-33.870018,5.5199995 Q-33.530018,4.92,-33.05002,4.4300003 Q-32.570015,3.9399996,-31.950016,3.6499996 Q-31.330017,3.3599997,-30.590015,3.3599997 z M-25.570015,3.5600004 L-25.570015,14.28 L-27.330015,14.28 L-27.330015,3.5600004 L-25.570015,3.5600004 z M-26.430016,-0.46000004 Q-26.030016,-0.46000004,-25.720016,-0.18999958 Q-25.410015,0.07999992,-25.410015,0.65999985 Q-25.410015,1.2200003,-25.720016,1.5 Q-26.030016,1.7799997,-26.430016,1.7799997 Q-26.870016,1.7799997,-27.170015,1.5 Q-27.470016,1.2200003,-27.470016,0.65999985 Q-27.470016,0.07999992,-27.170015,-0.18999958 Q-26.870016,-0.46000004,-26.430016,-0.46000004 z M-20.410015,2.7799997 Q-20.410015,3.46,-20.440016,4.05 Q-20.470016,4.6400003,-20.510015,4.9799995 L-20.410015,4.9799995 Q-19.950016,4.3,-19.150017,3.8400002 Q-18.350016,3.38,-17.090015,3.38 Q-15.090016,3.38,-13.880016,4.7699995 Q-12.670016,6.16,-12.670016,8.92 Q-12.670016,10.76,-13.2200165,12 Q-13.770017,13.24,-14.770017,13.86 Q-15.770017,14.48,-17.090015,14.48 Q-18.350016,14.48,-19.150017,14.0199995 Q-19.950016,13.559999,-20.410015,12.92 L-20.550016,12.92 L-20.910015,14.28 L-22.170015,14.28 L-22.170015,-0.9200001 L-20.410015,-0.9200001 L-20.410015,2.7799997 z M-17.390017,4.84 Q-18.530016,4.84,-19.190016,5.2699995 Q-19.850016,5.7,-20.130016,6.5899997 Q-20.410015,7.48,-20.410015,8.86 L-20.410015,8.940001 Q-20.410015,10.92,-19.760015,11.969999 Q-19.110016,13.0199995,-17.350016,13.0199995 Q-15.910016,13.0199995,-15.200016,11.96 Q-14.490016,10.9,-14.490016,8.9 Q-14.490016,6.88,-15.200016,5.8599997 Q-15.910016,4.84,-17.390017,4.84 z M-0.91001606,3.5600004 L-0.91001606,14.28 L-2.3500156,14.28 L-2.6100159,12.86 L-2.6900158,12.86 Q-3.030016,13.42,-3.570016,13.78 Q-4.110016,14.139999,-4.750016,14.309999 Q-5.390016,14.48,-6.090016,14.48 Q-7.370016,14.48,-8.240016,14.07 Q-9.110016,13.66,-9.550016,12.799999 Q-9.990016,11.94,-9.990016,10.58 L-9.990016,3.5600004 L-8.210016,3.5600004 L-8.210016,10.46 Q-8.210016,11.74,-7.6300163,12.38 Q-7.050016,13.0199995,-5.830016,13.0199995 Q-4.630016,13.0199995,-3.9400163,12.57 Q-3.2500162,12.12,-2.9600163,11.25 Q-2.6700163,10.38,-2.6700163,9.139999 L-2.6700163,3.5600004 L-0.91001606,3.5600004 z M6.0699835,13.04 Q6.4699836,13.04,6.8899837,12.969999 Q7.3099837,12.9,7.5699835,12.82 L7.5699835,14.16 Q7.2899837,14.3,6.769984,14.389999 Q6.249984,14.48,5.769984,14.48 Q4.9299836,14.48,4.2199836,14.19 Q3.5099838,13.9,3.0699837,13.179999 Q2.6299837,12.46,2.6299837,11.16 L2.6299837,4.92 L1.1099837,4.92 L1.1099837,4.08 L2.649984,3.38 L3.3499837,1.1000004 L4.3899837,1.1000004 L4.3899837,3.5600004 L7.4899836,3.5600004 L7.4899836,4.92 L4.3899837,4.92 L4.3899837,11.12 Q4.3899837,12.099999,4.8599834,12.57 Q5.3299837,13.04,6.0699835,13.04 z M11.469983,3.5600004 L11.469983,14.28 L9.709983,14.28 L9.709983,3.5600004 L11.469983,3.5600004 z M10.609983,-0.46000004 Q11.009983,-0.46000004,11.319983,-0.18999958 Q11.629983,0.07999992,11.629983,0.65999985 Q11.629983,1.2200003,11.319983,1.5 Q11.009983,1.7799997,10.609983,1.7799997 Q10.169983,1.7799997,9.869983,1.5 Q9.569983,1.2200003,9.569983,0.65999985 Q9.569983,0.07999992,9.869983,-0.18999958 Q10.169983,-0.46000004,10.609983,-0.46000004 z M24.189983,8.9 Q24.189983,10.24,23.839983,11.2699995 Q23.489983,12.3,22.839983,13.0199995 Q22.189983,13.74,21.259983,14.11 Q20.329983,14.48,19.189983,14.48 Q18.129982,14.48,17.229982,14.11 Q16.329983,13.74,15.669983,13.0199995 Q15.009983,12.3,14.639983,11.2699995 Q14.269983,10.24,14.269983,8.9 Q14.269983,7.12,14.869983,5.8900003 Q15.469983,4.66,16.589983,4.01 Q17.709984,3.3599997,19.249983,3.3599997 Q20.709984,3.3599997,21.819983,4.01 Q22.929983,4.66,23.559982,5.8900003 Q24.189983,7.12,24.189983,8.9 z M16.089983,8.9 Q16.089983,10.16,16.419983,11.09 Q16.749983,12.0199995,17.449982,12.5199995 Q18.149982,13.0199995,19.229982,13.0199995 Q20.309982,13.0199995,21.009983,12.5199995 Q21.709984,12.0199995,22.039982,11.09 Q22.369984,10.16,22.369984,8.9 Q22.369984,7.62,22.029984,6.72 Q21.689983,5.8199997,20.999983,5.33 Q20.309982,4.84,19.209984,4.84 Q17.569983,4.84,16.829983,5.92 Q16.089983,7,16.089983,8.9 z M32.129982,3.3599997 Q34.04998,3.3599997,35.029984,4.29 Q36.00998,5.2200003,36.00998,7.2999997 L36.00998,14.28 L34.26998,14.28 L34.26998,7.42 Q34.26998,6.12,33.68998,5.4799995 Q33.10998,4.84,31.869982,4.84 Q30.089981,4.84,29.40998,5.84 Q28.72998,6.8399997,28.72998,8.719999 L28.72998,14.28 L26.969982,14.28 L26.969982,3.5600004 L28.38998,3.5600004 L28.64998,5.0199995 L28.74998,5.0199995 Q29.109982,4.46,29.63998,4.09 Q30.169981,3.7200003,30.809982,3.54 Q31.449982,3.3599997,32.129982,3.3599997 z M43.629982,8.799999 Q43.629982,7.16,43.939983,5.6000004 Q44.24998,4.04,44.90998,2.62 Q45.569984,1.1999998,46.569984,0 L48.229984,0 Q46.829983,1.8800001,46.119984,4.1400003 Q45.40998,6.4,45.40998,8.78 Q45.40998,10.32,45.729984,11.84 Q46.049984,13.36,46.669983,14.7699995 Q47.28998,16.18,48.209984,17.439999 L46.569984,17.439999 Q45.569984,16.26,44.90998,14.87 Q44.24998,13.48,43.939983,11.94 Q43.629982,10.4,43.629982,8.799999 z M50.529984,19.08 L50.529984,3.5600004 L52.28998,3.5600004 L52.28998,10.48 Q52.28998,11.719999,52.90998,12.37 Q53.529984,13.0199995,54.729984,13.0199995 Q56.369984,13.0199995,57.049984,12.0199995 Q57.72998,11.0199995,57.72998,9.139999 L57.72998,3.5600004 L59.489983,3.5600004 L59.489983,11.92 Q59.489983,12.54,59.72998,12.79 Q59.969982,13.04,60.309982,13.04 Q60.469982,13.04,60.649982,13 Q60.829983,12.96,60.90998,12.94 L60.90998,14.219999 Q60.809982,14.28,60.629982,14.34 Q60.44998,14.4,60.22998,14.44 Q60.009983,14.48,59.78998,14.48 Q59.04998,14.48,58.559982,14.12 Q58.069984,13.76,57.849983,12.84 L57.709984,12.84 Q57.369984,13.36,56.939983,13.73 Q56.509983,14.099999,55.939983,14.29 Q55.369984,14.48,54.60998,14.48 Q53.829983,14.48,53.249985,14.23 Q52.669983,13.98,52.26998,13.58 L52.189983,13.58 Q52.229984,13.94,52.259983,14.54 Q52.28998,15.139999,52.28998,15.96 L52.28998,19.08 L50.529984,19.08 z M62.469982,5.96 L62.469982,4.54 L71.62998,4.54 L71.62998,5.96 L62.469982,5.96 z M62.469982,9.940001 L62.469982,8.52 L71.62998,8.52 L71.62998,9.940001 L62.469982,9.940001 z M79.889984,14.28 L78.16998,14.28 L78.16998,4.3 Q78.16998,3.7200003,78.179985,3.3199997 Q78.18999,2.92,78.209984,2.5699997 Q78.22999,2.2200003,78.249985,1.8400002 Q77.929985,2.1599998,77.66998,2.38 Q77.40999,2.6000004,77.00999,2.9399996 L75.48998,4.1800003 L74.569984,3 L78.429985,0 L79.889984,0 L79.889984,14.28 z M94.08999,3.3400002 Q94.08999,4.3,93.72999,5 Q93.36999,5.7,92.69999,6.1400003 Q92.02999,6.58,91.12999,6.7599998 L91.12999,6.8399997 Q92.84999,7.04,93.68999,7.92 Q94.52999,8.799999,94.52999,10.219999 Q94.52999,11.46,93.94999,12.43 Q93.36999,13.4,92.15999,13.94 Q90.94999,14.48,89.04999,14.48 Q87.929985,14.48,86.969986,14.309999 Q86.00999,14.139999,85.12999,13.7 L85.12999,12.059999 Q86.02999,12.5,87.069984,12.75 Q88.109985,13,89.069984,13 Q90.98999,13,91.83999,12.25 Q92.68999,11.5,92.68999,10.18 Q92.68999,9.28,92.219986,8.73 Q91.749985,8.18,90.84999,7.92 Q89.94999,7.66,88.68999,7.66 L87.30999,7.66 L87.30999,6.16 L88.70999,6.16 Q89.889984,6.16,90.679985,5.8199997 Q91.469986,5.4799995,91.87999,4.87 Q92.289986,4.26,92.289986,3.46 Q92.289986,2.42,91.58999,1.8500004 Q90.889984,1.2799997,89.68999,1.2799997 Q88.929985,1.2799997,88.30999,1.4300003 Q87.68999,1.5799999,87.15999,1.8500004 Q86.62999,2.12,86.08999,2.4799995 L85.20999,1.2799997 Q85.969986,0.6800003,87.09999,0.23999977 Q88.22999,-0.19999981,89.66999,-0.19999981 Q91.90999,-0.19999981,92.999985,0.8000002 Q94.08999,1.8000002,94.08999,3.3400002 z M99.50999,12.18 Q99.32999,12.88,99.04999,13.7 Q98.76999,14.5199995,98.43999,15.33 Q98.10999,16.14,97.78999,16.86 L96.48999,16.86 Q96.68999,16.1,96.87999,15.23 Q97.06999,14.36,97.22999,13.51 Q97.38999,12.66,97.48999,11.96 L99.36999,11.96 L99.50999,12.18 z M112.14999,14.48 Q110.70999,14.48,109.61999,13.87 Q108.52999,13.26,107.929985,12.07 Q107.32999,10.88,107.32999,9.16 Q107.32999,7.14,108.02999,5.91 Q108.72999,4.6800003,110.00999,4.12 Q111.289986,3.5600004,113.02999,3.5600004 L117.86999,3.5600004 L117.86999,4.92 L115.429985,4.92 Q115.94999,5.3999996,116.29999,6.0199995 Q116.64999,6.64,116.83999,7.42 Q117.02999,8.2,117.02999,9.16 Q117.02999,10.24,116.719986,11.21 Q116.40999,12.18,115.79999,12.91 Q115.18999,13.639999,114.26999,14.059999 Q113.34999,14.48,112.14999,14.48 z M112.18999,13.0199995 Q113.26999,13.0199995,113.94999,12.5 Q114.62999,11.98,114.94999,11.11 Q115.26999,10.24,115.26999,9.2 Q115.26999,8.34,115.09999,7.58 Q114.929985,6.8199997,114.58999,6.16 Q114.249985,5.5,113.72999,4.92 L113.02999,4.92 Q111.72999,4.92,110.84999,5.3500004 Q109.969986,5.7799997,109.539986,6.71 Q109.109985,7.64,109.109985,9.16 Q109.109985,10.28,109.429985,11.16 Q109.749985,12.04,110.429985,12.53 Q111.109985,13.0199995,112.18999,13.0199995 z M119.62999,5.96 L119.62999,4.54 L128.79,4.54 L128.79,5.96 L119.62999,5.96 z M119.62999,9.940001 L119.62999,8.52 L128.79,8.52 L128.79,9.940001 L119.62999,9.940001 z M140.34998,14.28 L130.90999,14.28 L130.90999,12.82 L134.64998,9.04 Q135.72998,7.96,136.46999,7.12 Q137.20998,6.2799997,137.58998,5.4700003 Q137.96999,4.66,137.96999,3.6999998 Q137.96999,2.5200005,137.26999,1.9099998 Q136.56998,1.3000002,135.44998,1.3000002 Q134.40999,1.3000002,133.61998,1.6599998 Q132.82999,2.0200005,132.00998,2.6599998 L131.06998,1.4800005 Q131.62997,1,132.29999,0.6199999 Q132.96999,0.23999977,133.75998,0.020000458 Q134.54999,-0.19999981,135.44998,-0.19999981 Q136.78998,-0.19999981,137.74998,0.26000023 Q138.70998,0.72000027,139.23997,1.5699997 Q139.76999,2.42,139.76999,3.6000004 Q139.76999,4.7200003,139.30998,5.7 Q138.84998,6.68,138.02998,7.63 Q137.20998,8.58,136.10999,9.66 L133.12997,12.599999 L133.12997,12.68 L140.34998,12.68 L140.34998,14.28 z M146.58998,8.799999 Q146.58998,10.4,146.27998,11.94 Q145.96999,13.48,145.31998,14.87 Q144.66998,16.26,143.64998,17.439999 L142.00998,17.439999 Q142.92998,16.18,143.54999,14.7699995 Q144.16998,13.36,144.48999,11.84 Q144.80998,10.32,144.80998,8.78 Q144.80998,7.2,144.48999,5.66 Q144.16998,4.12,143.54999,2.6800003 Q142.92998,1.2399998,141.98999,0 L143.64998,0 Q144.66998,1.1999998,145.31998,2.62 Q145.96999,4.04,146.27998,5.6000004 Q146.58998,7.16,146.58998,8.799999 z" fill="#000000" stroke="none" transform="matrix(1 0 0 1 400 20)"/>
<clipPath id="eidoplot-clip1">
<rect height="473.864" width="554.461" x="91.572" y="52"/>
</clipPath>
<g clip-path="url(#eidoplot-clip1)">
<path d="M111.572,525.864 L116.75308,525.8065 L121.93416,525.72925 L127.115234,525.6261 L132.29633,525.4893 L137.4774,525.30927 L142.65848,525.0739 L147.83957,524.7684 L153.02065,524.3746 L158.20172,523.8705 L163.3828,523.23 L168.56387,522.4218 L173.74496,521.4094 L178.92603,520.1503 L184.10712,518.59576 L189.2882,516.69037 L194.46927,514.37195 L199.65036,511.57184 L204.83144,508.215 L210.01251,504.22083 L215.1936,499.50418 L220.37466,493.97675 L225.55576,487.54895 L230.73685,480.13217 L235.91791,471.64163 L241.099,461.9994 L246.28009,451.13782 L251.46115,439.00348 L256.64224,425.56085 L261.82333,410.79626 L267.0044,394.72183 L272.1855,377.3786 L277.36655,358.8397 L282.54764,339.21228 L287.72873,318.63913 L292.9098,297.29858 L298.09088,275.4038 L303.27197,253.20044 L308.45303,230.96286 L313.63412,208.98962 L318.8152,187.59708 L323.99628,167.11227 L329.17737,147.86493 L334.35843,130.17865 L339.53952,114.362 L344.7206,100.69977 L349.90167,89.444275 L355.08276,80.807556 L360.26382,74.95505 L365.44492,72 L370.626,72 L375.80707,74.95505 L380.98816,80.807556 L386.16922,89.444275 L391.3503,100.69977 L396.5314,114.362 L401.71246,130.17865 L406.89355,147.86493 L412.07465,167.11227 L417.2557,187.59708 L422.4368,208.98962 L427.61786,230.96286 L432.79895,253.20044 L437.98004,275.4038 L443.1611,297.29858 L448.3422,318.63913 L453.5233,339.21228 L458.70435,358.8397 L463.88544,377.3786 L469.0665,394.72183 L474.24762,410.79626 L479.42868,425.56085 L484.60974,439.00348 L489.79083,451.13782 L494.97192,461.9994 L500.15298,471.64163 L505.33408,480.13217 L510.51514,487.54895 L515.6963,493.97675 L520.8773,499.50418 L526.0584,504.22083 L531.2395,508.215 L536.4206,511.57184 L541.6016,514.37195 L546.7827,516.69037 L551.9638,518.59576 L557.1449,520.1503 L562.326,521.4094 L567.507,522.4218 L572.6881,523.23 L577.8692,523.8705 L583.0503,524.3746 L588.2314,524.7684 L593.4124,525.0739 L598.59357,525.30927 L603.7746,525.4893 L608.9557,525.6261 L614.1368,525.72925 L619.3179,525.8065 L624.49896,525.864" fill="none" stroke="#1f77b4" stroke-width="4"/>
<path d="M148.52182,526.0164 L148.52182,521.1226 L178.36627,521.1226 L178.36627,513.7819 L208.21072,513.7819 L208.21072,503.99426 L238.05518,503.99426 L238.05518,452.60916 L267.8996,452.60916 L267.8996,332.71057 L297.74408,332.71057 L297.74408,234.83417 L327.58853,234.83417 L327.58853,127.170166 L357.43295,127.170166 L357.43295,75.785034 L387.2774,75.785034 L387.2774,97.80722 L417.12183,97.80722 L417.12183,220.15274 L446.9663,220.15274 L446.9663,362.0735 L476.81073,362.0735 L476.81073,464.8437 L506.65518,464.8437 L506.65518,503.99426 L536.4997,503.99426 L536.4997,511.335 L566.3441,511.335 L566.3441,523.5695 L596.1886,523.5695 L596.1886,523.5695 L626.033,523.5695 L626.033,526.0164" fill="#ff7f0e" fill-opacity="0.69803923" stroke="none"/>
</g>
<path d="M52.057934,-4 L52.057934,4 M116.1738,-4 L116.1738,4 M180.28966,-4 L180.28966,4 M244.40552,-4 L244.40552,4 M308.5214,-4 L308.5214,4 M372.63724,-4 L372.63724,4 M436.7531,-4 L436.7531,4 M500.869,-4 L500.869,4" fill="none" stroke="#000000" stroke-width="1" transform="matrix(1 0 0 1 91.572 525.864)"/>
<path d="M-7.8120003,9.168 Q-7.8120003,8.424,-7.71,7.704 Q-7.6080003,6.984,-7.356,6.342 Q-7.104,5.7,-6.66,5.202 Q-6.216,4.7040005,-5.538,4.422 Q-4.86,4.1400003,-3.888,4.1400003 Q-3.6360002,4.1400003,-3.33,4.1639996 Q-3.0240002,4.1879997,-2.8320003,4.248 L-2.8320003,5.148 Q-3.0479999,5.076,-3.3179998,5.04 Q-3.5880003,5.004,-3.8640003,5.004 Q-4.6920004,5.004,-5.2440004,5.28 Q-5.796,5.556,-6.1140003,6.036 Q-6.432,6.516,-6.576,7.14 Q-6.7200003,7.764,-6.756,8.472 L-6.684,8.472 Q-6.504,8.184,-6.228,7.956 Q-5.952,7.728,-5.5620003,7.596 Q-5.172,7.464,-4.656,7.464 Q-3.9120002,7.464,-3.354,7.77 Q-2.796,8.076,-2.4840002,8.658 Q-2.172,9.24,-2.172,10.068 Q-2.172,10.956,-2.508,11.604 Q-2.8439999,12.252,-3.4500003,12.6 Q-4.056,12.948,-4.896,12.948 Q-5.5080004,12.948,-6.0360003,12.72 Q-6.564,12.492,-6.966,12.024 Q-7.368,11.556,-7.59,10.842 Q-7.8120003,10.128,-7.8120003,9.168 z M-4.908,12.06 Q-4.152,12.06,-3.684,11.574 Q-3.216,11.088,-3.216,10.068 Q-3.216,9.252,-3.63,8.771999 Q-4.044,8.292,-4.8719997,8.292 Q-5.436,8.292,-5.856,8.526 Q-6.276,8.76,-6.51,9.12 Q-6.744,9.48,-6.744,9.864 Q-6.744,10.26,-6.63,10.644 Q-6.5160003,11.028,-6.282,11.352 Q-6.0480003,11.676001,-5.7060003,11.868 Q-5.3640003,12.06,-4.908,12.06 z M-0.74400026,12.18 Q-0.74400026,11.736,-0.52800024,11.556 Q-0.31200027,11.376,-0.012000322,11.376 Q0.2999997,11.376,0.52199984,11.556 Q0.7439997,11.736,0.7439997,12.18 Q0.7439997,12.612,0.52199984,12.804 Q0.2999997,12.996,-0.012000322,12.996 Q-0.31200027,12.996,-0.52800024,12.804 Q-0.74400026,12.612,-0.74400026,12.18 z M7.884,8.532 Q7.884,9.576,7.7279997,10.392 Q7.572,11.208,7.23,11.778 Q6.888,12.348,6.342,12.648 Q5.796,12.948,5.028,12.948 Q4.068,12.948,3.4379997,12.42 Q2.8079998,11.892,2.5019999,10.902 Q2.1959999,9.912,2.1959999,8.532 Q2.1959999,7.14,2.4779997,6.156 Q2.7599998,5.172,3.3839998,4.6499996 Q4.008,4.1280003,5.028,4.1280003 Q5.988,4.1280003,6.624,4.6499996 Q7.2599998,5.172,7.572,6.156 Q7.884,7.14,7.884,8.532 z M3.2519999,8.532 Q3.2519999,9.708,3.4259996,10.488 Q3.6,11.268,3.9899998,11.658 Q4.38,12.048,5.028,12.048 Q5.6759996,12.048,6.066,11.664 Q6.456,11.28,6.6359997,10.4939995 Q6.816,9.708,6.816,8.532 Q6.816,7.356,6.6359997,6.582 Q6.456,5.808,6.066,5.418 Q5.6759996,5.028,5.028,5.028 Q4.38,5.028,3.9899998,5.418 Q3.6,5.808,3.4259996,6.582 Q3.2519999,7.356,3.2519999,8.532 z" fill="#000000" stroke="none" transform="matrix(1 0 0 1 143.62993 533.864)"/>
<path d="M-5.052,4.1400003 Q-4.296,4.1400003,-3.7200003,4.3739996 Q-3.144,4.608,-2.8140001,5.064 Q-2.4840002,5.52,-2.4840002,6.192 Q-2.4840002,6.708,-2.7059999,7.092 Q-2.928,7.476,-3.3000002,7.77 Q-3.672,8.064,-4.116,8.292 Q-3.5880003,8.544001,-3.1560001,8.8619995 Q-2.724,9.18,-2.466,9.6 Q-2.2080002,10.02,-2.2080002,10.608 Q-2.2080002,11.328,-2.5560002,11.85 Q-2.9040003,12.372,-3.534,12.66 Q-4.164,12.948,-5.016,12.948 Q-5.94,12.948,-6.5820003,12.672 Q-7.224,12.396,-7.554,11.886 Q-7.8840003,11.376,-7.8840003,10.644 Q-7.8840003,10.056,-7.638,9.624001 Q-7.392,9.192,-6.984,8.88 Q-6.576,8.568,-6.108,8.352 Q-6.528,8.1119995,-6.87,7.806 Q-7.212,7.5,-7.41,7.104 Q-7.6080003,6.708,-7.6080003,6.18 Q-7.6080003,5.52,-7.2720003,5.07 Q-6.936,4.62,-6.36,4.38 Q-5.7840004,4.1400003,-5.052,4.1400003 z M-6.852,10.656 Q-6.852,11.28,-6.408,11.694 Q-5.9639997,12.108,-5.04,12.108 Q-4.164,12.108,-3.7020001,11.694 Q-3.2400002,11.28,-3.2400002,10.62 Q-3.2400002,10.2,-3.462,9.882 Q-3.684,9.564,-4.086,9.312 Q-4.488,9.059999,-5.04,8.856 L-5.2320004,8.784 Q-5.76,9.012,-6.12,9.276 Q-6.48,9.54,-6.6660004,9.875999 Q-6.852,10.212,-6.852,10.656 z M-5.064,4.992 Q-5.724,4.992,-6.15,5.31 Q-6.576,5.628,-6.576,6.228 Q-6.576,6.672,-6.366,6.972 Q-6.156,7.272,-5.796,7.482 Q-5.436,7.692,-5.004,7.884 Q-4.584,7.704,-4.254,7.488 Q-3.9240003,7.272,-3.7260003,6.966 Q-3.5279999,6.66,-3.5279999,6.228 Q-3.5279999,5.628,-3.948,5.31 Q-4.368,4.992,-5.064,4.992 z M-0.74400026,12.18 Q-0.74400026,11.736,-0.52800024,11.556 Q-0.31200027,11.376,-0.012000322,11.376 Q0.2999997,11.376,0.52199984,11.556 Q0.7439997,11.736,0.7439997,12.18 Q0.7439997,12.612,0.52199984,12.804 Q0.2999997,12.996,-0.012000322,12.996 Q-0.31200027,12.996,-0.52800024,12.804 Q-0.74400026,12.612,-0.74400026,12.18 z M7.884,8.532 Q7.884,9.576,7.7279997,10.392 Q7.572,11.208,7.23,11.778 Q6.888,12.348,6.342,12.648 Q5.796,12.948,5.028,12.948 Q4.068,12.948,3.4379997,12.42 Q2.8079998,11.892,2.5019999,10.902 Q2.1959999,9.912,2.1959999,8.532 Q2.1959999,7.14,2.4779997,6.156 Q2.7599998,5.172,3.3839998,4.6499996 Q4.008,4.1280003,5.028,4.1280003 Q5.988,4.1280003,6.624,4.6499996 Q7.2599998,5.172,7.572,6.156 Q7.884,7.14,7.884,8.532 z M3.2519999,8.532 Q3.2519999,9.708,3.4259996,10.488 Q3.6,11.268,3.9899998,11.658 Q4.38,12.048,5.028,12.048 Q5.6759996,12.048,6.066,11.664 Q6.456,11.28,6.6359997,10.4939995 Q6.816,9.708,6.816,8.532 Q6.816,7.356,6.6359997,6.582 Q6.456,5.808,6.066,5.418 Q5.6759996,5.028,5.028,5.028 Q4.38,5.028,3.9899998,5.418 Q3.6,5.808,3.4259996,6.582 Q3.2519999,7.356,3.2519999,8.532 z" fill="#000000" stroke="none" transform="matrix(1 0 0 1 207.74579 533.864)"/>
<path d="M-7.644,12.828 L-8.676001,12.828 L-8.676001,6.84 Q-8.676001,6.492,-8.67,6.252 Q-8.6640005,6.012,-8.652,5.802 Q-8.64,5.592,-8.628,5.364 Q-8.82,5.556,-8.976,5.688 Q-9.132,5.82,-9.372,6.024 L-10.284,6.768 L-10.836,6.06 L-8.52,4.26 L-7.644,4.26 L-7.644,12.828 z M1.2359996,8.532 Q1.2359996,9.576,1.0799994,10.392 Q0.9239998,11.208,0.5819998,11.778 Q0.23999977,12.348,-0.30600023,12.648 Q-0.85200024,12.948,-1.6200004,12.948 Q-2.5800004,12.948,-3.2100005,12.42 Q-3.8400004,11.892,-4.1460004,10.902 Q-4.4520006,9.912,-4.4520006,8.532 Q-4.4520006,7.14,-4.1700006,6.156 Q-3.8880005,5.172,-3.2640004,4.6499996 Q-2.6400003,4.1280003,-1.6200004,4.1280003 Q-0.6600003,4.1280003,-0.024000168,4.6499996 Q0.6119995,5.172,0.9239998,6.156 Q1.2359996,7.14,1.2359996,8.532 z M-3.3960004,8.532 Q-3.3960004,9.708,-3.2220006,10.488 Q-3.0480003,11.268,-2.6580005,11.658 Q-2.2680004,12.048,-1.6200004,12.048 Q-0.9720006,12.048,-0.58200026,11.664 Q-0.19200039,11.28,-0.012000561,10.4939995 Q0.16799974,9.708,0.16799974,8.532 Q0.16799974,7.356,-0.012000561,6.582 Q-0.19200039,5.808,-0.58200026,5.418 Q-0.9720006,5.028,-1.6200004,5.028 Q-2.2680004,5.028,-2.6580005,5.418 Q-3.0480003,5.808,-3.2220006,6.582 Q-3.3960004,7.356,-3.3960004,8.532 z M2.6879995,12.18 Q2.6879995,11.736,2.9039993,11.556 Q3.1199994,11.376,3.4199994,11.376 Q3.7319994,11.376,3.9539995,11.556 Q4.1759996,11.736,4.1759996,12.18 Q4.1759996,12.612,3.9539995,12.804 Q3.7319994,12.996,3.4199994,12.996 Q3.1199994,12.996,2.9039993,12.804 Q2.6879995,12.612,2.6879995,12.18 z M11.316,8.532 Q11.316,9.576,11.16,10.392 Q11.004,11.208,10.662,11.778 Q10.32,12.348,9.774,12.648 Q9.228,12.948,8.459999,12.948 Q7.4999995,12.948,6.8699994,12.42 Q6.24,11.892,5.9339995,10.902 Q5.6279993,9.912,5.6279993,8.532 Q5.6279993,7.14,5.9099994,6.156 Q6.1919994,5.172,6.8159995,4.6499996 Q7.4399996,4.1280003,8.459999,4.1280003 Q9.42,4.1280003,10.056,4.6499996 Q10.691999,5.172,11.004,6.156 Q11.316,7.14,11.316,8.532 z M6.6839995,8.532 Q6.6839995,9.708,6.8579993,10.488 Q7.0319996,11.268,7.4219995,11.658 Q7.8119993,12.048,8.459999,12.048 Q9.108,12.048,9.497999,11.664 Q9.888,11.28,10.067999,10.4939995 Q10.247999,9.708,10.247999,8.532 Q10.247999,7.356,10.067999,6.582 Q9.888,5.808,9.497999,5.418 Q9.108,5.028,8.459999,5.028 Q7.8119993,5.028,7.4219995,5.418 Q7.0319996,5.808,6.8579993,6.582 Q6.6839995,7.356,6.6839995,8.532 z" fill="#000000" stroke="none" transform="matrix(1 0 0 1 271.86166 533.864)"/>
<path d="M-7.644,12.828 L-8.676001,12.828 L-8.676001,6.84 Q-8.676001,6.492,-8.67,6.252 Q-8.6640005,6.012,-8.652,5.802 Q-8.64,5.592,-8.628,5.364 Q-8.82,5.556,-8.976,5.688 Q-9.132,5.82,-9.372,6.024 L-10.284,6.768 L-10.836,6.06 L-8.52,4.26 L-7.644,4.26 L-7.644,12.828 z M1.1999998,12.828 L-4.4640007,12.828 L-4.4640007,11.952 L-2.2200005,9.684 Q-1.5720005,9.036,-1.1280005,8.532 Q-0.6840005,8.028,-0.45600033,7.542 Q-0.22800016,7.056,-0.22800016,6.48 Q-0.22800016,5.772,-0.64800024,5.406 Q-1.0680003,5.04,-1.7400005,5.04 Q-2.3640003,5.04,-2.8380005,5.256 Q-3.3120003,5.472,-3.8040004,5.856 L-4.3680005,5.148 Q-4.0320005,4.86,-3.6300006,4.632 Q-3.2280004,4.4040003,-2.7540004,4.2720003 Q-2.2800004,4.1400003,-1.7400005,4.1400003 Q-0.93600035,4.1400003,-0.3600006,4.4160004 Q0.2159996,4.6920004,0.53399944,5.202 Q0.85199976,5.712,0.85199976,6.42 Q0.85199976,7.092,0.57599974,7.68 Q0.2999997,8.268,-0.19200039,8.838 Q-0.6840005,9.408,-1.3440003,10.056 L-3.1320004,11.82 L-3.1320004,11.868 L1.1999998,11.868 L1.1999998,12.828 z M2.6879995,12.18 Q2.6879995,11.736,2.9039993,11.556 Q3.1199994,11.376,3.4199994,11.376 Q3.7319994,11.376,3.9539995,11.556 Q4.1759996,11.736,4.1759996,12.18 Q4.1759996,12.612,3.9539995,12.804 Q3.7319994,12.996,3.4199994,12.996 Q3.1199994,12.996,2.9039993,12.804 Q2.6879995,12.612,2.6879995,12.18 z M11.316,8.532 Q11.316,9.576,11.16,10.392 Q11.004,11.208,10.662,11.778 Q10.32,12.348,9.774,12.648 Q9.228,12.948,8.459999,12.948 Q7.4999995,12.948,6.8699994,12.42 Q6.24,11.892,5.9339995,10.902 Q5.6279993,9.912,5.6279993,8.532 Q5.6279993,7.14,5.9099994,6.156 Q6.1919994,5.172,6.8159995,4.6499996 Q7.4399996,4.1280003,8.459999,4.1280003 Q9.42,4.1280003,10.056,4.6499996 Q10.691999,5.172,11.004,6.156 Q11.316,7.14,11.316,8.532 z M6.6839995,8.532 Q6.6839995,9.708,6.8579993,10.488 Q7.0319996,11.268,7.4219995,11.658 Q7.8119993,12.048,8.459999,12.048 Q9.108,12.048,9.497999,11.664 Q9.888,11.28,10.067999,10.4939995 Q10.247999,9.708,10.247999,8.532 Q10.247999,7.356,10.067999,6.582 Q9.888,5.808,9.497999,5.418 Q9.108,5.028,8.459999,5.028 Q7.8119993,5.028,7.4219995,5.418 Q7.0319996,5.808,6.8579993,6.582 Q6.6839995,7.356,6.6839995,8.532 z" fill="#000000" stroke="none" transform="matrix(1 0 0 1 335.9775 533.864)"/>
<path d="M-7.644,12.828 L-8.676001,12.828 L-8.676001,6.84 Q-8.676001,6.492,-8.67,6.252 Q-8.6640005,6.012,-8.652,5.802 Q-8.64,5.592,-8.628,5.364 Q-8.82,5.556,-8.976,5.688 Q-9.132,5.82,-9.372,6.024 L-10.284,6.768 L-10.836,6.06 L-8.52,4.26 L-7.644,4.26 L-7.644,12.828 z M1.5839996,10.884 L0.3359995,10.884 L0.3359995,12.828 L-0.6840005,12.828 L-0.6840005,10.884 L-4.7880006,10.884 L-4.7880006,9.984 L-0.7560005,4.212 L0.3359995,4.212 L0.3359995,9.936 L1.5839996,9.936 L1.5839996,10.884 z M-0.6840005,7.236 Q-0.6840005,6.924,-0.67800045,6.666 Q-0.6720004,6.408,-0.6600003,6.18 Q-0.64800024,5.952,-0.6420002,5.742 Q-0.63600063,5.532,-0.62400055,5.34 L-0.6720004,5.34 Q-0.7680006,5.568,-0.9120002,5.832 Q-1.0560005,6.096,-1.1880004,6.276 L-3.7560005,9.936 L-0.6840005,9.936 L-0.6840005,7.236 z M2.6879995,12.18 Q2.6879995,11.736,2.9039993,11.556 Q3.1199994,11.376,3.4199994,11.376 Q3.7319994,11.376,3.9539995,11.556 Q4.1759996,11.736,4.1759996,12.18 Q4.1759996,12.612,3.9539995,12.804 Q3.7319994,12.996,3.4199994,12.996 Q3.1199994,12.996,2.9039993,12.804 Q2.6879995,12.612,2.6879995,12.18 z M11.316,8.532 Q11.316,9.576,11.16,10.392 Q11.004,11.208,10.662,11.778 Q10.32,12.348,9.774,12.648 Q9.228,12.948,8.459999,12.948 Q7.4999995,12.948,6.8699994,12.42 Q6.24,11.892,5.9339995,10.902 Q5.6279993,9.912,5.6279993,8.532 Q5.6279993,7.14,5.9099994,6.156 Q6.1919994,5.172,6.8159995,4.6499996 Q7.4399996,4.1280003,8.459999,4.1280003 Q9.42,4.1280003,10.056,4.6499996 Q10.691999,5.172,11.004,6.156 Q11.316,7.14,11.316,8.532 z M6.6839995,8.532 Q6.6839995,9.708,6.8579993,10.488 Q7.0319996,11.268,7.4219995,11.658 Q7.8119993,12.048,8.459999,12.048 Q9.108,12.048,9.497999,11.664 Q9.888,11.28,10.067999,10.4939995 Q10.247999,9.708,10.247999,8.532 Q10.247999,7.356,10.067999,6.582 Q9.888,5.808,9.497999,5.418 Q9.108,5.028,8.459999,5.028 Q7.8119993,5.028,7.4219995,5.418 Q7.0319996,5.808,6.8579993,6.582 Q6.6839995,7.356,6.6839995,8.532 z" fill="#000000" stroke="none" transform="matrix(1 0 0 1 400.09338 533.864)"/>
<path d="M-7.644,12.828 L-8.676001,12.828 L-8.676001,6.84 Q-8.676001,6.492,-8.67,6.252 Q-8.6640005,6.012,-8.652,5.802 Q-8.64,5.592,-8.628,5.364 Q-8.82,5.556,-8.976,5.688 Q-9.132,5.82,-9.372,6.024 L-10.284,6.768 L-10.836,6.06 L-8.52,4.26 L-7.644,4.26 L-7.644,12.828 z M-4.3800006,9.168 Q-4.3800006,8.424,-4.2780004,7.704 Q-4.1760006,6.984,-3.9240003,6.342 Q-3.6720004,5.7,-3.2280004,5.202 Q-2.7840004,4.7040005,-2.1060004,4.422 Q-1.4280005,4.1400003,-0.45600033,4.1400003 Q-0.20400047,4.1400003,0.10199976,4.1639996 Q0.40799952,4.1879997,0.5999994,4.248 L0.5999994,5.148 Q0.38399982,5.076,0.11399984,5.04 Q-0.15600061,5.004,-0.43200064,5.004 Q-1.2600005,5.004,-1.8120005,5.28 Q-2.3640003,5.556,-2.6820004,6.036 Q-3.0000005,6.516,-3.1440005,7.14 Q-3.2880006,7.764,-3.3240004,8.472 L-3.2520003,8.472 Q-3.0720005,8.184,-2.7960005,7.956 Q-2.5200005,7.728,-2.1300004,7.596 Q-1.7400005,7.464,-1.2240005,7.464 Q-0.4800005,7.464,0.07799959,7.77 Q0.6359997,8.076,0.9479995,8.658 Q1.2599998,9.24,1.2599998,10.068 Q1.2599998,10.956,0.9239998,11.604 Q0.5879998,12.252,-0.018000603,12.6 Q-0.62400055,12.948,-1.4640005,12.948 Q-2.0760005,12.948,-2.6040003,12.72 Q-3.1320004,12.492,-3.5340004,12.024 Q-3.9360003,11.556,-4.1580005,10.842 Q-4.3800006,10.128,-4.3800006,9.168 z M-1.4760003,12.06 Q-0.72000027,12.06,-0.25200033,11.574 Q0.2159996,11.088,0.2159996,10.068 Q0.2159996,9.252,-0.19800043,8.771999 Q-0.61200047,8.292,-1.4400003,8.292 Q-2.0040004,8.292,-2.4240005,8.526 Q-2.8440003,8.76,-3.0780005,9.12 Q-3.3120003,9.48,-3.3120003,9.864 Q-3.3120003,10.26,-3.1980004,10.644 Q-3.0840006,11.028,-2.8500004,11.352 Q-2.6160004,11.676001,-2.2740004,11.868 Q-1.9320004,12.06,-1.4760003,12.06 z M2.6879995,12.18 Q2.6879995,11.736,2.9039993,11.556 Q3.1199994,11.376,3.4199994,11.376 Q3.7319994,11.376,3.9539995,11.556 Q4.1759996,11.736,4.1759996,12.18 Q4.1759996,12.612,3.9539995,12.804 Q3.7319994,12.996,3.4199994,12.996 Q3.1199994,12.996,2.9039993,12.804 Q2.6879995,12.612,2.6879995,12.18 z M11.316,8.532 Q11.316,9.576,11.16,10.392 Q11.004,11.208,10.662,11.778 Q10.32,12.348,9.774,12.648 Q9.228,12.948,8.459999,12.948 Q7.4999995,12.948,6.8699994,12.42 Q6.24,11.892,5.9339995,10.902 Q5.6279993,9.912,5.6279993,8.532 Q5.6279993,7.14,5.9099994,6.156 Q6.1919994,5.172,6.8159995,4.6499996 Q7.4399996,4.1280003,8.459999,4.1280003 Q9.42,4.1280003,10.056,4.6499996 Q10.691999,5.172,11.004,6.156 Q11.316,7.14,11.316,8.532 z M6.6839995,8.532 Q6.6839995,9.708,6.8579993,10.488 Q7.0319996,11.268,7.4219995,11.658 Q7.8119993,12.048,8.459999,12.048 Q9.108,12.048,9.497999,11.664 Q9.888,11.28,10.067999,10.4939995 Q10.247999,9.708,10.247999,8.532 Q10.247999,7.356,10.067999,6.582 Q9.888,5.808,9.497999,5.418 Q9.108,5.028,8.459999,5.028 Q7.8119993,5.028,7.4219995,5.418 Q7.0319996,5.808,6.8579993,6.582 Q6.6839995,7.356,6.6839995,8.532 z" fill="#000000" stroke="none" transform="matrix(1 0 0 1 464.20923 533.864)"/>
<path d="M-7.644,12.828 L-8.676001,12.828 L-8.676001,6.84 Q-8.676001,6.492,-8.67,6.252 Q-8.6640005,6.012,-8.652,5.802 Q-8.64,5.592,-8.628,5.364 Q-8.82,5.556,-8.976,5.688 Q-9.132,5.82,-9.372,6.024 L-10.284,6.768 L-10.836,6.06 L-8.52,4.26 L-7.644,4.26 L-7.644,12.828 z M-1.6200004,4.1400003 Q-0.8640003,4.1400003,-0.28800058,4.3739996 Q0.28799963,4.608,0.61799955,5.064 Q0.9479995,5.52,0.9479995,6.192 Q0.9479995,6.708,0.72599983,7.092 Q0.5039997,7.476,0.1319995,7.77 Q-0.24000025,8.064,-0.6840005,8.292 Q-0.15600061,8.544001,0.27599955,8.8619995 Q0.7079997,9.18,0.9659996,9.6 Q1.2239995,10.02,1.2239995,10.608 Q1.2239995,11.328,0.87599945,11.85 Q0.5279994,12.372,-0.10200024,12.66 Q-0.73200035,12.948,-1.5840003,12.948 Q-2.5080004,12.948,-3.1500006,12.672 Q-3.7920003,12.396,-4.1220007,11.886 Q-4.4520006,11.376,-4.4520006,10.644 Q-4.4520006,10.056,-4.2060003,9.624001 Q-3.9600005,9.192,-3.5520005,8.88 Q-3.1440005,8.568,-2.6760004,8.352 Q-3.0960004,8.1119995,-3.4380004,7.806 Q-3.7800004,7.5,-3.9780004,7.104 Q-4.1760006,6.708,-4.1760006,6.18 Q-4.1760006,5.52,-3.8400004,5.07 Q-3.5040004,4.62,-2.9280005,4.38 Q-2.3520005,4.1400003,-1.6200004,4.1400003 z M-3.4200006,10.656 Q-3.4200006,11.28,-2.9760003,11.694 Q-2.5320003,12.108,-1.6080005,12.108 Q-0.73200035,12.108,-0.27000046,11.694 Q0.19199944,11.28,0.19199944,10.62 Q0.19199944,10.2,-0.03000021,9.882 Q-0.25200033,9.564,-0.6540003,9.312 Q-1.0560005,9.059999,-1.6080005,8.856 L-1.8000004,8.784 Q-2.3280003,9.012,-2.6880004,9.276 Q-3.0480003,9.54,-3.2340004,9.875999 Q-3.4200006,10.212,-3.4200006,10.656 z M-1.6320004,4.992 Q-2.2920005,4.992,-2.7180004,5.31 Q-3.1440005,5.628,-3.1440005,6.228 Q-3.1440005,6.672,-2.9340005,6.972 Q-2.7240005,7.272,-2.3640003,7.482 Q-2.0040004,7.692,-1.5720005,7.884 Q-1.1520004,7.704,-0.8220005,7.488 Q-0.49200058,7.272,-0.29400063,6.966 Q-0.096000195,6.66,-0.096000195,6.228 Q-0.096000195,5.628,-0.5160003,5.31 Q-0.93600035,4.992,-1.6320004,4.992 z M2.6879995,12.18 Q2.6879995,11.736,2.9039993,11.556 Q3.1199994,11.376,3.4199994,11.376 Q3.7319994,11.376,3.9539995,11.556 Q4.1759996,11.736,4.1759996,12.18 Q4.1759996,12.612,3.9539995,12.804 Q3.7319994,12.996,3.4199994,12.996 Q3.1199994,12.996,2.9039993,12.804 Q2.6879995,12.612,2.6879995,12.18 z M11.316,8.532 Q11.316,9.576,11.16,10.392 Q11.004,11.208,10.662,11.778 Q10.32,12.348,9.774,12.648 Q9.228,12.948,8.459999,12.948 Q7.4999995,12.948,6.8699994,12.42 Q6.24,11.892,5.9339995,10.902 Q5.6279993,9.912,5.6279993,8.532 Q5.6279993,7.14,5.9099994,6.156 Q6.1919994,5.172,6.8159995,4.6499996 Q7.4399996,4.1280003,8.459999,4.1280003 Q9.42,4.1280003,10.056,4.6499996 Q10.691999,5.172,11.004,6.156 Q11.316,7.14,11.316,8.532 z M6.6839995,8.532 Q6.6839995,9.708,6.8579993,10.488 Q7.0319996,11.268,7.4219995,11.658 Q7.8119993,12.048,8.459999,12.048 Q9.108,12.048,9.497999,11.664 Q9.888,11.28,10.067999,10.4939995 Q10.247999,9.708,10.247999,8.532 Q10.247999,7.356,10.067999,6.582 Q9.888,5.808,9.497999,5.418 Q9.108,5.028,8.459999,5.028 Q7.8119993,5.028,7.4219995,5.418 Q7.0319996,5.808,6.8579993,6.582 Q6.6839995,7.356,6.6839995,8.532 z" fill="#000000" stroke="none" transform="matrix(1 0 0 1 528.32513 533.864)"/>
<path d="M-5.664,12.828 L-11.328,12.828 L-11.328,11.952 L-9.084001,9.684 Q-8.436001,9.036,-7.9920006,8.532 Q-7.5480003,8.028,-7.32,7.542 Q-7.092,7.056,-7.092,6.48 Q-7.092,5.772,-7.512,5.406 Q-7.932,5.04,-8.604,5.04 Q-9.228001,5.04,-9.702001,5.256 Q-10.176001,5.472,-10.668,5.856 L-11.232,5.148 Q-10.896,4.86,-10.494,4.632 Q-10.092,4.4040003,-9.618,4.2720003 Q-9.144,4.1400003,-8.604,4.1400003 Q-7.8,4.1400003,-7.2240005,4.4160004 Q-6.6480002,4.6920004,-6.3300004,5.202 Q-6.012,5.712,-6.012,6.42 Q-6.012,7.092,-6.288,7.68 Q-6.564,8.268,-7.056,8.838 Q-7.5480003,9.408,-8.208,10.056 L-9.996,11.82 L-9.996,11.868 L-5.664,11.868 L-5.664,12.828 z M1.2359996,8.532 Q1.2359996,9.576,1.0799994,10.392 Q0.9239998,11.208,0.5819998,11.778 Q0.23999977,12.348,-0.30600023,12.648 Q-0.85200024,12.948,-1.6200004,12.948 Q-2.5800004,12.948,-3.2100005,12.42 Q-3.8400004,11.892,-4.1460004,10.902 Q-4.4520006,9.912,-4.4520006,8.532 Q-4.4520006,7.14,-4.1700006,6.156 Q-3.8880005,5.172,-3.2640004,4.6499996 Q-2.6400003,4.1280003,-1.6200004,4.1280003 Q-0.6600003,4.1280003,-0.024000168,4.6499996 Q0.6119995,5.172,0.9239998,6.156 Q1.2359996,7.14,1.2359996,8.532 z M-3.3960004,8.532 Q-3.3960004,9.708,-3.2220006,10.488 Q-3.0480003,11.268,-2.6580005,11.658 Q-2.2680004,12.048,-1.6200004,12.048 Q-0.9720006,12.048,-0.58200026,11.664 Q-0.19200039,11.28,-0.012000561,10.4939995 Q0.16799974,9.708,0.16799974,8.532 Q0.16799974,7.356,-0.012000561,6.582 Q-0.19200039,5.808,-0.58200026,5.418 Q-0.9720006,5.028,-1.6200004,5.028 Q-2.2680004,5.028,-2.6580005,5.418 Q-3.0480003,5.808,-3.2220006,6.582 Q-3.3960004,7.356,-3.3960004,8.532 z M2.6879995,12.18 Q2.6879995,11.736,2.9039993,11.556 Q3.1199994,11.376,3.4199994,11.376 Q3.7319994,11.376,3.9539995,11.556 Q4.1759996,11.736,4.1759996,12.18 Q4.1759996,12.612,3.9539995,12.804 Q3.7319994,12.996,3.4199994,12.996 Q3.1199994,12.996,2.9039993,12.804 Q2.6879995,12.612,2.6879995,12.18 z M11.316,8.532 Q11.316,9.576,11.16,10.392 Q11.004,11.208,10.662,11.778 Q10.32,12.348,9.774,12.648 Q9.228,12.948,8.459999,12.948 Q7.4999995,12.948,6.8699994,12.42 Q6.24,11.892,5.9339995,10.902 Q5.6279993,9.912,5.6279993,8.532 Q5.6279993,7.14,5.9099994,6.156 Q6.1919994,5.172,6.8159995,4.6499996 Q7.4399996,4.1280003,8.459999,4.1280003 Q9.42,4.1280003,10.056,4.6499996 Q10.691999,5.172,11.004,6.156 Q11.316,7.14,11.316,8.532 z M6.6839995,8.532 Q6.6839995,9.708,6.8579993,10.488 Q7.0319996,11.268,7.4219995,11.658 Q7.8119993,12.048,8.459999,12.048 Q9.108,12.048,9.497999,11.664 Q9.888,11.28,10.067999,10.4939995 Q10.247999,9.708,10.247999,8.532 Q10.247999,7.356,10.067999,6.582 Q9.888,5.808,9.497999,5.418 Q9.108,5.028,8.459999,5.028 Q7.8119993,5.028,7.4219995,5.418 Q7.0319996,5.808,6.8579993,6.582 Q6.6839995,7.356,6.6839995,8.532 z" fill="#000000" stroke="none" transform="matrix(1 0 0 1 592.441 533.864)"/>
<path d="M-0.84000015,12.719999 L-3.8000004,8.528 L-2.2000003,8.528 L0.007999897,11.76 L2.1999998,8.528 L3.7840004,8.528 L0.8239999,12.719999 L3.9440002,17.104 L2.3439999,17.104 L0.007999897,13.68 L-2.3600001,17.104 L-3.9440002,17.104 L-0.84000015,12.719999 z" fill="#000000" stroke="none" transform="matrix(1 0 0 1 368.8025 558.208)"/>
<path d="M56.79656,-4 L56.79656,4 M113.745544,-4 L113.745544,4 M170.69453,-4 L170.69453,4 M227.64352,-4 L227.64352,4 M284.5925,-4 L284.5925,4 M341.54147,-4 L341.54147,4 M398.4905,-4 L398.4905,4 M455.43948,-4 L455.43948,4" fill="none" stroke="#000000" stroke-width="1" transform="matrix(-0.00000004371139 -1 1 -0.00000004371139 91.572 525.864)"/>
<path d="M-20.676,3.216 L-26.34,3.216 L-26.34,2.3400002 L-24.096,0.07200003 Q-23.448,-0.576,-23.004,-1.0799999 Q-22.560001,-1.5840001,-22.332,-2.0700002 Q-22.104,-2.5559998,-22.104,-3.132 Q-22.104,-3.8400002,-22.524,-4.206 Q-22.944,-4.572,-23.616001,-4.572 Q-24.24,-4.572,-24.714,-4.356 Q-25.188,-4.14,-25.68,-3.756 L-26.244,-4.464 Q-25.908,-4.752,-25.506,-4.98 Q-25.104,-5.2079997,-24.630001,-5.3399997 Q-24.156,-5.4719996,-23.616001,-5.4719996 Q-22.812,-5.4719996,-22.236,-5.1959996 Q-21.66,-4.9199996,-21.342001,-4.41 Q-21.024,-3.9,-21.024,-3.192 Q-21.024,-2.52,-21.3,-1.9320002 Q-21.576,-1.3439999,-22.068,-0.7739999 Q-22.560001,-0.204,-23.220001,0.444 L-25.008,2.2080002 L-25.008,2.256 L-20.676,2.256 L-20.676,3.216 z M-19.188,2.568 Q-19.188,2.124,-18.972,1.9440001 Q-18.756,1.764,-18.456,1.764 Q-18.144001,1.764,-17.922,1.9440001 Q-17.7,2.124,-17.7,2.568 Q-17.7,3,-17.922,3.1920002 Q-18.144001,3.384,-18.456,3.384 Q-18.756,3.384,-18.972,3.1920002 Q-19.188,3,-19.188,2.568 z M-13.536,-2.04 Q-12.66,-2.04,-12.012001,-1.7399998 Q-11.364,-1.44,-11.01,-0.88199997 Q-10.656,-0.32399988,-10.656,0.48000002 Q-10.656,1.368,-11.040001,2.0100002 Q-11.424,2.652,-12.1380005,2.994 Q-12.852,3.336,-13.860001,3.336 Q-14.52,3.336,-15.102,3.216 Q-15.684,3.0960002,-16.08,2.868 L-16.08,1.8720001 Q-15.648001,2.1360002,-15.030001,2.286 Q-14.412001,2.436,-13.848001,2.436 Q-13.212,2.436,-12.738001,2.2380002 Q-12.264,2.04,-12,1.626 Q-11.736,1.2120001,-11.736,0.58800006 Q-11.736,-0.25199986,-12.252001,-0.7019999 Q-12.768001,-1.152,-13.884001,-1.152 Q-14.22,-1.152,-14.652,-1.092 Q-15.084001,-1.0320001,-15.348001,-0.9720001 L-15.876,-1.3080001 L-15.552,-5.3519998 L-11.2560005,-5.3519998 L-11.2560005,-4.392 L-14.652,-4.392 L-14.856001,-1.908 Q-14.652,-1.9439998,-14.304001,-1.9920001 Q-13.956,-2.04,-13.536,-2.04 z M-7.632,-5.4719996 Q-6.7440004,-5.4719996,-6.288,-4.77 Q-5.8320003,-4.068,-5.8320003,-2.796 Q-5.8320003,-1.5240002,-6.27,-0.80999994 Q-6.708,-0.095999956,-7.632,-0.095999956 Q-8.484,-0.095999956,-8.934,-0.80999994 Q-9.384,-1.5240002,-9.384,-2.796 Q-9.384,-4.068,-8.964,-4.77 Q-8.544001,-5.4719996,-7.632,-5.4719996 z M-7.632,-4.728 Q-8.088,-4.728,-8.298,-4.242 Q-8.508,-3.756,-8.508,-2.796 Q-8.508,-1.836,-8.298,-1.3439999 Q-8.088,-0.85199976,-7.632,-0.85199976 Q-7.164,-0.85199976,-6.936,-1.3379998 Q-6.708,-1.8239999,-6.708,-2.796 Q-6.708,-3.756,-6.936,-4.242 Q-7.164,-4.728,-7.632,-4.728 z M-2.1480002,-5.3519998 L-6.9,3.216 L-7.8240004,3.216 L-3.072,-5.3519998 L-2.1480002,-5.3519998 z M-2.388,-2.04 Q-1.5120001,-2.04,-1.0500002,-1.3379998 Q-0.5880003,-0.6359999,-0.5880003,0.63600016 Q-0.5880003,1.9080001,-1.026,2.6220002 Q-1.4639997,3.336,-2.388,3.336 Q-3.2400002,3.336,-3.69,2.6220002 Q-4.14,1.9080001,-4.14,0.63600016 Q-4.14,-0.6359999,-3.7200003,-1.3379998 Q-3.3000002,-2.04,-2.388,-2.04 z M-2.388,-1.2839999 Q-2.8439999,-1.2839999,-3.054,-0.8039999 Q-3.264,-0.32399988,-3.264,0.63600016 Q-3.264,1.608,-3.054,2.094 Q-2.8439999,2.5800002,-2.388,2.5800002 Q-1.9200001,2.5800002,-1.6920004,2.1 Q-1.4639997,1.6200001,-1.4639997,0.63600016 Q-1.4639997,-0.32399988,-1.6920004,-0.8039999 Q-1.9200001,-1.2839999,-2.388,-1.2839999 z" fill="#000000" stroke="none" transform="matrix(1 0 0 1 83.572 469.06744)"/>
<path d="M-23.616001,-2.04 Q-22.74,-2.04,-22.092001,-1.7399998 Q-21.444,-1.44,-21.09,-0.88199997 Q-20.736,-0.32399988,-20.736,0.48000002 Q-20.736,1.368,-21.12,2.0100002 Q-21.504,2.652,-22.218,2.994 Q-22.932001,3.336,-23.94,3.336 Q-24.6,3.336,-25.182001,3.216 Q-25.764,3.0960002,-26.16,2.868 L-26.16,1.8720001 Q-25.728,2.1360002,-25.11,2.286 Q-24.492,2.436,-23.928001,2.436 Q-23.292,2.436,-22.818,2.2380002 Q-22.344,2.04,-22.08,1.626 Q-21.816,1.2120001,-21.816,0.58800006 Q-21.816,-0.25199986,-22.332,-0.7019999 Q-22.848,-1.152,-23.964,-1.152 Q-24.300001,-1.152,-24.732,-1.092 Q-25.164,-1.0320001,-25.428,-0.9720001 L-25.956001,-1.3080001 L-25.632,-5.3519998 L-21.336,-5.3519998 L-21.336,-4.392 L-24.732,-4.392 L-24.936,-1.908 Q-24.732,-1.9439998,-24.384,-1.9920001 Q-24.036,-2.04,-23.616001,-2.04 z M-19.188,2.568 Q-19.188,2.124,-18.972,1.9440001 Q-18.756,1.764,-18.456,1.764 Q-18.144001,1.764,-17.922,1.9440001 Q-17.7,2.124,-17.7,2.568 Q-17.7,3,-17.922,3.1920002 Q-18.144001,3.384,-18.456,3.384 Q-18.756,3.384,-18.972,3.1920002 Q-19.188,3,-19.188,2.568 z M-10.56,-1.0799999 Q-10.56,-0.036000013,-10.716001,0.78 Q-10.872,1.5960001,-11.214001,2.1660001 Q-11.556,2.736,-12.102,3.036 Q-12.648001,3.336,-13.416,3.336 Q-14.376,3.336,-15.0060005,2.808 Q-15.636001,2.2800002,-15.942,1.2900001 Q-16.248001,0.29999995,-16.248001,-1.0799999 Q-16.248001,-2.4720001,-15.966001,-3.4559999 Q-15.684,-4.44,-15.06,-4.9620004 Q-14.436001,-5.4839997,-13.416,-5.4839997 Q-12.456,-5.4839997,-11.82,-4.9620004 Q-11.184,-4.44,-10.872,-3.4559999 Q-10.56,-2.4720001,-10.56,-1.0799999 z M-15.192,-1.0799999 Q-15.192,0.095999956,-15.018001,0.87600017 Q-14.844001,1.656,-14.454,2.046 Q-14.064,2.436,-13.416,2.436 Q-12.768001,2.436,-12.378,2.052 Q-11.988001,1.6680001,-11.808001,0.88199997 Q-11.628,0.095999956,-11.628,-1.0799999 Q-11.628,-2.256,-11.808001,-3.0300002 Q-11.988001,-3.804,-12.378,-4.194 Q-12.768001,-4.584,-13.416,-4.584 Q-14.064,-4.584,-14.454,-4.194 Q-14.844001,-3.804,-15.018001,-3.0300002 Q-15.192,-2.256,-15.192,-1.0799999 z M-7.632,-5.4719996 Q-6.7440004,-5.4719996,-6.288,-4.77 Q-5.8320003,-4.068,-5.8320003,-2.796 Q-5.8320003,-1.5240002,-6.27,-0.80999994 Q-6.708,-0.095999956,-7.632,-0.095999956 Q-8.484,-0.095999956,-8.934,-0.80999994 Q-9.384,-1.5240002,-9.384,-2.796 Q-9.384,-4.068,-8.964,-4.77 Q-8.544001,-5.4719996,-7.632,-5.4719996 z M-7.632,-4.728 Q-8.088,-4.728,-8.298,-4.242 Q-8.508,-3.756,-8.508,-2.796 Q-8.508,-1.836,-8.298,-1.3439999 Q-8.088,-0.85199976,-7.632,-0.85199976 Q-7.164,-0.85199976,-6.936,-1.3379998 Q-6.708,-1.8239999,-6.708,-2.796 Q-6.708,-3.756,-6.936,-4.242 Q-7.164,-4.728,-7.632,-4.728 z M-2.1480002,-5.3519998 L-6.9,3.216 L-7.8240004,3.216 L-3.072,-5.3519998 L-2.1480002,-5.3519998 z M-2.388,-2.04 Q-1.5120001,-2.04,-1.0500002,-1.3379998 Q-0.5880003,-0.6359999,-0.5880003,0.63600016 Q-0.5880003,1.9080001,-1.026,2.6220002 Q-1.4639997,3.336,-2.388,3.336 Q-3.2400002,3.336,-3.69,2.6220002 Q-4.14,1.9080001,-4.14,0.63600016 Q-4.14,-0.6359999,-3.7200003,-1.3379998 Q-3.3000002,-2.04,-2.388,-2.04 z M-2.388,-1.2839999 Q-2.8439999,-1.2839999,-3.054,-0.8039999 Q-3.264,-0.32399988,-3.264,0.63600016 Q-3.264,1.608,-3.054,2.094 Q-2.8439999,2.5800002,-2.388,2.5800002 Q-1.9200001,2.5800002,-1.6920004,2.1 Q-1.4639997,1.6200001,-1.4639997,0.63600016 Q-1.4639997,-0.32399988,-1.6920004,-0.8039999 Q-1.9200001,-1.2839999,-2.388,-1.2839999 z" fill="#000000" stroke="none" transform="matrix(1 0 0 1 83.572 412.11847)"/>
<path d="M-25.284,3.216 L-21.768,-4.392 L-26.388,-4.392 L-26.388,-5.3519998 L-20.64,-5.3519998 L-20.64,-4.536 L-24.12,3.216 L-25.284,3.216 z M-19.188,2.568 Q-19.188,2.124,-18.972,1.9440001 Q-18.756,1.764,-18.456,1.764 Q-18.144001,1.764,-17.922,1.9440001 Q-17.7,2.124,-17.7,2.568 Q-17.7,3,-17.922,3.1920002 Q-18.144001,3.384,-18.456,3.384 Q-18.756,3.384,-18.972,3.1920002 Q-19.188,3,-19.188,2.568 z M-13.536,-2.04 Q-12.66,-2.04,-12.012001,-1.7399998 Q-11.364,-1.44,-11.01,-0.88199997 Q-10.656,-0.32399988,-10.656,0.48000002 Q-10.656,1.368,-11.040001,2.0100002 Q-11.424,2.652,-12.1380005,2.994 Q-12.852,3.336,-13.860001,3.336 Q-14.52,3.336,-15.102,3.216 Q-15.684,3.0960002,-16.08,2.868 L-16.08,1.8720001 Q-15.648001,2.1360002,-15.030001,2.286 Q-14.412001,2.436,-13.848001,2.436 Q-13.212,2.436,-12.738001,2.2380002 Q-12.264,2.04,-12,1.626 Q-11.736,1.2120001,-11.736,0.58800006 Q-11.736,-0.25199986,-12.252001,-0.7019999 Q-12.768001,-1.152,-13.884001,-1.152 Q-14.22,-1.152,-14.652,-1.092 Q-15.084001,-1.0320001,-15.348001,-0.9720001 L-15.876,-1.3080001 L-15.552,-5.3519998 L-11.2560005,-5.3519998 L-11.2560005,-4.392 L-14.652,-4.392 L-14.856001,-1.908 Q-14.652,-1.9439998,-14.304001,-1.9920001 Q-13.956,-2.04,-13.536,-2.04 z M-7.632,-5.4719996 Q-6.7440004,-5.4719996,-6.288,-4.77 Q-5.8320003,-4.068,-5.8320003,-2.796 Q-5.8320003,-1.5240002,-6.27,-0.80999994 Q-6.708,-0.095999956,-7.632,-0.095999956 Q-8.484,-0.095999956,-8.934,-0.80999994 Q-9.384,-1.5240002,-9.384,-2.796 Q-9.384,-4.068,-8.964,-4.77 Q-8.544001,-5.4719996,-7.632,-5.4719996 z M-7.632,-4.728 Q-8.088,-4.728,-8.298,-4.242 Q-8.508,-3.756,-8.508,-2.796 Q-8.508,-1.836,-8.298,-1.3439999 Q-8.088,-0.85199976,-7.632,-0.85199976 Q-7.164,-0.85199976,-6.936,-1.3379998 Q-6.708,-1.8239999,-6.708,-2.796 Q-6.708,-3.756,-6.936,-4.242 Q-7.164,-4.728,-7.632,-4.728 z M-2.1480002,-5.3519998 L-6.9,3.216 L-7.8240004,3.216 L-3.072,-5.3519998 L-2.1480002,-5.3519998 z M-2.388,-2.04 Q-1.5120001,-2.04,-1.0500002,-1.3379998 Q-0.5880003,-0.6359999,-0.5880003,0.63600016 Q-0.5880003,1.9080001,-1.026,2.6220002 Q-1.4639997,3.336,-2.388,3.336 Q-3.2400002,3.336,-3.69,2.6220002 Q-4.14,1.9080001,-4.14,0.63600016 Q-4.14,-0.6359999,-3.7200003,-1.3379998 Q-3.3000002,-2.04,-2.388,-2.04 z M-2.388,-1.2839999 Q-2.8439999,-1.2839999,-3.054,-0.8039999 Q-3.264,-0.32399988,-3.264,0.63600016 Q-3.264,1.608,-3.054,2.094 Q-2.8439999,2.5800002,-2.388,2.5800002 Q-1.9200001,2.5800002,-1.6920004,2.1 Q-1.4639997,1.6200001,-1.4639997,0.63600016 Q-1.4639997,-0.32399988,-1.6920004,-0.8039999 Q-1.9200001,-1.2839999,-2.388,-1.2839999 z" fill="#000000" stroke="none" transform="matrix(1 0 0 1 83.572 355.1695)"/>
<path d="M-29.519999,3.216 L-30.551998,3.216 L-30.551998,-2.7719998 Q-30.551998,-3.12,-30.546,-3.3600001 Q-30.539999,-3.6,-30.527998,-3.81 Q-30.515999,-4.02,-30.503998,-4.248 Q-30.696,-4.0559998,-30.852,-3.9239998 Q-31.008,-3.7919998,-31.248,-3.5879998 L-32.16,-2.8439999 L-32.711998,-3.552 L-30.395998,-5.3519998 L-29.519999,-5.3519998 L-29.519999,3.216 z M-20.64,-1.0799999 Q-20.64,-0.036000013,-20.795998,0.78 Q-20.951998,1.5960001,-21.293999,2.1660001 Q-21.635998,2.736,-22.182,3.036 Q-22.727999,3.336,-23.495998,3.336 Q-24.455997,3.336,-25.085999,2.808 Q-25.715998,2.2800002,-26.022,1.2900001 Q-26.328,0.29999995,-26.328,-1.0799999 Q-26.328,-2.4720001,-26.045998,-3.4559999 Q-25.763998,-4.44,-25.14,-4.9620004 Q-24.515999,-5.4839997,-23.495998,-5.4839997 Q-22.536,-5.4839997,-21.899998,-4.9620004 Q-21.263998,-4.44,-20.951998,-3.4559999 Q-20.64,-2.4720001,-20.64,-1.0799999 z M-25.272,-1.0799999 Q-25.272,0.095999956,-25.097998,0.87600017 Q-24.923998,1.656,-24.533998,2.046 Q-24.144,2.436,-23.495998,2.436 Q-22.848,2.436,-22.457998,2.052 Q-22.067999,1.6680001,-21.887999,0.88199997 Q-21.707998,0.095999956,-21.707998,-1.0799999 Q-21.707998,-2.256,-21.887999,-3.0300002 Q-22.067999,-3.804,-22.457998,-4.194 Q-22.848,-4.584,-23.495998,-4.584 Q-24.144,-4.584,-24.533998,-4.194 Q-24.923998,-3.804,-25.097998,-3.0300002 Q-25.272,-2.256,-25.272,-1.0799999 z M-19.187998,2.568 Q-19.187998,2.124,-18.971998,1.9440001 Q-18.755999,1.764,-18.455997,1.764 Q-18.143997,1.764,-17.921997,1.9440001 Q-17.699999,2.124,-17.699999,2.568 Q-17.699999,3,-17.921997,3.1920002 Q-18.143997,3.384,-18.455997,3.384 Q-18.755999,3.384,-18.971998,3.1920002 Q-19.187998,3,-19.187998,2.568 z M-10.5599985,-1.0799999 Q-10.5599985,-0.036000013,-10.715999,0.78 Q-10.871998,1.5960001,-11.213999,2.1660001 Q-11.555998,2.736,-12.101998,3.036 Q-12.647999,3.336,-13.415998,3.336 Q-14.3759985,3.336,-15.005999,2.808 Q-15.635999,2.2800002,-15.9419985,1.2900001 Q-16.248,0.29999995,-16.248,-1.0799999 Q-16.248,-2.4720001,-15.965999,-3.4559999 Q-15.683998,-4.44,-15.0599985,-4.9620004 Q-14.435999,-5.4839997,-13.415998,-5.4839997 Q-12.455998,-5.4839997,-11.819998,-4.9620004 Q-11.183998,-4.44,-10.871998,-3.4559999 Q-10.5599985,-2.4720001,-10.5599985,-1.0799999 z M-15.1919985,-1.0799999 Q-15.1919985,0.095999956,-15.017999,0.87600017 Q-14.843999,1.656,-14.453999,2.046 Q-14.063998,2.436,-13.415998,2.436 Q-12.767999,2.436,-12.377998,2.052 Q-11.987999,1.6680001,-11.807999,0.88199997 Q-11.627998,0.095999956,-11.627998,-1.0799999 Q-11.627998,-2.256,-11.807999,-3.0300002 Q-11.987999,-3.804,-12.377998,-4.194 Q-12.767999,-4.584,-13.415998,-4.584 Q-14.063998,-4.584,-14.453999,-4.194 Q-14.843999,-3.804,-15.017999,-3.0300002 Q-15.1919985,-2.256,-15.1919985,-1.0799999 z M-7.631998,-5.4719996 Q-6.7439985,-5.4719996,-6.287998,-4.77 Q-5.8319983,-4.068,-5.8319983,-2.796 Q-5.8319983,-1.5240002,-6.269998,-0.80999994 Q-6.7079983,-0.095999956,-7.631998,-0.095999956 Q-8.483998,-0.095999956,-8.933998,-0.80999994 Q-9.383998,-1.5240002,-9.383998,-2.796 Q-9.383998,-4.068,-8.963998,-4.77 Q-8.543999,-5.4719996,-7.631998,-5.4719996 z M-7.631998,-4.728 Q-8.087998,-4.728,-8.297998,-4.242 Q-8.507998,-3.756,-8.507998,-2.796 Q-8.507998,-1.836,-8.297998,-1.3439999 Q-8.087998,-0.85199976,-7.631998,-0.85199976 Q-7.163998,-0.85199976,-6.935998,-1.3379998 Q-6.7079983,-1.8239999,-6.7079983,-2.796 Q-6.7079983,-3.756,-6.935998,-4.242 Q-7.163998,-4.728,-7.631998,-4.728 z M-2.1479983,-5.3519998 L-6.899998,3.216 L-7.8239985,3.216 L-3.0719981,-5.3519998 L-2.1479983,-5.3519998 z M-2.387998,-2.04 Q-1.5119982,-2.04,-1.0499983,-1.3379998 Q-0.5879984,-0.6359999,-0.5879984,0.63600016 Q-0.5879984,1.9080001,-1.0259981,2.6220002 Q-1.4639978,3.336,-2.387998,3.336 Q-3.2399983,3.336,-3.6899981,2.6220002 Q-4.139998,1.9080001,-4.139998,0.63600016 Q-4.139998,-0.6359999,-3.7199984,-1.3379998 Q-3.2999983,-2.04,-2.387998,-2.04 z M-2.387998,-1.2839999 Q-2.843998,-1.2839999,-3.053998,-0.8039999 Q-3.263998,-0.32399988,-3.263998,0.63600016 Q-3.263998,1.608,-3.053998,2.094 Q-2.843998,2.5800002,-2.387998,2.5800002 Q-1.9199982,2.5800002,-1.6919985,2.1 Q-1.4639978,1.6200001,-1.4639978,0.63600016 Q-1.4639978,-0.32399988,-1.6919985,-0.8039999 Q-1.9199982,-1.2839999,-2.387998,-1.2839999 z" fill="#000000" stroke="none" transform="matrix(1 0 0 1 83.572 298.2205)"/>
<path d="M-29.519999,3.216 L-30.551998,3.216 L-30.551998,-2.7719998 Q-30.551998,-3.12,-30.546,-3.3600001 Q-30.539999,-3.6,-30.527998,-3.81 Q-30.515999,-4.02,-30.503998,-4.248 Q-30.696,-4.0559998,-30.852,-3.9239998 Q-31.008,-3.7919998,-31.248,-3.5879998 L-32.16,-2.8439999 L-32.711998,-3.552 L-30.395998,-5.3519998 L-29.519999,-5.3519998 L-29.519999,3.216 z M-20.675999,3.216 L-26.339998,3.216 L-26.339998,2.3400002 L-24.095999,0.07200003 Q-23.447998,-0.576,-23.003998,-1.0799999 Q-22.559998,-1.5840001,-22.331999,-2.0700002 Q-22.103998,-2.5559998,-22.103998,-3.132 Q-22.103998,-3.8400002,-22.523998,-4.206 Q-22.943998,-4.572,-23.616,-4.572 Q-24.239998,-4.572,-24.713999,-4.356 Q-25.187998,-4.14,-25.679998,-3.756 L-26.243998,-4.464 Q-25.907999,-4.752,-25.505999,-4.98 Q-25.103998,-5.2079997,-24.63,-5.3399997 Q-24.155998,-5.4719996,-23.616,-5.4719996 Q-22.811998,-5.4719996,-22.235998,-5.1959996 Q-21.659998,-4.9199996,-21.342,-4.41 Q-21.023998,-3.9,-21.023998,-3.192 Q-21.023998,-2.52,-21.3,-1.9320002 Q-21.575998,-1.3439999,-22.067999,-0.7739999 Q-22.559998,-0.204,-23.219997,0.444 L-25.008,2.2080002 L-25.008,2.256 L-20.675999,2.256 L-20.675999,3.216 z M-19.187998,2.568 Q-19.187998,2.124,-18.971998,1.9440001 Q-18.755999,1.764,-18.455997,1.764 Q-18.143997,1.764,-17.921997,1.9440001 Q-17.699999,2.124,-17.699999,2.568 Q-17.699999,3,-17.921997,3.1920002 Q-18.143997,3.384,-18.455997,3.384 Q-18.755999,3.384,-18.971998,3.1920002 Q-19.187998,3,-19.187998,2.568 z M-13.535998,-2.04 Q-12.659998,-2.04,-12.011999,-1.7399998 Q-11.363998,-1.44,-11.009998,-0.88199997 Q-10.655998,-0.32399988,-10.655998,0.48000002 Q-10.655998,1.368,-11.039999,2.0100002 Q-11.423998,2.652,-12.137999,2.994 Q-12.851998,3.336,-13.859999,3.336 Q-14.519999,3.336,-15.101998,3.216 Q-15.683998,3.0960002,-16.079998,2.868 L-16.079998,1.8720001 Q-15.647999,2.1360002,-15.029999,2.286 Q-14.411999,2.436,-13.847999,2.436 Q-13.211998,2.436,-12.737999,2.2380002 Q-12.263998,2.04,-11.999998,1.626 Q-11.735998,1.2120001,-11.735998,0.58800006 Q-11.735998,-0.25199986,-12.251999,-0.7019999 Q-12.767999,-1.152,-13.883999,-1.152 Q-14.219998,-1.152,-14.6519985,-1.092 Q-15.083999,-1.0320001,-15.347999,-0.9720001 L-15.8759985,-1.3080001 L-15.551998,-5.3519998 L-11.255999,-5.3519998 L-11.255999,-4.392 L-14.6519985,-4.392 L-14.855999,-1.908 Q-14.6519985,-1.9439998,-14.303999,-1.9920001 Q-13.955998,-2.04,-13.535998,-2.04 z M-7.631998,-5.4719996 Q-6.7439985,-5.4719996,-6.287998,-4.77 Q-5.8319983,-4.068,-5.8319983,-2.796 Q-5.8319983,-1.5240002,-6.269998,-0.80999994 Q-6.7079983,-0.095999956,-7.631998,-0.095999956 Q-8.483998,-0.095999956,-8.933998,-0.80999994 Q-9.383998,-1.5240002,-9.383998,-2.796 Q-9.383998,-4.068,-8.963998,-4.77 Q-8.543999,-5.4719996,-7.631998,-5.4719996 z M-7.631998,-4.728 Q-8.087998,-4.728,-8.297998,-4.242 Q-8.507998,-3.756,-8.507998,-2.796 Q-8.507998,-1.836,-8.297998,-1.3439999 Q-8.087998,-0.85199976,-7.631998,-0.85199976 Q-7.163998,-0.85199976,-6.935998,-1.3379998 Q-6.7079983,-1.8239999,-6.7079983,-2.796 Q-6.7079983,-3.756,-6.935998,-4.242 Q-7.163998,-4.728,-7.631998,-4.728 z M-2.1479983,-5.3519998 L-6.899998,3.216 L-7.8239985,3.216 L-3.0719981,-5.3519998 L-2.1479983,-5.3519998 z M-2.387998,-2.04 Q-1.5119982,-2.04,-1.0499983,-1.3379998 Q-0.5879984,-0.6359999,-0.5879984,0.63600016 Q-0.5879984,1.9080001,-1.0259981,2.6220002 Q-1.4639978,3.336,-2.387998,3.336 Q-3.2399983,3.336,-3.6899981,2.6220002 Q-4.139998,1.9080001,-4.139998,0.63600016 Q-4.139998,-0.6359999,-3.7199984,-1.3379998 Q-3.2999983,-2.04,-2.387998,-2.04 z M-2.387998,-1.2839999 Q-2.843998,-1.2839999,-3.053998,-0.8039999 Q-3.263998,-0.32399988,-3.263998,0.63600016 Q-3.263998,1.608,-3.053998,2.094 Q-2.843998,2.5800002,-2.387998,2.5800002 Q-1.9199982,2.5800002,-1.6919985,2.1 Q-1.4639978,1.6200001,-1.4639978,0.63600016 Q-1.4639978,-0.32399988,-1.6919985,-0.8039999 Q-1.9199982,-1.2839999,-2.387998,-1.2839999 z" fill="#000000" stroke="none" transform="matrix(1 0 0 1 83.572 241.27151)"/>
<path d="M-29.519999,3.216 L-30.551998,3.216 L-30.551998,-2.7719998 Q-30.551998,-3.12,-30.546,-3.3600001 Q-30.539999,-3.6,-30.527998,-3.81 Q-30.515999,-4.02,-30.503998,-4.248 Q-30.696,-4.0559998,-30.852,-3.9239998 Q-31.008,-3.7919998,-31.248,-3.5879998 L-32.16,-2.8439999 L-32.711998,-3.552 L-30.395998,-5.3519998 L-29.519999,-5.3519998 L-29.519999,3.216 z M-23.616,-2.04 Q-22.739998,-2.04,-22.092,-1.7399998 Q-21.443998,-1.44,-21.089998,-0.88199997 Q-20.735998,-0.32399988,-20.735998,0.48000002 Q-20.735998,1.368,-21.119999,2.0100002 Q-21.503998,2.652,-22.217999,2.994 Q-22.932,3.336,-23.939999,3.336 Q-24.599998,3.336,-25.182,3.216 Q-25.763998,3.0960002,-26.159998,2.868 L-26.159998,1.8720001 Q-25.727999,2.1360002,-25.109999,2.286 Q-24.491999,2.436,-23.927998,2.436 Q-23.291998,2.436,-22.817999,2.2380002 Q-22.343998,2.04,-22.079998,1.626 Q-21.815998,1.2120001,-21.815998,0.58800006 Q-21.815998,-0.25199986,-22.331999,-0.7019999 Q-22.848,-1.152,-23.963999,-1.152 Q-24.3,-1.152,-24.731998,-1.092 Q-25.163998,-1.0320001,-25.427998,-0.9720001 L-25.955997,-1.3080001 L-25.631998,-5.3519998 L-21.335999,-5.3519998 L-21.335999,-4.392 L-24.731998,-4.392 L-24.935999,-1.908 Q-24.731998,-1.9439998,-24.383999,-1.9920001 Q-24.036,-2.04,-23.616,-2.04 z M-19.187998,2.568 Q-19.187998,2.124,-18.971998,1.9440001 Q-18.755999,1.764,-18.455997,1.764 Q-18.143997,1.764,-17.921997,1.9440001 Q-17.699999,2.124,-17.699999,2.568 Q-17.699999,3,-17.921997,3.1920002 Q-18.143997,3.384,-18.455997,3.384 Q-18.755999,3.384,-18.971998,3.1920002 Q-19.187998,3,-19.187998,2.568 z M-10.5599985,-1.0799999 Q-10.5599985,-0.036000013,-10.715999,0.78 Q-10.871998,1.5960001,-11.213999,2.1660001 Q-11.555998,2.736,-12.101998,3.036 Q-12.647999,3.336,-13.415998,3.336 Q-14.3759985,3.336,-15.005999,2.808 Q-15.635999,2.2800002,-15.9419985,1.2900001 Q-16.248,0.29999995,-16.248,-1.0799999 Q-16.248,-2.4720001,-15.965999,-3.4559999 Q-15.683998,-4.44,-15.0599985,-4.9620004 Q-14.435999,-5.4839997,-13.415998,-5.4839997 Q-12.455998,-5.4839997,-11.819998,-4.9620004 Q-11.183998,-4.44,-10.871998,-3.4559999 Q-10.5599985,-2.4720001,-10.5599985,-1.0799999 z M-15.1919985,-1.0799999 Q-15.1919985,0.095999956,-15.017999,0.87600017 Q-14.843999,1.656,-14.453999,2.046 Q-14.063998,2.436,-13.415998,2.436 Q-12.767999,2.436,-12.377998,2.052 Q-11.987999,1.6680001,-11.807999,0.88199997 Q-11.627998,0.095999956,-11.627998,-1.0799999 Q-11.627998,-2.256,-11.807999,-3.0300002 Q-11.987999,-3.804,-12.377998,-4.194 Q-12.767999,-4.584,-13.415998,-4.584 Q-14.063998,-4.584,-14.453999,-4.194 Q-14.843999,-3.804,-15.017999,-3.0300002 Q-15.1919985,-2.256,-15.1919985,-1.0799999 z M-7.631998,-5.4719996 Q-6.7439985,-5.4719996,-6.287998,-4.77 Q-5.8319983,-4.068,-5.8319983,-2.796 Q-5.8319983,-1.5240002,-6.269998,-0.80999994 Q-6.7079983,-0.095999956,-7.631998,-0.095999956 Q-8.483998,-0.095999956,-8.933998,-0.80999994 Q-9.383998,-1.5240002,-9.383998,-2.796 Q-9.383998,-4.068,-8.963998,-4.77 Q-8.543999,-5.4719996,-7.631998,-5.4719996 z M-7.631998,-4.728 Q-8.087998,-4.728,-8.297998,-4.242 Q-8.507998,-3.756,-8.507998,-2.796 Q-8.507998,-1.836,-8.297998,-1.3439999 Q-8.087998,-0.85199976,-7.631998,-0.85199976 Q-7.163998,-0.85199976,-6.935998,-1.3379998 Q-6.7079983,-1.8239999,-6.7079983,-2.796 Q-6.7079983,-3.756,-6.935998,-4.242 Q-7.163998,-4.728,-7.631998,-4.728 z M-2.1479983,-5.3519998 L-6.899998,3.216 L-7.8239985,3.216 L-3.0719981,-5.3519998 L-2.1479983,-5.3519998 z M-2.387998,-2.04 Q-1.5119982,-2.04,-1.0499983,-1.3379998 Q-0.5879984,-0.6359999,-0.5879984,0.63600016 Q-0.5879984,1.9080001,-1.0259981,2.6220002 Q-1.4639978,3.336,-2.387998,3.336 Q-3.2399983,3.336,-3.6899981,2.6220002 Q-4.139998,1.9080001,-4.139998,0.63600016 Q-4.139998,-0.6359999,-3.7199984,-1.3379998 Q-3.2999983,-2.04,-2.387998,-2.04 z M-2.387998,-1.2839999 Q-2.843998,-1.2839999,-3.053998,-0.8039999 Q-3.263998,-0.32399988,-3.263998,0.63600016 Q-3.263998,1.608,-3.053998,2.094 Q-2.843998,2.5800002,-2.387998,2.5800002 Q-1.9199982,2.5800002,-1.6919985,2.1 Q-1.4639978,1.6200001,-1.4639978,0.63600016 Q-1.4639978,-0.32399988,-1.6919985,-0.8039999 Q-1.9199982,-1.2839999,-2.387998,-1.2839999 z" fill="#000000" stroke="none" transform="matrix(1 0 0 1 83.572 184.32254)"/>
<path d="M-29.519999,3.216 L-30.551998,3.216 L-30.551998,-2.7719998 Q-30.551998,-3.12,-30.546,-3.3600001 Q-30.539999,-3.6,-30.527998,-3.81 Q-30.515999,-4.02,-30.503998,-4.248 Q-30.696,-4.0559998,-30.852,-3.9239998 Q-31.008,-3.7919998,-31.248,-3.5879998 L-32.16,-2.8439999 L-32.711998,-3.552 L-30.395998,-5.3519998 L-29.519999,-5.3519998 L-29.519999,3.216 z M-25.283998,3.216 L-21.767998,-4.392 L-26.387999,-4.392 L-26.387999,-5.3519998 L-20.64,-5.3519998 L-20.64,-4.536 L-24.119999,3.216 L-25.283998,3.216 z M-19.187998,2.568 Q-19.187998,2.124,-18.971998,1.9440001 Q-18.755999,1.764,-18.455997,1.764 Q-18.143997,1.764,-17.921997,1.9440001 Q-17.699999,2.124,-17.699999,2.568 Q-17.699999,3,-17.921997,3.1920002 Q-18.143997,3.384,-18.455997,3.384 Q-18.755999,3.384,-18.971998,3.1920002 Q-19.187998,3,-19.187998,2.568 z M-13.535998,-2.04 Q-12.659998,-2.04,-12.011999,-1.7399998 Q-11.363998,-1.44,-11.009998,-0.88199997 Q-10.655998,-0.32399988,-10.655998,0.48000002 Q-10.655998,1.368,-11.039999,2.0100002 Q-11.423998,2.652,-12.137999,2.994 Q-12.851998,3.336,-13.859999,3.336 Q-14.519999,3.336,-15.101998,3.216 Q-15.683998,3.0960002,-16.079998,2.868 L-16.079998,1.8720001 Q-15.647999,2.1360002,-15.029999,2.286 Q-14.411999,2.436,-13.847999,2.436 Q-13.211998,2.436,-12.737999,2.2380002 Q-12.263998,2.04,-11.999998,1.626 Q-11.735998,1.2120001,-11.735998,0.58800006 Q-11.735998,-0.25199986,-12.251999,-0.7019999 Q-12.767999,-1.152,-13.883999,-1.152 Q-14.219998,-1.152,-14.6519985,-1.092 Q-15.083999,-1.0320001,-15.347999,-0.9720001 L-15.8759985,-1.3080001 L-15.551998,-5.3519998 L-11.255999,-5.3519998 L-11.255999,-4.392 L-14.6519985,-4.392 L-14.855999,-1.908 Q-14.6519985,-1.9439998,-14.303999,-1.9920001 Q-13.955998,-2.04,-13.535998,-2.04 z M-7.631998,-5.4719996 Q-6.7439985,-5.4719996,-6.287998,-4.77 Q-5.8319983,-4.068,-5.8319983,-2.796 Q-5.8319983,-1.5240002,-6.269998,-0.80999994 Q-6.7079983,-0.095999956,-7.631998,-0.095999956 Q-8.483998,-0.095999956,-8.933998,-0.80999994 Q-9.383998,-1.5240002,-9.383998,-2.796 Q-9.383998,-4.068,-8.963998,-4.77 Q-8.543999,-5.4719996,-7.631998,-5.4719996 z M-7.631998,-4.728 Q-8.087998,-4.728,-8.297998,-4.242 Q-8.507998,-3.756,-8.507998,-2.796 Q-8.507998,-1.836,-8.297998,-1.3439999 Q-8.087998,-0.85199976,-7.631998,-0.85199976 Q-7.163998,-0.85199976,-6.935998,-1.3379998 Q-6.7079983,-1.8239999,-6.7079983,-2.796 Q-6.7079983,-3.756,-6.935998,-4.242 Q-7.163998,-4.728,-7.631998,-4.728 z M-2.1479983,-5.3519998 L-6.899998,3.216 L-7.8239985,3.216 L-3.0719981,-5.3519998 L-2.1479983,-5.3519998 z M-2.387998,-2.04 Q-1.5119982,-2.04,-1.0499983,-1.3379998 Q-0.5879984,-0.6359999,-0.5879984,0.63600016 Q-0.5879984,1.9080001,-1.0259981,2.6220002 Q-1.4639978,3.336,-2.387998,3.336 Q-3.2399983,3.336,-3.6899981,2.6220002 Q-4.139998,1.9080001,-4.139998,0.63600016 Q-4.139998,-0.6359999,-3.7199984,-1.3379998 Q-3.2999983,-2.04,-2.387998,-2.04 z M-2.387998,-1.2839999 Q-2.843998,-1.2839999,-3.053998,-0.8039999 Q-3.263998,-0.32399988,-3.263998,0.63600016 Q-3.263998,1.608,-3.053998,2.094 Q-2.843998,2.5800002,-2.387998,2.5800002 Q-1.9199982,2.5800002,-1.6919985,2.1 Q-1.4639978,1.6200001,-1.4639978,0.63600016 Q-1.4639978,-0.32399988,-1.6919985,-0.8039999 Q-1.9199982,-1.2839999,-2.387998,-1.2839999 z" fill="#000000" stroke="none" transform="matrix(1 0 0 1 83.572 127.373505)"/>
<path d="M-27.539999,3.216 L-33.204,3.216 L-33.204,2.3400002 L-30.96,0.07200003 Q-30.311998,-0.576,-29.867998,-1.0799999 Q-29.424,-1.5840001,-29.196,-2.0700002 Q-28.967999,-2.5559998,-28.967999,-3.132 Q-28.967999,-3.8400002,-29.387999,-4.206 Q-29.807999,-4.572,-30.48,-4.572 Q-31.103998,-4.572,-31.578,-4.356 Q-32.052,-4.14,-32.544,-3.756 L-33.107998,-4.464 Q-32.772,-4.752,-32.37,-4.98 Q-31.967999,-5.2079997,-31.494,-5.3399997 Q-31.019999,-5.4719996,-30.48,-5.4719996 Q-29.675999,-5.4719996,-29.099998,-5.1959996 Q-28.523998,-4.9199996,-28.206,-4.41 Q-27.887999,-3.9,-27.887999,-3.192 Q-27.887999,-2.52,-28.163998,-1.9320002 Q-28.439999,-1.3439999,-28.932,-0.7739999 Q-29.424,-0.204,-30.084,0.444 L-31.871998,2.2080002 L-31.871998,2.256 L-27.539999,2.256 L-27.539999,3.216 z M-20.64,-1.0799999 Q-20.64,-0.036000013,-20.795998,0.78 Q-20.951998,1.5960001,-21.293999,2.1660001 Q-21.635998,2.736,-22.182,3.036 Q-22.727999,3.336,-23.495998,3.336 Q-24.455997,3.336,-25.085999,2.808 Q-25.715998,2.2800002,-26.022,1.2900001 Q-26.328,0.29999995,-26.328,-1.0799999 Q-26.328,-2.4720001,-26.045998,-3.4559999 Q-25.763998,-4.44,-25.14,-4.9620004 Q-24.515999,-5.4839997,-23.495998,-5.4839997 Q-22.536,-5.4839997,-21.899998,-4.9620004 Q-21.263998,-4.44,-20.951998,-3.4559999 Q-20.64,-2.4720001,-20.64,-1.0799999 z M-25.272,-1.0799999 Q-25.272,0.095999956,-25.097998,0.87600017 Q-24.923998,1.656,-24.533998,2.046 Q-24.144,2.436,-23.495998,2.436 Q-22.848,2.436,-22.457998,2.052 Q-22.067999,1.6680001,-21.887999,0.88199997 Q-21.707998,0.095999956,-21.707998,-1.0799999 Q-21.707998,-2.256,-21.887999,-3.0300002 Q-22.067999,-3.804,-22.457998,-4.194 Q-22.848,-4.584,-23.495998,-4.584 Q-24.144,-4.584,-24.533998,-4.194 Q-24.923998,-3.804,-25.097998,-3.0300002 Q-25.272,-2.256,-25.272,-1.0799999 z M-19.187998,2.568 Q-19.187998,2.124,-18.971998,1.9440001 Q-18.755999,1.764,-18.455997,1.764 Q-18.143997,1.764,-17.921997,1.9440001 Q-17.699999,2.124,-17.699999,2.568 Q-17.699999,3,-17.921997,3.1920002 Q-18.143997,3.384,-18.455997,3.384 Q-18.755999,3.384,-18.971998,3.1920002 Q-19.187998,3,-19.187998,2.568 z M-10.5599985,-1.0799999 Q-10.5599985,-0.036000013,-10.715999,0.78 Q-10.871998,1.5960001,-11.213999,2.1660001 Q-11.555998,2.736,-12.101998,3.036 Q-12.647999,3.336,-13.415998,3.336 Q-14.3759985,3.336,-15.005999,2.808 Q-15.635999,2.2800002,-15.9419985,1.2900001 Q-16.248,0.29999995,-16.248,-1.0799999 Q-16.248,-2.4720001,-15.965999,-3.4559999 Q-15.683998,-4.44,-15.0599985,-4.9620004 Q-14.435999,-5.4839997,-13.415998,-5.4839997 Q-12.455998,-5.4839997,-11.819998,-4.9620004 Q-11.183998,-4.44,-10.871998,-3.4559999 Q-10.5599985,-2.4720001,-10.5599985,-1.0799999 z M-15.1919985,-1.0799999 Q-15.1919985,0.095999956,-15.017999,0.87600017 Q-14.843999,1.656,-14.453999,2.046 Q-14.063998,2.436,-13.415998,2.436 Q-12.767999,2.436,-12.377998,2.052 Q-11.987999,1.6680001,-11.807999,0.88199997 Q-11.627998,0.095999956,-11.627998,-1.0799999 Q-11.627998,-2.256,-11.807999,-3.0300002 Q-11.987999,-3.804,-12.377998,-4.194 Q-12.767999,-4.584,-13.415998,-4.584 Q-14.063998,-4.584,-14.453999,-4.194 Q-14.843999,-3.804,-15.017999,-3.0300002 Q-15.1919985,-2.256,-15.1919985,-1.0799999 z M-7.631998,-5.4719996 Q-6.7439985,-5.4719996,-6.287998,-4.77 Q-5.8319983,-4.068,-5.8319983,-2.796 Q-5.8319983,-1.5240002,-6.269998,-0.80999994 Q-6.7079983,-0.095999956,-7.631998,-0.095999956 Q-8.483998,-0.095999956,-8.933998,-0.80999994 Q-9.383998,-1.5240002,-9.383998,-2.796 Q-9.383998,-4.068,-8.963998,-4.77 Q-8.543999,-5.4719996,-7.631998,-5.4719996 z M-7.631998,-4.728 Q-8.087998,-4.728,-8.297998,-4.242 Q-8.507998,-3.756,-8.507998,-2.796 Q-8.507998,-1.836,-8.297998,-1.3439999 Q-8.087998,-0.85199976,-7.631998,-0.85199976 Q-7.163998,-0.85199976,-6.935998,-1.3379998 Q-6.7079983,-1.8239999,-6.7079983,-2.796 Q-6.7079983,-3.756,-6.935998,-4.242 Q-7.163998,-4.728,-7.631998,-4.728 z M-2.1479983,-5.3519998 L-6.899998,3.216 L-7.8239985,3.216 L-3.0719981,-5.3519998 L-2.1479983,-5.3519998 z M-2.387998,-2.04 Q-1.5119982,-2.04,-1.0499983,-1.3379998 Q-0.5879984,-0.6359999,-0.5879984,0.63600016 Q-0.5879984,1.9080001,-1.0259981,2.6220002 Q-1.4639978,3.336,-2.387998,3.336 Q-3.2399983,3.336,-3.6899981,2.6220002 Q-4.139998,1.9080001,-4.139998,0.63600016 Q-4.139998,-0.6359999,-3.7199984,-1.3379998 Q-3.2999983,-2.04,-2.387998,-2.04 z M-2.387998,-1.2839999 Q-2.843998,-1.2839999,-3.053998,-0.8039999 Q-3.263998,-0.32399988,-3.263998,0.63600016 Q-3.263998,1.608,-3.053998,2.094 Q-2.843998,2.5800002,-2.387998,2.5800002 Q-1.9199982,2.5800002,-1.6919985,2.1 Q-1.4639978,1.6200001,-1.4639978,0.63600016 Q-1.4639978,-0.32399988,-1.6919985,-0.8039999 Q-1.9199982,-1.2839999,-2.387998,-1.2839999 z" fill="#000000" stroke="none" transform="matrix(1 0 0 1 83.572 70.42453)"/>
<path d="M-4.0640006,-13.264 L-2.5600004,-13.264 L-0.70400023,-8.384001 Q-0.54400015,-7.9520006,-0.40800023,-7.552 Q-0.2720003,-7.1520004,-0.16000032,-6.776 Q-0.048000336,-6.4000006,0.015999794,-6.0480003 L0.07999992,-6.0480003 Q0.17599964,-6.4480004,0.38399982,-7.0960007 Q0.592,-7.7440004,0.816,-8.400001 L2.56,-13.264 L4.0800004,-13.264 L0.38399982,-3.5040002 Q0.07999992,-2.704,-0.3280003,-2.104 Q-0.7360003,-1.504,-1.3200002,-1.1760001 Q-1.9040003,-0.84800005,-2.7360003,-0.84800005 Q-3.1200004,-0.84800005,-3.4080005,-0.888 Q-3.6960003,-0.928,-3.9040003,-0.9760001 L-3.9040003,-2.0960002 Q-3.7280004,-2.0640001,-3.4800005,-2.032 Q-3.2320004,-2,-2.9600005,-2 Q-2.4640002,-2,-2.1040003,-2.184 Q-1.7440002,-2.368,-1.4880004,-2.7120001 Q-1.2320004,-3.0560002,-1.0560002,-3.52 L-0.6080003,-4.656 L-4.0640006,-13.264 z" fill="#000000" stroke="none" transform="matrix(-0.00000004371139 -1 1 -0.00000004371139 41.792 288.932)"/>
<rect fill="none" height="473.864" stroke="#000000" stroke-width="1" width="554.461" x="91.572" y="52"/>
<rect fill="#ffffff" fill-opacity="0.5019608" height="61.412003" stroke="#000000" stroke-width="1" width="121.967" x="658.033" y="285.294"/>
<path d="M666.033,302.147 L691.033,302.147" fill="none" stroke="#1f77b4" stroke-width="4"/>
<path d="M3.575,3.6139998 Q2.275,3.6139998,1.495,2.7105 Q0.71500003,1.8069999,0.71500003,0.013000011 Q0.71500003,-1.7810004,1.5015,-2.6975 Q2.288,-3.614,3.588,-3.614 Q4.1340003,-3.614,4.537,-3.4775002 Q4.94,-3.3410003,5.2390003,-3.107 Q5.538,-2.8730004,5.7460003,-2.5870001 L5.8240004,-2.5870001 Q5.8110003,-2.7560003,5.7785,-3.0875003 Q5.7460003,-3.4190004,5.7460003,-3.614 L5.7460003,-6.396 L6.8900003,-6.396 L6.8900003,3.484 L5.967,3.484 L5.7980003,2.5479999 L5.7460003,2.5479999 Q5.538,2.847,5.2390003,3.0874999 Q4.94,3.328,4.5305,3.471 Q4.1210003,3.6139998,3.575,3.6139998 z M3.757,2.665 Q4.862,2.665,5.3105,2.0605 Q5.7590003,1.4559999,5.7590003,0.23399997 L5.7590003,0.025999784 Q5.7590003,-1.2739999,5.33,-1.9695003 Q4.901,-2.6650002,3.744,-2.6650002 Q2.821,-2.6650002,2.3595,-1.9305003 Q1.898,-1.1960003,1.898,0.038999796 Q1.898,1.287,2.3595,1.976 Q2.821,2.665,3.757,2.665 z M10.244,-3.484 L10.244,3.484 L9.1,3.484 L9.1,-3.484 L10.244,-3.484 z M9.685,-6.097 Q9.945001,-6.097,10.146501,-5.9215 Q10.348001,-5.7460003,10.348001,-5.3690004 Q10.348001,-5.005,10.146501,-4.823 Q9.945001,-4.641,9.685,-4.641 Q9.399,-4.641,9.204,-4.823 Q9.009001,-5.005,9.009001,-5.3690004 Q9.009001,-5.7460003,9.204,-5.9215 Q9.399,-6.097,9.685,-6.097 z M16.991001,1.56 Q16.991001,2.236,16.653,2.691 Q16.315,3.146,15.691001,3.3799999 Q15.067001,3.6139998,14.209002,3.6139998 Q13.481001,3.6139998,12.954501,3.497 Q12.428001,3.3799999,12.025001,3.172 L12.025001,2.132 Q12.441001,2.34,13.032501,2.5155 Q13.624001,2.691,14.235001,2.691 Q15.106001,2.691,15.496001,2.4115 Q15.886002,2.132,15.886002,1.6639999 Q15.886002,1.404,15.743001,1.1959999 Q15.6,0.9879999,15.229501,0.78 Q14.859001,0.5719998,14.170001,0.3119998 Q13.494001,0.051999807,13.0130005,-0.20800018 Q12.532001,-0.46800017,12.272001,-0.832 Q12.012001,-1.1960003,12.012001,-1.7680004 Q12.012001,-2.6520002,12.733501,-3.1330001 Q13.455001,-3.614,14.625001,-3.614 Q15.262001,-3.614,15.814501,-3.4905002 Q16.367,-3.3670003,16.848001,-3.1460001 L16.458,-2.2360003 Q16.016,-2.418,15.535001,-2.548 Q15.054001,-2.6780002,14.547001,-2.6780002 Q13.845001,-2.6780002,13.474501,-2.4505002 Q13.104001,-2.2230003,13.104001,-1.833 Q13.104001,-1.5470002,13.273001,-1.3455002 Q13.442001,-1.1440003,13.838501,-0.9554999 Q14.235001,-0.76699996,14.898001,-0.5070002 Q15.561001,-0.26,16.029001,0 Q16.497002,0.26,16.744001,0.63049984 Q16.991001,1.0009999,16.991001,1.56 z M21.008,2.678 Q21.268,2.678,21.541,2.6325 Q21.814,2.587,21.983,2.5349998 L21.983,3.406 Q21.801,3.497,21.463001,3.5555 Q21.125,3.6139998,20.813,3.6139998 Q20.267,3.6139998,19.8055,3.4255 Q19.344,3.237,19.058,2.769 Q18.772,2.301,18.772,1.4559999 L18.772,-2.6000001 L17.784,-2.6000001 L17.784,-3.1460001 L18.785,-3.601 L19.24,-5.083 L19.916,-5.083 L19.916,-3.484 L21.931,-3.484 L21.931,-2.6000001 L19.916,-2.6000001 L19.916,1.4299998 Q19.916,2.067,20.2215,2.3725 Q20.527,2.678,21.008,2.678 z M26.624,-3.614 Q26.819,-3.614,27.046501,-3.5945003 Q27.274002,-3.575,27.443,-3.536 L27.300001,-2.483 Q27.131,-2.522,26.9295,-2.548 Q26.728,-2.5740001,26.546001,-2.5740001 Q26.143002,-2.5740001,25.779001,-2.405 Q25.415,-2.2360003,25.129002,-1.9305003 Q24.843,-1.6250002,24.6805,-1.1960003 Q24.518002,-0.76699996,24.518002,-0.2340002 L24.518002,3.484 L23.374,3.484 L23.374,-3.484 L24.310001,-3.484 L24.44,-2.2100003 L24.492,-2.2100003 Q24.713001,-2.6000001,25.025002,-2.9185002 Q25.337002,-3.2370002,25.740002,-3.4255002 Q26.143002,-3.614,26.624,-3.614 z M29.887001,-3.484 L29.887001,3.484 L28.743,3.484 L28.743,-3.484 L29.887001,-3.484 z M29.328001,-6.097 Q29.588001,-6.097,29.789501,-5.9215 Q29.991001,-5.7460003,29.991001,-5.3690004 Q29.991001,-5.005,29.789501,-4.823 Q29.588001,-4.641,29.328001,-4.641 Q29.042,-4.641,28.847,-4.823 Q28.652,-5.005,28.652,-5.3690004 Q28.652,-5.7460003,28.847,-5.9215 Q29.042,-6.097,29.328001,-6.097 z M33.241,-3.9910004 Q33.241,-3.549,33.2215,-3.1655004 Q33.202,-2.7820003,33.176003,-2.561 L33.241,-2.561 Q33.54,-3.003,34.06,-3.3020003 Q34.58,-3.601,35.399002,-3.601 Q36.699,-3.601,37.4855,-2.6975 Q38.272,-1.7939999,38.272,0 Q38.272,1.1959999,37.9145,2.0019999 Q37.557,2.808,36.907,3.211 Q36.257,3.6139998,35.399002,3.6139998 Q34.58,3.6139998,34.06,3.315 Q33.54,3.016,33.241,2.6 L33.15,2.6 L32.916,3.484 L32.097,3.484 L32.097,-6.396 L33.241,-6.396 L33.241,-3.9910004 z M35.204002,-2.6520002 Q34.463,-2.6520002,34.034,-2.3725002 Q33.605,-2.0930002,33.423,-1.5144999 Q33.241,-0.9360001,33.241,-0.039000034 L33.241,0.013000011 Q33.241,1.3,33.6635,1.9825 Q34.086002,2.665,35.23,2.665 Q36.166,2.665,36.627502,1.976 Q37.089,1.287,37.089,-0.013000011 Q37.089,-1.326,36.627502,-1.9890001 Q36.166,-2.6520002,35.204002,-2.6520002 z M45.916,-3.484 L45.916,3.484 L44.98,3.484 L44.811,2.5609999 L44.759,2.5609999 Q44.538,2.925,44.187,3.159 Q43.836,3.393,43.42,3.5035 Q43.003998,3.6139998,42.549,3.6139998 Q41.717,3.6139998,41.1515,3.3474998 Q40.586,3.0809999,40.3,2.5219998 Q40.014,1.9629999,40.014,1.079 L40.014,-3.484 L41.170998,-3.484 L41.170998,1.0009999 Q41.170998,1.833,41.548,2.249 Q41.925,2.665,42.718,2.665 Q43.498,2.665,43.9465,2.3725 Q44.395,2.08,44.5835,1.5144999 Q44.772,0.9489999,44.772,0.14299989 L44.772,-3.484 L45.916,-3.484 z M50.453,2.678 Q50.713,2.678,50.986,2.6325 Q51.259,2.587,51.428,2.5349998 L51.428,3.406 Q51.246,3.497,50.908,3.5555 Q50.57,3.6139998,50.258,3.6139998 Q49.711998,3.6139998,49.2505,3.4255 Q48.789,3.237,48.503,2.769 Q48.217,2.301,48.217,1.4559999 L48.217,-2.6000001 L47.229,-2.6000001 L47.229,-3.1460001 L48.23,-3.601 L48.685,-5.083 L49.361,-5.083 L49.361,-3.484 L51.376,-3.484 L51.376,-2.6000001 L49.361,-2.6000001 L49.361,1.4299998 Q49.361,2.067,49.6665,2.3725 Q49.972,2.678,50.453,2.678 z M53.963,-3.484 L53.963,3.484 L52.819,3.484 L52.819,-3.484 L53.963,-3.484 z M53.404,-6.097 Q53.664,-6.097,53.8655,-5.9215 Q54.067,-5.7460003,54.067,-5.3690004 Q54.067,-5.005,53.8655,-4.823 Q53.664,-4.641,53.404,-4.641 Q53.118,-4.641,52.923,-4.823 Q52.728,-5.005,52.728,-5.3690004 Q52.728,-5.7460003,52.923,-5.9215 Q53.118,-6.097,53.404,-6.097 z M62.231003,-0.013000011 Q62.231003,0.8579998,62.0035,1.5274999 Q61.776,2.197,61.3535,2.665 Q60.931,3.133,60.3265,3.3734999 Q59.722,3.6139998,58.981003,3.6139998 Q58.292,3.6139998,57.707,3.3734999 Q57.122,3.133,56.693,2.665 Q56.264,2.197,56.023502,1.5274999 Q55.783,0.8579998,55.783,-0.013000011 Q55.783,-1.1700003,56.173,-1.9695003 Q56.563,-2.7690003,57.291,-3.1915 Q58.019,-3.614,59.02,-3.614 Q59.969,-3.614,60.690502,-3.1915 Q61.412003,-2.7690003,61.821503,-1.9695003 Q62.231003,-1.1700003,62.231003,-0.013000011 z M56.966,-0.013000011 Q56.966,0.806,57.1805,1.4104998 Q57.395,2.0149999,57.850002,2.34 Q58.305,2.665,59.007,2.665 Q59.709,2.665,60.164,2.34 Q60.619,2.0149999,60.8335,1.4104998 Q61.048,0.806,61.048,-0.013000011 Q61.048,-0.845,60.827,-1.4300001 Q60.606003,-2.015,60.1575,-2.3335001 Q59.709,-2.6520002,58.994,-2.6520002 Q57.928,-2.6520002,57.447002,-1.95 Q56.966,-1.2479999,56.966,-0.013000011 z M67.392006,-3.614 Q68.64,-3.614,69.277,-3.0095003 Q69.914,-2.405,69.914,-1.0530002 L69.914,3.484 L68.783005,3.484 L68.783005,-0.97500014 Q68.783005,-1.8199999,68.406006,-2.2360003 Q68.029,-2.6520002,67.223,-2.6520002 Q66.066,-2.6520002,65.624,-2.002 Q65.182,-1.352,65.182,-0.13000011 L65.182,3.484 L64.038,3.484 L64.038,-3.484 L64.961006,-3.484 L65.130005,-2.535 L65.195,-2.535 Q65.429,-2.899,65.773506,-3.1395004 Q66.118004,-3.3800004,66.534004,-3.497 Q66.950005,-3.614,67.392006,-3.614 z" fill="#000000" stroke="none" transform="matrix(1 0 0 1 701.033 302.147)"/>
<rect fill="#ff7f0e" fill-opacity="0.69803923" height="14" stroke="none" width="25" x="666.033" y="322.853"/>
<path d="M4.42,-3.614 Q5.7070003,-3.614,6.4935,-2.7170002 Q7.28,-1.8199999,7.28,-0.013000011 Q7.28,1.1699998,6.9225,1.9825 Q6.565,2.795,5.9215,3.2045 Q5.278,3.6139998,4.407,3.6139998 Q3.874,3.6139998,3.4580002,3.471 Q3.042,3.328,2.7495,3.1004999 Q2.457,2.873,2.249,2.6 L2.171,2.6 Q2.197,2.821,2.223,3.159 Q2.249,3.497,2.249,3.744 L2.249,6.604 L1.105,6.604 L1.105,-3.484 L2.0410001,-3.484 L2.197,-2.535 L2.249,-2.535 Q2.457,-2.8340003,2.7495,-3.081 Q3.042,-3.3280003,3.4515002,-3.471 Q3.861,-3.614,4.42,-3.614 z M4.212,-2.6520002 Q3.51,-2.6520002,3.081,-2.3855002 Q2.652,-2.1190002,2.457,-1.5860002 Q2.262,-1.0530002,2.249,-0.2340002 L2.249,-0.013000011 Q2.249,0.845,2.431,1.4429998 Q2.6130002,2.041,3.0485,2.353 Q3.484,2.665,4.238,2.665 Q4.875,2.665,5.2845,2.314 Q5.6940002,1.9629999,5.8955,1.3585 Q6.097,0.75399995,6.097,-0.026000023 Q6.097,-1.2220004,5.6355,-1.937 Q5.1740003,-2.6520002,4.212,-2.6520002 z M15.158001,-0.013000011 Q15.158001,0.8579998,14.9305,1.5274999 Q14.703001,2.197,14.2805,2.665 Q13.858,3.133,13.2535,3.3734999 Q12.649,3.6139998,11.908001,3.6139998 Q11.219,3.6139998,10.634001,3.3734999 Q10.049001,3.133,9.620001,2.665 Q9.191,2.197,8.9505005,1.5274999 Q8.71,0.8579998,8.71,-0.013000011 Q8.71,-1.1700003,9.1,-1.9695003 Q9.490001,-2.7690003,10.218,-3.1915 Q10.946,-3.614,11.9470005,-3.614 Q12.896,-3.614,13.6175,-3.1915 Q14.339001,-2.7690003,14.748501,-1.9695003 Q15.158001,-1.1700003,15.158001,-0.013000011 z M9.893001,-0.013000011 Q9.893001,0.806,10.1075,1.4104998 Q10.3220005,2.0149999,10.777,2.34 Q11.232,2.665,11.934,2.665 Q12.636001,2.665,13.091001,2.34 Q13.5460005,2.0149999,13.7605,1.4104998 Q13.975,0.806,13.975,-0.013000011 Q13.975,-0.845,13.754001,-1.4300001 Q13.533001,-2.015,13.0845,-2.3335001 Q12.636001,-2.6520002,11.9210005,-2.6520002 Q10.8550005,-2.6520002,10.374001,-1.95 Q9.893001,-1.2479999,9.893001,-0.013000011 z M20.28,-3.614 Q21.567001,-3.614,22.3535,-2.7170002 Q23.140001,-1.8199999,23.140001,-0.013000011 Q23.140001,1.1699998,22.782501,1.9825 Q22.425001,2.795,21.781502,3.2045 Q21.138,3.6139998,20.267,3.6139998 Q19.734001,3.6139998,19.318,3.471 Q18.902,3.328,18.6095,3.1004999 Q18.317001,2.873,18.109001,2.6 L18.031,2.6 Q18.057001,2.821,18.083,3.159 Q18.109001,3.497,18.109001,3.744 L18.109001,6.604 L16.965,6.604 L16.965,-3.484 L17.901001,-3.484 L18.057001,-2.535 L18.109001,-2.535 Q18.317001,-2.8340003,18.6095,-3.081 Q18.902,-3.3280003,19.3115,-3.471 Q19.721,-3.614,20.28,-3.614 z M20.072,-2.6520002 Q19.37,-2.6520002,18.941,-2.3855002 Q18.512001,-2.1190002,18.317001,-1.5860002 Q18.122002,-1.0530002,18.109001,-0.2340002 L18.109001,-0.013000011 Q18.109001,0.845,18.291,1.4429998 Q18.473001,2.041,18.9085,2.353 Q19.344,2.665,20.098,2.665 Q20.735,2.665,21.1445,2.314 Q21.554,1.9629999,21.7555,1.3585 Q21.957,0.75399995,21.957,-0.026000023 Q21.957,-1.2220004,21.4955,-1.937 Q21.034,-2.6520002,20.072,-2.6520002 z M30.784002,-3.484 L30.784002,3.484 L29.848001,3.484 L29.679,2.5609999 L29.627003,2.5609999 Q29.406002,2.925,29.055002,3.159 Q28.704002,3.393,28.288002,3.5035 Q27.872002,3.6139998,27.417002,3.6139998 Q26.585001,3.6139998,26.0195,3.3474998 Q25.454002,3.0809999,25.168001,2.5219998 Q24.882002,1.9629999,24.882002,1.079 L24.882002,-3.484 L26.039001,-3.484 L26.039001,1.0009999 Q26.039001,1.833,26.416002,2.249 Q26.793001,2.665,27.586002,2.665 Q28.366001,2.665,28.814503,2.3725 Q29.263,2.08,29.451502,1.5144999 Q29.640001,0.9489999,29.640001,0.14299989 L29.640001,-3.484 L30.784002,-3.484 z M34.138,3.484 L32.994003,3.484 L32.994003,-6.396 L34.138,-6.396 L34.138,3.484 z M38.987003,-3.601 Q40.261005,-3.601,40.872005,-3.042 Q41.483006,-2.483,41.483006,-1.2609999 L41.483006,3.484 L40.651005,3.484 L40.430004,2.4959998 L40.378006,2.4959998 Q40.079002,2.873,39.760506,3.1265 Q39.442005,3.3799999,39.032505,3.497 Q38.623005,3.6139998,38.038002,3.6139998 Q37.414005,3.6139998,36.913506,3.393 Q36.413002,3.172,36.127003,2.7105 Q35.841003,2.249,35.841003,1.5469999 Q35.841003,0.50699997,36.660004,-0.05850005 Q37.479004,-0.6240003,39.182003,-0.6759999 L40.365005,-0.7149999 L40.365005,-1.1310003 Q40.365005,-2.002,39.988003,-2.3400004 Q39.611004,-2.6780002,38.922005,-2.6780002 Q38.376003,-2.6780002,37.882004,-2.5155003 Q37.388004,-2.353,36.959003,-2.1450002 L36.608006,-3.003 Q37.063004,-3.2500002,37.687004,-3.4255002 Q38.311005,-3.601,38.987003,-3.601 z M39.325005,0.116999865 Q38.025005,0.16899991,37.524506,0.533 Q37.024002,0.89699984,37.024002,1.56 Q37.024002,2.145,37.381504,2.418 Q37.739002,2.691,38.298004,2.691 Q39.182003,2.691,39.767006,2.2034998 Q40.352005,1.716,40.352005,0.7019999 L40.352005,0.07799983 L39.325005,0.116999865 z M45.968002,2.678 Q46.228004,2.678,46.501003,2.6325 Q46.774002,2.587,46.943005,2.5349998 L46.943005,3.406 Q46.761,3.497,46.423004,3.5555 Q46.085003,3.6139998,45.773003,3.6139998 Q45.227005,3.6139998,44.765503,3.4255 Q44.304005,3.237,44.018,2.769 Q43.732002,2.301,43.732002,1.4559999 L43.732002,-2.6000001 L42.744003,-2.6000001 L42.744003,-3.1460001 L43.745003,-3.601 L44.200005,-5.083 L44.876003,-5.083 L44.876003,-3.484 L46.891003,-3.484 L46.891003,-2.6000001 L44.876003,-2.6000001 L44.876003,1.4299998 Q44.876003,2.067,45.181503,2.3725 Q45.487003,2.678,45.968002,2.678 z M49.478004,-3.484 L49.478004,3.484 L48.334003,3.484 L48.334003,-3.484 L49.478004,-3.484 z M48.919003,-6.097 Q49.179005,-6.097,49.380505,-5.9215 Q49.582005,-5.7460003,49.582005,-5.3690004 Q49.582005,-5.005,49.380505,-4.823 Q49.179005,-4.641,48.919003,-4.641 Q48.633003,-4.641,48.438004,-4.823 Q48.243004,-5.005,48.243004,-5.3690004 Q48.243004,-5.7460003,48.438004,-5.9215 Q48.633003,-6.097,48.919003,-6.097 z M57.746002,-0.013000011 Q57.746002,0.8579998,57.518505,1.5274999 Q57.291004,2.197,56.868504,2.665 Q56.446003,3.133,55.841503,3.3734999 Q55.237003,3.6139998,54.496002,3.6139998 Q53.807003,3.6139998,53.222004,3.3734999 Q52.637005,3.133,52.208004,2.665 Q51.779003,2.197,51.538506,1.5274999 Q51.298004,0.8579998,51.298004,-0.013000011 Q51.298004,-1.1700003,51.688004,-1.9695003 Q52.078003,-2.7690003,52.806004,-3.1915 Q53.534004,-3.614,54.535004,-3.614 Q55.484005,-3.614,56.205505,-3.1915 Q56.927006,-2.7690003,57.336502,-1.9695003 Q57.746002,-1.1700003,57.746002,-0.013000011 z M52.481003,-0.013000011 Q52.481003,0.806,52.695503,1.4104998 Q52.910004,2.0149999,53.365005,2.34 Q53.820004,2.665,54.522003,2.665 Q55.224003,2.665,55.679005,2.34 Q56.134003,2.0149999,56.348503,1.4104998 Q56.563004,0.806,56.563004,-0.013000011 Q56.563004,-0.845,56.342003,-1.4300001 Q56.121002,-2.015,55.672504,-2.3335001 Q55.224003,-2.6520002,54.509003,-2.6520002 Q53.443005,-2.6520002,52.962006,-1.95 Q52.481003,-1.2479999,52.481003,-0.013000011 z M62.907005,-3.614 Q64.15501,-3.614,64.79201,-3.0095003 Q65.42901,-2.405,65.42901,-1.0530002 L65.42901,3.484 L64.298004,3.484 L64.298004,-0.97500014 Q64.298004,-1.8199999,63.921005,-2.2360003 Q63.544006,-2.6520002,62.738007,-2.6520002 Q61.581005,-2.6520002,61.139008,-2.002 Q60.697006,-1.352,60.697006,-0.13000011 L60.697006,3.484 L59.553005,3.484 L59.553005,-3.484 L60.476006,-3.484 L60.645004,-2.535 L60.710007,-2.535 Q60.944004,-2.899,61.288506,-3.1395004 Q61.633007,-3.3800004,62.049007,-3.497 Q62.465004,-3.614,62.907005,-3.614 z" fill="#000000" stroke="none" transform="matrix(1 0 0 1 701.033 329.853)"/>
</svg>