<svg height="600" viewBox="0 0 800 600" width="800" xmlns="http://www.w3.org/2000/svg">
<rect fill="#ffffff" height="100%" width="100%"/>
<text text-rendering="optimizeLegibility" transform="matrix(1 0 0 1 400 34.28)">

<tspan text-anchor="middle" x="0">
<tspan font-family="sans-serif" font-size="20" font-stretch="normal" font-style="normal" font-weight="400">
<tspan fill="#000000">Subplots</tspan>
</tspan>
</tspan>
</text>
<path d="M75.672,298.828 L75.672,52" fill="none" stroke="#808080" stroke-opacity="0.6" stroke-width="1"/>
<path d="M166.91574,298.828 L166.91574,52" fill="none" stroke="#808080" stroke-opacity="0.6" stroke-width="1"/>
<path d="M258.15945,298.828 L258.15945,52" fill="none" stroke="#808080" stroke-opacity="0.6" stroke-width="1"/>
<path d="M349.4032,298.828 L349.4032,52" fill="none" stroke="#808080" stroke-opacity="0.6" stroke-width="1"/>
<path d="M440.6469,298.828 L440.6469,52" fill="none" stroke="#808080" stroke-opacity="0.6" stroke-width="1"/>
<path d="M531.8907,298.828 L531.8907,52" fill="none" stroke="#808080" stroke-opacity="0.6" stroke-width="1"/>
<path d="M623.1344,298.828 L623.1344,52" fill="none" stroke="#808080" stroke-opacity="0.6" stroke-width="1"/>
<path d="M714.3781,298.828 L714.3781,52" fill="none" stroke="#808080" stroke-opacity="0.6" stroke-width="1"/>
<clipPath id="eidoplot-clip1">
<rect height="246.828" width="724.328" x="55.672" y="52"/>
</clipPath>
<g clip-path="url(#eidoplot-clip1)">
<path d="M75.672,175.41426 L77.04409,175.38863 L78.416176,175.31168 L79.78826,175.18347 L81.16035,175.00394 L82.53243,174.77316 L83.90452,174.49106 L85.2766,174.15771 L86.64869,173.77307 L88.02078,173.33719 L89.39287,172.85007 L90.76495,172.31174 L92.13704,171.72223 L93.509125,171.08157 L94.88121,170.3899 L96.253296,169.64722 L97.62538,168.85364 L98.99747,168.00932 L100.36955,167.11433 L101.74164,166.16891 L103.11372,165.17322 L104.48581,164.12752 L105.857895,163.03204 L107.22998,161.88713 L108.60207,160.69313 L109.97416,159.45047 L111.346245,158.15958 L112.71833,156.82098 L114.090416,155.4353 L115.4625,154.00314 L116.83459,152.52524 L118.20667,151.00238 L119.57876,149.43547 L120.95085,147.82547 L122.32294,146.17343 L123.69502,144.48053 L125.06711,142.748 L126.43919,140.97725 L127.81128,139.16972 L129.18336,137.32706 L130.55545,135.45097 L131.92754,133.54332 L133.29962,131.6061 L134.6717,129.64142 L136.0438,127.65158 L137.41588,125.63902 L138.78796,123.60629 L140.16005,121.55618 L141.53214,119.49155 L142.90422,117.41548 L144.2763,115.33122 L145.64839,113.24216 L147.02048,111.15192 L148.39258,109.06424 L149.76465,106.98309 L151.13675,104.91258 L152.50882,102.857025 L153.88092,100.82089 L155.25299,98.80888 L156.62509,96.825806 L157.99718,94.87669 L159.36926,92.96675 L160.74135,91.10132 L162.11343,89.28592 L163.48552,87.52623 L164.8576,85.82805 L166.22969,84.19737 L167.60178,82.64029 L168.97386,81.16298 L170.34596,79.771774 L171.71803,78.47308 L173.09013,77.273346 L174.4622,76.17915 L175.8343,75.19707 L177.20638,74.33368 L178.57848,73.59561 L179.95055,72.98944 L181.32265,72.5217 L182.69472,72.19885 L184.0668,72.02728 L185.4389,72.01323 L186.81097,72.162766 L188.18307,72.48178 L189.55515,72.976 L190.92725,73.65077 L192.29932,74.51128 L193.67142,75.5623 L195.04349,76.808304 L196.41559,78.25331 L197.78767,79.90091 L199.15976,81.75423 L200.53185,83.81583 L201.90393,86.0878 L203.27602,88.5715 L204.6481,91.26776 L206.02019,94.17667 L207.39227,97.29758 L208.76436,100.629105 L210.13646,104.16908 L211.50853,107.914444 L212.88063,111.86134 L214.2527,116.004944 L215.6248,120.33949 L216.99687,124.85832 L218.36897,129.55376 L219.74104,134.41707 L221.11314,139.43855 L222.48521,144.60748 L223.85732,149.91203 L225.2294,155.33936 L226.60149,160.87558 L227.97357,166.50578 L229.34566,172.21399 L230.71774,177.98325 L232.08983,183.79565 L233.46191,189.6323 L234.834,195.47342 L236.20609,201.2984 L237.57817,207.08582 L238.95027,212.81354 L240.32234,218.45876 L241.69443,223.99811 L243.06651,229.40773 L244.43861,234.6634 L245.81068,239.74062 L247.18277,244.6147 L248.55486,249.26096 L249.92696,253.65474 L251.29904,257.7717 L252.67111,261.58783 L254.0432,265.07962 L255.4153,268.2243 L256.78738,270.99994 L258.15945,273.3856 L259.53156,275.3615 L260.90366,276.90927 L262.27573,278.01202 L263.6478,278.6546 L265.0199,278.8237 L266.392,278.50806 L267.76407,277.6986 L269.13617,276.38873 L270.50824,274.5742 L271.88034,272.25348 L273.2524,269.42798 L274.6245,266.1018 L275.99658,262.28226 L277.36868,257.97968 L278.74075,253.20764 L280.11285,247.98294 L281.48495,242.3257 L282.85703,236.25931 L284.2291,229.81046 L285.6012,223.00914 L286.9733,215.88849 L288.34537,208.48477 L289.71744,200.83728 L291.08954,192.98811 L292.46164,184.98206 L293.8337,176.86636 L295.20578,168.69054 L296.57788,160.50598 L297.94998,152.36586 L299.32205,144.3246 L300.69412,136.43764 L302.06622,128.76106 L303.43832,121.351105 L304.8104,114.263824 L306.1825,107.554565 L307.55457,101.27757 L308.92667,95.48549 L310.29874,90.228806 L311.67084,85.5555 L313.0429,81.51039 L314.415,78.13475 L315.78708,75.46579 L317.15918,73.53613 L318.53128,72.373474 L319.90335,72 L321.27542,72.43211 L322.64752,73.67999 L324.01962,75.747284 L325.3917,78.63081 L326.76376,82.32037 L328.13586,86.79851 L329.50797,92.04042 L330.88004,98.01396 L332.2521,104.679535 L333.6242,111.99036 L334.9963,119.89252 L336.36838,128.32524 L337.74045,137.22125 L339.11255,146.50717 L340.48465,156.10403 L341.85672,165.92784 L343.2288,175.89024 L344.6009,185.89925 L345.973,195.86003 L347.34506,205.67584 L348.71716,215.24887 L350.08923,224.4813 L351.46133,233.27626 L352.8334,241.539 L354.2055,249.17786 L355.57758,256.1054 L356.94968,262.23956 L358.32175,267.50473 L359.69385,271.83267 L361.06595,275.16373 L362.43802,277.44766 L363.8101,278.6446 L365.1822,278.7258 L366.5543,277.67438 L367.92636,275.48593 L369.29843,272.16888 L370.67053,267.74493 L372.04263,262.2492 L373.4147,255.7302 L374.78677,248.2497 L376.15887,239.88239 L377.53098,230.71542 L378.90305,220.84766 L380.27512,210.38882 L381.64722,199.45847 L383.01932,188.18471 L384.3914,176.70293 L385.7635,165.15414 L387.13556,153.68341 L388.50766,142.438 L389.87976,131.56549 L391.25183,121.21184 L392.6239,111.5193 L393.996,102.624435 L395.3681,94.65602 L396.74017,87.73299 L398.11224,81.962555 L399.48434,77.438324 L400.85645,74.23851 L402.22852,72.42439 L403.60062,72.038956 L404.9727,73.1057 L406.3448,75.627655 L407.71686,79.58688 L409.08896,84.944016 L410.46103,91.638275 L411.83313,99.58772 L413.2052,108.68997 L414.5773,118.82309 L415.9494,129.847 L417.32147,141.60507 L418.69354,153.92624 L420.06564,166.6271 L421.43774,179.51465 L422.8098,192.3891 L424.18192,205.04681 L425.55396,217.28368 L426.92606,228.89825 L428.29816,239.69539 L429.67023,249.48944 L431.04233,258.1078 L432.41443,265.39413 L433.7865,271.21143 L435.1586,275.44495 L436.5307,278.00476 L437.90274,278.828 L439.27484,277.88068 L440.6469,275.1591 L442.019,270.6906 L443.3911,264.53412 L444.76318,256.7797 L446.13528,247.5478 L447.5074,236.98798 L448.87946,225.27667 L450.25153,212.6148 L451.6236,199.22461 L452.9957,185.34592 L454.3678,171.23221 L455.73987,157.14597 L457.11197,143.35394 L458.48407,130.12213 L459.85614,117.71048 L461.22824,106.36766 L462.60028,96.32591 L463.97238,87.795944 L465.34448,80.962234 L466.71655,75.97861 L468.08865,72.964386 L469.46075,72.00105 L470.83282,73.129654 L472.20493,76.34903 L473.57703,81.614685 L474.94907,88.83873 L476.32117,97.89073 L477.69324,108.59938 L479.06534,120.75516 L480.43744,134.11407 L481.8095,148.40201 L483.1816,163.32 L484.5537,178.55034 L485.9258,193.763 L487.29785,208.62282 L488.66992,222.79688 L490.04202,235.96204 L491.41412,247.81252 L492.7862,258.06735 L494.1583,266.47736 L495.5304,272.83167 L496.9025,276.9636 L498.27457,278.75543 L499.6466,278.14252 L501.0187,275.1158 L502.3908,269.72354 L503.7629,262.07123 L505.13498,252.32048 L506.50708,240.6863 L507.87918,227.43301 L509.25125,212.86893 L510.62335,197.33954 L511.9954,181.21982 L513.3675,164.90543 L514.7396,148.80313 L516.1117,133.32077 L517.48376,118.85678 L518.8559,105.78975 L520.22797,94.46817 L521.60004,85.200745 L522.97217,78.247314 L524.3442,73.8111 L525.7163,72.03192 L527.0884,72.98125 L528.46045,76.65871 L529.8326,82.990616 L531.20465,91.83037 L532.5767,102.96094 L533.94885,116.099335 L535.3209,130.90306 L536.693,146.97832 L538.06506,163.89003 L539.43713,181.17319 L540.80927,198.34537 L542.18134,214.9202 L543.5534,230.42105 L544.92554,244.39517 L546.2976,256.42712 L547.6697,266.15176 L549.04175,273.26587 L550.4138,277.53854 L551.78595,278.81927 L553.158,277.04425 L554.5301,272.24002 L555.9022,264.52438 L557.2743,254.10481 L558.64636,241.27382 L560.01843,226.40176 L561.3905,209.92697 L562.76263,192.34344 L564.1347,174.18669 L565.5068,156.01762 L566.8789,138.40543 L568.251,121.909744 L569.62305,107.062546 L570.9951,94.35062 L572.3672,84.19896 L573.73926,76.955826 L575.1114,72.87982 L576.48346,72.12985 L577.8555,74.7578 L579.22766,80.70482 L580.59973,89.80115 L581.9718,101.769714 L583.34393,116.23331 L584.71594,132.72552 L586.0881,150.70486 L587.46014,169.57184 L588.8322,188.68854 L590.20435,207.39983 L591.5764,225.05585 L592.9485,241.0348 L594.3206,254.76529 L595.6927,265.7474 L597.06476,273.57178 L598.4368,277.9359 L599.8089,278.65692 L601.181,275.68036 L602.5531,269.08456 L603.9252,259.08023 L605.2973,246.00513 L606.6694,230.31406 L608.04144,212.56403 L609.4135,193.39561 L610.7856,173.51042 L612.1577,153.6459 L613.5298,134.54823 L614.90186,116.94409 L616.274,101.512726 L617.64606,88.859055 L619.0181,79.489044 L620.39026,73.78847 L621.76227,72.00566 L623.1344,74.239456" fill="none" stroke="#1f77b4" stroke-width="1.5"/>
</g>
<path d="M20,-4 L20,4 M111.24374,-4 L111.24374,4 M202.48746,-4 L202.48746,4 M293.7312,-4 L293.7312,4 M384.9749,-4 L384.9749,4 M476.21866,-4 L476.21866,4 M567.4624,-4 L567.4624,4 M658.7061,-4 L658.7061,4" fill="none" stroke="#000000" stroke-width="1" transform="matrix(1 0 0 1 55.672 298.828)"/>
<path d="M19.999023,-4 L19.999023,4 M45.852703,-4 L45.852703,4 M71.70638,-4 L71.70638,4 M97.56006,-4 L97.56006,4 M123.41374,-4 L123.41374,4 M149.26743,-4 L149.26743,4 M175.12111,-4 L175.12111,4 M200.9748,-4 L200.9748,4 M226.82846,-4 L226.82846,4" fill="none" stroke="#000000" stroke-width="1" transform="matrix(-0.00000004371139 -1 1 -0.00000004371139 55.672 298.828)"/>
<text dominant-baseline="middle" fill="#000000" font-family="sans-serif" font-size="12" font-stretch="normal" font-style="normal" font-weight="400" text-anchor="end" text-rendering="optimizeLegibility" transform="matrix(1 0 0 1 47.672 278.82898)">
-1.00
</text>
<text dominant-baseline="middle" fill="#000000" font-family="sans-serif" font-size="12" font-stretch="normal" font-style="normal" font-weight="400" text-anchor="end" text-rendering="optimizeLegibility" transform="matrix(1 0 0 1 47.672 252.9753)">
-0.75
</text>
<text dominant-baseline="middle" fill="#000000" font-family="sans-serif" font-size="12" font-stretch="normal" font-style="normal" font-weight="400" text-anchor="end" text-rendering="optimizeLegibility" transform="matrix(1 0 0 1 47.672 227.12161)">
-0.50
</text>
<text dominant-baseline="middle" fill="#000000" font-family="sans-serif" font-size="12" font-stretch="normal" font-style="normal" font-weight="400" text-anchor="end" text-rendering="optimizeLegibility" transform="matrix(1 0 0 1 47.672 201.26794)">
-0.25
</text>
<text dominant-baseline="middle" fill="#000000" font-family="sans-serif" font-size="12" font-stretch="normal" font-style="normal" font-weight="400" text-anchor="end" text-rendering="optimizeLegibility" transform="matrix(1 0 0 1 47.672 175.41426)">
0.00
</text>
<text dominant-baseline="middle" fill="#000000" font-family="sans-serif" font-size="12" font-stretch="normal" font-style="normal" font-weight="400" text-anchor="end" text-rendering="optimizeLegibility" transform="matrix(1 0 0 1 47.672 149.56058)">
0.25
</text>
<text dominant-baseline="middle" fill="#000000" font-family="sans-serif" font-size="12" font-stretch="normal" font-style="normal" font-weight="400" text-anchor="end" text-rendering="optimizeLegibility" transform="matrix(1 0 0 1 47.672 123.706894)">
0.50
</text>
<text dominant-baseline="middle" fill="#000000" font-family="sans-serif" font-size="12" font-stretch="normal" font-style="normal" font-weight="400" text-anchor="end" text-rendering="optimizeLegibility" transform="matrix(1 0 0 1 47.672 97.85321)">
0.75
</text>
<text dominant-baseline="middle" fill="#000000" font-family="sans-serif" font-size="12" font-stretch="normal" font-style="normal" font-weight="400" text-anchor="end" text-rendering="optimizeLegibility" transform="matrix(1 0 0 1 47.672 71.99954)">
1.00
</text>
<rect fill="none" height="246.828" stroke="#000000" stroke-width="1" width="724.328" x="55.672" y="52"/>
<path d="M75.672,555.656 L75.672,308.828" fill="none" stroke="#808080" stroke-opacity="0.6" stroke-width="1"/>
<path d="M166.91574,555.656 L166.91574,308.828" fill="none" stroke="#808080" stroke-opacity="0.6" stroke-width="1"/>
<path d="M258.15945,555.656 L258.15945,308.828" fill="none" stroke="#808080" stroke-opacity="0.6" stroke-width="1"/>
<path d="M349.4032,555.656 L349.4032,308.828" fill="none" stroke="#808080" stroke-opacity="0.6" stroke-width="1"/>
<path d="M440.6469,555.656 L440.6469,308.828" fill="none" stroke="#808080" stroke-opacity="0.6" stroke-width="1"/>
<path d="M531.8907,555.656 L531.8907,308.828" fill="none" stroke="#808080" stroke-opacity="0.6" stroke-width="1"/>
<path d="M623.1344,555.656 L623.1344,308.828" fill="none" stroke="#808080" stroke-opacity="0.6" stroke-width="1"/>
<path d="M714.3781,555.656 L714.3781,308.828" fill="none" stroke="#808080" stroke-opacity="0.6" stroke-width="1"/>
<clipPath id="eidoplot-clip2">
<rect height="246.828" width="724.328" x="55.672" y="308.828"/>
</clipPath>
<g clip-path="url(#eidoplot-clip2)">
<path d="M212.5376,432.24173 L213.90968,432.2674 L215.28177,432.34433 L216.65385,432.47253 L218.02594,432.65207 L219.39803,432.88287 L220.77011,433.16495 L222.14221,433.4983 L223.51428,433.88293 L224.88638,434.31882 L226.25845,434.80594 L227.63055,435.34427 L229.00262,435.93378 L230.37473,436.5744 L231.7468,437.2661 L233.1189,438.0088 L234.49098,438.80237 L235.86307,439.6467 L237.23514,440.54166 L238.60724,441.4871 L239.97932,442.4828 L241.35141,443.5285 L242.72348,444.62396 L244.09558,445.76886 L245.46767,446.96286 L246.83975,448.20554 L248.21185,449.49643 L249.58392,450.83502 L250.95601,452.2207 L252.3281,453.65286 L253.7002,455.1308 L255.07227,456.65363 L256.44437,458.22052 L257.81644,459.83054 L259.18854,461.48257 L260.5606,463.17548 L261.9327,464.908 L263.3048,466.67877 L264.67688,468.48627 L266.04898,470.32895 L267.42105,472.20502 L268.79315,474.1127 L270.16522,476.04993 L271.53732,478.0146 L272.9094,480.00443 L274.2815,482.017 L275.65356,484.04968 L277.02567,486.09982 L278.39777,488.16446 L279.76984,490.24054 L281.1419,492.3248 L282.514,494.41385 L283.8861,496.5041 L285.25818,498.59177 L286.63025,500.6729 L288.00235,502.7434 L289.37445,504.79898 L290.74652,506.8351 L292.1186,508.84714 L293.4907,510.8302 L294.8628,512.7793 L296.23486,514.6893 L297.60693,516.5547 L298.97903,518.3701 L300.35114,520.12976 L301.7232,521.82794 L303.0953,523.4586 L304.46738,525.01575 L305.83948,526.49304 L307.21155,527.8842 L308.58365,529.1829 L309.95572,530.3826 L311.32782,531.47687 L312.6999,532.4589 L314.072,533.3223 L315.44406,534.0604 L316.81613,534.66656 L318.18823,535.13434 L319.56033,535.45715 L320.9324,535.6287 L322.30447,535.64276 L323.67657,535.4932 L325.04868,535.1742 L326.42075,534.68005 L327.79282,534.00525 L329.16492,533.1447 L330.53702,532.0937 L331.9091,530.8477 L333.2812,529.4027 L334.65326,527.7551 L336.02536,525.9018 L337.39743,523.84015 L338.76953,521.56824 L340.1416,519.0845 L341.5137,516.38824 L342.8858,513.4794 L344.25787,510.35843 L345.62997,507.02692 L347.00204,503.48694 L348.37415,499.74155 L349.74622,495.79468 L351.11832,491.65106 L352.4904,487.3165 L353.8625,482.79767 L355.23456,478.10226 L356.60666,473.23895 L357.97876,468.21744 L359.35083,463.04852 L360.7229,457.744 L362.095,452.31665 L363.4671,446.78043 L364.83917,441.1502 L366.21124,435.44202 L367.58334,429.67276 L368.95544,423.86035 L370.3275,418.02374 L371.6996,412.1826 L373.0717,406.3576 L374.4438,400.5702 L375.81586,394.84247 L377.18793,389.19727 L378.56003,383.6579 L379.93213,378.2483 L381.3042,372.9926 L382.6763,367.9154 L384.04837,363.04132 L385.42047,358.39505 L386.79254,354.00128 L388.16464,349.8843 L389.5367,346.06818 L390.9088,342.5764 L392.28088,339.4317 L393.65298,336.65607 L395.02505,334.27042 L396.39716,332.2945 L397.76923,330.74677 L399.14133,329.64398 L400.51343,329.0014 L401.8855,328.83234 L403.25757,329.14795 L404.62967,329.9574 L406.00177,331.26727 L407.37384,333.08185 L408.7459,335.40253 L410.118,338.22803 L411.4901,341.5542 L412.86218,345.37375 L414.23425,349.67633 L415.60635,354.44836 L416.97845,359.67307 L418.35052,365.33032 L419.72263,371.39673 L421.09473,377.84555 L422.46677,384.64688 L423.83887,391.76752 L425.21094,399.17123 L426.58304,406.81873 L427.95514,414.6679 L429.3272,422.67395 L430.6993,430.78964 L432.0714,438.96548 L433.44348,447.15002 L434.81555,455.29016 L436.18762,463.33142 L437.55972,471.21835 L438.93182,478.89496 L440.3039,486.3049 L441.676,493.39218 L443.0481,500.10144 L444.4202,506.37842 L445.79227,512.17053 L447.1643,517.4272 L448.5364,522.1005 L449.9085,526.1456 L451.2806,529.52124 L452.65268,532.1902 L454.02478,534.1199 L455.39688,535.28253 L456.76895,535.656 L458.14105,535.2239 L459.5131,533.976 L460.8852,531.90875 L462.2573,529.0252 L463.62936,525.33563 L465.00146,520.8575 L466.37357,515.6156 L467.74564,509.64206 L469.11774,502.97647 L470.48984,495.66565 L471.86188,487.7635 L473.23398,479.33075 L474.60605,470.43475 L475.97815,461.14883 L477.35025,451.55197 L478.72232,441.72815 L480.09442,431.76575 L481.46652,421.75677 L482.8386,411.79596 L484.21066,401.98016 L485.58273,392.40714 L486.95483,383.17474 L488.32693,374.37976 L489.699,366.117 L491.0711,358.47815 L492.4432,351.5506 L493.81528,345.41644 L495.18738,340.15128 L496.55942,335.82336 L497.93152,332.4923 L499.30362,330.20837 L500.6757,329.0114 L502.0478,328.9302 L503.4199,329.98163 L504.79196,332.17007 L506.16406,335.48712 L507.53616,339.91107 L508.9082,345.4068 L510.2803,351.9258 L511.65237,359.4063 L513.0245,367.77362 L514.3966,376.94058 L515.7687,386.80835 L517.14075,397.26718 L518.5129,408.19754 L519.88495,419.47128 L521.257,430.95306 L522.6291,442.50186 L524.00116,453.9726 L525.3733,465.21802 L526.74536,476.0905 L528.11743,486.44418 L529.48956,496.13672 L530.86163,505.03156 L532.2337,513 L533.6058,519.92303 L534.97784,525.6934 L536.35,530.21765 L537.72205,533.4175 L539.0941,535.2316 L540.46625,535.61707 L541.8383,534.5503 L543.2104,532.0284 L544.58246,528.0691 L545.9545,522.712 L547.32666,516.01776 L548.6987,508.0683 L550.0708,498.96603 L551.44293,488.83292 L552.815,477.80902 L554.1871,466.0509 L555.5592,453.72977 L556.9312,441.02893 L558.30334,428.14136 L559.6754,415.2669 L561.0475,402.6092 L562.4196,390.3723 L563.7917,378.75775 L565.16376,367.96063 L566.5359,358.16656 L567.90796,349.54822 L569.27997,342.26187 L570.6521,336.44458 L572.0242,332.21106 L573.39624,329.65125 L574.7684,328.828 L576.14044,329.77533 L577.5125,332.49692 L578.88464,336.9654 L580.2567,343.1219 L581.6288,350.8763 L583.00085,360.10822 L584.3729,370.66803 L585.74506,382.37933 L587.1171,395.0412 L588.4892,408.4314 L589.8613,422.3101 L591.2334,436.4238 L592.6055,450.51004 L593.97754,464.30206 L595.3496,477.53387 L596.72174,489.94553 L598.0938,501.28836 L599.4659,511.3301 L600.838,519.86005 L602.2101,526.6938 L603.5822,531.67737 L604.9543,534.69165 L606.3263,535.65497 L607.6984,534.52637 L609.0705,531.307 L610.4426,526.0413 L611.8147,518.81726 L613.18677,509.76526 L614.5589,499.05664 L615.93097,486.90085 L617.30304,473.54193 L618.6751,459.254 L620.0472,444.336 L621.4193,429.10565 L622.7914,413.893 L624.16345,399.0332 L625.5356,384.85913 L626.90765,371.69397 L628.2797,359.8435 L629.65186,349.58865 L631.02386,341.17865 L632.396,334.82434 L633.76807,330.69244 L635.14014,328.90057 L636.51227,329.5135 L637.88434,332.5402 L639.2564,337.93243 L640.62854,345.58478 L642.0006,355.3355 L643.3727,366.96973 L644.74475,380.223 L646.1168,394.78705 L647.48895,410.31647 L648.861,426.4362 L650.2331,442.75058 L651.6052,458.85287 L652.9773,474.33524 L654.34937,488.79922 L655.72144,501.86627 L657.0935,513.1878 L658.46564,522.45526 L659.8377,529.4087 L661.2098,533.8449 L662.5819,535.6241 L663.954,534.67474 L665.32605,530.9973 L666.6982,524.6654 L668.0702,515.8256 L669.4423,504.69507 L670.8144,491.55667 L672.18646,476.75296 L673.5586,460.67767 L674.93066,443.766 L676.30273,426.48282 L677.67487,409.3106 L679.0469,392.73584 L680.419,377.23495 L681.7911,363.26083 L683.16315,351.22888 L684.5353,341.50427 L685.90735,334.39014 L687.2794,330.1175 L688.65155,328.83673 L690.0236,330.61176 L691.3957,335.416 L692.76776,343.1316 L694.13983,353.55118 L695.51196,366.3822 L696.88403,381.25424 L698.2561,397.72906 L699.62823,415.31256 L701.0003,433.4693 L702.3724,451.6384 L703.74445,469.25058 L705.1165,485.74628 L706.48865,500.59344 L707.8607,513.30536 L709.2328,523.45703 L710.6049,530.7002 L711.977,534.7762 L713.34906,535.5261 L714.7212,532.8982 L716.0932,526.9512 L717.46533,517.85486 L718.8374,505.8863 L720.2095,491.4227 L721.5816,474.93048 L722.9537,456.95114 L724.32574,438.08417 L725.6979,418.96747 L727.06995,400.25616 L728.442,382.60016 L729.8141,366.62122 L731.18616,352.89072 L732.5583,341.9086 L733.93036,334.08423 L735.3024,329.7201 L736.67456,328.99908 L738.04663,331.97565 L739.4187,338.57144 L740.7908,348.5758 L742.16284,361.65088 L743.535,377.34195 L744.90704,395.09198 L746.2791,414.26038 L747.65125,434.14557 L749.0233,454.0101 L750.3954,473.1078 L751.7675,490.7119 L753.1395,506.14328 L754.51166,518.79694 L755.8837,528.16693 L757.2558,533.86755 L758.6279,535.6503 L760,533.41656" fill="none" stroke="#1f77b4" stroke-width="1.5"/>
</g>
<path d="M20,-4 L20,4 M111.24374,-4 L111.24374,4 M202.48746,-4 L202.48746,4 M293.7312,-4 L293.7312,4 M384.9749,-4 L384.9749,4 M476.21866,-4 L476.21866,4 M567.4624,-4 L567.4624,4 M658.7061,-4 L658.7061,4" fill="none" stroke="#000000" stroke-width="1" transform="matrix(1 0 0 1 55.672 555.656)"/>
<text dominant-baseline="hanging" fill="#000000" font-family="sans-serif" font-size="12" font-stretch="normal" font-style="normal" font-weight="400" text-anchor="middle" text-rendering="optimizeLegibility" transform="matrix(1 0 0 1 75.672 567.916)">
0.00
</text>
<text dominant-baseline="hanging" fill="#000000" font-family="sans-serif" font-size="12" font-stretch="normal" font-style="normal" font-weight="400" text-anchor="middle" text-rendering="optimizeLegibility" transform="matrix(1 0 0 1 166.91574 567.916)">
0.33
</text>
<text dominant-baseline="hanging" fill="#000000" font-family="sans-serif" font-size="12" font-stretch="normal" font-style="normal" font-weight="400" text-anchor="middle" text-rendering="optimizeLegibility" transform="matrix(1 0 0 1 258.15945 567.916)">
0.67
</text>
<text dominant-baseline="hanging" fill="#000000" font-family="sans-serif" font-size="12" font-stretch="normal" font-style="normal" font-weight="400" text-anchor="middle" text-rendering="optimizeLegibility" transform="matrix(1 0 0 1 349.4032 567.916)">
1.00
</text>
<text dominant-baseline="hanging" fill="#000000" font-family="sans-serif" font-size="12" font-stretch="normal" font-style="normal" font-weight="400" text-anchor="middle" text-rendering="optimizeLegibility" transform="matrix(1 0 0 1 440.6469 567.916)">
1.33
</text>
<text dominant-baseline="hanging" fill="#000000" font-family="sans-serif" font-size="12" font-stretch="normal" font-style="normal" font-weight="400" text-anchor="middle" text-rendering="optimizeLegibility" transform="matrix(1 0 0 1 531.8907 567.916)">
1.67
</text>
<text dominant-baseline="hanging" fill="#000000" font-family="sans-serif" font-size="12" font-stretch="normal" font-style="normal" font-weight="400" text-anchor="middle" text-rendering="optimizeLegibility" transform="matrix(1 0 0 1 623.1344 567.916)">
2.00
</text>
<text dominant-baseline="hanging" fill="#000000" font-family="sans-serif" font-size="12" font-stretch="normal" font-style="normal" font-weight="400" text-anchor="middle" text-rendering="optimizeLegibility" transform="matrix(1 0 0 1 714.3781 567.916)">
2.33
</text>
<text dominant-baseline="hanging" fill="#000000" font-family="sans-serif" font-size="12" font-stretch="normal" font-style="normal" font-weight="400" text-anchor="end" text-rendering="optimizeLegibility" transform="matrix(1 0 0 1 780 584)">
× π
</text>
<path d="M19.999546,-4 L19.999546,4 M45.853226,-4 L45.853226,4 M71.7069,-4 L71.7069,4 M97.560585,-4 L97.560585,4 M123.41427,-4 L123.41427,4 M149.26793,-4 L149.26793,4 M175.12161,-4 L175.12161,4 M200.9753,-4 L200.9753,4 M226.82898,-4 L226.82898,4" fill="none" stroke="#000000" stroke-width="1" transform="matrix(-0.00000004371139 -1 1 -0.00000004371139 55.672 555.656)"/>
<text dominant-baseline="middle" fill="#000000" font-family="sans-serif" font-size="12" font-stretch="normal" font-style="normal" font-weight="400" text-anchor="end" text-rendering="optimizeLegibility" transform="matrix(1 0 0 1 47.672 535.65643)">
-1.00
</text>
<text dominant-baseline="middle" fill="#000000" font-family="sans-serif" font-size="12" font-stretch="normal" font-style="normal" font-weight="400" text-anchor="end" text-rendering="optimizeLegibility" transform="matrix(1 0 0 1 47.672 509.8028)">
-0.75
</text>
<text dominant-baseline="middle" fill="#000000" font-family="sans-serif" font-size="12" font-stretch="normal" font-style="normal" font-weight="400" text-anchor="end" text-rendering="optimizeLegibility" transform="matrix(1 0 0 1 47.672 483.9491)">
-0.50
</text>
<text dominant-baseline="middle" fill="#000000" font-family="sans-serif" font-size="12" font-stretch="normal" font-style="normal" font-weight="400" text-anchor="end" text-rendering="optimizeLegibility" transform="matrix(1 0 0 1 47.672 458.09543)">
-0.25
</text>
<text dominant-baseline="middle" fill="#000000" font-family="sans-serif" font-size="12" font-stretch="normal" font-style="normal" font-weight="400" text-anchor="end" text-rendering="optimizeLegibility" transform="matrix(1 0 0 1 47.672 432.24173)">
0.00
</text>
<text dominant-baseline="middle" fill="#000000" font-family="sans-serif" font-size="12" font-stretch="normal" font-style="normal" font-weight="400" text-anchor="end" text-rendering="optimizeLegibility" transform="matrix(1 0 0 1 47.672 406.38806)">
0.25
</text>
<text dominant-baseline="middle" fill="#000000" font-family="sans-serif" font-size="12" font-stretch="normal" font-style="normal" font-weight="400" text-anchor="end" text-rendering="optimizeLegibility" transform="matrix(1 0 0 1 47.672 380.5344)">
0.50
</text>
<text dominant-baseline="middle" fill="#000000" font-family="sans-serif" font-size="12" font-stretch="normal" font-style="normal" font-weight="400" text-anchor="end" text-rendering="optimizeLegibility" transform="matrix(1 0 0 1 47.672 354.68073)">
0.75
</text>
<text dominant-baseline="middle" fill="#000000" font-family="sans-serif" font-size="12" font-stretch="normal" font-style="normal" font-weight="400" text-anchor="end" text-rendering="optimizeLegibility" transform="matrix(1 0 0 1 47.672 328.82703)">
1.00
</text>
<rect fill="none" height="246.828" stroke="#000000" stroke-width="1" width="724.328" x="55.672" y="308.828"/>
</svg>