<svg height="600" viewBox="0 0 800 600" width="800" xmlns="http://www.w3.org/2000/svg">
<rect fill="#ffffff" height="100%" width="100%"/>
<path d="M-21.99,4.2 C-22.09,2.92,-22.23,2.3199997,-22.59,1.6199999 C-23.29,0.34000015,-24.65,-0.3800001,-26.43,-0.3800001 C-27.85,-0.3800001,-28.93,0.06000042,-29.65,0.96000004 C-30.27,1.7600002,-30.63,2.8400002,-30.63,4 C-30.63,5.8199997,-29.79,6.98,-28.130001,7.4399996 L-25.71,8.12 C-23.77,8.68,-23.21,9.219999,-23.21,10.599999 C-23.21,12.179999,-24.31,13.08,-26.23,13.08 C-27.55,13.08,-28.53,12.599999,-29.07,11.68 C-29.39,11.139999,-29.51,10.66,-29.53,9.719999 L-31.03,9.719999 C-31.01,11.26,-30.79,12.099999,-30.17,12.94 C-29.27,14.2,-28.11,14.74,-26.31,14.74 C-23.41,14.74,-21.67,13.12,-21.67,10.42 C-21.67,8.379999,-22.59,7.04,-24.35,6.56 L-27.71,5.62 C-28.67,5.3599997,-29.09,4.7799997,-29.09,3.7600002 C-29.09,2.1999998,-28.11,1.2799997,-26.43,1.2799997 C-25.33,1.2799997,-24.45,1.7200003,-23.95,2.5 C-23.67,2.9799995,-23.55,3.3999996,-23.49,4.2 z M-12.87,14.36 L-12.87,3.8999996 L-14.309999,3.8999996 L-14.309999,9.66 C-14.309999,11.78,-15.23,13.12,-16.67,13.12 C-17.77,13.12,-18.33,12.34,-18.33,10.84 L-18.33,3.8999996 L-19.769999,3.8999996 L-19.769999,11.42 C-19.769999,13.46,-18.73,14.66,-16.949999,14.66 C-15.67,14.66,-14.99,14.179999,-14.23,12.74 L-14.23,14.36 z M-9.45,14.36 L-9.45,13 C-8.809999,14.2,-8.15,14.66,-7.0299997,14.66 C-4.7699995,14.66,-3.29,12.38,-3.29,8.879999 C-3.29,5.7200003,-4.7099996,3.5999994,-6.8299994,3.5999994 C-7.91,3.5999994,-8.629999,4.08,-9.37,5.26 L-9.37,0 L-10.809999,0 L-10.809999,14.36 z M-7.0699997,5.16 C-5.5699997,5.16,-4.7899995,6.46,-4.7899995,9 C-4.7899995,11.599999,-5.6299996,13.12,-7.0699997,13.12 C-7.6899996,13.12,-8.2699995,12.84,-8.67,12.32 C-9.19,11.66,-9.429999,10.76,-9.429999,9.379999 C-9.429999,6.6,-8.61,5.16,-7.0699997,5.16 z M-1.6899996,18.5 L-0.24999976,18.5 L-0.24999976,13.2 C0.3300004,14.219999,1.0300002,14.66,2.0900002,14.66 C4.3500004,14.66,5.83,12.38,5.83,8.879999 C5.83,5.7200003,4.4100003,3.5999994,2.2900004,3.5999994 C1.1300004,3.5999994,0.4500003,4.08,-0.3299997,5.4399996 L-0.3299997,3.8999996 L-1.6899996,3.8999996 z M2.0500002,5.16 C3.5500002,5.16,4.3300004,6.46,4.3300004,8.94 C4.3300004,11.599999,3.4900002,13.12,2.0500002,13.12 C0.5700004,13.12,-0.3099997,11.74,-0.3099997,9.459999 C-0.3099997,6.6,0.49000025,5.16,2.0500002,5.16 z M9.01,0 L7.57,0 L7.57,14.36 L9.01,14.36 z M14.7300005,3.5999994 C12.31,3.5999994,10.690001,5.8199997,10.690001,9.139999 C10.690001,12.38,12.31,14.639999,14.67,14.639999 C17.03,14.639999,18.650002,12.38,18.650002,9.12 C18.650002,5.88,17.03,3.5999994,14.7300005,3.5999994 z M14.710001,5.1399994 C16.17,5.1399994,17.150002,6.72,17.150002,9.12 C17.150002,11.54,16.17,13.099999,14.67,13.099999 C13.150001,13.099999,12.190001,11.54,12.190001,9.12 C12.190001,6.68,13.150001,5.1399994,14.710001,5.1399994 z M23.33,5.3599997 L23.33,3.8999996 L21.93,3.8999996 L21.93,0.97999954 L20.49,0.97999954 L20.49,3.8999996 L19.33,3.8999996 L19.33,5.3599997 L20.49,5.3599997 L20.49,12.26 C20.49,13.78,21.03,14.5,22.17,14.5 C22.29,14.5,22.35,14.5,22.67,14.44 C22.77,14.44,22.91,14.42,23.310001,14.36 L23.310001,12.98 L22.810001,12.98 C22.19,13,21.93,12.76,21.93,12.16 L21.93,5.3599997 z M30.95,6.8799996 C30.830002,4.7799997,29.670002,3.5999994,27.710001,3.5999994 C25.730001,3.5999994,24.43,4.8999996,24.43,6.8999996 C24.43,8.24,25.070002,9.08,26.410002,9.48 L28.09,9.98 C29.41,10.379999,29.79,10.7,29.79,11.48 C29.79,12.5,29.03,13.12,27.77,13.12 C26.310001,13.12,25.650002,12.5,25.550001,11 L24.150002,11 C24.210001,12.04,24.310001,12.54,24.61,13.08 C25.150002,14.099999,26.25,14.66,27.670002,14.66 C29.85,14.66,31.230001,13.32,31.230001,11.219999 C31.230001,9.74,30.570002,8.98,28.830002,8.44 L27.37,8 C26.11,7.62,25.830002,7.3599997,25.830002,6.62 C25.830002,5.7,26.490002,5.1399994,27.61,5.1399994 C28.87,5.1399994,29.490002,5.7,29.550001,6.8799996 z" fill="#000000" stroke="none" transform="matrix(1 0 0 1 400 20)"/>
<path d="M70.428,300.44 L70.428,50.88" fill="none" stroke="#808080" stroke-opacity="0.6" stroke-width="1"/>
<path d="M162.37094,300.44 L162.37094,50.88" fill="none" stroke="#808080" stroke-opacity="0.6" stroke-width="1"/>
<path d="M254.31387,300.44 L254.31387,50.88" fill="none" stroke="#808080" stroke-opacity="0.6" stroke-width="1"/>
<path d="M346.25684,300.44 L346.25684,50.88" fill="none" stroke="#808080" stroke-opacity="0.6" stroke-width="1"/>
<path d="M438.19974,300.44 L438.19974,50.88" fill="none" stroke="#808080" stroke-opacity="0.6" stroke-width="1"/>
<path d="M530.14264,300.44 L530.14264,50.88" fill="none" stroke="#808080" stroke-opacity="0.6" stroke-width="1"/>
<path d="M622.0856,300.44 L622.0856,50.88" fill="none" stroke="#808080" stroke-opacity="0.6" stroke-width="1"/>
<path d="M714.0285,300.44 L714.0285,50.88" fill="none" stroke="#808080" stroke-opacity="0.6" stroke-width="1"/>
<clipPath id="eidoplot-clip1">
<rect height="249.56" width="729.572" x="50.428" y="50.88"/>
</clipPath>
<g clip-path="url(#eidoplot-clip1)">
<path d="M70.428,175.66028 L71.8106,175.63428 L73.19321,175.55634 L74.575806,175.42642 L75.958405,175.24454 L77.341,175.01068 L78.7236,174.72488 L80.1062,174.38712 L81.48881,173.9974 L82.87141,173.55576 L84.25401,173.0622 L85.63661,172.51675 L87.01921,171.91946 L88.40181,171.27037 L89.78441,170.56953 L91.16701,169.81705 L92.54961,169.01299 L93.93221,168.1575 L95.31481,167.25072 L96.69742,166.2928 L98.08002,165.28397 L99.462616,164.22444 L100.845215,163.1145 L102.22781,161.95447 L103.61041,160.74469 L104.99301,159.48561 L106.37561,158.17767 L107.75822,156.82141 L109.140816,155.4174 L110.52342,153.96632 L111.90602,152.46889 L113.28862,150.92593 L114.67122,149.33833 L116.05382,147.70706 L117.43642,146.03319 L118.819016,144.31792 L120.20162,142.56253 L121.58422,140.76837 L122.96682,138.93698 L124.34943,137.06998 L125.732025,135.16911 L127.114624,133.23624 L128.49722,131.27342 L129.87982,129.2828 L131.26242,127.26669 L132.64502,125.227554 L134.02762,123.167984 L135.41022,121.090775 L136.79282,118.998856 L138.17543,116.89537 L139.55803,114.78357 L140.94063,112.66693 L142.32323,110.54909 L143.70583,108.43384 L145.08842,106.325195 L146.47102,104.227325 L147.85364,102.14462 L149.23624,100.081604 L150.61884,98.043015 L152.00143,96.03374 L153.38403,94.05888 L154.76663,92.1237 L156.14923,90.23364 L157.53183,88.39424 L158.91443,86.61131 L160.29703,84.89072 L161.67964,83.23851 L163.06224,81.66084 L164.44484,80.16402 L165.82744,78.75444 L167.21005,77.43858 L168.59265,76.22301 L169.97525,75.11435 L171.35785,74.11929 L172.74045,73.24451 L174.12305,72.49669 L175.50565,71.88251 L176.88824,71.408585 L178.27084,71.0815 L179.65344,70.90765 L181.03604,70.8934 L182.41864,71.04491 L183.80124,71.368164 L185.18384,71.86888 L186.56644,72.55258 L187.94904,73.42445 L189.33163,74.489365 L190.71423,75.751816 L192.09686,77.21591 L193.47946,78.885284 L194.86206,80.76306 L196.24466,82.85193 L197.62726,85.153885 L199.00986,87.67041 L200.39246,90.40228 L201.77505,93.349594 L203.15765,96.51172 L204.54025,99.88728 L205.92285,103.474 L207.30545,107.26886 L208.68805,111.26788 L210.07065,115.4662 L211.45325,119.85802 L212.83585,124.43654 L214.21844,129.19398 L215.60104,134.12154 L216.98364,139.20937 L218.36624,144.44656 L219.74887,149.82117 L221.13147,155.32019 L222.51407,160.92955 L223.89667,166.63411 L225.27927,172.41772 L226.66187,178.26318 L228.04446,184.15236 L229.42706,190.0661 L230.80966,195.98438 L232.19226,201.88629 L233.57486,207.75017 L234.95746,213.55354 L236.34006,219.27335 L237.72266,224.88585 L239.10526,230.36694 L240.48788,235.69205 L241.87045,240.8363 L243.25308,245.77478 L244.63565,250.48239 L246.01828,254.93423 L247.40088,259.10556 L248.78348,262.9721 L250.16608,266.51 L251.54868,269.69626 L252.93127,272.50854 L254.31387,274.92572 L255.69647,276.9277 L257.07907,278.4959 L258.46167,279.61325 L259.8443,280.2643 L261.22687,280.43564 L262.6095,280.1158 L263.99207,279.29572 L265.37466,277.9685 L266.7573,276.12997 L268.13986,273.77866 L269.5225,270.9158 L270.90506,267.54572 L272.2877,263.6757 L273.6703,259.31628 L275.0529,254.48122 L276.4355,249.18752 L277.81808,243.45554 L279.20068,237.309 L280.58328,230.775 L281.96588,223.88382 L283.34848,216.66911 L284.73108,209.16762 L286.1137,201.4191 L287.49628,193.46625 L288.8789,185.35445 L290.26147,177.13156 L291.6441,168.84772 L293.02667,160.55507 L294.4093,152.30742 L295.7919,144.15993 L297.1745,136.16881 L298.5571,128.39082 L299.93967,120.882996 L301.3223,113.70209 L302.7049,106.904205 L304.0875,100.54431 L305.4701,94.67569 L306.8527,89.349594 L308.2353,84.61456 L309.61792,80.51602 L311.0005,77.095795 L312.38312,74.39159 L313.7657,72.43645 L315.14832,71.25841 L316.5309,70.880005 L317.9135,71.317825 L319.2961,72.5822 L320.6787,74.67679 L322.0613,77.598404 L323.4439,81.3367 L324.8265,85.87399 L326.2091,91.18515 L327.5917,97.23758 L328.97433,103.99121 L330.3569,111.398605 L331.73953,119.405136 L333.1221,127.94925 L334.5047,136.96275 L335.88733,146.37135 L337.2699,156.09497 L338.65253,166.04855 L340.0351,176.14255 L341.41772,186.28375 L342.80032,196.3761 L344.18292,206.32156 L345.56552,216.02106 L346.94812,225.37543 L348.33072,234.28656 L349.71332,242.65845 L351.09592,250.3982 L352.47852,257.41727 L353.8611,263.63245 L355.2437,268.96716 L356.6263,273.35226 L358.00894,276.72733 L359.3915,279.0414 L360.77414,280.25418 L362.1567,280.33646 L363.53934,279.27115 L364.92194,277.05377 L366.30453,273.69293 L367.68713,269.21054 L369.0697,263.6422 L370.45233,257.0371 L371.83493,249.45778 L373.21753,240.97995 L374.60013,231.6919 L375.98273,221.6938 L377.36533,211.09682 L378.74792,200.02206 L380.13052,188.5994 L381.51312,176.96596 L382.89572,165.26463 L384.27835,153.64238 L385.66092,142.24841 L387.04355,131.23228 L388.42612,120.74188 L389.80875,110.92131 L391.19135,101.908966 L392.57394,93.83528 L393.95654,86.8208 L395.33914,80.97415 L396.72174,76.39017 L398.10434,73.14809 L399.48694,71.31 L400.86954,70.91948 L402.25214,72.000305 L403.63474,74.55557 L405.01733,78.56711 L406.39993,83.994995 L407.78253,90.77768 L409.16513,98.83214 L410.54776,108.05461 L411.93033,118.32158 L413.31296,129.49109 L414.69553,141.4045 L416.07813,153.88841 L417.46075,166.75703 L418.84335,179.81482 L420.22595,192.85933 L421.60852,205.68425 L422.99118,218.08273 L424.37375,229.85074 L425.75635,240.79048 L427.13895,250.7139 L428.52158,259.4461 L429.90414,266.82867 L431.28674,272.7228 L432.66934,277.01227 L434.05197,279.6059 L435.43457,280.44 L436.81714,279.48016 L438.19974,276.72263 L439.58234,272.19513 L440.96497,265.9573 L442.34756,258.10046 L443.73013,248.74661 L445.11273,238.0473 L446.49536,226.1813 L447.87796,213.35219 L449.26056,199.78513 L450.64313,185.72311 L452.0258,171.42297 L453.40836,157.15067 L454.79095,143.17648 L456.17355,129.76988 L457.55618,117.194275 L458.93878,105.70163 L460.32135,95.52722 L461.70395,86.8846 L463.08658,79.96062 L464.46918,74.91118 L465.85178,71.85713 L467.23434,70.88107 L468.61697,72.0246 L469.99957,75.28648 L471.38217,80.62167 L472.76477,87.94116 L474.14734,97.11273 L475.52997,107.962814 L476.91257,120.279175 L478.29517,133.81454 L479.67776,148.29121 L481.0604,163.40627 L482.44296,178.83777 L483.82556,194.25137 L485.20816,209.30748 L486.5908,223.66876 L487.9734,237.00781 L489.35596,249.01483 L490.73856,259.40512 L492.1212,267.9262 L493.50378,274.36444 L494.88638,278.55096 L496.26895,280.3665 L497.6516,279.74545 L499.03418,276.67877 L500.41678,271.21527 L501.79938,263.46188 L503.182,253.58234 L504.56458,241.79448 L505.94717,228.36615 L507.32977,213.60968 L508.71237,197.87515 L510.095,181.54251 L511.47757,165.01263 L512.86017,148.69763 L514.24274,133.01077 L515.62537,118.35571 L517.008,105.11607 L518.39056,93.64496 L519.77313,84.25511 L521.15576,77.20984 L522.5384,72.71501 L523.92096,70.91235 L525.3035,71.87422 L526.6862,75.60025 L528.0688,82.01579 L529.45135,90.972305 L530.834,102.24989 L532.2166,115.561844 L533.5992,130.56113 L534.98175,146.84871 L536.3644,163.98381 L537.747,181.49525 L539.1296,198.89427 L540.5122,215.68802 L541.8948,231.39365 L543.27734,245.55237 L544.66,257.74323 L546.0426,267.5963 L547.4252,274.8044 L548.80774,279.13348 L550.19037,280.43115 L551.573,278.6327 L552.95557,273.765 L554.3382,265.94745 L555.7208,255.39024 L557.1034,242.38977 L558.48596,227.32127 L559.8686,210.62885 L561.2512,192.81308 L562.6338,174.41649 L564.01636,156.00742 L565.399,138.16258 L566.7816,121.449005 L568.1642,106.4057 L569.54675,93.52585 L570.9294,83.2401 L572.312,75.901276 L573.6946,71.771454 L575.07715,71.01158 L576.4598,73.67424 L577.84235,79.6998 L579.225,88.916306 L580.6076,101.04294 L581.9902,115.697586 L583.37274,132.40765 L584.7554,150.62448 L586.138,169.74069 L587.52057,189.1099 L588.90314,208.06833 L590.2858,225.95758 L591.6684,242.14758 L593.05096,256.05945 L594.4336,267.1866 L595.8162,275.11435 L597.1988,279.53613 L598.58136,280.26666 L599.964,277.2508 L601.3466,270.56787 L602.7292,260.43137 L604.1118,247.18358 L605.4944,231.28522 L606.877,213.30075 L608.2596,193.87914 L609.6422,173.7313 L611.0248,153.60439 L612.40735,134.25443 L613.79,116.41777 L615.1726,100.78258 L616.5552,87.96175 L617.9378,78.46799 L619.32043,72.69211 L620.703,70.88574 L622.0856,73.14903" fill="none" stroke="#1f77b4" stroke-width="1.5"/>
</g>
<path d="M20,-4 L20,4 M111.94293,-4 L111.94293,4 M203.88588,-4 L203.88588,4 M295.82883,-4 L295.82883,4 M387.77173,-4 L387.77173,4 M479.71466,-4 L479.71466,4 M571.6576,-4 L571.6576,4 M663.6005,-4 L663.6005,4" fill="none" stroke="#000000" stroke-width="1" transform="matrix(1 0 0 1 50.428 300.44)"/>
<path d="M19.99901,-4 L19.99901,4 M46.19419,-4 L46.19419,4 M72.389366,-4 L72.389366,4 M98.58456,-4 L98.58456,4 M124.77973,-4 L124.77973,4 M150.97493,-4 L150.97493,4 M177.1701,-4 L177.1701,4 M203.36528,-4 L203.36528,4 M229.56046,-4 L229.56046,4" fill="none" stroke="#000000" stroke-width="1" transform="matrix(-0.00000004371139 -1 1 -0.00000004371139 50.428 300.44)"/>
<path d="M-19.584002,-0.72 L-21.996002,-0.72 L-21.996002,0.36000013 L-19.584002,0.36000013 z M-15.624001,-5.292 L-16.296001,-5.292 C-16.572,-4.044,-16.872,-3.7800002,-18.156,-3.684 L-18.156,-2.8439999 L-16.548,-2.8439999 L-16.548,3.144 L-15.624001,3.144 z M-11.7960005,1.86 L-12.828,1.86 L-12.828,3.144 L-11.7960005,3.144 z M-8.184,-5.292 C-9.72,-5.292,-10.584001,-3.744,-10.584001,-0.9720001 C-10.584001,1.8000001,-9.732,3.372,-8.208,3.372 C-6.696,3.372,-5.8320003,1.8000001,-5.8320003,-0.94799995 C-5.8320003,-3.696,-6.696,-5.292,-8.184,-5.292 z M-8.196,-4.356 C-7.26,-4.356,-6.756,-3.1680002,-6.756,-0.9720001 C-6.756,1.26,-7.26,2.436,-8.208,2.436 C-9.168,2.436,-9.66,1.2720001,-9.66,-0.9720001 C-9.66,-3.204,-9.156,-4.356,-8.196,-4.356 z M-2.7120001,-5.292 C-4.248,-5.292,-5.112,-3.744,-5.112,-0.9720001 C-5.112,1.8000001,-4.26,3.372,-2.736,3.372 C-1.224,3.372,-0.36000013,1.8000001,-0.36000013,-0.94799995 C-0.36000013,-3.696,-1.224,-5.292,-2.7120001,-5.292 z M-2.7240002,-4.356 C-1.7880001,-4.356,-1.2839999,-3.1680002,-1.2839999,-0.9720001 C-1.2839999,1.26,-1.7880001,2.436,-2.736,2.436 C-3.696,2.436,-4.188,1.2720001,-4.188,-0.9720001 C-4.188,-3.204,-3.684,-4.356,-2.7240002,-4.356 z" fill="#000000" stroke="none" transform="matrix(1 0 0 1 42.428 280.44098)"/>
<path d="M-19.584002,-0.72 L-21.996002,-0.72 L-21.996002,0.36000013 L-19.584002,0.36000013 z M-16.392,-5.292 C-17.928001,-5.292,-18.792,-3.744,-18.792,-0.9720001 C-18.792,1.8000001,-17.94,3.372,-16.416,3.372 C-14.904,3.372,-14.040001,1.8000001,-14.040001,-0.94799995 C-14.040001,-3.696,-14.904,-5.292,-16.392,-5.292 z M-16.404001,-4.356 C-15.468,-4.356,-14.964001,-3.1680002,-14.964001,-0.9720001 C-14.964001,1.26,-15.468,2.436,-16.416,2.436 C-17.376,2.436,-17.868,1.2720001,-17.868,-0.9720001 C-17.868,-3.204,-17.364,-4.356,-16.404001,-4.356 z M-11.7960005,1.86 L-12.828,1.86 L-12.828,3.144 L-11.7960005,3.144 z M-10.584001,-4.068 L-6.768,-4.068 C-8.280001,-1.848,-9.3,0.75600004,-9.6,3.144 L-8.64,3.144 C-8.208,0.24000001,-7.26,-2.184,-5.796,-4.176 L-5.796,-5.1120005 L-10.584001,-5.1120005 z M-3.732,-4.068 L-0.8039999,-4.068 L-0.8039999,-5.1120005 L-4.38,-5.1120005 L-4.908,-0.58800006 L-4.152,-0.53999996 C-3.7680001,-1.1040001,-3.384,-1.3439999,-2.868,-1.3439999 C-1.9560001,-1.3439999,-1.3439999,-0.5999999,-1.3439999,0.51600003 C-1.3439999,1.668,-1.9560001,2.448,-2.844,2.448 C-3.3240001,2.448,-3.756,2.244,-3.996,1.8840001 C-4.152,1.656,-4.212,1.452,-4.26,1.0440001 L-5.1600003,1.0440001 C-5.076,1.692,-4.992,1.9920001,-4.788,2.352 C-4.4040003,3.0240002,-3.756,3.372,-2.904,3.372 C-1.3920002,3.372,-0.42000008,2.22,-0.42000008,0.43199992 C-0.42000008,-1.1279998,-1.3800001,-2.2800002,-2.7120001,-2.2800002 C-3.216,-2.2800002,-3.612,-2.124,-4.032,-1.7519999 z" fill="#000000" stroke="none" transform="matrix(1 0 0 1 42.428 254.24582)"/>
<path d="M-19.584002,-0.72 L-21.996002,-0.72 L-21.996002,0.36000013 L-19.584002,0.36000013 z M-16.392,-5.292 C-17.928001,-5.292,-18.792,-3.744,-18.792,-0.9720001 C-18.792,1.8000001,-17.94,3.372,-16.416,3.372 C-14.904,3.372,-14.040001,1.8000001,-14.040001,-0.94799995 C-14.040001,-3.696,-14.904,-5.292,-16.392,-5.292 z M-16.404001,-4.356 C-15.468,-4.356,-14.964001,-3.1680002,-14.964001,-0.9720001 C-14.964001,1.26,-15.468,2.436,-16.416,2.436 C-17.376,2.436,-17.868,1.2720001,-17.868,-0.9720001 C-17.868,-3.204,-17.364,-4.356,-16.404001,-4.356 z M-11.7960005,1.86 L-12.828,1.86 L-12.828,3.144 L-11.7960005,3.144 z M-9.204,-4.068 L-6.276,-4.068 L-6.276,-5.1120005 L-9.852,-5.1120005 L-10.38,-0.58800006 L-9.624001,-0.53999996 C-9.24,-1.1040001,-8.856,-1.3439999,-8.34,-1.3439999 C-7.4280005,-1.3439999,-6.816,-0.5999999,-6.816,0.51600003 C-6.816,1.668,-7.4280005,2.448,-8.316,2.448 C-8.7960005,2.448,-9.228001,2.244,-9.468,1.8840001 C-9.624001,1.656,-9.684,1.452,-9.732,1.0440001 L-10.632,1.0440001 C-10.548,1.692,-10.464001,1.9920001,-10.26,2.352 C-9.876,3.0240002,-9.228001,3.372,-8.376,3.372 C-6.8640003,3.372,-5.892,2.22,-5.892,0.43199992 C-5.892,-1.1279998,-6.852,-2.2800002,-8.184,-2.2800002 C-8.688,-2.2800002,-9.084001,-2.124,-9.504,-1.7519999 z M-2.7120001,-5.292 C-4.248,-5.292,-5.112,-3.744,-5.112,-0.9720001 C-5.112,1.8000001,-4.26,3.372,-2.736,3.372 C-1.224,3.372,-0.36000013,1.8000001,-0.36000013,-0.94799995 C-0.36000013,-3.696,-1.224,-5.292,-2.7120001,-5.292 z M-2.7240002,-4.356 C-1.7880001,-4.356,-1.2839999,-3.1680002,-1.2839999,-0.9720001 C-1.2839999,1.26,-1.7880001,2.436,-2.736,2.436 C-3.696,2.436,-4.188,1.2720001,-4.188,-0.9720001 C-4.188,-3.204,-3.684,-4.356,-2.7240002,-4.356 z" fill="#000000" stroke="none" transform="matrix(1 0 0 1 42.428 228.05063)"/>
<path d="M-19.584002,-0.72 L-21.996002,-0.72 L-21.996002,0.36000013 L-19.584002,0.36000013 z M-16.392,-5.292 C-17.928001,-5.292,-18.792,-3.744,-18.792,-0.9720001 C-18.792,1.8000001,-17.94,3.372,-16.416,3.372 C-14.904,3.372,-14.040001,1.8000001,-14.040001,-0.94799995 C-14.040001,-3.696,-14.904,-5.292,-16.392,-5.292 z M-16.404001,-4.356 C-15.468,-4.356,-14.964001,-3.1680002,-14.964001,-0.9720001 C-14.964001,1.26,-15.468,2.436,-16.416,2.436 C-17.376,2.436,-17.868,1.2720001,-17.868,-0.9720001 C-17.868,-3.204,-17.364,-4.356,-16.404001,-4.356 z M-11.7960005,1.86 L-12.828,1.86 L-12.828,3.144 L-11.7960005,3.144 z M-9.648001,-2.2680001 C-9.576,-3.7319999,-9.156,-4.356,-8.244,-4.356 C-7.4160004,-4.356,-6.8760004,-3.744,-6.8760004,-2.784 C-6.8760004,-2.3519998,-6.984,-1.98,-7.188,-1.6919999 C-7.344,-1.4639997,-7.5720005,-1.2599998,-8.148001,-0.852 L-9.0720005,-0.204 C-10.152,0.576,-10.632,1.572,-10.692,3.144 L-5.952,3.144 L-5.952,2.148 L-9.72,2.148 C-9.648001,1.572,-9.216001,0.99600005,-8.52,0.5280001 L-7.8,0.048000097 C-7.044,-0.4560001,-6.708,-0.75600004,-6.4440002,-1.1040001 C-6.1080003,-1.572,-5.952,-2.1,-5.952,-2.7600002 C-5.952,-4.284,-6.84,-5.292,-8.172,-5.292 C-9,-5.292,-9.708,-4.896,-10.08,-4.236 C-10.38,-3.7199998,-10.488,-3.2399998,-10.512,-2.2680001 z M-3.732,-4.068 L-0.8039999,-4.068 L-0.8039999,-5.1120005 L-4.38,-5.1120005 L-4.908,-0.58800006 L-4.152,-0.53999996 C-3.7680001,-1.1040001,-3.384,-1.3439999,-2.868,-1.3439999 C-1.9560001,-1.3439999,-1.3439999,-0.5999999,-1.3439999,0.51600003 C-1.3439999,1.668,-1.9560001,2.448,-2.844,2.448 C-3.3240001,2.448,-3.756,2.244,-3.996,1.8840001 C-4.152,1.656,-4.212,1.452,-4.26,1.0440001 L-5.1600003,1.0440001 C-5.076,1.692,-4.992,1.9920001,-4.788,2.352 C-4.4040003,3.0240002,-3.756,3.372,-2.904,3.372 C-1.3920002,3.372,-0.42000008,2.22,-0.42000008,0.43199992 C-0.42000008,-1.1279998,-1.3800001,-2.2800002,-2.7120001,-2.2800002 C-3.216,-2.2800002,-3.612,-2.124,-4.032,-1.7519999 z" fill="#000000" stroke="none" transform="matrix(1 0 0 1 42.428 201.85544)"/>
<path d="M-16.392,-5.292 C-17.928001,-5.292,-18.792,-3.744,-18.792,-0.9720001 C-18.792,1.8000001,-17.94,3.372,-16.416,3.372 C-14.904,3.372,-14.040001,1.8000001,-14.040001,-0.94799995 C-14.040001,-3.696,-14.904,-5.292,-16.392,-5.292 z M-16.404001,-4.356 C-15.468,-4.356,-14.964001,-3.1680002,-14.964001,-0.9720001 C-14.964001,1.26,-15.468,2.436,-16.416,2.436 C-17.376,2.436,-17.868,1.2720001,-17.868,-0.9720001 C-17.868,-3.204,-17.364,-4.356,-16.404001,-4.356 z M-11.7960005,1.86 L-12.828,1.86 L-12.828,3.144 L-11.7960005,3.144 z M-8.184,-5.292 C-9.72,-5.292,-10.584001,-3.744,-10.584001,-0.9720001 C-10.584001,1.8000001,-9.732,3.372,-8.208,3.372 C-6.696,3.372,-5.8320003,1.8000001,-5.8320003,-0.94799995 C-5.8320003,-3.696,-6.696,-5.292,-8.184,-5.292 z M-8.196,-4.356 C-7.26,-4.356,-6.756,-3.1680002,-6.756,-0.9720001 C-6.756,1.26,-7.26,2.436,-8.208,2.436 C-9.168,2.436,-9.66,1.2720001,-9.66,-0.9720001 C-9.66,-3.204,-9.156,-4.356,-8.196,-4.356 z M-2.7120001,-5.292 C-4.248,-5.292,-5.112,-3.744,-5.112,-0.9720001 C-5.112,1.8000001,-4.26,3.372,-2.736,3.372 C-1.224,3.372,-0.36000013,1.8000001,-0.36000013,-0.94799995 C-0.36000013,-3.696,-1.224,-5.292,-2.7120001,-5.292 z M-2.7240002,-4.356 C-1.7880001,-4.356,-1.2839999,-3.1680002,-1.2839999,-0.9720001 C-1.2839999,1.26,-1.7880001,2.436,-2.736,2.436 C-3.696,2.436,-4.188,1.2720001,-4.188,-0.9720001 C-4.188,-3.204,-3.684,-4.356,-2.7240002,-4.356 z" fill="#000000" stroke="none" transform="matrix(1 0 0 1 42.428 175.66028)"/>
<path d="M-16.392,-5.292 C-17.928001,-5.292,-18.792,-3.744,-18.792,-0.9720001 C-18.792,1.8000001,-17.94,3.372,-16.416,3.372 C-14.904,3.372,-14.040001,1.8000001,-14.040001,-0.94799995 C-14.040001,-3.696,-14.904,-5.292,-16.392,-5.292 z M-16.404001,-4.356 C-15.468,-4.356,-14.964001,-3.1680002,-14.964001,-0.9720001 C-14.964001,1.26,-15.468,2.436,-16.416,2.436 C-17.376,2.436,-17.868,1.2720001,-17.868,-0.9720001 C-17.868,-3.204,-17.364,-4.356,-16.404001,-4.356 z M-11.7960005,1.86 L-12.828,1.86 L-12.828,3.144 L-11.7960005,3.144 z M-9.648001,-2.2680001 C-9.576,-3.7319999,-9.156,-4.356,-8.244,-4.356 C-7.4160004,-4.356,-6.8760004,-3.744,-6.8760004,-2.784 C-6.8760004,-2.3519998,-6.984,-1.98,-7.188,-1.6919999 C-7.344,-1.4639997,-7.5720005,-1.2599998,-8.148001,-0.852 L-9.0720005,-0.204 C-10.152,0.576,-10.632,1.572,-10.692,3.144 L-5.952,3.144 L-5.952,2.148 L-9.72,2.148 C-9.648001,1.572,-9.216001,0.99600005,-8.52,0.5280001 L-7.8,0.048000097 C-7.044,-0.4560001,-6.708,-0.75600004,-6.4440002,-1.1040001 C-6.1080003,-1.572,-5.952,-2.1,-5.952,-2.7600002 C-5.952,-4.284,-6.84,-5.292,-8.172,-5.292 C-9,-5.292,-9.708,-4.896,-10.08,-4.236 C-10.38,-3.7199998,-10.488,-3.2399998,-10.512,-2.2680001 z M-3.732,-4.068 L-0.8039999,-4.068 L-0.8039999,-5.1120005 L-4.38,-5.1120005 L-4.908,-0.58800006 L-4.152,-0.53999996 C-3.7680001,-1.1040001,-3.384,-1.3439999,-2.868,-1.3439999 C-1.9560001,-1.3439999,-1.3439999,-0.5999999,-1.3439999,0.51600003 C-1.3439999,1.668,-1.9560001,2.448,-2.844,2.448 C-3.3240001,2.448,-3.756,2.244,-3.996,1.8840001 C-4.152,1.656,-4.212,1.452,-4.26,1.0440001 L-5.1600003,1.0440001 C-5.076,1.692,-4.992,1.9920001,-4.788,2.352 C-4.4040003,3.0240002,-3.756,3.372,-2.904,3.372 C-1.3920002,3.372,-0.42000008,2.22,-0.42000008,0.43199992 C-0.42000008,-1.1279998,-1.3800001,-2.2800002,-2.7120001,-2.2800002 C-3.216,-2.2800002,-3.612,-2.124,-4.032,-1.7519999 z" fill="#000000" stroke="none" transform="matrix(1 0 0 1 42.428 149.46507)"/>
<path d="M-16.392,-5.292 C-17.928001,-5.292,-18.792,-3.744,-18.792,-0.9720001 C-18.792,1.8000001,-17.94,3.372,-16.416,3.372 C-14.904,3.372,-14.040001,1.8000001,-14.040001,-0.94799995 C-14.040001,-3.696,-14.904,-5.292,-16.392,-5.292 z M-16.404001,-4.356 C-15.468,-4.356,-14.964001,-3.1680002,-14.964001,-0.9720001 C-14.964001,1.26,-15.468,2.436,-16.416,2.436 C-17.376,2.436,-17.868,1.2720001,-17.868,-0.9720001 C-17.868,-3.204,-17.364,-4.356,-16.404001,-4.356 z M-11.7960005,1.86 L-12.828,1.86 L-12.828,3.144 L-11.7960005,3.144 z M-9.204,-4.068 L-6.276,-4.068 L-6.276,-5.1120005 L-9.852,-5.1120005 L-10.38,-0.58800006 L-9.624001,-0.53999996 C-9.24,-1.1040001,-8.856,-1.3439999,-8.34,-1.3439999 C-7.4280005,-1.3439999,-6.816,-0.5999999,-6.816,0.51600003 C-6.816,1.668,-7.4280005,2.448,-8.316,2.448 C-8.7960005,2.448,-9.228001,2.244,-9.468,1.8840001 C-9.624001,1.656,-9.684,1.452,-9.732,1.0440001 L-10.632,1.0440001 C-10.548,1.692,-10.464001,1.9920001,-10.26,2.352 C-9.876,3.0240002,-9.228001,3.372,-8.376,3.372 C-6.8640003,3.372,-5.892,2.22,-5.892,0.43199992 C-5.892,-1.1279998,-6.852,-2.2800002,-8.184,-2.2800002 C-8.688,-2.2800002,-9.084001,-2.124,-9.504,-1.7519999 z M-2.7120001,-5.292 C-4.248,-5.292,-5.112,-3.744,-5.112,-0.9720001 C-5.112,1.8000001,-4.26,3.372,-2.736,3.372 C-1.224,3.372,-0.36000013,1.8000001,-0.36000013,-0.94799995 C-0.36000013,-3.696,-1.224,-5.292,-2.7120001,-5.292 z M-2.7240002,-4.356 C-1.7880001,-4.356,-1.2839999,-3.1680002,-1.2839999,-0.9720001 C-1.2839999,1.26,-1.7880001,2.436,-2.736,2.436 C-3.696,2.436,-4.188,1.2720001,-4.188,-0.9720001 C-4.188,-3.204,-3.684,-4.356,-2.7240002,-4.356 z" fill="#000000" stroke="none" transform="matrix(1 0 0 1 42.428 123.2699)"/>
<path d="M-16.392,-5.292 C-17.928001,-5.292,-18.792,-3.744,-18.792,-0.9720001 C-18.792,1.8000001,-17.94,3.372,-16.416,3.372 C-14.904,3.372,-14.040001,1.8000001,-14.040001,-0.94799995 C-14.040001,-3.696,-14.904,-5.292,-16.392,-5.292 z M-16.404001,-4.356 C-15.468,-4.356,-14.964001,-3.1680002,-14.964001,-0.9720001 C-14.964001,1.26,-15.468,2.436,-16.416,2.436 C-17.376,2.436,-17.868,1.2720001,-17.868,-0.9720001 C-17.868,-3.204,-17.364,-4.356,-16.404001,-4.356 z M-11.7960005,1.86 L-12.828,1.86 L-12.828,3.144 L-11.7960005,3.144 z M-10.584001,-4.068 L-6.768,-4.068 C-8.280001,-1.848,-9.3,0.75600004,-9.6,3.144 L-8.64,3.144 C-8.208,0.24000001,-7.26,-2.184,-5.796,-4.176 L-5.796,-5.1120005 L-10.584001,-5.1120005 z M-3.732,-4.068 L-0.8039999,-4.068 L-0.8039999,-5.1120005 L-4.38,-5.1120005 L-4.908,-0.58800006 L-4.152,-0.53999996 C-3.7680001,-1.1040001,-3.384,-1.3439999,-2.868,-1.3439999 C-1.9560001,-1.3439999,-1.3439999,-0.5999999,-1.3439999,0.51600003 C-1.3439999,1.668,-1.9560001,2.448,-2.844,2.448 C-3.3240001,2.448,-3.756,2.244,-3.996,1.8840001 C-4.152,1.656,-4.212,1.452,-4.26,1.0440001 L-5.1600003,1.0440001 C-5.076,1.692,-4.992,1.9920001,-4.788,2.352 C-4.4040003,3.0240002,-3.756,3.372,-2.904,3.372 C-1.3920002,3.372,-0.42000008,2.22,-0.42000008,0.43199992 C-0.42000008,-1.1279998,-1.3800001,-2.2800002,-2.7120001,-2.2800002 C-3.216,-2.2800002,-3.612,-2.124,-4.032,-1.7519999 z" fill="#000000" stroke="none" transform="matrix(1 0 0 1 42.428 97.07472)"/>
<path d="M-15.624001,-5.292 L-16.296001,-5.292 C-16.572,-4.044,-16.872,-3.7800002,-18.156,-3.684 L-18.156,-2.8439999 L-16.548,-2.8439999 L-16.548,3.144 L-15.624001,3.144 z M-11.7960005,1.86 L-12.828,1.86 L-12.828,3.144 L-11.7960005,3.144 z M-8.184,-5.292 C-9.72,-5.292,-10.584001,-3.744,-10.584001,-0.9720001 C-10.584001,1.8000001,-9.732,3.372,-8.208,3.372 C-6.696,3.372,-5.8320003,1.8000001,-5.8320003,-0.94799995 C-5.8320003,-3.696,-6.696,-5.292,-8.184,-5.292 z M-8.196,-4.356 C-7.26,-4.356,-6.756,-3.1680002,-6.756,-0.9720001 C-6.756,1.26,-7.26,2.436,-8.208,2.436 C-9.168,2.436,-9.66,1.2720001,-9.66,-0.9720001 C-9.66,-3.204,-9.156,-4.356,-8.196,-4.356 z M-2.7120001,-5.292 C-4.248,-5.292,-5.112,-3.744,-5.112,-0.9720001 C-5.112,1.8000001,-4.26,3.372,-2.736,3.372 C-1.224,3.372,-0.36000013,1.8000001,-0.36000013,-0.94799995 C-0.36000013,-3.696,-1.224,-5.292,-2.7120001,-5.292 z M-2.7240002,-4.356 C-1.7880001,-4.356,-1.2839999,-3.1680002,-1.2839999,-0.9720001 C-1.2839999,1.26,-1.7880001,2.436,-2.736,2.436 C-3.696,2.436,-4.188,1.2720001,-4.188,-0.9720001 C-4.188,-3.204,-3.684,-4.356,-2.7240002,-4.356 z" fill="#000000" stroke="none" transform="matrix(1 0 0 1 42.428 70.87955)"/>
<rect fill="none" height="249.56" stroke="#000000" stroke-width="1" width="729.572" x="50.428" y="50.88"/>
<path d="M70.428,560 L70.428,310.44" fill="none" stroke="#808080" stroke-opacity="0.6" stroke-width="1"/>
<path d="M162.37094,560 L162.37094,310.44" fill="none" stroke="#808080" stroke-opacity="0.6" stroke-width="1"/>
<path d="M254.31387,560 L254.31387,310.44" fill="none" stroke="#808080" stroke-opacity="0.6" stroke-width="1"/>
<path d="M346.25684,560 L346.25684,310.44" fill="none" stroke="#808080" stroke-opacity="0.6" stroke-width="1"/>
<path d="M438.19974,560 L438.19974,310.44" fill="none" stroke="#808080" stroke-opacity="0.6" stroke-width="1"/>
<path d="M530.14264,560 L530.14264,310.44" fill="none" stroke="#808080" stroke-opacity="0.6" stroke-width="1"/>
<path d="M622.0856,560 L622.0856,310.44" fill="none" stroke="#808080" stroke-opacity="0.6" stroke-width="1"/>
<path d="M714.0285,560 L714.0285,310.44" fill="none" stroke="#808080" stroke-opacity="0.6" stroke-width="1"/>
<clipPath id="eidoplot-clip2">
<rect height="249.56" width="729.572" x="50.428" y="310.44"/>
</clipPath>
<g clip-path="url(#eidoplot-clip2)">
<path d="M208.3424,435.21973 L209.725,435.24573 L211.1076,435.32367 L212.4902,435.45358 L213.8728,435.63547 L215.2554,435.86932 L216.638,436.15512 L218.0206,436.4929 L219.4032,436.8826 L220.7858,437.32425 L222.16843,437.8178 L223.55103,438.36325 L224.93362,438.96054 L226.31622,439.60965 L227.69882,440.3105 L229.08142,441.06296 L230.46402,441.867 L231.84662,442.7225 L233.22922,443.6293 L234.61182,444.58722 L235.99442,445.59604 L237.37701,446.65558 L238.75961,447.7655 L240.14221,448.92554 L241.52481,450.1353 L242.90744,451.3944 L244.29001,452.70233 L245.67264,454.0586 L247.0552,455.46262 L248.43784,456.9137 L249.82043,458.4111 L251.20303,459.95407 L252.58563,461.5417 L253.96823,463.17294 L255.35083,464.8468 L256.73343,466.56207 L258.11603,468.31747 L259.49863,470.11163 L260.88123,471.94302 L262.26382,473.81003 L263.64642,475.7109 L265.02902,477.64374 L266.41162,479.60657 L267.79422,481.5972 L269.17685,483.6133 L270.55942,485.65247 L271.94205,487.71204 L273.32462,489.78925 L274.70724,491.88113 L276.0898,493.98462 L277.47244,496.09644 L278.85504,498.21307 L280.23764,500.33093 L281.62024,502.44617 L283.00284,504.5548 L284.38544,506.65268 L285.76804,508.73538 L287.15063,510.7984 L288.53323,512.837 L289.91583,514.84625 L291.29843,516.8211 L292.68103,518.7563 L294.06363,520.64636 L295.44623,522.4858 L296.82883,524.2687 L298.21146,525.98926 L299.59402,527.6415 L300.97665,529.2192 L302.35922,530.716 L303.74185,532.12555 L305.12445,533.4414 L306.50705,534.657 L307.88965,535.7656 L309.27225,536.7607 L310.65485,537.6355 L312.03748,538.3833 L313.42004,538.9975 L314.80267,539.47144 L316.18524,539.7985 L317.56787,539.97235 L318.95047,539.9866 L320.33307,539.8351 L321.71567,539.51184 L323.09827,539.0111 L324.48087,538.32745 L325.86346,537.45557 L327.24606,536.3906 L328.62866,535.1282 L330.01126,533.66406 L331.39386,531.99475 L332.77646,530.11694 L334.15906,528.0281 L335.54166,525.72614 L336.92426,523.2096 L338.30685,520.4777 L339.68945,517.5304 L341.07208,514.3683 L342.45465,510.99274 L343.83728,507.406 L345.21985,503.61115 L346.60248,499.61212 L347.98508,495.41382 L349.36768,491.02197 L350.75027,486.44345 L352.13287,481.68604 L353.51547,476.75848 L354.89807,471.67065 L356.28067,466.43344 L357.66327,461.05884 L359.04587,455.5598 L360.42847,449.95044 L361.81107,444.24588 L363.19366,438.46228 L364.57626,432.61682 L365.95886,426.72766 L367.3415,420.8139 L368.72406,414.89563 L370.1067,408.9937 L371.48926,403.12982 L372.8719,397.32648 L374.2545,391.6067 L375.6371,385.99414 L377.01968,380.51306 L378.40228,375.188 L379.78488,370.0437 L381.16748,365.10522 L382.55008,360.39758 L383.93268,355.94577 L385.31528,351.77444 L386.6979,347.9079 L388.08047,344.37 L389.4631,341.18378 L390.84567,338.37146 L392.2283,335.95428 L393.6109,333.95227 L394.99347,332.3841 L396.3761,331.26675 L397.75867,330.6157 L399.1413,330.44437 L400.5239,330.76416 L401.9065,331.5843 L403.2891,332.9115 L404.6717,334.75 L406.0543,337.10138 L407.4369,339.9642 L408.8195,343.3343 L410.2021,347.20428 L411.5847,351.56372 L412.9673,356.3988 L414.34988,361.6925 L415.7325,367.42447 L417.11508,373.57098 L418.49768,380.10504 L419.8803,386.99615 L421.2629,394.21088 L422.6455,401.7124 L424.02808,409.46088 L425.4107,417.41376 L426.7933,425.52557 L428.1759,433.74844 L429.5585,442.0323 L430.94107,450.32495 L432.3237,458.5726 L433.7063,466.72006 L435.0889,474.71118 L436.4715,482.4892 L437.85413,489.997 L439.2367,497.17792 L440.6193,503.9758 L442.0019,510.3357 L443.38452,516.2043 L444.76712,521.5304 L446.1497,526.26544 L447.5323,530.364 L448.91492,533.7842 L450.29752,536.4884 L451.6801,538.44354 L453.06268,539.6216 L454.44534,540 L455.8279,539.5622 L457.2105,538.2978 L458.5931,536.20325 L459.97574,533.2816 L461.35834,529.5433 L462.7409,525.00604 L464.1235,519.6949 L465.5061,513.64246 L466.88873,506.8888 L468.27133,499.48138 L469.6539,491.47485 L471.0365,482.93076 L472.41913,473.91724 L473.80173,464.50867 L475.18433,454.78503 L476.5669,444.83145 L477.94952,434.73746 L479.33212,424.59625 L480.71472,414.5039 L482.09732,404.5584 L483.47995,394.85895 L484.86252,385.50458 L486.24512,376.59344 L487.62772,368.22156 L489.01035,360.4818 L490.39294,353.46277 L491.7755,347.24756 L493.1581,341.91284 L494.54074,337.52774 L495.92334,334.15268 L497.30594,331.83856 L498.6885,330.62585 L500.0711,330.54355 L501.45374,331.60886 L502.83633,333.82623 L504.21893,337.18707 L505.6015,341.66946 L506.98413,347.2378 L508.36673,353.8429 L509.74933,361.42224 L511.13193,369.90005 L512.5145,379.1881 L513.8971,389.18622 L515.2797,399.7832 L516.6623,410.85794 L518.0449,422.28058 L519.42755,433.91406 L520.8101,445.6154 L522.1927,457.23764 L523.5753,468.6316 L524.95795,479.6477 L526.3405,490.13812 L527.7231,499.95868 L529.1058,508.97104 L530.48834,517.04474 L531.8709,524.0592 L533.25354,529.9058 L534.6361,534.48987 L536.01874,537.73193 L537.4013,539.57 L538.78394,539.9605 L540.1665,538.8797 L541.54913,536.3244 L542.93176,532.3129 L544.31433,526.885 L545.6969,520.1023 L547.0795,512.04785 L548.46216,502.8254 L549.8447,492.5584 L551.2273,481.38892 L552.6099,469.4755 L553.99255,456.9916 L555.3751,444.123 L556.75775,431.0652 L558.1404,418.0207 L559.52295,405.19574 L560.9055,392.79727 L562.28815,381.02927 L563.6707,370.08954 L565.05334,360.1661 L566.4359,351.4339 L567.81854,344.05133 L569.2011,338.15717 L570.58374,333.86774 L571.9663,331.2741 L573.34894,330.44 L574.7315,331.39984 L576.11414,334.15738 L577.4967,338.68488 L578.87933,344.92267 L580.2619,352.77954 L581.64453,362.13336 L583.02716,372.8327 L584.4097,384.69873 L585.7923,397.5278 L587.1749,411.0949 L588.55756,425.1569 L589.9401,439.45703 L591.3227,453.72934 L592.7054,467.70355 L594.08795,481.1101 L595.4705,493.68573 L596.85315,505.17838 L598.2358,515.3528 L599.61835,523.9954 L601.0009,530.9194 L602.38354,535.9688 L603.7661,539.0229 L605.14874,539.99896 L606.5313,538.8554 L607.91394,535.5935 L609.2965,530.2583 L610.67914,522.93884 L612.06177,513.7673 L613.44434,502.91718 L614.8269,490.60083 L616.20953,477.06546 L617.59216,462.5888 L618.97473,447.47375 L620.3573,432.04224 L621.74,416.62863 L623.12256,401.5725 L624.5051,387.21124 L625.88776,373.8722 L627.2704,361.86517 L628.65295,351.47488 L630.0355,342.9538 L631.41815,336.51556 L632.8008,332.32904 L634.18335,330.51355 L635.566,331.13455 L636.94855,334.20123 L638.3311,339.66473 L639.71375,347.4181 L641.0964,357.29767 L642.47894,369.08554 L643.8615,382.51385 L645.24414,397.27032 L646.6268,413.00482 L648.00934,429.33746 L649.39197,445.86737 L650.7746,462.18237 L652.15717,477.86926 L653.53973,492.5243 L654.92236,505.76392 L656.305,517.23505 L657.68756,526.6249 L659.0701,533.67017 L660.45276,538.165 L661.8354,539.96765 L663.21796,539.0058 L664.6006,535.2797 L665.98315,528.8642 L667.3658,519.9077 L668.74835,508.6301 L670.131,495.31815 L671.51355,480.3189 L672.8961,464.0313 L674.2788,446.89618 L675.6614,429.38474 L677.04395,411.98572 L678.4266,395.19196 L679.8092,379.48636 L681.1918,365.32764 L682.57434,353.13678 L683.957,343.2837 L685.3396,336.0756 L686.72217,331.74652 L688.10474,330.44885 L689.48737,332.2473 L690.87,337.115 L692.25256,344.93256 L693.6352,355.48975 L695.01776,368.49023 L696.4004,383.55875 L697.78296,400.25116 L699.1656,418.06693 L700.54816,436.4635 L701.9308,454.8726 L703.3134,472.7174 L704.696,489.431 L706.07855,504.4743 L707.4612,517.3541 L708.8438,527.6399 L710.2264,534.9787 L711.60895,539.1086 L712.9916,539.8684 L714.3742,537.20575 L715.7568,531.1802 L717.1394,521.9637 L718.522,509.83707 L719.9046,495.1824 L721.2872,478.47235 L722.6698,460.25552 L724.05237,441.13934 L725.435,421.7701 L726.81757,402.81165 L728.2002,384.92242 L729.58276,368.73242 L730.9654,354.82056 L732.348,343.69336 L733.7306,335.76566 L735.11316,331.34387 L736.4958,330.61334 L737.8784,333.6292 L739.261,340.31213 L740.64355,350.4486 L742.0262,363.69644 L743.4088,379.5948 L744.7914,397.57925 L746.174,417.00085 L747.5566,437.1487 L748.9392,457.27563 L750.3218,476.62555 L751.7044,494.46225 L753.087,510.09744 L754.4696,522.9183 L755.8522,532.41205 L757.2348,538.1879 L758.6174,539.99426 L760,537.73096" fill="none" stroke="#1f77b4" stroke-width="1.5"/>
</g>
<path d="M20,-4 L20,4 M111.94293,-4 L111.94293,4 M203.88588,-4 L203.88588,4 M295.82883,-4 L295.82883,4 M387.77173,-4 L387.77173,4 M479.71466,-4 L479.71466,4 M571.6576,-4 L571.6576,4 M663.6005,-4 L663.6005,4" fill="none" stroke="#000000" stroke-width="1" transform="matrix(1 0 0 1 50.428 560)"/>
<path d="M-6.816,0.1800003 C-8.352,0.1800003,-9.216001,1.7280002,-9.216001,4.5 C-9.216001,7.2720003,-8.364,8.844,-6.84,8.844 C-5.328,8.844,-4.464,7.2720003,-4.464,4.524 C-4.464,1.776,-5.328,0.1800003,-6.816,0.1800003 z M-6.828,1.1160002 C-5.892,1.1160002,-5.388,2.304,-5.388,4.5 C-5.388,6.7320004,-5.892,7.908,-6.84,7.908 C-7.8,7.908,-8.292,6.7440004,-8.292,4.5 C-8.292,2.2680001,-7.788,1.1160002,-6.828,1.1160002 z M-2.22,7.3320003 L-3.252,7.3320003 L-3.252,8.616 L-2.22,8.616 z M1.392,0.1800003 C-0.14400005,0.1800003,-1.008,1.7280002,-1.008,4.5 C-1.008,7.2720003,-0.15600002,8.844,1.368,8.844 C2.88,8.844,3.744,7.2720003,3.744,4.524 C3.744,1.776,2.88,0.1800003,1.392,0.1800003 z M1.3799999,1.1160002 C2.316,1.1160002,2.8200002,2.304,2.8200002,4.5 C2.8200002,6.7320004,2.316,7.908,1.368,7.908 C0.408,7.908,-0.08399999,6.7440004,-0.08399999,4.5 C-0.08399999,2.2680001,0.41999996,1.1160002,1.3799999,1.1160002 z M6.8640003,0.1800003 C5.328,0.1800003,4.464,1.7280002,4.464,4.5 C4.464,7.2720003,5.316,8.844,6.84,8.844 C8.352,8.844,9.216,7.2720003,9.216,4.524 C9.216,1.776,8.352,0.1800003,6.8640003,0.1800003 z M6.852,1.1160002 C7.788,1.1160002,8.292,2.304,8.292,4.5 C8.292,6.7320004,7.788,7.908,6.84,7.908 C5.88,7.908,5.388,6.7440004,5.388,4.5 C5.388,2.2680001,5.892,1.1160002,6.852,1.1160002 z" fill="#000000" stroke="none" transform="matrix(1 0 0 1 70.428 568)"/>
<path d="M-6.816,0.1800003 C-8.352,0.1800003,-9.216001,1.7280002,-9.216001,4.5 C-9.216001,7.2720003,-8.364,8.844,-6.84,8.844 C-5.328,8.844,-4.464,7.2720003,-4.464,4.524 C-4.464,1.776,-5.328,0.1800003,-6.816,0.1800003 z M-6.828,1.1160002 C-5.892,1.1160002,-5.388,2.304,-5.388,4.5 C-5.388,6.7320004,-5.892,7.908,-6.84,7.908 C-7.8,7.908,-8.292,6.7440004,-8.292,4.5 C-8.292,2.2680001,-7.788,1.1160002,-6.828,1.1160002 z M-2.22,7.3320003 L-3.252,7.3320003 L-3.252,8.616 L-2.22,8.616 z M0.8399999,4.728 C0.99600005,4.728,1.0439999,4.728,1.224,4.716 L1.3440001,4.716 C2.28,4.716,2.8439999,5.292,2.8439999,6.252 C2.8439999,7.248,2.232,7.908,1.3080001,7.908 C0.79200006,7.908,0.39600003,7.704,0.15600002,7.32 C-0.024000049,7.0200005,-0.096000075,6.708,-0.13199997,6.0360003 L-1.0320001,6.0360003 C-0.936,7.2000003,-0.744,7.788,-0.288,8.244 C0.10800004,8.628,0.684,8.844,1.3199999,8.844 C2.796,8.844,3.7680001,7.776,3.7680001,6.132 C3.7680001,5.1000004,3.4320002,4.5360003,2.592,4.152 C3.204,3.8640003,3.5040002,3.288,3.5040002,2.4120002 C3.5040002,1.0560002,2.664,0.1800003,1.3440001,0.1800003 C0.528,0.1800003,-0.096000075,0.5039997,-0.468,1.152 C-0.73200005,1.632,-0.828,2.0640001,-0.864,2.94 L-0.011999965,2.94 C0.07200003,1.632,0.45599997,1.1160002,1.332,1.1160002 C2.112,1.1160002,2.604,1.644,2.604,2.4840002 C2.604,3.348,2.124,3.8400002,1.2720001,3.8400002 C1.164,3.8400002,1.0799999,3.8400002,0.8399999,3.816 z M6.3120003,4.728 C6.4680004,4.728,6.516,4.728,6.696,4.716 L6.816,4.716 C7.752,4.716,8.316,5.292,8.316,6.252 C8.316,7.248,7.7040005,7.908,6.78,7.908 C6.264,7.908,5.868,7.704,5.6280003,7.32 C5.448,7.0200005,5.376,6.708,5.34,6.0360003 L4.44,6.0360003 C4.5360003,7.2000003,4.728,7.788,5.184,8.244 C5.58,8.628,6.156,8.844,6.792,8.844 C8.268,8.844,9.24,7.776,9.24,6.132 C9.24,5.1000004,8.904,4.5360003,8.064,4.152 C8.676001,3.8640003,8.976,3.288,8.976,2.4120002 C8.976,1.0560002,8.136,0.1800003,6.816,0.1800003 C6,0.1800003,5.376,0.5039997,5.004,1.152 C4.7400002,1.632,4.644,2.0640001,4.6080003,2.94 L5.46,2.94 C5.544,1.632,5.928,1.1160002,6.804,1.1160002 C7.584,1.1160002,8.076,1.644,8.076,2.4840002 C8.076,3.348,7.596,3.8400002,6.7440004,3.8400002 C6.636,3.8400002,6.552,3.8400002,6.3120003,3.816 z" fill="#000000" stroke="none" transform="matrix(1 0 0 1 162.37094 568)"/>
<path d="M-6.816,0.1800003 C-8.352,0.1800003,-9.216001,1.7280002,-9.216001,4.5 C-9.216001,7.2720003,-8.364,8.844,-6.84,8.844 C-5.328,8.844,-4.464,7.2720003,-4.464,4.524 C-4.464,1.776,-5.328,0.1800003,-6.816,0.1800003 z M-6.828,1.1160002 C-5.892,1.1160002,-5.388,2.304,-5.388,4.5 C-5.388,6.7320004,-5.892,7.908,-6.84,7.908 C-7.8,7.908,-8.292,6.7440004,-8.292,4.5 C-8.292,2.2680001,-7.788,1.1160002,-6.828,1.1160002 z M-2.22,7.3320003 L-3.252,7.3320003 L-3.252,8.616 L-2.22,8.616 z M3.5879998,2.4240003 C3.5279999,1.8239999,3.4559999,1.5480003,3.264,1.2000003 C2.916,0.55200005,2.28,0.1800003,1.5480001,0.1800003 C-0.047999978,0.1800003,-0.99600005,1.8959999,-0.99600005,4.752 C-0.99600005,7.38,-0.13199997,8.844,1.4159999,8.844 C2.136,8.844,2.628,8.604,3.072,8.028 C3.5279999,7.44,3.7319999,6.78,3.7319999,5.94 C3.7319999,4.3320003,2.8439999,3.2400002,1.536,3.2400002 C0.79200006,3.2400002,0.288,3.5760002,-0.10800004,4.32 C-0.060000062,3.2520003,0.059999943,2.6400003,0.33599997,2.0640001 C0.6359999,1.4159999,1.0320001,1.1160002,1.56,1.1160002 C2.22,1.1160002,2.58,1.5120001,2.736,2.4240003 z M1.464,4.176 C2.292,4.176,2.8319998,4.896,2.8319998,6 C2.8319998,7.1280003,2.28,7.896,1.464,7.896 C0.612,7.896,0.02399993,7.1280003,0.02399993,6.012 C0.02399993,4.884,0.576,4.176,1.464,4.176 z M4.464,1.4040003 L8.280001,1.4040003 C6.768,3.624,5.748,6.228,5.448,8.616 L6.408,8.616 C6.84,5.712,7.788,3.288,9.252001,1.296 L9.252001,0.35999966 L4.464,0.35999966 z" fill="#000000" stroke="none" transform="matrix(1 0 0 1 254.31387 568)"/>
<path d="M-6.0480003,0.1800003 L-6.7200003,0.1800003 C-6.9960003,1.428,-7.2960005,1.6919999,-8.58,1.7880001 L-8.58,2.6280003 L-6.972,2.6280003 L-6.972,8.616 L-6.0480003,8.616 z M-2.22,7.3320003 L-3.252,7.3320003 L-3.252,8.616 L-2.22,8.616 z M1.392,0.1800003 C-0.14400005,0.1800003,-1.008,1.7280002,-1.008,4.5 C-1.008,7.2720003,-0.15600002,8.844,1.368,8.844 C2.88,8.844,3.744,7.2720003,3.744,4.524 C3.744,1.776,2.88,0.1800003,1.392,0.1800003 z M1.3799999,1.1160002 C2.316,1.1160002,2.8200002,2.304,2.8200002,4.5 C2.8200002,6.7320004,2.316,7.908,1.368,7.908 C0.408,7.908,-0.08399999,6.7440004,-0.08399999,4.5 C-0.08399999,2.2680001,0.41999996,1.1160002,1.3799999,1.1160002 z M6.8640003,0.1800003 C5.328,0.1800003,4.464,1.7280002,4.464,4.5 C4.464,7.2720003,5.316,8.844,6.84,8.844 C8.352,8.844,9.216,7.2720003,9.216,4.524 C9.216,1.776,8.352,0.1800003,6.8640003,0.1800003 z M6.852,1.1160002 C7.788,1.1160002,8.292,2.304,8.292,4.5 C8.292,6.7320004,7.788,7.908,6.84,7.908 C5.88,7.908,5.388,6.7440004,5.388,4.5 C5.388,2.2680001,5.892,1.1160002,6.852,1.1160002 z" fill="#000000" stroke="none" transform="matrix(1 0 0 1 346.25684 568)"/>
<path d="M-6.0480003,0.1800003 L-6.7200003,0.1800003 C-6.9960003,1.428,-7.2960005,1.6919999,-8.58,1.7880001 L-8.58,2.6280003 L-6.972,2.6280003 L-6.972,8.616 L-6.0480003,8.616 z M-2.22,7.3320003 L-3.252,7.3320003 L-3.252,8.616 L-2.22,8.616 z M0.8399999,4.728 C0.99600005,4.728,1.0439999,4.728,1.224,4.716 L1.3440001,4.716 C2.28,4.716,2.8439999,5.292,2.8439999,6.252 C2.8439999,7.248,2.232,7.908,1.3080001,7.908 C0.79200006,7.908,0.39600003,7.704,0.15600002,7.32 C-0.024000049,7.0200005,-0.096000075,6.708,-0.13199997,6.0360003 L-1.0320001,6.0360003 C-0.936,7.2000003,-0.744,7.788,-0.288,8.244 C0.10800004,8.628,0.684,8.844,1.3199999,8.844 C2.796,8.844,3.7680001,7.776,3.7680001,6.132 C3.7680001,5.1000004,3.4320002,4.5360003,2.592,4.152 C3.204,3.8640003,3.5040002,3.288,3.5040002,2.4120002 C3.5040002,1.0560002,2.664,0.1800003,1.3440001,0.1800003 C0.528,0.1800003,-0.096000075,0.5039997,-0.468,1.152 C-0.73200005,1.632,-0.828,2.0640001,-0.864,2.94 L-0.011999965,2.94 C0.07200003,1.632,0.45599997,1.1160002,1.332,1.1160002 C2.112,1.1160002,2.604,1.644,2.604,2.4840002 C2.604,3.348,2.124,3.8400002,1.2720001,3.8400002 C1.164,3.8400002,1.0799999,3.8400002,0.8399999,3.816 z M6.3120003,4.728 C6.4680004,4.728,6.516,4.728,6.696,4.716 L6.816,4.716 C7.752,4.716,8.316,5.292,8.316,6.252 C8.316,7.248,7.7040005,7.908,6.78,7.908 C6.264,7.908,5.868,7.704,5.6280003,7.32 C5.448,7.0200005,5.376,6.708,5.34,6.0360003 L4.44,6.0360003 C4.5360003,7.2000003,4.728,7.788,5.184,8.244 C5.58,8.628,6.156,8.844,6.792,8.844 C8.268,8.844,9.24,7.776,9.24,6.132 C9.24,5.1000004,8.904,4.5360003,8.064,4.152 C8.676001,3.8640003,8.976,3.288,8.976,2.4120002 C8.976,1.0560002,8.136,0.1800003,6.816,0.1800003 C6,0.1800003,5.376,0.5039997,5.004,1.152 C4.7400002,1.632,4.644,2.0640001,4.6080003,2.94 L5.46,2.94 C5.544,1.632,5.928,1.1160002,6.804,1.1160002 C7.584,1.1160002,8.076,1.644,8.076,2.4840002 C8.076,3.348,7.596,3.8400002,6.7440004,3.8400002 C6.636,3.8400002,6.552,3.8400002,6.3120003,3.816 z" fill="#000000" stroke="none" transform="matrix(1 0 0 1 438.19974 568)"/>
<path d="M-6.0480003,0.1800003 L-6.7200003,0.1800003 C-6.9960003,1.428,-7.2960005,1.6919999,-8.58,1.7880001 L-8.58,2.6280003 L-6.972,2.6280003 L-6.972,8.616 L-6.0480003,8.616 z M-2.22,7.3320003 L-3.252,7.3320003 L-3.252,8.616 L-2.22,8.616 z M3.5879998,2.4240003 C3.5279999,1.8239999,3.4559999,1.5480003,3.264,1.2000003 C2.916,0.55200005,2.28,0.1800003,1.5480001,0.1800003 C-0.047999978,0.1800003,-0.99600005,1.8959999,-0.99600005,4.752 C-0.99600005,7.38,-0.13199997,8.844,1.4159999,8.844 C2.136,8.844,2.628,8.604,3.072,8.028 C3.5279999,7.44,3.7319999,6.78,3.7319999,5.94 C3.7319999,4.3320003,2.8439999,3.2400002,1.536,3.2400002 C0.79200006,3.2400002,0.288,3.5760002,-0.10800004,4.32 C-0.060000062,3.2520003,0.059999943,2.6400003,0.33599997,2.0640001 C0.6359999,1.4159999,1.0320001,1.1160002,1.56,1.1160002 C2.22,1.1160002,2.58,1.5120001,2.736,2.4240003 z M1.464,4.176 C2.292,4.176,2.8319998,4.896,2.8319998,6 C2.8319998,7.1280003,2.28,7.896,1.464,7.896 C0.612,7.896,0.02399993,7.1280003,0.02399993,6.012 C0.02399993,4.884,0.576,4.176,1.464,4.176 z M4.464,1.4040003 L8.280001,1.4040003 C6.768,3.624,5.748,6.228,5.448,8.616 L6.408,8.616 C6.84,5.712,7.788,3.288,9.252001,1.296 L9.252001,0.35999966 L4.464,0.35999966 z" fill="#000000" stroke="none" transform="matrix(1 0 0 1 530.14264 568)"/>
<path d="M-8.280001,3.204 C-8.208,1.7400002,-7.788,1.1160002,-6.8760004,1.1160002 C-6.0480003,1.1160002,-5.5080004,1.7280002,-5.5080004,2.6880002 C-5.5080004,3.1200004,-5.616,3.492,-5.82,3.7800002 C-5.976,4.0080004,-6.2040005,4.2120004,-6.78,4.62 L-7.7040005,5.268 C-8.784,6.0480003,-9.264,7.044,-9.324,8.616 L-4.584,8.616 L-4.584,7.6200004 L-8.352,7.6200004 C-8.280001,7.044,-7.848,6.4680004,-7.1520004,6 L-6.432,5.5200005 C-5.676,5.016,-5.34,4.716,-5.076,4.368 C-4.7400002,3.9,-4.584,3.3720002,-4.584,2.712 C-4.584,1.1880002,-5.472,0.1800003,-6.804,0.1800003 C-7.632,0.1800003,-8.34,0.5760002,-8.712,1.2360001 C-9.012,1.7520003,-9.12,2.2320004,-9.144,3.204 z M-2.22,7.3320003 L-3.252,7.3320003 L-3.252,8.616 L-2.22,8.616 z M1.392,0.1800003 C-0.14400005,0.1800003,-1.008,1.7280002,-1.008,4.5 C-1.008,7.2720003,-0.15600002,8.844,1.368,8.844 C2.88,8.844,3.744,7.2720003,3.744,4.524 C3.744,1.776,2.88,0.1800003,1.392,0.1800003 z M1.3799999,1.1160002 C2.316,1.1160002,2.8200002,2.304,2.8200002,4.5 C2.8200002,6.7320004,2.316,7.908,1.368,7.908 C0.408,7.908,-0.08399999,6.7440004,-0.08399999,4.5 C-0.08399999,2.2680001,0.41999996,1.1160002,1.3799999,1.1160002 z M6.8640003,0.1800003 C5.328,0.1800003,4.464,1.7280002,4.464,4.5 C4.464,7.2720003,5.316,8.844,6.84,8.844 C8.352,8.844,9.216,7.2720003,9.216,4.524 C9.216,1.776,8.352,0.1800003,6.8640003,0.1800003 z M6.852,1.1160002 C7.788,1.1160002,8.292,2.304,8.292,4.5 C8.292,6.7320004,7.788,7.908,6.84,7.908 C5.88,7.908,5.388,6.7440004,5.388,4.5 C5.388,2.2680001,5.892,1.1160002,6.852,1.1160002 z" fill="#000000" stroke="none" transform="matrix(1 0 0 1 622.0856 568)"/>
<path d="M-8.280001,3.204 C-8.208,1.7400002,-7.788,1.1160002,-6.8760004,1.1160002 C-6.0480003,1.1160002,-5.5080004,1.7280002,-5.5080004,2.6880002 C-5.5080004,3.1200004,-5.616,3.492,-5.82,3.7800002 C-5.976,4.0080004,-6.2040005,4.2120004,-6.78,4.62 L-7.7040005,5.268 C-8.784,6.0480003,-9.264,7.044,-9.324,8.616 L-4.584,8.616 L-4.584,7.6200004 L-8.352,7.6200004 C-8.280001,7.044,-7.848,6.4680004,-7.1520004,6 L-6.432,5.5200005 C-5.676,5.016,-5.34,4.716,-5.076,4.368 C-4.7400002,3.9,-4.584,3.3720002,-4.584,2.712 C-4.584,1.1880002,-5.472,0.1800003,-6.804,0.1800003 C-7.632,0.1800003,-8.34,0.5760002,-8.712,1.2360001 C-9.012,1.7520003,-9.12,2.2320004,-9.144,3.204 z M-2.22,7.3320003 L-3.252,7.3320003 L-3.252,8.616 L-2.22,8.616 z M0.8399999,4.728 C0.99600005,4.728,1.0439999,4.728,1.224,4.716 L1.3440001,4.716 C2.28,4.716,2.8439999,5.292,2.8439999,6.252 C2.8439999,7.248,2.232,7.908,1.3080001,7.908 C0.79200006,7.908,0.39600003,7.704,0.15600002,7.32 C-0.024000049,7.0200005,-0.096000075,6.708,-0.13199997,6.0360003 L-1.0320001,6.0360003 C-0.936,7.2000003,-0.744,7.788,-0.288,8.244 C0.10800004,8.628,0.684,8.844,1.3199999,8.844 C2.796,8.844,3.7680001,7.776,3.7680001,6.132 C3.7680001,5.1000004,3.4320002,4.5360003,2.592,4.152 C3.204,3.8640003,3.5040002,3.288,3.5040002,2.4120002 C3.5040002,1.0560002,2.664,0.1800003,1.3440001,0.1800003 C0.528,0.1800003,-0.096000075,0.5039997,-0.468,1.152 C-0.73200005,1.632,-0.828,2.0640001,-0.864,2.94 L-0.011999965,2.94 C0.07200003,1.632,0.45599997,1.1160002,1.332,1.1160002 C2.112,1.1160002,2.604,1.644,2.604,2.4840002 C2.604,3.348,2.124,3.8400002,1.2720001,3.8400002 C1.164,3.8400002,1.0799999,3.8400002,0.8399999,3.816 z M6.3120003,4.728 C6.4680004,4.728,6.516,4.728,6.696,4.716 L6.816,4.716 C7.752,4.716,8.316,5.292,8.316,6.252 C8.316,7.248,7.7040005,7.908,6.78,7.908 C6.264,7.908,5.868,7.704,5.6280003,7.32 C5.448,7.0200005,5.376,6.708,5.34,6.0360003 L4.44,6.0360003 C4.5360003,7.2000003,4.728,7.788,5.184,8.244 C5.58,8.628,6.156,8.844,6.792,8.844 C8.268,8.844,9.24,7.776,9.24,6.132 C9.24,5.1000004,8.904,4.5360003,8.064,4.152 C8.676001,3.8640003,8.976,3.288,8.976,2.4120002 C8.976,1.0560002,8.136,0.1800003,6.816,0.1800003 C6,0.1800003,5.376,0.5039997,5.004,1.152 C4.7400002,1.632,4.644,2.0640001,4.6080003,2.94 L5.46,2.94 C5.544,1.632,5.928,1.1160002,6.804,1.1160002 C7.584,1.1160002,8.076,1.644,8.076,2.4840002 C8.076,3.348,7.596,3.8400002,6.7440004,3.8400002 C6.636,3.8400002,6.552,3.8400002,6.3120003,3.816 z" fill="#000000" stroke="none" transform="matrix(1 0 0 1 714.0285 568)"/>
<path d="M-11.856001,5.58 L-13.848001,8.004 L-13.344,8.616 L-11.364,6.2040005 L-9.372,8.616 L-8.868,8.004 L-10.848001,5.58 L-8.868,3.1560001 L-9.372,2.5440001 L-11.364,4.9560003 L-13.332001,2.5440001 L-13.848001,3.1560001 z M-0.7680001,3.2280002 L-0.07200003,3.2280002 L-0.07200003,2.3400002 L-5.664,2.3400002 L-5.664,3.2280002 L-4.968,3.2280002 L-4.968,8.616 L-4.104,8.616 L-4.104,3.2280002 L-1.632,3.2280002 L-1.632,8.616 L-0.7680001,8.616 z" fill="#000000" stroke="none" transform="matrix(1 0 0 1 780 584)"/>
<path d="M19.999538,-4 L19.999538,4 M46.19472,-4 L46.19472,4 M72.3899,-4 L72.3899,4 M98.58508,-4 L98.58508,4 M124.780266,-4 L124.780266,4 M150.97545,-4 L150.97545,4 M177.17062,-4 L177.17062,4 M203.36581,-4 L203.36581,4 M229.56099,-4 L229.56099,4" fill="none" stroke="#000000" stroke-width="1" transform="matrix(-0.00000004371139 -1 1 -0.00000004371139 50.428 560)"/>
<path d="M-19.584002,-0.72 L-21.996002,-0.72 L-21.996002,0.36000013 L-19.584002,0.36000013 z M-15.624001,-5.292 L-16.296001,-5.292 C-16.572,-4.044,-16.872,-3.7800002,-18.156,-3.684 L-18.156,-2.8439999 L-16.548,-2.8439999 L-16.548,3.144 L-15.624001,3.144 z M-11.7960005,1.86 L-12.828,1.86 L-12.828,3.144 L-11.7960005,3.144 z M-8.184,-5.292 C-9.72,-5.292,-10.584001,-3.744,-10.584001,-0.9720001 C-10.584001,1.8000001,-9.732,3.372,-8.208,3.372 C-6.696,3.372,-5.8320003,1.8000001,-5.8320003,-0.94799995 C-5.8320003,-3.696,-6.696,-5.292,-8.184,-5.292 z M-8.196,-4.356 C-7.26,-4.356,-6.756,-3.1680002,-6.756,-0.9720001 C-6.756,1.26,-7.26,2.436,-8.208,2.436 C-9.168,2.436,-9.66,1.2720001,-9.66,-0.9720001 C-9.66,-3.204,-9.156,-4.356,-8.196,-4.356 z M-2.7120001,-5.292 C-4.248,-5.292,-5.112,-3.744,-5.112,-0.9720001 C-5.112,1.8000001,-4.26,3.372,-2.736,3.372 C-1.224,3.372,-0.36000013,1.8000001,-0.36000013,-0.94799995 C-0.36000013,-3.696,-1.224,-5.292,-2.7120001,-5.292 z M-2.7240002,-4.356 C-1.7880001,-4.356,-1.2839999,-3.1680002,-1.2839999,-0.9720001 C-1.2839999,1.26,-1.7880001,2.436,-2.736,2.436 C-3.696,2.436,-4.188,1.2720001,-4.188,-0.9720001 C-4.188,-3.204,-3.684,-4.356,-2.7240002,-4.356 z" fill="#000000" stroke="none" transform="matrix(1 0 0 1 42.428 540.0005)"/>
<path d="M-19.584002,-0.72 L-21.996002,-0.72 L-21.996002,0.36000013 L-19.584002,0.36000013 z M-16.392,-5.292 C-17.928001,-5.292,-18.792,-3.744,-18.792,-0.9720001 C-18.792,1.8000001,-17.94,3.372,-16.416,3.372 C-14.904,3.372,-14.040001,1.8000001,-14.040001,-0.94799995 C-14.040001,-3.696,-14.904,-5.292,-16.392,-5.292 z M-16.404001,-4.356 C-15.468,-4.356,-14.964001,-3.1680002,-14.964001,-0.9720001 C-14.964001,1.26,-15.468,2.436,-16.416,2.436 C-17.376,2.436,-17.868,1.2720001,-17.868,-0.9720001 C-17.868,-3.204,-17.364,-4.356,-16.404001,-4.356 z M-11.7960005,1.86 L-12.828,1.86 L-12.828,3.144 L-11.7960005,3.144 z M-10.584001,-4.068 L-6.768,-4.068 C-8.280001,-1.848,-9.3,0.75600004,-9.6,3.144 L-8.64,3.144 C-8.208,0.24000001,-7.26,-2.184,-5.796,-4.176 L-5.796,-5.1120005 L-10.584001,-5.1120005 z M-3.732,-4.068 L-0.8039999,-4.068 L-0.8039999,-5.1120005 L-4.38,-5.1120005 L-4.908,-0.58800006 L-4.152,-0.53999996 C-3.7680001,-1.1040001,-3.384,-1.3439999,-2.868,-1.3439999 C-1.9560001,-1.3439999,-1.3439999,-0.5999999,-1.3439999,0.51600003 C-1.3439999,1.668,-1.9560001,2.448,-2.844,2.448 C-3.3240001,2.448,-3.756,2.244,-3.996,1.8840001 C-4.152,1.656,-4.212,1.452,-4.26,1.0440001 L-5.1600003,1.0440001 C-5.076,1.692,-4.992,1.9920001,-4.788,2.352 C-4.4040003,3.0240002,-3.756,3.372,-2.904,3.372 C-1.3920002,3.372,-0.42000008,2.22,-0.42000008,0.43199992 C-0.42000008,-1.1279998,-1.3800001,-2.2800002,-2.7120001,-2.2800002 C-3.216,-2.2800002,-3.612,-2.124,-4.032,-1.7519999 z" fill="#000000" stroke="none" transform="matrix(1 0 0 1 42.428 513.8053)"/>
<path d="M-19.584002,-0.72 L-21.996002,-0.72 L-21.996002,0.36000013 L-19.584002,0.36000013 z M-16.392,-5.292 C-17.928001,-5.292,-18.792,-3.744,-18.792,-0.9720001 C-18.792,1.8000001,-17.94,3.372,-16.416,3.372 C-14.904,3.372,-14.040001,1.8000001,-14.040001,-0.94799995 C-14.040001,-3.696,-14.904,-5.292,-16.392,-5.292 z M-16.404001,-4.356 C-15.468,-4.356,-14.964001,-3.1680002,-14.964001,-0.9720001 C-14.964001,1.26,-15.468,2.436,-16.416,2.436 C-17.376,2.436,-17.868,1.2720001,-17.868,-0.9720001 C-17.868,-3.204,-17.364,-4.356,-16.404001,-4.356 z M-11.7960005,1.86 L-12.828,1.86 L-12.828,3.144 L-11.7960005,3.144 z M-9.204,-4.068 L-6.276,-4.068 L-6.276,-5.1120005 L-9.852,-5.1120005 L-10.38,-0.58800006 L-9.624001,-0.53999996 C-9.24,-1.1040001,-8.856,-1.3439999,-8.34,-1.3439999 C-7.4280005,-1.3439999,-6.816,-0.5999999,-6.816,0.51600003 C-6.816,1.668,-7.4280005,2.448,-8.316,2.448 C-8.7960005,2.448,-9.228001,2.244,-9.468,1.8840001 C-9.624001,1.656,-9.684,1.452,-9.732,1.0440001 L-10.632,1.0440001 C-10.548,1.692,-10.464001,1.9920001,-10.26,2.352 C-9.876,3.0240002,-9.228001,3.372,-8.376,3.372 C-6.8640003,3.372,-5.892,2.22,-5.892,0.43199992 C-5.892,-1.1279998,-6.852,-2.2800002,-8.184,-2.2800002 C-8.688,-2.2800002,-9.084001,-2.124,-9.504,-1.7519999 z M-2.7120001,-5.292 C-4.248,-5.292,-5.112,-3.744,-5.112,-0.9720001 C-5.112,1.8000001,-4.26,3.372,-2.736,3.372 C-1.224,3.372,-0.36000013,1.8000001,-0.36000013,-0.94799995 C-0.36000013,-3.696,-1.224,-5.292,-2.7120001,-5.292 z M-2.7240002,-4.356 C-1.7880001,-4.356,-1.2839999,-3.1680002,-1.2839999,-0.9720001 C-1.2839999,1.26,-1.7880001,2.436,-2.736,2.436 C-3.696,2.436,-4.188,1.2720001,-4.188,-0.9720001 C-4.188,-3.204,-3.684,-4.356,-2.7240002,-4.356 z" fill="#000000" stroke="none" transform="matrix(1 0 0 1 42.428 487.6101)"/>
<path d="M-19.584002,-0.72 L-21.996002,-0.72 L-21.996002,0.36000013 L-19.584002,0.36000013 z M-16.392,-5.292 C-17.928001,-5.292,-18.792,-3.744,-18.792,-0.9720001 C-18.792,1.8000001,-17.94,3.372,-16.416,3.372 C-14.904,3.372,-14.040001,1.8000001,-14.040001,-0.94799995 C-14.040001,-3.696,-14.904,-5.292,-16.392,-5.292 z M-16.404001,-4.356 C-15.468,-4.356,-14.964001,-3.1680002,-14.964001,-0.9720001 C-14.964001,1.26,-15.468,2.436,-16.416,2.436 C-17.376,2.436,-17.868,1.2720001,-17.868,-0.9720001 C-17.868,-3.204,-17.364,-4.356,-16.404001,-4.356 z M-11.7960005,1.86 L-12.828,1.86 L-12.828,3.144 L-11.7960005,3.144 z M-9.648001,-2.2680001 C-9.576,-3.7319999,-9.156,-4.356,-8.244,-4.356 C-7.4160004,-4.356,-6.8760004,-3.744,-6.8760004,-2.784 C-6.8760004,-2.3519998,-6.984,-1.98,-7.188,-1.6919999 C-7.344,-1.4639997,-7.5720005,-1.2599998,-8.148001,-0.852 L-9.0720005,-0.204 C-10.152,0.576,-10.632,1.572,-10.692,3.144 L-5.952,3.144 L-5.952,2.148 L-9.72,2.148 C-9.648001,1.572,-9.216001,0.99600005,-8.52,0.5280001 L-7.8,0.048000097 C-7.044,-0.4560001,-6.708,-0.75600004,-6.4440002,-1.1040001 C-6.1080003,-1.572,-5.952,-2.1,-5.952,-2.7600002 C-5.952,-4.284,-6.84,-5.292,-8.172,-5.292 C-9,-5.292,-9.708,-4.896,-10.08,-4.236 C-10.38,-3.7199998,-10.488,-3.2399998,-10.512,-2.2680001 z M-3.732,-4.068 L-0.8039999,-4.068 L-0.8039999,-5.1120005 L-4.38,-5.1120005 L-4.908,-0.58800006 L-4.152,-0.53999996 C-3.7680001,-1.1040001,-3.384,-1.3439999,-2.868,-1.3439999 C-1.9560001,-1.3439999,-1.3439999,-0.5999999,-1.3439999,0.51600003 C-1.3439999,1.668,-1.9560001,2.448,-2.844,2.448 C-3.3240001,2.448,-3.756,2.244,-3.996,1.8840001 C-4.152,1.656,-4.212,1.452,-4.26,1.0440001 L-5.1600003,1.0440001 C-5.076,1.692,-4.992,1.9920001,-4.788,2.352 C-4.4040003,3.0240002,-3.756,3.372,-2.904,3.372 C-1.3920002,3.372,-0.42000008,2.22,-0.42000008,0.43199992 C-0.42000008,-1.1279998,-1.3800001,-2.2800002,-2.7120001,-2.2800002 C-3.216,-2.2800002,-3.612,-2.124,-4.032,-1.7519999 z" fill="#000000" stroke="none" transform="matrix(1 0 0 1 42.428 461.41492)"/>
<path d="M-16.392,-5.292 C-17.928001,-5.292,-18.792,-3.744,-18.792,-0.9720001 C-18.792,1.8000001,-17.94,3.372,-16.416,3.372 C-14.904,3.372,-14.040001,1.8000001,-14.040001,-0.94799995 C-14.040001,-3.696,-14.904,-5.292,-16.392,-5.292 z M-16.404001,-4.356 C-15.468,-4.356,-14.964001,-3.1680002,-14.964001,-0.9720001 C-14.964001,1.26,-15.468,2.436,-16.416,2.436 C-17.376,2.436,-17.868,1.2720001,-17.868,-0.9720001 C-17.868,-3.204,-17.364,-4.356,-16.404001,-4.356 z M-11.7960005,1.86 L-12.828,1.86 L-12.828,3.144 L-11.7960005,3.144 z M-8.184,-5.292 C-9.72,-5.292,-10.584001,-3.744,-10.584001,-0.9720001 C-10.584001,1.8000001,-9.732,3.372,-8.208,3.372 C-6.696,3.372,-5.8320003,1.8000001,-5.8320003,-0.94799995 C-5.8320003,-3.696,-6.696,-5.292,-8.184,-5.292 z M-8.196,-4.356 C-7.26,-4.356,-6.756,-3.1680002,-6.756,-0.9720001 C-6.756,1.26,-7.26,2.436,-8.208,2.436 C-9.168,2.436,-9.66,1.2720001,-9.66,-0.9720001 C-9.66,-3.204,-9.156,-4.356,-8.196,-4.356 z M-2.7120001,-5.292 C-4.248,-5.292,-5.112,-3.744,-5.112,-0.9720001 C-5.112,1.8000001,-4.26,3.372,-2.736,3.372 C-1.224,3.372,-0.36000013,1.8000001,-0.36000013,-0.94799995 C-0.36000013,-3.696,-1.224,-5.292,-2.7120001,-5.292 z M-2.7240002,-4.356 C-1.7880001,-4.356,-1.2839999,-3.1680002,-1.2839999,-0.9720001 C-1.2839999,1.26,-1.7880001,2.436,-2.736,2.436 C-3.696,2.436,-4.188,1.2720001,-4.188,-0.9720001 C-4.188,-3.204,-3.684,-4.356,-2.7240002,-4.356 z" fill="#000000" stroke="none" transform="matrix(1 0 0 1 42.428 435.21973)"/>
<path d="M-16.392,-5.292 C-17.928001,-5.292,-18.792,-3.744,-18.792,-0.9720001 C-18.792,1.8000001,-17.94,3.372,-16.416,3.372 C-14.904,3.372,-14.040001,1.8000001,-14.040001,-0.94799995 C-14.040001,-3.696,-14.904,-5.292,-16.392,-5.292 z M-16.404001,-4.356 C-15.468,-4.356,-14.964001,-3.1680002,-14.964001,-0.9720001 C-14.964001,1.26,-15.468,2.436,-16.416,2.436 C-17.376,2.436,-17.868,1.2720001,-17.868,-0.9720001 C-17.868,-3.204,-17.364,-4.356,-16.404001,-4.356 z M-11.7960005,1.86 L-12.828,1.86 L-12.828,3.144 L-11.7960005,3.144 z M-9.648001,-2.2680001 C-9.576,-3.7319999,-9.156,-4.356,-8.244,-4.356 C-7.4160004,-4.356,-6.8760004,-3.744,-6.8760004,-2.784 C-6.8760004,-2.3519998,-6.984,-1.98,-7.188,-1.6919999 C-7.344,-1.4639997,-7.5720005,-1.2599998,-8.148001,-0.852 L-9.0720005,-0.204 C-10.152,0.576,-10.632,1.572,-10.692,3.144 L-5.952,3.144 L-5.952,2.148 L-9.72,2.148 C-9.648001,1.572,-9.216001,0.99600005,-8.52,0.5280001 L-7.8,0.048000097 C-7.044,-0.4560001,-6.708,-0.75600004,-6.4440002,-1.1040001 C-6.1080003,-1.572,-5.952,-2.1,-5.952,-2.7600002 C-5.952,-4.284,-6.84,-5.292,-8.172,-5.292 C-9,-5.292,-9.708,-4.896,-10.08,-4.236 C-10.38,-3.7199998,-10.488,-3.2399998,-10.512,-2.2680001 z M-3.732,-4.068 L-0.8039999,-4.068 L-0.8039999,-5.1120005 L-4.38,-5.1120005 L-4.908,-0.58800006 L-4.152,-0.53999996 C-3.7680001,-1.1040001,-3.384,-1.3439999,-2.868,-1.3439999 C-1.9560001,-1.3439999,-1.3439999,-0.5999999,-1.3439999,0.51600003 C-1.3439999,1.668,-1.9560001,2.448,-2.844,2.448 C-3.3240001,2.448,-3.756,2.244,-3.996,1.8840001 C-4.152,1.656,-4.212,1.452,-4.26,1.0440001 L-5.1600003,1.0440001 C-5.076,1.692,-4.992,1.9920001,-4.788,2.352 C-4.4040003,3.0240002,-3.756,3.372,-2.904,3.372 C-1.3920002,3.372,-0.42000008,2.22,-0.42000008,0.43199992 C-0.42000008,-1.1279998,-1.3800001,-2.2800002,-2.7120001,-2.2800002 C-3.216,-2.2800002,-3.612,-2.124,-4.032,-1.7519999 z" fill="#000000" stroke="none" transform="matrix(1 0 0 1 42.428 409.02454)"/>
<path d="M-16.392,-5.292 C-17.928001,-5.292,-18.792,-3.744,-18.792,-0.9720001 C-18.792,1.8000001,-17.94,3.372,-16.416,3.372 C-14.904,3.372,-14.040001,1.8000001,-14.040001,-0.94799995 C-14.040001,-3.696,-14.904,-5.292,-16.392,-5.292 z M-16.404001,-4.356 C-15.468,-4.356,-14.964001,-3.1680002,-14.964001,-0.9720001 C-14.964001,1.26,-15.468,2.436,-16.416,2.436 C-17.376,2.436,-17.868,1.2720001,-17.868,-0.9720001 C-17.868,-3.204,-17.364,-4.356,-16.404001,-4.356 z M-11.7960005,1.86 L-12.828,1.86 L-12.828,3.144 L-11.7960005,3.144 z M-9.204,-4.068 L-6.276,-4.068 L-6.276,-5.1120005 L-9.852,-5.1120005 L-10.38,-0.58800006 L-9.624001,-0.53999996 C-9.24,-1.1040001,-8.856,-1.3439999,-8.34,-1.3439999 C-7.4280005,-1.3439999,-6.816,-0.5999999,-6.816,0.51600003 C-6.816,1.668,-7.4280005,2.448,-8.316,2.448 C-8.7960005,2.448,-9.228001,2.244,-9.468,1.8840001 C-9.624001,1.656,-9.684,1.452,-9.732,1.0440001 L-10.632,1.0440001 C-10.548,1.692,-10.464001,1.9920001,-10.26,2.352 C-9.876,3.0240002,-9.228001,3.372,-8.376,3.372 C-6.8640003,3.372,-5.892,2.22,-5.892,0.43199992 C-5.892,-1.1279998,-6.852,-2.2800002,-8.184,-2.2800002 C-8.688,-2.2800002,-9.084001,-2.124,-9.504,-1.7519999 z M-2.7120001,-5.292 C-4.248,-5.292,-5.112,-3.744,-5.112,-0.9720001 C-5.112,1.8000001,-4.26,3.372,-2.736,3.372 C-1.224,3.372,-0.36000013,1.8000001,-0.36000013,-0.94799995 C-0.36000013,-3.696,-1.224,-5.292,-2.7120001,-5.292 z M-2.7240002,-4.356 C-1.7880001,-4.356,-1.2839999,-3.1680002,-1.2839999,-0.9720001 C-1.2839999,1.26,-1.7880001,2.436,-2.736,2.436 C-3.696,2.436,-4.188,1.2720001,-4.188,-0.9720001 C-4.188,-3.204,-3.684,-4.356,-2.7240002,-4.356 z" fill="#000000" stroke="none" transform="matrix(1 0 0 1 42.428 382.82938)"/>
<path d="M-16.392,-5.292 C-17.928001,-5.292,-18.792,-3.744,-18.792,-0.9720001 C-18.792,1.8000001,-17.94,3.372,-16.416,3.372 C-14.904,3.372,-14.040001,1.8000001,-14.040001,-0.94799995 C-14.040001,-3.696,-14.904,-5.292,-16.392,-5.292 z M-16.404001,-4.356 C-15.468,-4.356,-14.964001,-3.1680002,-14.964001,-0.9720001 C-14.964001,1.26,-15.468,2.436,-16.416,2.436 C-17.376,2.436,-17.868,1.2720001,-17.868,-0.9720001 C-17.868,-3.204,-17.364,-4.356,-16.404001,-4.356 z M-11.7960005,1.86 L-12.828,1.86 L-12.828,3.144 L-11.7960005,3.144 z M-10.584001,-4.068 L-6.768,-4.068 C-8.280001,-1.848,-9.3,0.75600004,-9.6,3.144 L-8.64,3.144 C-8.208,0.24000001,-7.26,-2.184,-5.796,-4.176 L-5.796,-5.1120005 L-10.584001,-5.1120005 z M-3.732,-4.068 L-0.8039999,-4.068 L-0.8039999,-5.1120005 L-4.38,-5.1120005 L-4.908,-0.58800006 L-4.152,-0.53999996 C-3.7680001,-1.1040001,-3.384,-1.3439999,-2.868,-1.3439999 C-1.9560001,-1.3439999,-1.3439999,-0.5999999,-1.3439999,0.51600003 C-1.3439999,1.668,-1.9560001,2.448,-2.844,2.448 C-3.3240001,2.448,-3.756,2.244,-3.996,1.8840001 C-4.152,1.656,-4.212,1.452,-4.26,1.0440001 L-5.1600003,1.0440001 C-5.076,1.692,-4.992,1.9920001,-4.788,2.352 C-4.4040003,3.0240002,-3.756,3.372,-2.904,3.372 C-1.3920002,3.372,-0.42000008,2.22,-0.42000008,0.43199992 C-0.42000008,-1.1279998,-1.3800001,-2.2800002,-2.7120001,-2.2800002 C-3.216,-2.2800002,-3.612,-2.124,-4.032,-1.7519999 z" fill="#000000" stroke="none" transform="matrix(1 0 0 1 42.428 356.6342)"/>
<path d="M-15.624001,-5.292 L-16.296001,-5.292 C-16.572,-4.044,-16.872,-3.7800002,-18.156,-3.684 L-18.156,-2.8439999 L-16.548,-2.8439999 L-16.548,3.144 L-15.624001,3.144 z M-11.7960005,1.86 L-12.828,1.86 L-12.828,3.144 L-11.7960005,3.144 z M-8.184,-5.292 C-9.72,-5.292,-10.584001,-3.744,-10.584001,-0.9720001 C-10.584001,1.8000001,-9.732,3.372,-8.208,3.372 C-6.696,3.372,-5.8320003,1.8000001,-5.8320003,-0.94799995 C-5.8320003,-3.696,-6.696,-5.292,-8.184,-5.292 z M-8.196,-4.356 C-7.26,-4.356,-6.756,-3.1680002,-6.756,-0.9720001 C-6.756,1.26,-7.26,2.436,-8.208,2.436 C-9.168,2.436,-9.66,1.2720001,-9.66,-0.9720001 C-9.66,-3.204,-9.156,-4.356,-8.196,-4.356 z M-2.7120001,-5.292 C-4.248,-5.292,-5.112,-3.744,-5.112,-0.9720001 C-5.112,1.8000001,-4.26,3.372,-2.736,3.372 C-1.224,3.372,-0.36000013,1.8000001,-0.36000013,-0.94799995 C-0.36000013,-3.696,-1.224,-5.292,-2.7120001,-5.292 z M-2.7240002,-4.356 C-1.7880001,-4.356,-1.2839999,-3.1680002,-1.2839999,-0.9720001 C-1.2839999,1.26,-1.7880001,2.436,-2.736,2.436 C-3.696,2.436,-4.188,1.2720001,-4.188,-0.9720001 C-4.188,-3.204,-3.684,-4.356,-2.7240002,-4.356 z" fill="#000000" stroke="none" transform="matrix(1 0 0 1 42.428 330.43903)"/>
<rect fill="none" height="249.56" stroke="#000000" stroke-width="1" width="729.572" x="50.428" y="310.44"/>
</svg>